<svg xmlns="http://www.w3.org/2000/svg" xmlns:xlink="http://www.w3.org/1999/xlink" width="1390" height="600" viewBox="0 0 1390 600">
  <defs>
    <clipPath id="clip-path">
      <rect id="Rectangle_36236" data-name="Rectangle 36236" width="1390" height="600" transform="translate(4736 -13573)" fill="#ffd947" opacity="0.15"/>
    </clipPath>
    <linearGradient id="linear-gradient" y1="0.5" x2="1" y2="0.5" gradientUnits="objectBoundingBox">
      <stop offset="0" stop-color="#0077ec"/>
      <stop offset="1" stop-color="#03e6b0"/>
    </linearGradient>
    <linearGradient id="linear-gradient-2" x1="0.301" y1="-0.111" x2="0.549" y2="0.667" xlink:href="#linear-gradient"/>
    <linearGradient id="linear-gradient-4" x1="1.084" y1="0" x2="-0.064" y2="1.047" xlink:href="#linear-gradient"/>
    <linearGradient id="linear-gradient-5" x1="-0.036" y1="0.5" x2="7.015" y2="0.5" xlink:href="#linear-gradient"/>
    <linearGradient id="linear-gradient-6" x1="-3.036" y1="0.5" x2="4.015" y2="0.5" xlink:href="#linear-gradient"/>
    <linearGradient id="linear-gradient-7" x1="-6.036" y1="0.5" x2="1.015" y2="0.5" xlink:href="#linear-gradient"/>
  </defs>
  <g id="bg-curves2" transform="translate(-4736 13573)" clip-path="url(#clip-path)">
    <g id="Group_108561" data-name="Group 108561">
      <path id="Path_165508" data-name="Path 165508" d="M545.913,312.482c-18.344-25.931-31.707-58.281-45.881-94.442C459.765,115.306,416.02-7.286,322.226.339,218.132,8.8,118.68,88.126,50.654,203.61A634.443,634.443,0,0,0,0,312.482Z" transform="translate(5812.209 -13027.087) rotate(-90)" fill="url(#linear-gradient)"/>
      <path id="Path_165509" data-name="Path 165509" d="M0,213.767C18.344,196.028,31.707,173.9,45.881,149.16,86.148,78.88,129.892-4.984,223.687.232,327.78,6.022,427.233,60.286,495.258,139.288a391.917,391.917,0,0,1,50.654,74.479Z" transform="translate(5928.833 -12963.927) rotate(-90)" fill="url(#linear-gradient-2)"/>
      <path id="Path_165557" data-name="Path 165557" d="M679.54,0V233.412H0c37.015-79.455,118.785-126.465,207.718-121.571,63.2,3.479,122.647,24.677,186.388,23.483,80.428-1.489,161.151-26.755,225.378-75.785C642.186,42.2,661.865,21.979,679.54,0Z" transform="translate(4936.349 -13642.598) rotate(90)" fill="url(#linear-gradient)"/>
      <path id="Path_165556" data-name="Path 165556" d="M679.54,0V233.412H0c37.015-79.455,118.785-126.465,207.718-121.571,63.2,3.479,122.647,24.677,186.388,23.483,80.428-1.489,161.151-26.755,225.378-75.785C642.186,42.2,661.865,21.979,679.54,0Z" transform="translate(4907.016 -13394.691) rotate(90)" fill="url(#linear-gradient-4)"/>
      <g id="Group_108527" data-name="Group 108527" transform="translate(6051 -13355.986) rotate(-90)">
        <g id="Group_108526" data-name="Group 108526" transform="translate(0)">
          <g id="Group_108515" data-name="Group 108515">
            <g id="Group_108514" data-name="Group 108514">
              <path id="Path_165512" data-name="Path 165512" d="M15.7,0a2.212,2.212,0,0,0-1.622.669L.738,14.005A2.122,2.122,0,0,0,0,15.629a2.146,2.146,0,0,0,.77,1.65L14.075,30.586a2.3,2.3,0,0,0,3.243,0l1.514-1.512a2.355,2.355,0,0,0,.7-1.59,2.128,2.128,0,0,0-.634-1.654L8.7,15.629l10.2-10.2a2.131,2.131,0,0,0,.634-1.655,2.355,2.355,0,0,0-.7-1.59L17.319.669A2.21,2.21,0,0,0,15.7,0Zm-.715,29.68L1.646,16.342a.889.889,0,0,1-.362-.714.856.856,0,0,1,.331-.687L14.982,1.576a1,1,0,0,1,1.431,0l1.512,1.512a1.078,1.078,0,0,1,.329.747.834.834,0,0,1-.261.684L6.884,15.629,17.993,26.737a.834.834,0,0,1,.261.684,1.079,1.079,0,0,1-.329.747L16.412,29.68a1,1,0,0,1-1.431,0Z" fill="#fff"/>
            </g>
          </g>
          <g id="Group_108517" data-name="Group 108517" transform="translate(30.181)">
            <g id="Group_108516" data-name="Group 108516">
              <path id="Path_165513" data-name="Path 165513" d="M15.7,0a2.215,2.215,0,0,0-1.623.669L.738,14.005A2.116,2.116,0,0,0,0,15.629a2.14,2.14,0,0,0,.769,1.65l13.3,13.307a2.3,2.3,0,0,0,3.245,0l1.512-1.514a2.348,2.348,0,0,0,.7-1.59,2.132,2.132,0,0,0-.633-1.654L8.7,15.629l10.2-10.2a2.136,2.136,0,0,0,.633-1.655,2.348,2.348,0,0,0-.7-1.59L17.319.669A2.217,2.217,0,0,0,15.7,0Zm-.715,29.68L1.644,16.342a.891.891,0,0,1-.361-.714.855.855,0,0,1,.331-.687L14.982,1.576a1,1,0,0,1,1.431,0l1.512,1.512a1.077,1.077,0,0,1,.328.747.834.834,0,0,1-.259.684L6.884,15.629,17.993,26.737a.834.834,0,0,1,.259.684,1.077,1.077,0,0,1-.328.747L16.413,29.68a1,1,0,0,1-1.431,0Z" fill="#fff"/>
            </g>
          </g>
          <g id="Group_108519" data-name="Group 108519" transform="translate(60.362)">
            <g id="Group_108518" data-name="Group 108518" transform="translate(0)">
              <path id="Path_165514" data-name="Path 165514" d="M15.7,0a2.215,2.215,0,0,0-1.623.669L.738,14.005A2.116,2.116,0,0,0,0,15.629a2.144,2.144,0,0,0,.768,1.65L14.074,30.586a2.3,2.3,0,0,0,3.245,0l1.512-1.512a2.348,2.348,0,0,0,.7-1.59,2.128,2.128,0,0,0-.634-1.654L8.7,15.629l10.2-10.2a2.131,2.131,0,0,0,.634-1.655,2.348,2.348,0,0,0-.7-1.59L17.319.669A2.214,2.214,0,0,0,15.7,0Zm-.715,29.68L1.644,16.342a.894.894,0,0,1-.362-.714.861.861,0,0,1,.33-.687L14.982,1.576a1,1,0,0,1,1.429,0l1.514,1.512a1.076,1.076,0,0,1,.327.747.833.833,0,0,1-.259.684L6.883,15.629l11.11,11.109a.833.833,0,0,1,.259.684,1.076,1.076,0,0,1-.327.747L16.411,29.68a1,1,0,0,1-1.429,0Z" fill="#fff"/>
            </g>
          </g>
          <g id="Group_108521" data-name="Group 108521" transform="translate(90.541)">
            <g id="Group_108520" data-name="Group 108520" transform="translate(0)">
              <path id="Path_165515" data-name="Path 165515" d="M15.7,0a2.212,2.212,0,0,0-1.622.669L.738,14.005A2.118,2.118,0,0,0,0,15.629a2.145,2.145,0,0,0,.77,1.65L14.075,30.586a2.3,2.3,0,0,0,3.243,0l1.514-1.512a2.355,2.355,0,0,0,.7-1.59,2.128,2.128,0,0,0-.634-1.654L8.7,15.629l10.2-10.2a2.132,2.132,0,0,0,.634-1.655,2.355,2.355,0,0,0-.7-1.59L17.319.669A2.212,2.212,0,0,0,15.7,0Zm0,29.974a.953.953,0,0,1-.715-.294L1.646,16.342a.889.889,0,0,1-.363-.714.855.855,0,0,1,.331-.687L14.982,1.576a1,1,0,0,1,1.431,0l1.512,1.512a1.072,1.072,0,0,1,.329.747.839.839,0,0,1-.259.684L6.884,15.629l11.11,11.109a.839.839,0,0,1,.259.684,1.072,1.072,0,0,1-.329.747L16.413,29.68A.954.954,0,0,1,15.7,29.974Z" fill="#fff"/>
            </g>
          </g>
          <g id="Group_108523" data-name="Group 108523" transform="translate(120.722)">
            <g id="Group_108522" data-name="Group 108522" transform="translate(0)">
              <path id="Path_165516" data-name="Path 165516" d="M15.7,0a2.212,2.212,0,0,0-1.622.669L.738,14.005A2.118,2.118,0,0,0,0,15.629a2.149,2.149,0,0,0,.768,1.65L14.075,30.586a2.3,2.3,0,0,0,3.243,0l1.512-1.512a2.345,2.345,0,0,0,.7-1.59,2.121,2.121,0,0,0-.633-1.654L8.7,15.629l10.2-10.2a2.125,2.125,0,0,0,.633-1.655,2.342,2.342,0,0,0-.7-1.59L17.319.669A2.215,2.215,0,0,0,15.7,0Zm0,29.974a.954.954,0,0,1-.715-.294L1.644,16.342a.891.891,0,0,1-.361-.714.855.855,0,0,1,.331-.687L14.982,1.576a1,1,0,0,1,1.431,0l1.512,1.512a1.077,1.077,0,0,1,.327.749.832.832,0,0,1-.259.682L6.884,15.629,17.993,26.737a.834.834,0,0,1,.259.684,1.077,1.077,0,0,1-.327.747L16.412,29.68A.959.959,0,0,1,15.7,29.974Z" fill="#fff"/>
            </g>
          </g>
          <g id="Group_108525" data-name="Group 108525" transform="translate(150.902)">
            <g id="Group_108524" data-name="Group 108524" transform="translate(0)">
              <path id="Path_165517" data-name="Path 165517" d="M15.7,0a2.217,2.217,0,0,0-1.622.669L.738,14.005A2.118,2.118,0,0,0,0,15.629a2.145,2.145,0,0,0,.77,1.65L14.075,30.588a2.3,2.3,0,0,0,3.245,0l1.512-1.512a2.352,2.352,0,0,0,.7-1.59,2.129,2.129,0,0,0-.634-1.655L8.7,15.629l10.2-10.2a2.13,2.13,0,0,0,.634-1.655,2.35,2.35,0,0,0-.7-1.59L17.32.669A2.216,2.216,0,0,0,15.7,0Zm-.715,29.68L1.646,16.342a.889.889,0,0,1-.362-.714.853.853,0,0,1,.332-.687L14.982,1.576a1,1,0,0,1,1.431,0l1.513,1.512a1.077,1.077,0,0,1,.328.749.837.837,0,0,1-.259.682L6.886,15.629,17.995,26.737a.838.838,0,0,1,.259.684,1.076,1.076,0,0,1-.328.747L16.413,29.68a1,1,0,0,1-1.431,0Z" fill="#fff"/>
            </g>
          </g>
        </g>
      </g>
      <g id="Group_108556" data-name="Group 108556" transform="translate(5023.606 -13057.01) rotate(90)">
        <ellipse id="Ellipse_5029" data-name="Ellipse 5029" cx="3.282" cy="3.282" rx="3.282" ry="3.282" transform="translate(0 98.445)" fill="url(#linear-gradient-5)"/>
        <ellipse id="Ellipse_5030" data-name="Ellipse 5030" cx="3.282" cy="3.282" rx="3.282" ry="3.282" transform="translate(19.689 98.445)" fill="url(#linear-gradient-6)"/>
        <ellipse id="Ellipse_5031" data-name="Ellipse 5031" cx="3.282" cy="3.282" rx="3.282" ry="3.282" transform="translate(39.378 98.445)" fill="url(#linear-gradient-7)"/>
        <ellipse id="Ellipse_5032" data-name="Ellipse 5032" cx="3.282" cy="3.282" rx="3.282" ry="3.282" transform="translate(0 78.756)" fill="url(#linear-gradient-5)"/>
        <ellipse id="Ellipse_5033" data-name="Ellipse 5033" cx="3.282" cy="3.282" rx="3.282" ry="3.282" transform="translate(0 59.067)" fill="url(#linear-gradient-5)"/>
        <ellipse id="Ellipse_5034" data-name="Ellipse 5034" cx="3.282" cy="3.282" rx="3.282" ry="3.282" transform="translate(0 39.378)" fill="url(#linear-gradient-5)"/>
        <ellipse id="Ellipse_5035" data-name="Ellipse 5035" cx="3.282" cy="3.282" rx="3.282" ry="3.282" transform="translate(0 19.689)" fill="url(#linear-gradient-5)"/>
        <ellipse id="Ellipse_5036" data-name="Ellipse 5036" cx="3.282" cy="3.282" rx="3.282" ry="3.282" transform="translate(0 0)" fill="url(#linear-gradient-5)"/>
        <ellipse id="Ellipse_5037" data-name="Ellipse 5037" cx="3.282" cy="3.282" rx="3.282" ry="3.282" transform="translate(19.689 78.756)" fill="url(#linear-gradient-6)"/>
        <ellipse id="Ellipse_5038" data-name="Ellipse 5038" cx="3.282" cy="3.282" rx="3.282" ry="3.282" transform="translate(19.689 59.067)" fill="url(#linear-gradient-6)"/>
        <ellipse id="Ellipse_5039" data-name="Ellipse 5039" cx="3.282" cy="3.282" rx="3.282" ry="3.282" transform="translate(19.689 39.378)" fill="url(#linear-gradient-6)"/>
        <ellipse id="Ellipse_5040" data-name="Ellipse 5040" cx="3.282" cy="3.282" rx="3.282" ry="3.282" transform="translate(19.689 19.689)" fill="url(#linear-gradient-6)"/>
        <ellipse id="Ellipse_5041" data-name="Ellipse 5041" cx="3.282" cy="3.282" rx="3.282" ry="3.282" transform="translate(19.689 0)" fill="url(#linear-gradient-6)"/>
        <ellipse id="Ellipse_5042" data-name="Ellipse 5042" cx="3.282" cy="3.282" rx="3.282" ry="3.282" transform="translate(39.378 78.756)" fill="url(#linear-gradient-7)"/>
        <ellipse id="Ellipse_5043" data-name="Ellipse 5043" cx="3.282" cy="3.282" rx="3.282" ry="3.282" transform="translate(39.378 59.067)" fill="url(#linear-gradient-7)"/>
        <ellipse id="Ellipse_5044" data-name="Ellipse 5044" cx="3.282" cy="3.282" rx="3.282" ry="3.282" transform="translate(39.378 39.378)" fill="url(#linear-gradient-7)"/>
        <ellipse id="Ellipse_5045" data-name="Ellipse 5045" cx="3.282" cy="3.282" rx="3.282" ry="3.282" transform="translate(39.378 19.689)" fill="url(#linear-gradient-7)"/>
        <ellipse id="Ellipse_5046" data-name="Ellipse 5046" cx="3.282" cy="3.282" rx="3.282" ry="3.282" transform="translate(39.378 0)" fill="url(#linear-gradient-7)"/>
      </g>
      <path id="Path_165530" data-name="Path 165530" d="M850.716-169.843a3.738,3.738,0,0,1-.1,1.044c-.935,8.614-7.543,15.7-16.648,15.7a16.946,16.946,0,0,1-16.751-16.749,16.913,16.913,0,0,1,16.032-16.713c9.382-.4,16.395,6.765,17.363,15.657A3.589,3.589,0,0,1,850.716-169.843Zm-26.406,0c0,12.483,18.644,12.373,19.312,0C842.956-182.212,824.31-182.319,824.31-169.843Z" transform="translate(5114.995 -13359.988)" fill="url(#linear-gradient)"/>
      <path id="Path_165531" data-name="Path 165531" d="M850.716-169.843a3.738,3.738,0,0,1-.1,1.044c-.935,8.614-7.543,15.7-16.648,15.7a16.946,16.946,0,0,1-16.751-16.749,16.913,16.913,0,0,1,16.032-16.713c9.382-.4,16.395,6.765,17.363,15.657A3.589,3.589,0,0,1,850.716-169.843Zm-26.406,0c0,12.483,18.644,12.373,19.312,0C842.956-182.212,824.31-182.319,824.31-169.843Z" transform="translate(5068.134 -12873.993)" fill="url(#linear-gradient)"/>
      <path id="Path_165558" data-name="Path 165558" d="M850.716-169.843a3.738,3.738,0,0,1-.1,1.044c-.935,8.614-7.543,15.7-16.648,15.7a16.946,16.946,0,0,1-16.751-16.749,16.913,16.913,0,0,1,16.032-16.713c9.382-.4,16.395,6.765,17.363,15.657A3.589,3.589,0,0,1,850.716-169.843Zm-26.406,0c0,12.483,18.644,12.373,19.312,0C842.956-182.212,824.31-182.319,824.31-169.843Z" transform="translate(4022.452 -13364.988)" fill="url(#linear-gradient)"/>
      <g id="Group_108560" data-name="Group 108560" transform="translate(4754.088 -13510.477)">
        <ellipse id="Ellipse_5047" data-name="Ellipse 5047" cx="2.587" cy="2.587" rx="2.587" ry="2.587" transform="translate(0 77.618)" fill="#fff"/>
        <ellipse id="Ellipse_5048" data-name="Ellipse 5048" cx="2.587" cy="2.587" rx="2.587" ry="2.587" transform="translate(15.524 77.618)" fill="#fff"/>
        <ellipse id="Ellipse_5049" data-name="Ellipse 5049" cx="2.587" cy="2.587" rx="2.587" ry="2.587" transform="translate(31.047 77.618)" fill="#fff"/>
        <ellipse id="Ellipse_5050" data-name="Ellipse 5050" cx="2.587" cy="2.587" rx="2.587" ry="2.587" transform="translate(0 62.095)" fill="#fff"/>
        <ellipse id="Ellipse_5051" data-name="Ellipse 5051" cx="2.587" cy="2.587" rx="2.587" ry="2.587" transform="translate(0 46.571)" fill="#fff"/>
        <ellipse id="Ellipse_5052" data-name="Ellipse 5052" cx="2.587" cy="2.587" rx="2.587" ry="2.587" transform="translate(0 31.047)" fill="#fff"/>
        <ellipse id="Ellipse_5053" data-name="Ellipse 5053" cx="2.587" cy="2.587" rx="2.587" ry="2.587" transform="translate(0 15.524)" fill="#fff"/>
        <ellipse id="Ellipse_5054" data-name="Ellipse 5054" cx="2.587" cy="2.587" rx="2.587" ry="2.587" transform="translate(0 0)" fill="#fff"/>
        <ellipse id="Ellipse_5055" data-name="Ellipse 5055" cx="2.587" cy="2.587" rx="2.587" ry="2.587" transform="translate(15.524 62.095)" fill="#fff"/>
        <ellipse id="Ellipse_5056" data-name="Ellipse 5056" cx="2.587" cy="2.587" rx="2.587" ry="2.587" transform="translate(15.524 46.571)" fill="#fff"/>
        <ellipse id="Ellipse_5057" data-name="Ellipse 5057" cx="2.587" cy="2.587" rx="2.587" ry="2.587" transform="translate(15.524 31.047)" fill="#fff"/>
        <ellipse id="Ellipse_5058" data-name="Ellipse 5058" cx="2.587" cy="2.587" rx="2.587" ry="2.587" transform="translate(15.524 15.524)" fill="#fff"/>
        <ellipse id="Ellipse_5059" data-name="Ellipse 5059" cx="2.587" cy="2.587" rx="2.587" ry="2.587" transform="translate(15.524 0)" fill="#fff"/>
        <ellipse id="Ellipse_5060" data-name="Ellipse 5060" cx="2.587" cy="2.587" rx="2.587" ry="2.587" transform="translate(31.047 62.095)" fill="#fff"/>
        <ellipse id="Ellipse_5061" data-name="Ellipse 5061" cx="2.587" cy="2.587" rx="2.587" ry="2.587" transform="translate(31.047 46.571)" fill="#fff"/>
        <ellipse id="Ellipse_5062" data-name="Ellipse 5062" cx="2.587" cy="2.587" rx="2.587" ry="2.587" transform="translate(31.047 31.047)" fill="#fff"/>
        <ellipse id="Ellipse_5063" data-name="Ellipse 5063" cx="2.587" cy="2.587" rx="2.587" ry="2.587" transform="translate(31.047 15.524)" fill="#fff"/>
        <ellipse id="Ellipse_5064" data-name="Ellipse 5064" cx="2.587" cy="2.587" rx="2.587" ry="2.587" transform="translate(31.047 0)" fill="#fff"/>
      </g>
      <path id="Path_165559" data-name="Path 165559" d="M482.731-184.864a3.02,3.02,0,0,1-.083.844c-.755,6.959-6.094,12.688-13.45,12.688a13.691,13.691,0,0,1-13.533-13.531,13.664,13.664,0,0,1,12.951-13.5c7.581-.319,13.246,5.466,14.03,12.648A2.974,2.974,0,0,1,482.731-184.864Zm-21.334,0c0,10.085,15.063,10,15.6,0C476.46-194.857,461.4-194.946,461.4-184.864Z" transform="translate(5556.358 -13256.351)" fill="#fff"/>
      <g id="Group_108559" data-name="Group 108559" transform="translate(5820.654 -13215.638)">
        <path id="Path_165546" data-name="Path 165546" d="M458.241-234.489l6.908-6.908a78.285,78.285,0,0,1,15.188-10.537L447.7-219.3A78.083,78.083,0,0,1,458.241-234.489Z" transform="translate(-438.701 260.938)" fill="#004080"/>
        <path id="Path_165547" data-name="Path 165547" d="M444.11-197.009l69.22-69.22c1.684-.187,3.372-.333,5.065-.411l-74.7,74.7C443.776-193.635,443.924-195.323,444.11-197.009Z" transform="translate(-443.699 266.64)" fill="#004080"/>
        <path id="Path_165548" data-name="Path 165548" d="M444.264-184.857l91.558-91.556q1.925.361,3.837.816l-94.578,94.578Q444.624-182.928,444.264-184.857Z" transform="translate(-442.994 277.685)" fill="#004080"/>
        <path id="Path_165549" data-name="Path 165549" d="M446.846-180.208,550.854-284.216c1.052.483,2.091,1,3.122,1.531l-105.6,105.6C447.844-178.117,447.329-179.156,446.846-180.208Z" transform="translate(-439.772 291.291)" fill="#004080"/>
        <path id="Path_165550" data-name="Path 165550" d="M450.884-180.728,560.793-290.637c.87.67,1.733,1.358,2.581,2.07l-110.42,110.42Q451.886-179.418,450.884-180.728Z" transform="translate(-434.732 306.789)" fill="#004080"/>
        <path id="Path_165551" data-name="Path 165551" d="M456.119-185.449,566.548-295.878q1.069,1.275,2.075,2.581L458.7-183.374C457.828-184.047,456.966-184.734,456.119-185.449Z" transform="translate(-428.198 323.799)" fill="#004080"/>
        <path id="Path_165552" data-name="Path 165552" d="M462.534-194.282l105.64-105.64c.533,1.032,1.05,2.07,1.533,3.12L465.654-192.751C464.6-193.234,463.566-193.749,462.534-194.282Z" transform="translate(-420.192 342.266)" fill="#004080"/>
        <path id="Path_165553" data-name="Path 165553" d="M470.33-207.862l94.647-94.65q.462,1.908.821,3.833l-91.635,91.637Q472.237-207.406,470.33-207.862Z" transform="translate(-410.462 362.38)" fill="#004080"/>
        <path id="Path_165554" data-name="Path 165554" d="M480.091-228.271l74.815-74.815c-.074,1.686-.216,3.372-.4,5.051l-69.363,69.363C483.463-228.489,481.779-228.348,480.091-228.271Z" transform="translate(-398.28 384.899)" fill="#004080"/>
        <path id="Path_165555" data-name="Path 165555" d="M509.39-276.119a78.19,78.19,0,0,1-14.651,9.995l33.015-33.015a78.02,78.02,0,0,1-10,14.651Z" transform="translate(-379.999 413.879)" fill="#004080"/>
      </g>
    </g>
  </g>
</svg>
