<svg xmlns="http://www.w3.org/2000/svg" width="732.967" height="314.972" viewBox="0 0 732.967 314.972">
  <g id="bg-gray" transform="translate(-434.001 -3179.513)">
    <g id="Group_109755" data-name="Group 109755" transform="translate(669.569 3298.307)">
      <g id="Group_109717" data-name="Group 109717" transform="translate(-235.568 -95.569)" opacity="0.85">
        <g id="Group_109716" data-name="Group 109716">
          <g id="Group_109694" data-name="Group 109694" transform="translate(15.178 4.08)">
            <g id="Group_109681" data-name="Group 109681" transform="translate(23.786 111.064)">
              <path id="Path_167806" data-name="Path 167806" d="M-59.942-31.094H-220.661v-1.96H-60.754l32.8-32.8H130.506v1.96H-27.14Z" transform="translate(220.661 65.856)" fill="#f6f6f6"/>
            </g>
            <g id="Group_109682" data-name="Group 109682" transform="translate(57.049 128.118)">
              <path id="Path_167807" data-name="Path 167807" d="M-140-27.608h-67.934v-.653h67.663l31.07-31.07H109.969v.653h-218.9Z" transform="translate(207.935 59.332)" fill="#f6f6f6"/>
            </g>
            <g id="Group_109683" data-name="Group 109683" transform="translate(84.154 34.486)">
              <path id="Path_167808" data-name="Path 167808" d="M76.542-9.569H-4.277L-53.4-58.7h-61.137l-35.8-35.8h-47.22v-.653h47.49l35.8,35.8h61.137L-4.007-10.222H76.542Z" transform="translate(197.565 95.153)" fill="#f6f6f6"/>
            </g>
            <g id="Group_109684" data-name="Group 109684" transform="translate(57.049 94.512)">
              <rect id="Rectangle_36382" data-name="Rectangle 36382" width="301.212" height="1.96" fill="#f6f6f6"/>
            </g>
            <g id="Group_109685" data-name="Group 109685" transform="translate(99.315 144.519)">
              <path id="Path_167809" data-name="Path 167809" d="M-86.522-2.279H-191.765v-.653H-86.793l50.124-50.124H67.181v.653H-36.4Z" transform="translate(191.765 53.057)" fill="#f6f6f6"/>
            </g>
            <g id="Group_109686" data-name="Group 109686" transform="translate(80.119 158.534)">
              <path id="Path_167810" data-name="Path 167810" d="M-85.352-27.073H-199.109v-1.96H-86.164L-67.5-47.695H86.545v1.96H-66.69Z" transform="translate(199.109 47.695)" fill="#f6f6f6"/>
            </g>
            <g id="Group_109687" data-name="Group 109687" transform="translate(32.549)">
              <path id="Path_167811" data-name="Path 167811" d="M-29.946-51.723h-96.8l-54.665-54.664h-35.9v-1.96H-180.6l54.665,54.664h95.987Z" transform="translate(217.309 108.347)" fill="#f6f6f6"/>
            </g>
            <g id="Group_109688" data-name="Group 109688" transform="translate(45.068 203.872)">
              <path id="Path_167812" data-name="Path 167812" d="M-146.87.766h-65.649V.113h65.378l30.462-30.462h46.424v.653h-46.154Z" transform="translate(212.519 30.349)" fill="#f6f6f6"/>
            </g>
            <g id="Group_109689" data-name="Group 109689" transform="translate(3.339 218.45)">
              <path id="Path_167813" data-name="Path 167813" d="M-191.252,17.145h-37.231v-1.96h36.42l39.955-39.956h88.037v1.96H-151.3Z" transform="translate(228.484 24.772)" fill="#f6f6f6"/>
            </g>
            <g id="Group_109690" data-name="Group 109690" transform="translate(0 61.342)">
              <path id="Path_167814" data-name="Path 167814" d="M-87.048-62.889h-52.985l-20.03-20.03h-69.7v-1.96h70.51l20.03,20.03h52.173Z" transform="translate(229.761 84.879)" fill="#f6f6f6"/>
            </g>
            <g id="Group_109691" data-name="Group 109691" transform="translate(32.549 72.009)">
              <rect id="Rectangle_36383" data-name="Rectangle 36383" width="83.651" height="0.653" fill="#f6f6f6"/>
            </g>
            <g id="Group_109692" data-name="Group 109692" transform="translate(139.374 177.849)">
              <path id="Path_167815" data-name="Path 167815" d="M-131.39,22.262h-45.049v-.653h44.778l61.913-61.913H49.96v.653H-69.477Z" transform="translate(176.439 40.305)" fill="#f6f6f6"/>
            </g>
            <g id="Group_109693" data-name="Group 109693" transform="translate(160.239 34.6)">
              <path id="Path_167816" data-name="Path 167816" d="M47.092-52.1H-65.1l-42.352-42.352h-61v-.653h61.271l42.352,42.352H47.092Z" transform="translate(168.457 95.11)" fill="#f6f6f6"/>
            </g>
          </g>
          <g id="Group_109695" data-name="Group 109695" transform="translate(177.87 218.449)">
            <path id="Path_167817" data-name="Path 167817" d="M-167.518-21.273a5.059,5.059,0,0,1,5.058-5.06,5.061,5.061,0,0,1,5.06,5.06,5.061,5.061,0,0,1-5.06,5.06A5.059,5.059,0,0,1-167.518-21.273Z" transform="translate(167.518 26.333)" fill="#f6f6f6"/>
          </g>
          <g id="Group_109696" data-name="Group 109696" transform="translate(156.537 81.371)">
            <path id="Path_167818" data-name="Path 167818" d="M-175.68-73.717a5.059,5.059,0,0,1,5.058-5.06,5.061,5.061,0,0,1,5.06,5.06,5.061,5.061,0,0,1-5.06,5.06A5.059,5.059,0,0,1-175.68-73.717Z" transform="translate(175.68 78.777)" fill="#f6f6f6"/>
          </g>
          <g id="Group_109697" data-name="Group 109697" transform="translate(230.03 54.665)">
            <circle id="Ellipse_5361" data-name="Ellipse 5361" cx="5.06" cy="5.06" r="5.06" fill="#f6f6f6"/>
          </g>
          <g id="Group_109698" data-name="Group 109698" transform="translate(0 124.037)">
            <circle id="Ellipse_5362" data-name="Ellipse 5362" cx="5.06" cy="5.06" r="5.06" fill="#f6f6f6"/>
          </g>
          <g id="Group_109699" data-name="Group 109699" transform="translate(67.169 94.512)">
            <circle id="Ellipse_5363" data-name="Ellipse 5363" cx="5.06" cy="5.06" r="5.06" fill="#f6f6f6"/>
          </g>
          <g id="Group_109700" data-name="Group 109700" transform="translate(57.162 235.657)">
            <circle id="Ellipse_5364" data-name="Ellipse 5364" cx="3.084" cy="3.084" r="3.084" transform="translate(0 0)" fill="#f6f6f6"/>
          </g>
          <g id="Group_109701" data-name="Group 109701" transform="translate(128.294 73.33)">
            <path id="Path_167819" data-name="Path 167819" d="M-186.485-78.769a3.085,3.085,0,0,1,3.084-3.084,3.085,3.085,0,0,1,3.084,3.084,3.083,3.083,0,0,1-3.084,3.084A3.083,3.083,0,0,1-186.485-78.769Z" transform="translate(186.485 81.853)" fill="#f6f6f6"/>
          </g>
          <g id="Group_109702" data-name="Group 109702" transform="translate(111.409 195.965)">
            <path id="Path_167820" data-name="Path 167820" d="M-192.945-31.851a3.083,3.083,0,0,1,3.084-3.084,3.083,3.083,0,0,1,3.084,3.084,3.083,3.083,0,0,1-3.084,3.084A3.083,3.083,0,0,1-192.945-31.851Z" transform="translate(192.945 34.935)" fill="#f6f6f6"/>
          </g>
          <g id="Group_109703" data-name="Group 109703" transform="translate(96.249 35.922)">
            <path id="Path_167821" data-name="Path 167821" d="M-198.745-93.081a3.083,3.083,0,0,1,3.084-3.084,3.085,3.085,0,0,1,3.084,3.084A3.085,3.085,0,0,1-195.661-90,3.083,3.083,0,0,1-198.745-93.081Z" transform="translate(198.745 96.165)" fill="#f6f6f6"/>
          </g>
          <g id="Group_109704" data-name="Group 109704" transform="translate(151.469 241.084)">
            <circle id="Ellipse_5365" data-name="Ellipse 5365" cx="3.084" cy="3.084" r="3.084" transform="translate(0 0)" fill="#f6f6f6"/>
          </g>
          <g id="Group_109705" data-name="Group 109705" transform="translate(13.457 258.406)">
            <circle id="Ellipse_5366" data-name="Ellipse 5366" cx="5.06" cy="5.06" r="5.06" transform="translate(0 0)" fill="#f6f6f6"/>
          </g>
          <g id="Group_109706" data-name="Group 109706" transform="translate(42.668)">
            <path id="Path_167822" data-name="Path 167822" d="M-219.244-104.848a5.059,5.059,0,0,1,5.058-5.06,5.061,5.061,0,0,1,5.06,5.06,5.059,5.059,0,0,1-5.06,5.058A5.057,5.057,0,0,1-219.244-104.848Z" transform="translate(219.244 109.908)" fill="#f6f6f6"/>
          </g>
          <g id="Group_109707" data-name="Group 109707" transform="translate(27.864 142.884)">
            <path id="Path_167823" data-name="Path 167823" d="M-218.867-43.162a6.048,6.048,0,0,1-6.041-6.041,6.048,6.048,0,0,1,6.041-6.041,6.048,6.048,0,0,1,6.041,6.041A6.048,6.048,0,0,1-218.867-43.162Zm0-10.121a4.086,4.086,0,0,0-4.08,4.08,4.084,4.084,0,0,0,4.08,4.08,4.084,4.084,0,0,0,4.08-4.08A4.086,4.086,0,0,0-218.867-53.283Z" transform="translate(224.908 55.243)" fill="#f6f6f6"/>
          </g>
          <g id="Group_109708" data-name="Group 109708" transform="translate(84.199 176.215)">
            <path id="Path_167824" data-name="Path 167824" d="M-197.315-30.413a6.046,6.046,0,0,1-6.04-6.038,6.048,6.048,0,0,1,6.04-6.041,6.048,6.048,0,0,1,6.038,6.041A6.046,6.046,0,0,1-197.315-30.413Zm0-10.118a4.084,4.084,0,0,0-4.08,4.08,4.083,4.083,0,0,0,4.08,4.078,4.083,4.083,0,0,0,4.078-4.078A4.083,4.083,0,0,0-197.315-40.531Z" transform="translate(203.355 42.491)" fill="#f6f6f6"/>
          </g>
          <g id="Group_109709" data-name="Group 109709" transform="translate(4.081 60.361)">
            <path id="Path_167825" data-name="Path 167825" d="M-227.969-74.734a6.046,6.046,0,0,1-6.038-6.041,6.046,6.046,0,0,1,6.038-6.041,6.048,6.048,0,0,1,6.041,6.041A6.048,6.048,0,0,1-227.969-74.734Zm0-10.121a4.083,4.083,0,0,0-4.078,4.08,4.085,4.085,0,0,0,4.078,4.08,4.086,4.086,0,0,0,4.08-4.08A4.084,4.084,0,0,0-227.969-84.855Z" transform="translate(234.007 86.815)" fill="#f6f6f6"/>
          </g>
          <g id="Group_109710" data-name="Group 109710" transform="translate(205.109 110.083)">
            <path id="Path_167826" data-name="Path 167826" d="M-151.056-55.711a6.048,6.048,0,0,1-6.041-6.041,6.048,6.048,0,0,1,6.041-6.041,6.046,6.046,0,0,1,6.038,6.041A6.046,6.046,0,0,1-151.056-55.711Zm0-10.121a4.086,4.086,0,0,0-4.08,4.08,4.087,4.087,0,0,0,4.08,4.08,4.085,4.085,0,0,0,4.077-4.08A4.083,4.083,0,0,0-151.056-65.832Z" transform="translate(157.097 67.792)" fill="#f6f6f6"/>
          </g>
          <g id="Group_109711" data-name="Group 109711" transform="translate(40.245 72.51)">
            <path id="Path_167827" data-name="Path 167827" d="M-216.266-74.357a3.909,3.909,0,0,1-3.905-3.905,3.909,3.909,0,0,1,3.905-3.905,3.908,3.908,0,0,1,3.9,3.905A3.908,3.908,0,0,1-216.266-74.357Zm0-7.157a3.257,3.257,0,0,0-3.252,3.252,3.255,3.255,0,0,0,3.252,3.252,3.255,3.255,0,0,0,3.249-3.252A3.256,3.256,0,0,0-216.266-81.514Z" transform="translate(220.171 82.167)" fill="#f6f6f6"/>
          </g>
          <g id="Group_109712" data-name="Group 109712" transform="translate(167.935 35.101)">
            <path id="Path_167828" data-name="Path 167828" d="M-167.414-88.669a3.909,3.909,0,0,1-3.905-3.905,3.909,3.909,0,0,1,3.905-3.905,3.907,3.907,0,0,1,3.9,3.905A3.907,3.907,0,0,1-167.414-88.669Zm0-7.157a3.257,3.257,0,0,0-3.252,3.252,3.255,3.255,0,0,0,3.252,3.252,3.255,3.255,0,0,0,3.249-3.252A3.256,3.256,0,0,0-167.414-95.826Z" transform="translate(171.319 96.479)" fill="#f6f6f6"/>
          </g>
          <g id="Group_109713" data-name="Group 109713" transform="translate(64.747 159.691)">
            <path id="Path_167829" data-name="Path 167829" d="M-206.895-41.006a3.908,3.908,0,0,1-3.9-3.905,3.906,3.906,0,0,1,3.9-3.9,3.907,3.907,0,0,1,3.905,3.9A3.909,3.909,0,0,1-206.895-41.006Zm0-7.154a3.254,3.254,0,0,0-3.249,3.249,3.255,3.255,0,0,0,3.249,3.252,3.255,3.255,0,0,0,3.252-3.252A3.255,3.255,0,0,0-206.895-48.16Z" transform="translate(210.797 48.813)" fill="#f6f6f6"/>
          </g>
          <g id="Group_109714" data-name="Group 109714" transform="translate(202.184 204.374)">
            <path id="Path_167830" data-name="Path 167830" d="M-154.311-23.908a3.91,3.91,0,0,1-3.905-3.905,3.91,3.91,0,0,1,3.905-3.905,3.909,3.909,0,0,1,3.905,3.905A3.909,3.909,0,0,1-154.311-23.908Zm0-7.157a3.255,3.255,0,0,0-3.252,3.252,3.255,3.255,0,0,0,3.252,3.252,3.255,3.255,0,0,0,3.252-3.252A3.255,3.255,0,0,0-154.311-31.065Z" transform="translate(158.216 31.718)" fill="#f6f6f6"/>
          </g>
          <g id="Group_109715" data-name="Group 109715" transform="translate(5.06 115.144)">
            <path id="Path_167831" data-name="Path 167831" d="M-133.682-50.924h-99.95v-1.96h99.138l12.973-12.972H-32.6v1.96h-88.106Z" transform="translate(233.632 65.856)" fill="#f6f6f6"/>
          </g>
        </g>
      </g>
      <g id="Group_109754" data-name="Group 109754" transform="translate(-226.357 -118.793)" opacity="0.85">
        <g id="Group_109753" data-name="Group 109753">
          <g id="Group_109731" data-name="Group 109731" transform="translate(17.804 4.955)">
            <g id="Group_109718" data-name="Group 109718" transform="translate(27.899 134.352)">
              <path id="Path_167832" data-name="Path 167832" d="M152.814-25.06H11.554L-26.922-63.536H-214.559V-65.5H-26.11L12.366-27.021H152.814Z" transform="translate(214.559 65.497)" fill="#e8e8e8"/>
            </g>
            <g id="Group_109719" data-name="Group 109719" transform="translate(66.916 117.8)">
              <path id="Path_167833" data-name="Path 167833" d="M128.724-34.732H-83.8l-36.443-36.444h-79.391v-.653h79.661l36.443,36.444H128.724Z" transform="translate(199.631 71.829)" fill="#e8e8e8"/>
            </g>
            <g id="Group_109720" data-name="Group 109720" transform="translate(98.708 164.449)">
              <path id="Path_167834" data-name="Path 167834" d="M-131.787,46.292h-55.681v-.653h55.411l42-42h71.713L39.276-53.982H89.517v.653H39.546L-18.076,4.3H-89.789Z" transform="translate(187.468 53.982)" fill="#e8e8e8"/>
            </g>
            <g id="Group_109721" data-name="Group 109721" transform="translate(66.916 192.243)">
              <rect id="Rectangle_36384" data-name="Rectangle 36384" width="308.777" height="1.96" fill="#e8e8e8"/>
            </g>
            <g id="Group_109722" data-name="Group 109722" transform="translate(116.492 76.211)">
              <path id="Path_167835" data-name="Path 167835" d="M78.537-28.293H1.282L-57.512-87.087H-180.665v-.653H-57.241L1.553-28.946H78.537Z" transform="translate(180.665 87.74)" fill="#e8e8e8"/>
            </g>
            <g id="Group_109723" data-name="Group 109723" transform="translate(93.977 95.257)">
              <path id="Path_167836" data-name="Path 167836" d="M101.248-56.6H-34.838L-56.727-78.493H-189.278v-1.96H-55.915l21.889,21.889H101.248Z" transform="translate(189.278 80.454)" fill="#e8e8e8"/>
            </g>
            <g id="Group_109724" data-name="Group 109724" transform="translate(38.178 238.982)">
              <path id="Path_167837" data-name="Path 167837" d="M-167.637,40.614h-42.989v-1.96h42.177l64.12-64.12H9.143v1.96H-103.517Z" transform="translate(210.626 25.467)" fill="#e8e8e8"/>
            </g>
            <g id="Group_109725" data-name="Group 109725" transform="translate(52.862 29.654)">
              <path id="Path_167838" data-name="Path 167838" d="M-38.135-69.167H-92.566L-128.3-104.9h-76.711v-.653h76.981L-92.3-69.82h54.16Z" transform="translate(205.008 105.552)" fill="#e8e8e8"/>
            </g>
            <g id="Group_109726" data-name="Group 109726" transform="translate(3.916)">
              <path id="Path_167839" data-name="Path 167839" d="M-30.885-68.071H-134.079l-46.866-46.866h-42.79v-1.96h43.6l46.866,46.866H-30.885Z" transform="translate(223.734 116.897)" fill="#e8e8e8"/>
            </g>
            <g id="Group_109727" data-name="Group 109727" transform="translate(0 207.656)">
              <path id="Path_167840" data-name="Path 167840" d="M-142.6-12h-82.636v-1.96h81.825l23.494-23.495h62.079v1.96H-119.1Z" transform="translate(225.232 37.452)" fill="#e8e8e8"/>
            </g>
            <g id="Group_109728" data-name="Group 109728" transform="translate(38.178 220.057)">
              <rect id="Rectangle_36385" data-name="Rectangle 36385" width="98.12" height="0.653" transform="translate(0 0)" fill="#e8e8e8"/>
            </g>
            <g id="Group_109729" data-name="Group 109729" transform="translate(163.482 23.289)">
              <path id="Path_167841" data-name="Path 167841" d="M58.335-34.713H-37.519l-72.623-72.621h-52.545v-.653h52.816l72.623,72.621H58.335Z" transform="translate(162.687 107.987)" fill="#e8e8e8"/>
            </g>
            <g id="Group_109730" data-name="Group 109730" transform="translate(187.954 214.26)">
              <path id="Path_167842" data-name="Path 167842" d="M-81.479,15.406h-71.845v-.653h71.575l49.678-49.678H54.972v.653H-31.8Z" transform="translate(153.324 34.925)" fill="#e8e8e8"/>
            </g>
          </g>
          <g id="Group_109732" data-name="Group 109732" transform="translate(208.634 46.866)">
            <path id="Path_167843" data-name="Path 167843" d="M-152.224-94.927a5.937,5.937,0,0,0,5.936,5.936,5.935,5.935,0,0,0,5.933-5.936,5.935,5.935,0,0,0-5.933-5.936A5.937,5.937,0,0,0-152.224-94.927Z" transform="translate(152.224 100.863)" fill="#e8e8e8"/>
          </g>
          <g id="Group_109733" data-name="Group 109733" transform="translate(183.61 207.657)">
            <path id="Path_167844" data-name="Path 167844" d="M-161.8-33.414a5.937,5.937,0,0,0,5.936,5.936,5.935,5.935,0,0,0,5.933-5.936,5.932,5.932,0,0,0-5.933-5.933A5.935,5.935,0,0,0-161.8-33.414Z" transform="translate(161.798 39.347)" fill="#e8e8e8"/>
          </g>
          <g id="Group_109734" data-name="Group 109734" transform="translate(269.818 238.982)">
            <circle id="Ellipse_5367" data-name="Ellipse 5367" cx="5.935" cy="5.935" r="5.935" transform="translate(0 0)" fill="#e8e8e8"/>
          </g>
          <g id="Group_109735" data-name="Group 109735" transform="translate(0 157.61)">
            <path id="Path_167845" data-name="Path 167845" d="M-232.044-52.558a5.932,5.932,0,0,0,5.933,5.933,5.935,5.935,0,0,0,5.936-5.933,5.937,5.937,0,0,0-5.936-5.936A5.935,5.935,0,0,0-232.044-52.558Z" transform="translate(232.044 58.494)" fill="#e8e8e8"/>
          </g>
          <g id="Group_109736" data-name="Group 109736" transform="translate(78.785 192.243)">
            <path id="Path_167846" data-name="Path 167846" d="M-201.9-39.311a5.937,5.937,0,0,0,5.936,5.936,5.935,5.935,0,0,0,5.933-5.936,5.932,5.932,0,0,0-5.933-5.933A5.935,5.935,0,0,0-201.9-39.311Z" transform="translate(201.902 45.244)" fill="#e8e8e8"/>
          </g>
          <g id="Group_109737" data-name="Group 109737" transform="translate(67.049 31.319)">
            <path id="Path_167847" data-name="Path 167847" d="M-206.392-103.193a3.617,3.617,0,0,0,3.618,3.618,3.619,3.619,0,0,0,3.617-3.618,3.619,3.619,0,0,0-3.617-3.618A3.617,3.617,0,0,0-206.392-103.193Z" transform="translate(206.392 106.811)" fill="#e8e8e8"/>
          </g>
          <g id="Group_109738" data-name="Group 109738" transform="translate(150.485 221.722)">
            <path id="Path_167848" data-name="Path 167848" d="M-174.471-30.348a3.619,3.619,0,0,0,3.617,3.618,3.619,3.619,0,0,0,3.617-3.618,3.617,3.617,0,0,0-3.617-3.618A3.617,3.617,0,0,0-174.471-30.348Z" transform="translate(174.471 33.966)" fill="#e8e8e8"/>
          </g>
          <g id="Group_109739" data-name="Group 109739" transform="translate(130.68 77.876)">
            <path id="Path_167849" data-name="Path 167849" d="M-182.048-85.381a3.617,3.617,0,0,0,3.617,3.618,3.619,3.619,0,0,0,3.618-3.618A3.619,3.619,0,0,0-178.43-89,3.617,3.617,0,0,0-182.048-85.381Z" transform="translate(182.048 88.999)" fill="#e8e8e8"/>
          </g>
          <g id="Group_109740" data-name="Group 109740" transform="translate(112.896 265.602)">
            <path id="Path_167850" data-name="Path 167850" d="M-188.852-13.56a3.617,3.617,0,0,0,3.617,3.618,3.619,3.619,0,0,0,3.618-3.618,3.617,3.617,0,0,0-3.618-3.618A3.615,3.615,0,0,0-188.852-13.56Z" transform="translate(188.852 17.178)" fill="#e8e8e8"/>
          </g>
          <g id="Group_109741" data-name="Group 109741" transform="translate(177.669 24.951)">
            <path id="Path_167851" data-name="Path 167851" d="M-164.071-105.629a3.618,3.618,0,0,0,3.618,3.62,3.619,3.619,0,0,0,3.618-3.62,3.619,3.619,0,0,0-3.618-3.618A3.617,3.617,0,0,0-164.071-105.629Z" transform="translate(164.071 109.247)" fill="#e8e8e8"/>
          </g>
          <g id="Group_109742" data-name="Group 109742" transform="translate(15.785)">
            <path id="Path_167852" data-name="Path 167852" d="M-226.005-112.857a5.935,5.935,0,0,0,5.936,5.933,5.934,5.934,0,0,0,5.933-5.933,5.936,5.936,0,0,0-5.933-5.936A5.937,5.937,0,0,0-226.005-112.857Z" transform="translate(226.005 118.793)" fill="#e8e8e8"/>
          </g>
          <g id="Group_109743" data-name="Group 109743" transform="translate(50.047 303.103)">
            <path id="Path_167853" data-name="Path 167853" d="M-212.9,3.1a5.937,5.937,0,0,0,5.936,5.936A5.934,5.934,0,0,0-201.028,3.1a5.932,5.932,0,0,0-5.933-5.933A5.935,5.935,0,0,0-212.9,3.1Z" transform="translate(212.897 2.831)" fill="#e8e8e8"/>
          </g>
          <g id="Group_109744" data-name="Group 109744" transform="translate(32.853 133.372)">
            <path id="Path_167854" data-name="Path 167854" d="M-212.559-53.937a6.924,6.924,0,0,1-6.916-6.916,6.923,6.923,0,0,1,6.916-6.914,6.923,6.923,0,0,1,6.913,6.914A6.923,6.923,0,0,1-212.559-53.937Zm0-11.869a4.959,4.959,0,0,0-4.956,4.953,4.96,4.96,0,0,0,4.956,4.956,4.959,4.959,0,0,0,4.953-4.956A4.958,4.958,0,0,0-212.559-65.807Z" transform="translate(219.475 67.767)" fill="#e8e8e8"/>
          </g>
          <g id="Group_109745" data-name="Group 109745" transform="translate(98.933 94.278)">
            <path id="Path_167855" data-name="Path 167855" d="M-187.28-68.894a6.923,6.923,0,0,1-6.914-6.916,6.923,6.923,0,0,1,6.914-6.914,6.923,6.923,0,0,1,6.916,6.914A6.924,6.924,0,0,1-187.28-68.894Zm0-11.869a4.958,4.958,0,0,0-4.953,4.953,4.959,4.959,0,0,0,4.953,4.956,4.96,4.96,0,0,0,4.956-4.956A4.959,4.959,0,0,0-187.28-80.764Z" transform="translate(194.194 82.724)" fill="#e8e8e8"/>
          </g>
          <g id="Group_109746" data-name="Group 109746" transform="translate(4.956 230.172)">
            <path id="Path_167856" data-name="Path 167856" d="M-223.235-16.9a6.923,6.923,0,0,1-6.913-6.916,6.923,6.923,0,0,1,6.913-6.914,6.923,6.923,0,0,1,6.916,6.914A6.924,6.924,0,0,1-223.235-16.9Zm0-11.869a4.958,4.958,0,0,0-4.953,4.953,4.959,4.959,0,0,0,4.953,4.956,4.961,4.961,0,0,0,4.956-4.956A4.961,4.961,0,0,0-223.235-28.773Z" transform="translate(230.148 30.733)" fill="#e8e8e8"/>
          </g>
          <g id="Group_109747" data-name="Group 109747" transform="translate(240.755 171.848)">
            <path id="Path_167857" data-name="Path 167857" d="M-133.021-39.217a6.923,6.923,0,0,1-6.914-6.914,6.923,6.923,0,0,1,6.914-6.916,6.924,6.924,0,0,1,6.916,6.916A6.923,6.923,0,0,1-133.021-39.217Zm0-11.869a4.959,4.959,0,0,0-4.953,4.956,4.958,4.958,0,0,0,4.953,4.953,4.959,4.959,0,0,0,4.956-4.953A4.96,4.96,0,0,0-133.021-51.087Z" transform="translate(139.935 53.047)" fill="#e8e8e8"/>
          </g>
          <g id="Group_109748" data-name="Group 109748" transform="translate(47.263 220.815)">
            <path id="Path_167858" data-name="Path 167858" d="M-209.438-25.267a4.528,4.528,0,0,1-4.525-4.525,4.527,4.527,0,0,1,4.525-4.522,4.527,4.527,0,0,1,4.522,4.522A4.527,4.527,0,0,1-209.438-25.267Zm0-8.393a3.874,3.874,0,0,0-3.871,3.868,3.874,3.874,0,0,0,3.871,3.871,3.874,3.874,0,0,0,3.868-3.871A3.873,3.873,0,0,0-209.438-33.66Z" transform="translate(213.962 34.313)" fill="#e8e8e8"/>
          </g>
          <g id="Group_109749" data-name="Group 109749" transform="translate(197.039 264.695)">
            <path id="Path_167859" data-name="Path 167859" d="M-152.138-8.479A4.527,4.527,0,0,1-156.66-13a4.527,4.527,0,0,1,4.522-4.525A4.53,4.53,0,0,1-147.614-13,4.529,4.529,0,0,1-152.138-8.479Zm0-8.393A3.874,3.874,0,0,0-156.007-13a3.873,3.873,0,0,0,3.868,3.868A3.874,3.874,0,0,0-148.267-13,3.874,3.874,0,0,0-152.138-16.872Z" transform="translate(156.66 17.525)" fill="#e8e8e8"/>
          </g>
          <g id="Group_109750" data-name="Group 109750" transform="translate(76.002 118.557)">
            <path id="Path_167860" data-name="Path 167860" d="M-198.445-64.389a4.527,4.527,0,0,1-4.522-4.522,4.529,4.529,0,0,1,4.522-4.524,4.531,4.531,0,0,1,4.525,4.524A4.529,4.529,0,0,1-198.445-64.389Zm0-8.393a3.874,3.874,0,0,0-3.868,3.871,3.873,3.873,0,0,0,3.868,3.868,3.874,3.874,0,0,0,3.871-3.868A3.874,3.874,0,0,0-198.445-72.782Z" transform="translate(202.967 73.435)" fill="#e8e8e8"/>
          </g>
          <g id="Group_109751" data-name="Group 109751" transform="translate(237.211 66.145)">
            <path id="Path_167861" data-name="Path 167861" d="M-136.766-84.441a4.531,4.531,0,0,1-4.525-4.525,4.529,4.529,0,0,1,4.525-4.522,4.527,4.527,0,0,1,4.522,4.522A4.529,4.529,0,0,1-136.766-84.441Zm0-8.393a3.875,3.875,0,0,0-3.871,3.868,3.876,3.876,0,0,0,3.871,3.871,3.874,3.874,0,0,0,3.868-3.871A3.873,3.873,0,0,0-136.766-92.834Z" transform="translate(141.291 93.487)" fill="#e8e8e8"/>
          </g>
          <g id="Group_109752" data-name="Group 109752" transform="translate(5.935 162.566)">
            <path id="Path_167862" data-name="Path 167862" d="M6.027-39.421H-98.2l-15.217-15.217H-229.773V-56.6h117.168l15.217,15.217H6.027Z" transform="translate(229.773 56.598)" fill="#e8e8e8"/>
          </g>
        </g>
      </g>
    </g>
    <g id="Group_109756" data-name="Group 109756" transform="translate(931.399 3375.692) rotate(180)">
      <g id="Group_109717-2" data-name="Group 109717" transform="translate(-235.568 -95.569)" opacity="0.85">
        <g id="Group_109716-2" data-name="Group 109716">
          <g id="Group_109694-2" data-name="Group 109694" transform="translate(15.178 4.08)">
            <g id="Group_109681-2" data-name="Group 109681" transform="translate(23.786 111.064)">
              <path id="Path_167806-2" data-name="Path 167806" d="M-59.942-31.094H-220.661v-1.96H-60.754l32.8-32.8H130.506v1.96H-27.14Z" transform="translate(220.661 65.856)" fill="#f6f6f6"/>
            </g>
            <g id="Group_109682-2" data-name="Group 109682" transform="translate(57.049 128.118)">
              <path id="Path_167807-2" data-name="Path 167807" d="M-140-27.608h-67.934v-.653h67.663l31.07-31.07H109.969v.653h-218.9Z" transform="translate(207.935 59.332)" fill="#f6f6f6"/>
            </g>
            <g id="Group_109683-2" data-name="Group 109683" transform="translate(84.154 34.486)">
              <path id="Path_167808-2" data-name="Path 167808" d="M76.542-9.569H-4.277L-53.4-58.7h-61.137l-35.8-35.8h-47.22v-.653h47.49l35.8,35.8h61.137L-4.007-10.222H76.542Z" transform="translate(197.565 95.153)" fill="#f6f6f6"/>
            </g>
            <g id="Group_109684-2" data-name="Group 109684" transform="translate(57.049 94.512)">
              <rect id="Rectangle_36382-2" data-name="Rectangle 36382" width="301.212" height="1.96" fill="#f6f6f6"/>
            </g>
            <g id="Group_109685-2" data-name="Group 109685" transform="translate(99.315 144.519)">
              <path id="Path_167809-2" data-name="Path 167809" d="M-86.522-2.279H-191.765v-.653H-86.793l50.124-50.124H67.181v.653H-36.4Z" transform="translate(191.765 53.057)" fill="#f6f6f6"/>
            </g>
            <g id="Group_109686-2" data-name="Group 109686" transform="translate(80.119 158.534)">
              <path id="Path_167810-2" data-name="Path 167810" d="M-85.352-27.073H-199.109v-1.96H-86.164L-67.5-47.695H86.545v1.96H-66.69Z" transform="translate(199.109 47.695)" fill="#f6f6f6"/>
            </g>
            <g id="Group_109687-2" data-name="Group 109687" transform="translate(32.549)">
              <path id="Path_167811-2" data-name="Path 167811" d="M-29.946-51.723h-96.8l-54.665-54.664h-35.9v-1.96H-180.6l54.665,54.664h95.987Z" transform="translate(217.309 108.347)" fill="#f6f6f6"/>
            </g>
            <g id="Group_109688-2" data-name="Group 109688" transform="translate(45.068 203.872)">
              <path id="Path_167812-2" data-name="Path 167812" d="M-146.87.766h-65.649V.113h65.378l30.462-30.462h46.424v.653h-46.154Z" transform="translate(212.519 30.349)" fill="#f6f6f6"/>
            </g>
            <g id="Group_109689-2" data-name="Group 109689" transform="translate(3.339 218.45)">
              <path id="Path_167813-2" data-name="Path 167813" d="M-191.252,17.145h-37.231v-1.96h36.42l39.955-39.956h88.037v1.96H-151.3Z" transform="translate(228.484 24.772)" fill="#f6f6f6"/>
            </g>
            <g id="Group_109690-2" data-name="Group 109690" transform="translate(0 61.342)">
              <path id="Path_167814-2" data-name="Path 167814" d="M-87.048-62.889h-52.985l-20.03-20.03h-69.7v-1.96h70.51l20.03,20.03h52.173Z" transform="translate(229.761 84.879)" fill="#f6f6f6"/>
            </g>
            <g id="Group_109691-2" data-name="Group 109691" transform="translate(32.549 72.009)">
              <rect id="Rectangle_36383-2" data-name="Rectangle 36383" width="83.651" height="0.653" fill="#f6f6f6"/>
            </g>
            <g id="Group_109692-2" data-name="Group 109692" transform="translate(139.374 177.849)">
              <path id="Path_167815-2" data-name="Path 167815" d="M-131.39,22.262h-45.049v-.653h44.778l61.913-61.913H49.96v.653H-69.477Z" transform="translate(176.439 40.305)" fill="#f6f6f6"/>
            </g>
            <g id="Group_109693-2" data-name="Group 109693" transform="translate(160.239 34.6)">
              <path id="Path_167816-2" data-name="Path 167816" d="M47.092-52.1H-65.1l-42.352-42.352h-61v-.653h61.271l42.352,42.352H47.092Z" transform="translate(168.457 95.11)" fill="#f6f6f6"/>
            </g>
          </g>
          <g id="Group_109695-2" data-name="Group 109695" transform="translate(177.87 218.449)">
            <path id="Path_167817-2" data-name="Path 167817" d="M-167.518-21.273a5.059,5.059,0,0,1,5.058-5.06,5.061,5.061,0,0,1,5.06,5.06,5.061,5.061,0,0,1-5.06,5.06A5.059,5.059,0,0,1-167.518-21.273Z" transform="translate(167.518 26.333)" fill="#f6f6f6"/>
          </g>
          <g id="Group_109696-2" data-name="Group 109696" transform="translate(156.537 81.371)">
            <path id="Path_167818-2" data-name="Path 167818" d="M-175.68-73.717a5.059,5.059,0,0,1,5.058-5.06,5.061,5.061,0,0,1,5.06,5.06,5.061,5.061,0,0,1-5.06,5.06A5.059,5.059,0,0,1-175.68-73.717Z" transform="translate(175.68 78.777)" fill="#f6f6f6"/>
          </g>
          <g id="Group_109697-2" data-name="Group 109697" transform="translate(230.03 54.665)">
            <circle id="Ellipse_5361-2" data-name="Ellipse 5361" cx="5.06" cy="5.06" r="5.06" fill="#f6f6f6"/>
          </g>
          <g id="Group_109698-2" data-name="Group 109698" transform="translate(0 124.037)">
            <circle id="Ellipse_5362-2" data-name="Ellipse 5362" cx="5.06" cy="5.06" r="5.06" fill="#f6f6f6"/>
          </g>
          <g id="Group_109699-2" data-name="Group 109699" transform="translate(67.169 94.512)">
            <circle id="Ellipse_5363-2" data-name="Ellipse 5363" cx="5.06" cy="5.06" r="5.06" fill="#f6f6f6"/>
          </g>
          <g id="Group_109700-2" data-name="Group 109700" transform="translate(57.162 235.657)">
            <circle id="Ellipse_5364-2" data-name="Ellipse 5364" cx="3.084" cy="3.084" r="3.084" transform="translate(0 0)" fill="#f6f6f6"/>
          </g>
          <g id="Group_109701-2" data-name="Group 109701" transform="translate(128.294 73.33)">
            <path id="Path_167819-2" data-name="Path 167819" d="M-186.485-78.769a3.085,3.085,0,0,1,3.084-3.084,3.085,3.085,0,0,1,3.084,3.084,3.083,3.083,0,0,1-3.084,3.084A3.083,3.083,0,0,1-186.485-78.769Z" transform="translate(186.485 81.853)" fill="#f6f6f6"/>
          </g>
          <g id="Group_109702-2" data-name="Group 109702" transform="translate(111.409 195.965)">
            <path id="Path_167820-2" data-name="Path 167820" d="M-192.945-31.851a3.083,3.083,0,0,1,3.084-3.084,3.083,3.083,0,0,1,3.084,3.084,3.083,3.083,0,0,1-3.084,3.084A3.083,3.083,0,0,1-192.945-31.851Z" transform="translate(192.945 34.935)" fill="#f6f6f6"/>
          </g>
          <g id="Group_109703-2" data-name="Group 109703" transform="translate(96.249 35.922)">
            <path id="Path_167821-2" data-name="Path 167821" d="M-198.745-93.081a3.083,3.083,0,0,1,3.084-3.084,3.085,3.085,0,0,1,3.084,3.084A3.085,3.085,0,0,1-195.661-90,3.083,3.083,0,0,1-198.745-93.081Z" transform="translate(198.745 96.165)" fill="#f6f6f6"/>
          </g>
          <g id="Group_109704-2" data-name="Group 109704" transform="translate(151.469 241.084)">
            <circle id="Ellipse_5365-2" data-name="Ellipse 5365" cx="3.084" cy="3.084" r="3.084" transform="translate(0 0)" fill="#f6f6f6"/>
          </g>
          <g id="Group_109705-2" data-name="Group 109705" transform="translate(13.457 258.406)">
            <circle id="Ellipse_5366-2" data-name="Ellipse 5366" cx="5.06" cy="5.06" r="5.06" transform="translate(0 0)" fill="#f6f6f6"/>
          </g>
          <g id="Group_109706-2" data-name="Group 109706" transform="translate(42.668)">
            <path id="Path_167822-2" data-name="Path 167822" d="M-219.244-104.848a5.059,5.059,0,0,1,5.058-5.06,5.061,5.061,0,0,1,5.06,5.06,5.059,5.059,0,0,1-5.06,5.058A5.057,5.057,0,0,1-219.244-104.848Z" transform="translate(219.244 109.908)" fill="#f6f6f6"/>
          </g>
          <g id="Group_109707-2" data-name="Group 109707" transform="translate(27.864 142.884)">
            <path id="Path_167823-2" data-name="Path 167823" d="M-218.867-43.162a6.048,6.048,0,0,1-6.041-6.041,6.048,6.048,0,0,1,6.041-6.041,6.048,6.048,0,0,1,6.041,6.041A6.048,6.048,0,0,1-218.867-43.162Zm0-10.121a4.086,4.086,0,0,0-4.08,4.08,4.084,4.084,0,0,0,4.08,4.08,4.084,4.084,0,0,0,4.08-4.08A4.086,4.086,0,0,0-218.867-53.283Z" transform="translate(224.908 55.243)" fill="#f6f6f6"/>
          </g>
          <g id="Group_109708-2" data-name="Group 109708" transform="translate(84.199 176.215)">
            <path id="Path_167824-2" data-name="Path 167824" d="M-197.315-30.413a6.046,6.046,0,0,1-6.04-6.038,6.048,6.048,0,0,1,6.04-6.041,6.048,6.048,0,0,1,6.038,6.041A6.046,6.046,0,0,1-197.315-30.413Zm0-10.118a4.084,4.084,0,0,0-4.08,4.08,4.083,4.083,0,0,0,4.08,4.078,4.083,4.083,0,0,0,4.078-4.078A4.083,4.083,0,0,0-197.315-40.531Z" transform="translate(203.355 42.491)" fill="#f6f6f6"/>
          </g>
          <g id="Group_109709-2" data-name="Group 109709" transform="translate(4.081 60.361)">
            <path id="Path_167825-2" data-name="Path 167825" d="M-227.969-74.734a6.046,6.046,0,0,1-6.038-6.041,6.046,6.046,0,0,1,6.038-6.041,6.048,6.048,0,0,1,6.041,6.041A6.048,6.048,0,0,1-227.969-74.734Zm0-10.121a4.083,4.083,0,0,0-4.078,4.08,4.085,4.085,0,0,0,4.078,4.08,4.086,4.086,0,0,0,4.08-4.08A4.084,4.084,0,0,0-227.969-84.855Z" transform="translate(234.007 86.815)" fill="#f6f6f6"/>
          </g>
          <g id="Group_109710-2" data-name="Group 109710" transform="translate(205.109 110.083)">
            <path id="Path_167826-2" data-name="Path 167826" d="M-151.056-55.711a6.048,6.048,0,0,1-6.041-6.041,6.048,6.048,0,0,1,6.041-6.041,6.046,6.046,0,0,1,6.038,6.041A6.046,6.046,0,0,1-151.056-55.711Zm0-10.121a4.086,4.086,0,0,0-4.08,4.08,4.087,4.087,0,0,0,4.08,4.08,4.085,4.085,0,0,0,4.077-4.08A4.083,4.083,0,0,0-151.056-65.832Z" transform="translate(157.097 67.792)" fill="#f6f6f6"/>
          </g>
          <g id="Group_109711-2" data-name="Group 109711" transform="translate(40.245 72.51)">
            <path id="Path_167827-2" data-name="Path 167827" d="M-216.266-74.357a3.909,3.909,0,0,1-3.905-3.905,3.909,3.909,0,0,1,3.905-3.905,3.908,3.908,0,0,1,3.9,3.905A3.908,3.908,0,0,1-216.266-74.357Zm0-7.157a3.257,3.257,0,0,0-3.252,3.252,3.255,3.255,0,0,0,3.252,3.252,3.255,3.255,0,0,0,3.249-3.252A3.256,3.256,0,0,0-216.266-81.514Z" transform="translate(220.171 82.167)" fill="#f6f6f6"/>
          </g>
          <g id="Group_109712-2" data-name="Group 109712" transform="translate(167.935 35.101)">
            <path id="Path_167828-2" data-name="Path 167828" d="M-167.414-88.669a3.909,3.909,0,0,1-3.905-3.905,3.909,3.909,0,0,1,3.905-3.905,3.907,3.907,0,0,1,3.9,3.905A3.907,3.907,0,0,1-167.414-88.669Zm0-7.157a3.257,3.257,0,0,0-3.252,3.252,3.255,3.255,0,0,0,3.252,3.252,3.255,3.255,0,0,0,3.249-3.252A3.256,3.256,0,0,0-167.414-95.826Z" transform="translate(171.319 96.479)" fill="#f6f6f6"/>
          </g>
          <g id="Group_109713-2" data-name="Group 109713" transform="translate(64.747 159.691)">
            <path id="Path_167829-2" data-name="Path 167829" d="M-206.895-41.006a3.908,3.908,0,0,1-3.9-3.905,3.906,3.906,0,0,1,3.9-3.9,3.907,3.907,0,0,1,3.905,3.9A3.909,3.909,0,0,1-206.895-41.006Zm0-7.154a3.254,3.254,0,0,0-3.249,3.249,3.255,3.255,0,0,0,3.249,3.252,3.255,3.255,0,0,0,3.252-3.252A3.255,3.255,0,0,0-206.895-48.16Z" transform="translate(210.797 48.813)" fill="#f6f6f6"/>
          </g>
          <g id="Group_109714-2" data-name="Group 109714" transform="translate(202.184 204.374)">
            <path id="Path_167830-2" data-name="Path 167830" d="M-154.311-23.908a3.91,3.91,0,0,1-3.905-3.905,3.91,3.91,0,0,1,3.905-3.905,3.909,3.909,0,0,1,3.905,3.905A3.909,3.909,0,0,1-154.311-23.908Zm0-7.157a3.255,3.255,0,0,0-3.252,3.252,3.255,3.255,0,0,0,3.252,3.252,3.255,3.255,0,0,0,3.252-3.252A3.255,3.255,0,0,0-154.311-31.065Z" transform="translate(158.216 31.718)" fill="#f6f6f6"/>
          </g>
          <g id="Group_109715-2" data-name="Group 109715" transform="translate(5.06 115.144)">
            <path id="Path_167831-2" data-name="Path 167831" d="M-133.682-50.924h-99.95v-1.96h99.138l12.973-12.972H-32.6v1.96h-88.106Z" transform="translate(233.632 65.856)" fill="#f6f6f6"/>
          </g>
        </g>
      </g>
      <g id="Group_109754-2" data-name="Group 109754" transform="translate(-226.357 -118.793)" opacity="0.85">
        <g id="Group_109753-2" data-name="Group 109753">
          <g id="Group_109731-2" data-name="Group 109731" transform="translate(17.804 4.955)">
            <g id="Group_109718-2" data-name="Group 109718" transform="translate(27.899 134.352)">
              <path id="Path_167832-2" data-name="Path 167832" d="M152.814-25.06H11.554L-26.922-63.536H-214.559V-65.5H-26.11L12.366-27.021H152.814Z" transform="translate(214.559 65.497)" fill="#e8e8e8"/>
            </g>
            <g id="Group_109719-2" data-name="Group 109719" transform="translate(66.916 117.8)">
              <path id="Path_167833-2" data-name="Path 167833" d="M128.724-34.732H-83.8l-36.443-36.444h-79.391v-.653h79.661l36.443,36.444H128.724Z" transform="translate(199.631 71.829)" fill="#e8e8e8"/>
            </g>
            <g id="Group_109720-2" data-name="Group 109720" transform="translate(98.708 164.449)">
              <path id="Path_167834-2" data-name="Path 167834" d="M-131.787,46.292h-55.681v-.653h55.411l42-42h71.713L39.276-53.982H89.517v.653H39.546L-18.076,4.3H-89.789Z" transform="translate(187.468 53.982)" fill="#e8e8e8"/>
            </g>
            <g id="Group_109721-2" data-name="Group 109721" transform="translate(66.916 192.243)">
              <rect id="Rectangle_36384-2" data-name="Rectangle 36384" width="308.777" height="1.96" fill="#e8e8e8"/>
            </g>
            <g id="Group_109722-2" data-name="Group 109722" transform="translate(116.492 76.211)">
              <path id="Path_167835-2" data-name="Path 167835" d="M78.537-28.293H1.282L-57.512-87.087H-180.665v-.653H-57.241L1.553-28.946H78.537Z" transform="translate(180.665 87.74)" fill="#e8e8e8"/>
            </g>
            <g id="Group_109723-2" data-name="Group 109723" transform="translate(93.977 95.257)">
              <path id="Path_167836-2" data-name="Path 167836" d="M101.248-56.6H-34.838L-56.727-78.493H-189.278v-1.96H-55.915l21.889,21.889H101.248Z" transform="translate(189.278 80.454)" fill="#e8e8e8"/>
            </g>
            <g id="Group_109724-2" data-name="Group 109724" transform="translate(38.178 238.982)">
              <path id="Path_167837-2" data-name="Path 167837" d="M-167.637,40.614h-42.989v-1.96h42.177l64.12-64.12H9.143v1.96H-103.517Z" transform="translate(210.626 25.467)" fill="#e8e8e8"/>
            </g>
            <g id="Group_109725-2" data-name="Group 109725" transform="translate(52.862 29.654)">
              <path id="Path_167838-2" data-name="Path 167838" d="M-38.135-69.167H-92.566L-128.3-104.9h-76.711v-.653h76.981L-92.3-69.82h54.16Z" transform="translate(205.008 105.552)" fill="#e8e8e8"/>
            </g>
            <g id="Group_109726-2" data-name="Group 109726" transform="translate(3.916)">
              <path id="Path_167839-2" data-name="Path 167839" d="M-30.885-68.071H-134.079l-46.866-46.866h-42.79v-1.96h43.6l46.866,46.866H-30.885Z" transform="translate(223.734 116.897)" fill="#e8e8e8"/>
            </g>
            <g id="Group_109727-2" data-name="Group 109727" transform="translate(0 207.656)">
              <path id="Path_167840-2" data-name="Path 167840" d="M-142.6-12h-82.636v-1.96h81.825l23.494-23.495h62.079v1.96H-119.1Z" transform="translate(225.232 37.452)" fill="#e8e8e8"/>
            </g>
            <g id="Group_109728-2" data-name="Group 109728" transform="translate(38.178 220.057)">
              <rect id="Rectangle_36385-2" data-name="Rectangle 36385" width="98.12" height="0.653" transform="translate(0 0)" fill="#e8e8e8"/>
            </g>
            <g id="Group_109729-2" data-name="Group 109729" transform="translate(163.482 23.289)">
              <path id="Path_167841-2" data-name="Path 167841" d="M58.335-34.713H-37.519l-72.623-72.621h-52.545v-.653h52.816l72.623,72.621H58.335Z" transform="translate(162.687 107.987)" fill="#e8e8e8"/>
            </g>
            <g id="Group_109730-2" data-name="Group 109730" transform="translate(187.954 214.26)">
              <path id="Path_167842-2" data-name="Path 167842" d="M-81.479,15.406h-71.845v-.653h71.575l49.678-49.678H54.972v.653H-31.8Z" transform="translate(153.324 34.925)" fill="#e8e8e8"/>
            </g>
          </g>
          <g id="Group_109732-2" data-name="Group 109732" transform="translate(208.634 46.866)">
            <path id="Path_167843-2" data-name="Path 167843" d="M-152.224-94.927a5.937,5.937,0,0,0,5.936,5.936,5.935,5.935,0,0,0,5.933-5.936,5.935,5.935,0,0,0-5.933-5.936A5.937,5.937,0,0,0-152.224-94.927Z" transform="translate(152.224 100.863)" fill="#e8e8e8"/>
          </g>
          <g id="Group_109733-2" data-name="Group 109733" transform="translate(183.61 207.657)">
            <path id="Path_167844-2" data-name="Path 167844" d="M-161.8-33.414a5.937,5.937,0,0,0,5.936,5.936,5.935,5.935,0,0,0,5.933-5.936,5.932,5.932,0,0,0-5.933-5.933A5.935,5.935,0,0,0-161.8-33.414Z" transform="translate(161.798 39.347)" fill="#e8e8e8"/>
          </g>
          <g id="Group_109734-2" data-name="Group 109734" transform="translate(269.818 238.982)">
            <circle id="Ellipse_5367-2" data-name="Ellipse 5367" cx="5.935" cy="5.935" r="5.935" transform="translate(0 0)" fill="#e8e8e8"/>
          </g>
          <g id="Group_109735-2" data-name="Group 109735" transform="translate(0 157.61)">
            <path id="Path_167845-2" data-name="Path 167845" d="M-232.044-52.558a5.932,5.932,0,0,0,5.933,5.933,5.935,5.935,0,0,0,5.936-5.933,5.937,5.937,0,0,0-5.936-5.936A5.935,5.935,0,0,0-232.044-52.558Z" transform="translate(232.044 58.494)" fill="#e8e8e8"/>
          </g>
          <g id="Group_109736-2" data-name="Group 109736" transform="translate(78.785 192.243)">
            <path id="Path_167846-2" data-name="Path 167846" d="M-201.9-39.311a5.937,5.937,0,0,0,5.936,5.936,5.935,5.935,0,0,0,5.933-5.936,5.932,5.932,0,0,0-5.933-5.933A5.935,5.935,0,0,0-201.9-39.311Z" transform="translate(201.902 45.244)" fill="#e8e8e8"/>
          </g>
          <g id="Group_109737-2" data-name="Group 109737" transform="translate(67.049 31.319)">
            <path id="Path_167847-2" data-name="Path 167847" d="M-206.392-103.193a3.617,3.617,0,0,0,3.618,3.618,3.619,3.619,0,0,0,3.617-3.618,3.619,3.619,0,0,0-3.617-3.618A3.617,3.617,0,0,0-206.392-103.193Z" transform="translate(206.392 106.811)" fill="#e8e8e8"/>
          </g>
          <g id="Group_109738-2" data-name="Group 109738" transform="translate(150.485 221.722)">
            <path id="Path_167848-2" data-name="Path 167848" d="M-174.471-30.348a3.619,3.619,0,0,0,3.617,3.618,3.619,3.619,0,0,0,3.617-3.618,3.617,3.617,0,0,0-3.617-3.618A3.617,3.617,0,0,0-174.471-30.348Z" transform="translate(174.471 33.966)" fill="#e8e8e8"/>
          </g>
          <g id="Group_109739-2" data-name="Group 109739" transform="translate(130.68 77.876)">
            <path id="Path_167849-2" data-name="Path 167849" d="M-182.048-85.381a3.617,3.617,0,0,0,3.617,3.618,3.619,3.619,0,0,0,3.618-3.618A3.619,3.619,0,0,0-178.43-89,3.617,3.617,0,0,0-182.048-85.381Z" transform="translate(182.048 88.999)" fill="#e8e8e8"/>
          </g>
          <g id="Group_109740-2" data-name="Group 109740" transform="translate(112.896 265.602)">
            <path id="Path_167850-2" data-name="Path 167850" d="M-188.852-13.56a3.617,3.617,0,0,0,3.617,3.618,3.619,3.619,0,0,0,3.618-3.618,3.617,3.617,0,0,0-3.618-3.618A3.615,3.615,0,0,0-188.852-13.56Z" transform="translate(188.852 17.178)" fill="#e8e8e8"/>
          </g>
          <g id="Group_109741-2" data-name="Group 109741" transform="translate(177.669 24.951)">
            <path id="Path_167851-2" data-name="Path 167851" d="M-164.071-105.629a3.618,3.618,0,0,0,3.618,3.62,3.619,3.619,0,0,0,3.618-3.62,3.619,3.619,0,0,0-3.618-3.618A3.617,3.617,0,0,0-164.071-105.629Z" transform="translate(164.071 109.247)" fill="#e8e8e8"/>
          </g>
          <g id="Group_109742-2" data-name="Group 109742" transform="translate(15.785)">
            <path id="Path_167852-2" data-name="Path 167852" d="M-226.005-112.857a5.935,5.935,0,0,0,5.936,5.933,5.934,5.934,0,0,0,5.933-5.933,5.936,5.936,0,0,0-5.933-5.936A5.937,5.937,0,0,0-226.005-112.857Z" transform="translate(226.005 118.793)" fill="#e8e8e8"/>
          </g>
          <g id="Group_109743-2" data-name="Group 109743" transform="translate(50.047 303.103)">
            <path id="Path_167853-2" data-name="Path 167853" d="M-212.9,3.1a5.937,5.937,0,0,0,5.936,5.936A5.934,5.934,0,0,0-201.028,3.1a5.932,5.932,0,0,0-5.933-5.933A5.935,5.935,0,0,0-212.9,3.1Z" transform="translate(212.897 2.831)" fill="#e8e8e8"/>
          </g>
          <g id="Group_109744-2" data-name="Group 109744" transform="translate(32.853 133.372)">
            <path id="Path_167854-2" data-name="Path 167854" d="M-212.559-53.937a6.924,6.924,0,0,1-6.916-6.916,6.923,6.923,0,0,1,6.916-6.914,6.923,6.923,0,0,1,6.913,6.914A6.923,6.923,0,0,1-212.559-53.937Zm0-11.869a4.959,4.959,0,0,0-4.956,4.953,4.96,4.96,0,0,0,4.956,4.956,4.959,4.959,0,0,0,4.953-4.956A4.958,4.958,0,0,0-212.559-65.807Z" transform="translate(219.475 67.767)" fill="#e8e8e8"/>
          </g>
          <g id="Group_109745-2" data-name="Group 109745" transform="translate(98.933 94.278)">
            <path id="Path_167855-2" data-name="Path 167855" d="M-187.28-68.894a6.923,6.923,0,0,1-6.914-6.916,6.923,6.923,0,0,1,6.914-6.914,6.923,6.923,0,0,1,6.916,6.914A6.924,6.924,0,0,1-187.28-68.894Zm0-11.869a4.958,4.958,0,0,0-4.953,4.953,4.959,4.959,0,0,0,4.953,4.956,4.96,4.96,0,0,0,4.956-4.956A4.959,4.959,0,0,0-187.28-80.764Z" transform="translate(194.194 82.724)" fill="#e8e8e8"/>
          </g>
          <g id="Group_109746-2" data-name="Group 109746" transform="translate(4.956 230.172)">
            <path id="Path_167856-2" data-name="Path 167856" d="M-223.235-16.9a6.923,6.923,0,0,1-6.913-6.916,6.923,6.923,0,0,1,6.913-6.914,6.923,6.923,0,0,1,6.916,6.914A6.924,6.924,0,0,1-223.235-16.9Zm0-11.869a4.958,4.958,0,0,0-4.953,4.953,4.959,4.959,0,0,0,4.953,4.956,4.961,4.961,0,0,0,4.956-4.956A4.961,4.961,0,0,0-223.235-28.773Z" transform="translate(230.148 30.733)" fill="#e8e8e8"/>
          </g>
          <g id="Group_109747-2" data-name="Group 109747" transform="translate(240.755 171.848)">
            <path id="Path_167857-2" data-name="Path 167857" d="M-133.021-39.217a6.923,6.923,0,0,1-6.914-6.914,6.923,6.923,0,0,1,6.914-6.916,6.924,6.924,0,0,1,6.916,6.916A6.923,6.923,0,0,1-133.021-39.217Zm0-11.869a4.959,4.959,0,0,0-4.953,4.956,4.958,4.958,0,0,0,4.953,4.953,4.959,4.959,0,0,0,4.956-4.953A4.96,4.96,0,0,0-133.021-51.087Z" transform="translate(139.935 53.047)" fill="#e8e8e8"/>
          </g>
          <g id="Group_109748-2" data-name="Group 109748" transform="translate(47.263 220.815)">
            <path id="Path_167858-2" data-name="Path 167858" d="M-209.438-25.267a4.528,4.528,0,0,1-4.525-4.525,4.527,4.527,0,0,1,4.525-4.522,4.527,4.527,0,0,1,4.522,4.522A4.527,4.527,0,0,1-209.438-25.267Zm0-8.393a3.874,3.874,0,0,0-3.871,3.868,3.874,3.874,0,0,0,3.871,3.871,3.874,3.874,0,0,0,3.868-3.871A3.873,3.873,0,0,0-209.438-33.66Z" transform="translate(213.962 34.313)" fill="#e8e8e8"/>
          </g>
          <g id="Group_109749-2" data-name="Group 109749" transform="translate(197.039 264.695)">
            <path id="Path_167859-2" data-name="Path 167859" d="M-152.138-8.479A4.527,4.527,0,0,1-156.66-13a4.527,4.527,0,0,1,4.522-4.525A4.53,4.53,0,0,1-147.614-13,4.529,4.529,0,0,1-152.138-8.479Zm0-8.393A3.874,3.874,0,0,0-156.007-13a3.873,3.873,0,0,0,3.868,3.868A3.874,3.874,0,0,0-148.267-13,3.874,3.874,0,0,0-152.138-16.872Z" transform="translate(156.66 17.525)" fill="#e8e8e8"/>
          </g>
          <g id="Group_109750-2" data-name="Group 109750" transform="translate(76.002 118.557)">
            <path id="Path_167860-2" data-name="Path 167860" d="M-198.445-64.389a4.527,4.527,0,0,1-4.522-4.522,4.529,4.529,0,0,1,4.522-4.524,4.531,4.531,0,0,1,4.525,4.524A4.529,4.529,0,0,1-198.445-64.389Zm0-8.393a3.874,3.874,0,0,0-3.868,3.871,3.873,3.873,0,0,0,3.868,3.868,3.874,3.874,0,0,0,3.871-3.868A3.874,3.874,0,0,0-198.445-72.782Z" transform="translate(202.967 73.435)" fill="#e8e8e8"/>
          </g>
          <g id="Group_109751-2" data-name="Group 109751" transform="translate(237.211 66.145)">
            <path id="Path_167861-2" data-name="Path 167861" d="M-136.766-84.441a4.531,4.531,0,0,1-4.525-4.525,4.529,4.529,0,0,1,4.525-4.522,4.527,4.527,0,0,1,4.522,4.522A4.529,4.529,0,0,1-136.766-84.441Zm0-8.393a3.875,3.875,0,0,0-3.871,3.868,3.876,3.876,0,0,0,3.871,3.871,3.874,3.874,0,0,0,3.868-3.871A3.873,3.873,0,0,0-136.766-92.834Z" transform="translate(141.291 93.487)" fill="#e8e8e8"/>
          </g>
          <g id="Group_109752-2" data-name="Group 109752" transform="translate(5.935 162.566)">
            <path id="Path_167862-2" data-name="Path 167862" d="M6.027-39.421H-98.2l-15.217-15.217H-229.773V-56.6h117.168l15.217,15.217H6.027Z" transform="translate(229.773 56.598)" fill="#e8e8e8"/>
          </g>
        </g>
      </g>
    </g>
  </g>
</svg>
