<svg xmlns="http://www.w3.org/2000/svg" width="1389.345" height="806.061" viewBox="0 0 1389.345 806.061">
  <g id="bg-info" transform="translate(772.899 -909.267)">
    <path id="Path_169426" data-name="Path 169426" d="M-772.9,909.267v746.266c409.011-110.2,851.786,31.479,1389.345,59.794V969.061C207.432,1079.266-235.342,937.582-772.9,909.267Z" transform="translate(0 0)" fill="#d8fbf2"/>
    <path id="Path_169427" data-name="Path 169427" d="M-626.1,1138.421c38.324-70.588,68.626-142.912,90.617-216.031q-1.37-.162-2.745-.328c-20.415,68.115-49.492,140.412-90.15,215.3-54.377,100.153-81.768,198.109-81.418,291.153.232,61.793,12.665,120.3,36.929,174.746.9-.083,1.8-.156,2.7-.238C-730.927,1466.467-716.117,1304.209-626.1,1138.421Z" transform="translate(97.851 17.366)" fill="#fff"/>
    <path id="Path_169428" data-name="Path 169428" d="M-518.589,995.748c10.132-17.755,20.611-36.113,30.575-53.991,2.347-4.21,4.6-8.411,6.8-12.6l-2.661-.347c-2.076,3.948-4.194,7.9-6.405,11.871-9.958,17.863-20.432,36.219-30.564,53.967-89.921,157.564-182.9,320.493-124.533,483.227q20.475,57.091,64.7,109.881,1.622.018,3.247.038-44.955-53.251-65.527-110.659C-700.986,1315.353-608.262,1152.874-518.589,995.748Z" transform="translate(169.547 26.524)" fill="#fff"/>
    <path id="Path_169429" data-name="Path 169429" d="M-650.1,1296.87c6.365-80.335-5.5-151.591-36.281-217.83-20.029-43.112-48.229-84.579-86.52-126.186v3.635c37.141,40.715,64.585,81.316,84.176,123.48,61.435,132.224,48.852,285-40.8,495.35-1.62,3.8-3.155,7.6-4.653,11.39.987-.229,1.979-.434,2.969-.658,1.311-3.283,2.653-6.572,4.058-9.867C-681.751,1469.667-656.549,1378.3-650.1,1296.87Z" transform="translate(0 59.159)" fill="#fff"/>
    <path id="Path_169430" data-name="Path 169430" d="M-329.724,1356c-25.919-141.627,23.422-284.213,139.813-409.779q-2.066.3-4.138.587c-47.852,51.815-84.26,106.426-108.713,163.2-34.725,80.626-44.643,163.521-29.478,246.388,17.086,93.369,66.544,184.173,143.027,262.592q20.337,20.855,43.066,40.38l3.451.259C-242.985,1574.049-309.037,1469.038-329.724,1356Z" transform="translate(672.728 50.156)" fill="#fff"/>
    <path id="Path_169431" data-name="Path 169431" d="M-269.095,1212.223c-6.14,91.106,28.5,189.055,105.282,296.527v-4.318C-238.773,1398.6-272.6,1302.1-266.549,1212.37c5.688-84.338,45.834-156.058,102.736-220.944v-3.76C-222.057,1053.464-263.3,1126.285-269.095,1212.223Z" transform="translate(780.259 106.408)" fill="#fff"/>
    <path id="Path_169432" data-name="Path 169432" d="M-407.222,1302.749c-8.438-85.217,24.613-164.9,98.231-236.846,40.582-39.659,75.5-77.7,105.159-114.605-1.061.054-2.122.1-3.183.151-29.455,36.4-63.943,73.855-103.83,112.835-74.144,72.455-107.425,152.757-98.918,238.677,7.739,78.148,54.1,193.194,212.735,334.366,1.4.151,2.783.307,4.178.457C-352.871,1496.148-399.483,1380.885-407.222,1302.749Z" transform="translate(561.16 57.047)" fill="#fff"/>
  </g>
</svg>
