<svg xmlns="http://www.w3.org/2000/svg" xmlns:xlink="http://www.w3.org/1999/xlink" width="1324" height="507" viewBox="0 0 1324 507">
  <defs>
    <clipPath id="clip-path">
      <rect id="Rectangle_5141" data-name="Rectangle 5141" width="1324" height="507" rx="20" transform="translate(143.333 70)" fill="#fff"/>
    </clipPath>
    <linearGradient id="linear-gradient" x1="-0.122" y1="0.104" x2="0.935" y2="0.529" gradientUnits="objectBoundingBox">
      <stop offset="0" stop-color="#0077ec"/>
      <stop offset="1" stop-color="#03e6b0"/>
    </linearGradient>
    <linearGradient id="linear-gradient-2" x1="0.154" y1="0.727" x2="0.89" y2="0.168" xlink:href="#linear-gradient"/>
    <linearGradient id="linear-gradient-3" x1="0" y1="0.5" x2="1" y2="0.5" xlink:href="#linear-gradient"/>
    <linearGradient id="linear-gradient-4" x1="0.301" y1="1.111" x2="0.549" y2="0.333" xlink:href="#linear-gradient"/>
    <linearGradient id="linear-gradient-6" x1="1.084" y1="0" x2="-0.064" y2="1.047" xlink:href="#linear-gradient"/>
    <linearGradient id="linear-gradient-7" x1="-0.036" y1="0.5" x2="7.015" y2="0.5" xlink:href="#linear-gradient"/>
    <linearGradient id="linear-gradient-8" x1="-3.036" y1="0.5" x2="4.015" y2="0.5" xlink:href="#linear-gradient"/>
    <linearGradient id="linear-gradient-9" x1="-6.036" y1="0.5" x2="1.015" y2="0.5" xlink:href="#linear-gradient"/>
  </defs>
  <g id="fondo-banner-principal" transform="translate(-143.333 -70)" clip-path="url(#clip-path)">
    <g id="Group_53773" data-name="Group 53773">
      <path id="Path_100469" data-name="Path 100469" d="M883.475-41.679c-8.641,83.28-90.848,140.4-164.787,152.692C577.26,134.547,442.576,72.826,303.079,62.852c-56.471-4.028-118.406-2.071-172.5,20.254A164.2,164.2,0,0,0,74.5,120.968v-480H734c11.837,54.644,47.106,103.822,79.141,148.108C847.445-163.511,890.128-105.894,883.475-41.679Z" transform="translate(53.833 412.032)" fill="url(#linear-gradient)"/>
      <path id="Path_100531" data-name="Path 100531" d="M883.475-196.385c-8.641-83.28-90.848-140.4-164.787-152.692C577.26-372.612,442.576-310.89,303.079-300.916c-56.471,4.028-118.406,2.071-172.5-20.254A164.2,164.2,0,0,1,74.5-359.032v480H734C745.837,66.324,781.106,17.146,813.142-27.14,847.445-74.554,890.128-132.17,883.475-196.385Z" transform="translate(-257.642 271.775)" fill="url(#linear-gradient-2)"/>
      <path id="Path_100507" data-name="Path 100507" d="M1111.58-359.032c-18.834,18.214-32.555,40.936-47.108,66.336-41.345,72.16-86.26,158.269-182.564,152.913C775.029-145.728,672.916-201.444,603.07-282.56a402.4,402.4,0,0,1-52.01-76.472Z" transform="translate(386.94 419.032)" fill="url(#linear-gradient-3)"/>
      <path id="Path_100529" data-name="Path 100529" d="M551.06-359.032c18.834,18.214,32.555,40.936,47.108,66.336,41.345,72.16,86.26,158.269,182.564,152.913,106.879-5.945,208.993-61.662,278.838-142.778a402.4,402.4,0,0,0,52.01-76.472Z" transform="translate(322.09 299.288)" fill="url(#linear-gradient-4)"/>
      <path id="Path_100508" data-name="Path 100508" d="M1090.853-202.372V12.764H464.52C498.637-60.47,574-103.8,655.974-99.288c58.247,3.207,113.044,22.745,171.794,21.644C901.9-79.016,976.3-102.3,1035.5-147.494,1056.423-163.472,1074.562-182.114,1090.853-202.372Z" transform="translate(410.48 576.177)" fill="url(#linear-gradient-3)"/>
      <path id="Path_100532" data-name="Path 100532" d="M1090.853-202.372V12.764H464.52C498.637-60.47,574-103.8,655.974-99.288c58.247,3.207,113.044,22.745,171.794,21.644C901.9-79.016,976.3-102.3,1035.5-147.494,1056.423-163.472,1074.562-182.114,1090.853-202.372Z" transform="translate(609.48 619.804)" fill="url(#linear-gradient-6)"/>
      <g id="Group_53767" data-name="Group 53767" transform="translate(548.01 441.234)">
        <g id="Group_53766" data-name="Group 53766" transform="translate(713.99 -331.234)">
          <g id="Group_53755" data-name="Group 53755">
            <g id="Group_53754" data-name="Group 53754">
              <path id="Path_100509" data-name="Path 100509" d="M730.107-299.142a2.271,2.271,0,0,1-1.665-.687l-13.695-13.693a2.179,2.179,0,0,1-.757-1.667,2.2,2.2,0,0,1,.79-1.695l13.662-13.663a2.271,2.271,0,0,1,1.665-.687,2.271,2.271,0,0,1,1.665.687l1.554,1.552a2.418,2.418,0,0,1,.721,1.632,2.185,2.185,0,0,1-.651,1.7l-10.475,10.475L733.4-304.713a2.188,2.188,0,0,1,.651,1.7,2.418,2.418,0,0,1-.721,1.632l-1.554,1.552A2.269,2.269,0,0,1,730.107-299.142Zm-.734-30.474L715.68-315.922a.913.913,0,0,0-.372.733.879.879,0,0,0,.339.705l13.726,13.724a1.031,1.031,0,0,0,1.469,0l1.552-1.552a1.107,1.107,0,0,0,.338-.767.857.857,0,0,0-.268-.7l-11.406-11.407,11.406-11.406a.857.857,0,0,0,.268-.7,1.107,1.107,0,0,0-.338-.767l-1.552-1.552a1.029,1.029,0,0,0-1.469,0Z" transform="translate(-713.99 331.234)" fill="#fff"/>
            </g>
          </g>
          <g id="Group_53757" data-name="Group 53757" transform="translate(30.989)">
            <g id="Group_53756" data-name="Group 53756">
              <path id="Path_100510" data-name="Path 100510" d="M749.09-299.142a2.275,2.275,0,0,1-1.667-.687L733.73-313.522a2.172,2.172,0,0,1-.757-1.667,2.2,2.2,0,0,1,.79-1.695l13.66-13.663a2.277,2.277,0,0,1,1.667-.687,2.281,2.281,0,0,1,1.665.686l1.552,1.554a2.411,2.411,0,0,1,.721,1.632,2.19,2.19,0,0,1-.65,1.7L741.9-315.189l10.475,10.475a2.193,2.193,0,0,1,.65,1.7,2.411,2.411,0,0,1-.721,1.632l-1.552,1.552A2.277,2.277,0,0,1,749.09-299.142Zm-.735-30.474-13.694,13.695a.915.915,0,0,0-.371.733.878.878,0,0,0,.339.705l13.726,13.724a1.03,1.03,0,0,0,1.469,0l1.552-1.552a1.106,1.106,0,0,0,.336-.767.856.856,0,0,0-.266-.7l-11.406-11.407,11.406-11.406a.856.856,0,0,0,.266-.7,1.106,1.106,0,0,0-.336-.767l-1.552-1.552a1.029,1.029,0,0,0-1.469,0Z" transform="translate(-732.973 331.234)" fill="#fff"/>
            </g>
          </g>
          <g id="Group_53759" data-name="Group 53759" transform="translate(61.977)">
            <g id="Group_53758" data-name="Group 53758">
              <path id="Path_100511" data-name="Path 100511" d="M768.073-299.142a2.275,2.275,0,0,1-1.667-.687l-13.693-13.693a2.172,2.172,0,0,1-.757-1.667,2.2,2.2,0,0,1,.788-1.695l13.662-13.663a2.274,2.274,0,0,1,1.667-.687,2.276,2.276,0,0,1,1.665.687l1.552,1.552a2.41,2.41,0,0,1,.722,1.632,2.185,2.185,0,0,1-.651,1.7l-10.475,10.475,10.475,10.475a2.188,2.188,0,0,1,.651,1.7,2.411,2.411,0,0,1-.722,1.632l-1.552,1.552A2.274,2.274,0,0,1,768.073-299.142Zm-.734-30.474-13.695,13.695a.918.918,0,0,0-.372.733.883.883,0,0,0,.339.705l13.727,13.724a1.028,1.028,0,0,0,1.468,0l1.554-1.552a1.105,1.105,0,0,0,.336-.767.855.855,0,0,0-.266-.7l-11.407-11.407,11.407-11.406a.855.855,0,0,0,.266-.7,1.105,1.105,0,0,0-.336-.767l-1.554-1.552a1.027,1.027,0,0,0-1.468,0Z" transform="translate(-751.956 331.234)" fill="#fff"/>
            </g>
          </g>
          <g id="Group_53761" data-name="Group 53761" transform="translate(92.964)">
            <g id="Group_53760" data-name="Group 53760">
              <path id="Path_100512" data-name="Path 100512" d="M787.055-299.142a2.271,2.271,0,0,1-1.665-.687L771.7-313.522a2.175,2.175,0,0,1-.757-1.667,2.2,2.2,0,0,1,.79-1.695l13.662-13.663a2.271,2.271,0,0,1,1.665-.687,2.271,2.271,0,0,1,1.665.687l1.554,1.552a2.418,2.418,0,0,1,.721,1.632,2.185,2.185,0,0,1-.651,1.7l-10.475,10.475,10.475,10.475a2.189,2.189,0,0,1,.651,1.7,2.418,2.418,0,0,1-.721,1.632l-1.554,1.552A2.271,2.271,0,0,1,787.055-299.142Zm0-30.776a.979.979,0,0,0-.734.3l-13.693,13.695a.913.913,0,0,0-.372.733.878.878,0,0,0,.34.705L786.32-300.76a1.03,1.03,0,0,0,1.469,0l1.552-1.552a1.1,1.1,0,0,0,.338-.767.861.861,0,0,0-.266-.7l-11.407-11.407,11.407-11.406a.861.861,0,0,0,.266-.7,1.1,1.1,0,0,0-.338-.767l-1.552-1.552A.979.979,0,0,0,787.055-329.918Z" transform="translate(-770.938 331.234)" fill="#fff"/>
            </g>
          </g>
          <g id="Group_53763" data-name="Group 53763" transform="translate(123.953)">
            <g id="Group_53762" data-name="Group 53762">
              <path id="Path_100513" data-name="Path 100513" d="M806.038-299.142a2.271,2.271,0,0,1-1.665-.687l-13.694-13.693a2.175,2.175,0,0,1-.757-1.667,2.206,2.206,0,0,1,.788-1.695l13.664-13.663a2.271,2.271,0,0,1,1.665-.687,2.274,2.274,0,0,1,1.665.687l1.552,1.552a2.408,2.408,0,0,1,.722,1.632,2.178,2.178,0,0,1-.65,1.7l-10.475,10.475,10.475,10.475a2.182,2.182,0,0,1,.65,1.7,2.4,2.4,0,0,1-.722,1.632l-1.552,1.552A2.274,2.274,0,0,1,806.038-299.142Zm0-30.776a.979.979,0,0,0-.735.3l-13.694,13.695a.915.915,0,0,0-.37.733.878.878,0,0,0,.339.705L805.3-300.76a1.03,1.03,0,0,0,1.469,0l1.552-1.552a1.106,1.106,0,0,0,.336-.769.854.854,0,0,0-.266-.7l-11.406-11.407L808.4-326.595a.856.856,0,0,0,.266-.7,1.105,1.105,0,0,0-.336-.767l-1.552-1.552A.984.984,0,0,0,806.038-329.918Z" transform="translate(-789.921 331.234)" fill="#fff"/>
            </g>
          </g>
          <g id="Group_53765" data-name="Group 53765" transform="translate(154.939)">
            <g id="Group_53764" data-name="Group 53764">
              <path id="Path_100514" data-name="Path 100514" d="M825.02-299.142a2.277,2.277,0,0,1-1.665-.687L809.66-313.522a2.175,2.175,0,0,1-.757-1.667,2.2,2.2,0,0,1,.79-1.695l13.662-13.665a2.282,2.282,0,0,1,1.665-.686,2.277,2.277,0,0,1,1.667.687l1.552,1.552a2.415,2.415,0,0,1,.722,1.632,2.186,2.186,0,0,1-.651,1.7l-10.475,10.474,10.475,10.475a2.187,2.187,0,0,1,.651,1.7,2.412,2.412,0,0,1-.722,1.632l-1.552,1.552A2.275,2.275,0,0,1,825.02-299.142Zm-.735-30.474-13.693,13.695a.913.913,0,0,0-.372.733.875.875,0,0,0,.341.705l13.724,13.724a1.03,1.03,0,0,0,1.469,0l1.554-1.552a1.105,1.105,0,0,0,.336-.769.859.859,0,0,0-.266-.7l-11.406-11.407,11.406-11.406a.861.861,0,0,0,.266-.7,1.1,1.1,0,0,0-.336-.767l-1.554-1.552a1.029,1.029,0,0,0-1.469,0Z" transform="translate(-808.903 331.234)" fill="#fff"/>
            </g>
          </g>
        </g>
      </g>
      <g id="Group_53771" data-name="Group 53771" transform="translate(1843.99 225.858) rotate(180)">
        <g id="Group_53766-2" data-name="Group 53766" transform="translate(713.99 -331.234)">
          <g id="Group_53755-2" data-name="Group 53755">
            <g id="Group_53754-2" data-name="Group 53754">
              <path id="Path_100509-2" data-name="Path 100509" d="M730.107-299.142a2.271,2.271,0,0,1-1.665-.687l-13.695-13.693a2.179,2.179,0,0,1-.757-1.667,2.2,2.2,0,0,1,.79-1.695l13.662-13.663a2.271,2.271,0,0,1,1.665-.687,2.271,2.271,0,0,1,1.665.687l1.554,1.552a2.418,2.418,0,0,1,.721,1.632,2.185,2.185,0,0,1-.651,1.7l-10.475,10.475L733.4-304.713a2.188,2.188,0,0,1,.651,1.7,2.418,2.418,0,0,1-.721,1.632l-1.554,1.552A2.269,2.269,0,0,1,730.107-299.142Zm-.734-30.474L715.68-315.922a.913.913,0,0,0-.372.733.879.879,0,0,0,.339.705l13.726,13.724a1.031,1.031,0,0,0,1.469,0l1.552-1.552a1.107,1.107,0,0,0,.338-.767.857.857,0,0,0-.268-.7l-11.406-11.407,11.406-11.406a.857.857,0,0,0,.268-.7,1.107,1.107,0,0,0-.338-.767l-1.552-1.552a1.029,1.029,0,0,0-1.469,0Z" transform="translate(-713.99 331.234)" fill="#fff"/>
            </g>
          </g>
          <g id="Group_53757-2" data-name="Group 53757" transform="translate(30.989)">
            <g id="Group_53756-2" data-name="Group 53756">
              <path id="Path_100510-2" data-name="Path 100510" d="M749.09-299.142a2.275,2.275,0,0,1-1.667-.687L733.73-313.522a2.172,2.172,0,0,1-.757-1.667,2.2,2.2,0,0,1,.79-1.695l13.66-13.663a2.277,2.277,0,0,1,1.667-.687,2.281,2.281,0,0,1,1.665.686l1.552,1.554a2.411,2.411,0,0,1,.721,1.632,2.19,2.19,0,0,1-.65,1.7L741.9-315.189l10.475,10.475a2.193,2.193,0,0,1,.65,1.7,2.411,2.411,0,0,1-.721,1.632l-1.552,1.552A2.277,2.277,0,0,1,749.09-299.142Zm-.735-30.474-13.694,13.695a.915.915,0,0,0-.371.733.878.878,0,0,0,.339.705l13.726,13.724a1.03,1.03,0,0,0,1.469,0l1.552-1.552a1.106,1.106,0,0,0,.336-.767.856.856,0,0,0-.266-.7l-11.406-11.407,11.406-11.406a.856.856,0,0,0,.266-.7,1.106,1.106,0,0,0-.336-.767l-1.552-1.552a1.029,1.029,0,0,0-1.469,0Z" transform="translate(-732.973 331.234)" fill="#fff"/>
            </g>
          </g>
          <g id="Group_53759-2" data-name="Group 53759" transform="translate(61.977)">
            <g id="Group_53758-2" data-name="Group 53758">
              <path id="Path_100511-2" data-name="Path 100511" d="M768.073-299.142a2.275,2.275,0,0,1-1.667-.687l-13.693-13.693a2.172,2.172,0,0,1-.757-1.667,2.2,2.2,0,0,1,.788-1.695l13.662-13.663a2.274,2.274,0,0,1,1.667-.687,2.276,2.276,0,0,1,1.665.687l1.552,1.552a2.41,2.41,0,0,1,.722,1.632,2.185,2.185,0,0,1-.651,1.7l-10.475,10.475,10.475,10.475a2.188,2.188,0,0,1,.651,1.7,2.411,2.411,0,0,1-.722,1.632l-1.552,1.552A2.274,2.274,0,0,1,768.073-299.142Zm-.734-30.474-13.695,13.695a.918.918,0,0,0-.372.733.883.883,0,0,0,.339.705l13.727,13.724a1.028,1.028,0,0,0,1.468,0l1.554-1.552a1.105,1.105,0,0,0,.336-.767.855.855,0,0,0-.266-.7l-11.407-11.407,11.407-11.406a.855.855,0,0,0,.266-.7,1.105,1.105,0,0,0-.336-.767l-1.554-1.552a1.027,1.027,0,0,0-1.468,0Z" transform="translate(-751.956 331.234)" fill="#fff"/>
            </g>
          </g>
          <g id="Group_53761-2" data-name="Group 53761" transform="translate(92.964)">
            <g id="Group_53760-2" data-name="Group 53760">
              <path id="Path_100512-2" data-name="Path 100512" d="M787.055-299.142a2.271,2.271,0,0,1-1.665-.687L771.7-313.522a2.175,2.175,0,0,1-.757-1.667,2.2,2.2,0,0,1,.79-1.695l13.662-13.663a2.271,2.271,0,0,1,1.665-.687,2.271,2.271,0,0,1,1.665.687l1.554,1.552a2.418,2.418,0,0,1,.721,1.632,2.185,2.185,0,0,1-.651,1.7l-10.475,10.475,10.475,10.475a2.189,2.189,0,0,1,.651,1.7,2.418,2.418,0,0,1-.721,1.632l-1.554,1.552A2.271,2.271,0,0,1,787.055-299.142Zm0-30.776a.979.979,0,0,0-.734.3l-13.693,13.695a.913.913,0,0,0-.372.733.878.878,0,0,0,.34.705L786.32-300.76a1.03,1.03,0,0,0,1.469,0l1.552-1.552a1.1,1.1,0,0,0,.338-.767.861.861,0,0,0-.266-.7l-11.407-11.407,11.407-11.406a.861.861,0,0,0,.266-.7,1.1,1.1,0,0,0-.338-.767l-1.552-1.552A.979.979,0,0,0,787.055-329.918Z" transform="translate(-770.938 331.234)" fill="#fff"/>
            </g>
          </g>
          <g id="Group_53763-2" data-name="Group 53763" transform="translate(123.953)">
            <g id="Group_53762-2" data-name="Group 53762">
              <path id="Path_100513-2" data-name="Path 100513" d="M806.038-299.142a2.271,2.271,0,0,1-1.665-.687l-13.694-13.693a2.175,2.175,0,0,1-.757-1.667,2.206,2.206,0,0,1,.788-1.695l13.664-13.663a2.271,2.271,0,0,1,1.665-.687,2.274,2.274,0,0,1,1.665.687l1.552,1.552a2.408,2.408,0,0,1,.722,1.632,2.178,2.178,0,0,1-.65,1.7l-10.475,10.475,10.475,10.475a2.182,2.182,0,0,1,.65,1.7,2.4,2.4,0,0,1-.722,1.632l-1.552,1.552A2.274,2.274,0,0,1,806.038-299.142Zm0-30.776a.979.979,0,0,0-.735.3l-13.694,13.695a.915.915,0,0,0-.37.733.878.878,0,0,0,.339.705L805.3-300.76a1.03,1.03,0,0,0,1.469,0l1.552-1.552a1.106,1.106,0,0,0,.336-.769.854.854,0,0,0-.266-.7l-11.406-11.407L808.4-326.595a.856.856,0,0,0,.266-.7,1.105,1.105,0,0,0-.336-.767l-1.552-1.552A.984.984,0,0,0,806.038-329.918Z" transform="translate(-789.921 331.234)" fill="#fff"/>
            </g>
          </g>
          <g id="Group_53765-2" data-name="Group 53765" transform="translate(154.939)">
            <g id="Group_53764-2" data-name="Group 53764">
              <path id="Path_100514-2" data-name="Path 100514" d="M825.02-299.142a2.277,2.277,0,0,1-1.665-.687L809.66-313.522a2.175,2.175,0,0,1-.757-1.667,2.2,2.2,0,0,1,.79-1.695l13.662-13.665a2.282,2.282,0,0,1,1.665-.686,2.277,2.277,0,0,1,1.667.687l1.552,1.552a2.415,2.415,0,0,1,.722,1.632,2.186,2.186,0,0,1-.651,1.7l-10.475,10.474,10.475,10.475a2.187,2.187,0,0,1,.651,1.7,2.412,2.412,0,0,1-.722,1.632l-1.552,1.552A2.275,2.275,0,0,1,825.02-299.142Zm-.735-30.474-13.693,13.695a.913.913,0,0,0-.372.733.875.875,0,0,0,.341.705l13.724,13.724a1.03,1.03,0,0,0,1.469,0l1.554-1.552a1.105,1.105,0,0,0,.336-.769.859.859,0,0,0-.266-.7l-11.406-11.407,11.406-11.406a.861.861,0,0,0,.266-.7,1.1,1.1,0,0,0-.336-.767l-1.554-1.552a1.029,1.029,0,0,0-1.469,0Z" transform="translate(-808.903 331.234)" fill="#fff"/>
            </g>
          </g>
        </g>
      </g>
      <g id="Group_53774" data-name="Group 53774" transform="translate(1326.99 185.025) rotate(180)">
        <g id="Group_53766-3" data-name="Group 53766" transform="translate(713.99 -331.234)">
          <g id="Group_53755-3" data-name="Group 53755">
            <g id="Group_53754-3" data-name="Group 53754">
              <path id="Path_100509-3" data-name="Path 100509" d="M730.107-299.142a2.271,2.271,0,0,1-1.665-.687l-13.695-13.693a2.179,2.179,0,0,1-.757-1.667,2.2,2.2,0,0,1,.79-1.695l13.662-13.663a2.271,2.271,0,0,1,1.665-.687,2.271,2.271,0,0,1,1.665.687l1.554,1.552a2.418,2.418,0,0,1,.721,1.632,2.185,2.185,0,0,1-.651,1.7l-10.475,10.475L733.4-304.713a2.188,2.188,0,0,1,.651,1.7,2.418,2.418,0,0,1-.721,1.632l-1.554,1.552A2.269,2.269,0,0,1,730.107-299.142Zm-.734-30.474L715.68-315.922a.913.913,0,0,0-.372.733.879.879,0,0,0,.339.705l13.726,13.724a1.031,1.031,0,0,0,1.469,0l1.552-1.552a1.107,1.107,0,0,0,.338-.767.857.857,0,0,0-.268-.7l-11.406-11.407,11.406-11.406a.857.857,0,0,0,.268-.7,1.107,1.107,0,0,0-.338-.767l-1.552-1.552a1.029,1.029,0,0,0-1.469,0Z" transform="translate(-713.99 331.234)" fill="#fff"/>
            </g>
          </g>
          <g id="Group_53757-3" data-name="Group 53757" transform="translate(30.989)">
            <g id="Group_53756-3" data-name="Group 53756">
              <path id="Path_100510-3" data-name="Path 100510" d="M749.09-299.142a2.275,2.275,0,0,1-1.667-.687L733.73-313.522a2.172,2.172,0,0,1-.757-1.667,2.2,2.2,0,0,1,.79-1.695l13.66-13.663a2.277,2.277,0,0,1,1.667-.687,2.281,2.281,0,0,1,1.665.686l1.552,1.554a2.411,2.411,0,0,1,.721,1.632,2.19,2.19,0,0,1-.65,1.7L741.9-315.189l10.475,10.475a2.193,2.193,0,0,1,.65,1.7,2.411,2.411,0,0,1-.721,1.632l-1.552,1.552A2.277,2.277,0,0,1,749.09-299.142Zm-.735-30.474-13.694,13.695a.915.915,0,0,0-.371.733.878.878,0,0,0,.339.705l13.726,13.724a1.03,1.03,0,0,0,1.469,0l1.552-1.552a1.106,1.106,0,0,0,.336-.767.856.856,0,0,0-.266-.7l-11.406-11.407,11.406-11.406a.856.856,0,0,0,.266-.7,1.106,1.106,0,0,0-.336-.767l-1.552-1.552a1.029,1.029,0,0,0-1.469,0Z" transform="translate(-732.973 331.234)" fill="#fff"/>
            </g>
          </g>
          <g id="Group_53759-3" data-name="Group 53759" transform="translate(61.977)">
            <g id="Group_53758-3" data-name="Group 53758">
              <path id="Path_100511-3" data-name="Path 100511" d="M768.073-299.142a2.275,2.275,0,0,1-1.667-.687l-13.693-13.693a2.172,2.172,0,0,1-.757-1.667,2.2,2.2,0,0,1,.788-1.695l13.662-13.663a2.274,2.274,0,0,1,1.667-.687,2.276,2.276,0,0,1,1.665.687l1.552,1.552a2.41,2.41,0,0,1,.722,1.632,2.185,2.185,0,0,1-.651,1.7l-10.475,10.475,10.475,10.475a2.188,2.188,0,0,1,.651,1.7,2.411,2.411,0,0,1-.722,1.632l-1.552,1.552A2.274,2.274,0,0,1,768.073-299.142Zm-.734-30.474-13.695,13.695a.918.918,0,0,0-.372.733.883.883,0,0,0,.339.705l13.727,13.724a1.028,1.028,0,0,0,1.468,0l1.554-1.552a1.105,1.105,0,0,0,.336-.767.855.855,0,0,0-.266-.7l-11.407-11.407,11.407-11.406a.855.855,0,0,0,.266-.7,1.105,1.105,0,0,0-.336-.767l-1.554-1.552a1.027,1.027,0,0,0-1.468,0Z" transform="translate(-751.956 331.234)" fill="#fff"/>
            </g>
          </g>
          <g id="Group_53761-3" data-name="Group 53761" transform="translate(92.964)">
            <g id="Group_53760-3" data-name="Group 53760">
              <path id="Path_100512-3" data-name="Path 100512" d="M787.055-299.142a2.271,2.271,0,0,1-1.665-.687L771.7-313.522a2.175,2.175,0,0,1-.757-1.667,2.2,2.2,0,0,1,.79-1.695l13.662-13.663a2.271,2.271,0,0,1,1.665-.687,2.271,2.271,0,0,1,1.665.687l1.554,1.552a2.418,2.418,0,0,1,.721,1.632,2.185,2.185,0,0,1-.651,1.7l-10.475,10.475,10.475,10.475a2.189,2.189,0,0,1,.651,1.7,2.418,2.418,0,0,1-.721,1.632l-1.554,1.552A2.271,2.271,0,0,1,787.055-299.142Zm0-30.776a.979.979,0,0,0-.734.3l-13.693,13.695a.913.913,0,0,0-.372.733.878.878,0,0,0,.34.705L786.32-300.76a1.03,1.03,0,0,0,1.469,0l1.552-1.552a1.1,1.1,0,0,0,.338-.767.861.861,0,0,0-.266-.7l-11.407-11.407,11.407-11.406a.861.861,0,0,0,.266-.7,1.1,1.1,0,0,0-.338-.767l-1.552-1.552A.979.979,0,0,0,787.055-329.918Z" transform="translate(-770.938 331.234)" fill="#fff"/>
            </g>
          </g>
          <g id="Group_53763-3" data-name="Group 53763" transform="translate(123.953)">
            <g id="Group_53762-3" data-name="Group 53762">
              <path id="Path_100513-3" data-name="Path 100513" d="M806.038-299.142a2.271,2.271,0,0,1-1.665-.687l-13.694-13.693a2.175,2.175,0,0,1-.757-1.667,2.206,2.206,0,0,1,.788-1.695l13.664-13.663a2.271,2.271,0,0,1,1.665-.687,2.274,2.274,0,0,1,1.665.687l1.552,1.552a2.408,2.408,0,0,1,.722,1.632,2.178,2.178,0,0,1-.65,1.7l-10.475,10.475,10.475,10.475a2.182,2.182,0,0,1,.65,1.7,2.4,2.4,0,0,1-.722,1.632l-1.552,1.552A2.274,2.274,0,0,1,806.038-299.142Zm0-30.776a.979.979,0,0,0-.735.3l-13.694,13.695a.915.915,0,0,0-.37.733.878.878,0,0,0,.339.705L805.3-300.76a1.03,1.03,0,0,0,1.469,0l1.552-1.552a1.106,1.106,0,0,0,.336-.769.854.854,0,0,0-.266-.7l-11.406-11.407L808.4-326.595a.856.856,0,0,0,.266-.7,1.105,1.105,0,0,0-.336-.767l-1.552-1.552A.984.984,0,0,0,806.038-329.918Z" transform="translate(-789.921 331.234)" fill="#fff"/>
            </g>
          </g>
          <g id="Group_53765-3" data-name="Group 53765" transform="translate(154.939)">
            <g id="Group_53764-3" data-name="Group 53764">
              <path id="Path_100514-3" data-name="Path 100514" d="M825.02-299.142a2.277,2.277,0,0,1-1.665-.687L809.66-313.522a2.175,2.175,0,0,1-.757-1.667,2.2,2.2,0,0,1,.79-1.695l13.662-13.665a2.282,2.282,0,0,1,1.665-.686,2.277,2.277,0,0,1,1.667.687l1.552,1.552a2.415,2.415,0,0,1,.722,1.632,2.186,2.186,0,0,1-.651,1.7l-10.475,10.474,10.475,10.475a2.187,2.187,0,0,1,.651,1.7,2.412,2.412,0,0,1-.722,1.632l-1.552,1.552A2.275,2.275,0,0,1,825.02-299.142Zm-.735-30.474-13.693,13.695a.913.913,0,0,0-.372.733.875.875,0,0,0,.341.705l13.724,13.724a1.03,1.03,0,0,0,1.469,0l1.554-1.552a1.105,1.105,0,0,0,.336-.769.859.859,0,0,0-.266-.7l-11.406-11.407,11.406-11.406a.861.861,0,0,0,.266-.7,1.1,1.1,0,0,0-.336-.767l-1.554-1.552a1.029,1.029,0,0,0-1.469,0Z" transform="translate(-808.903 331.234)" fill="#fff"/>
            </g>
          </g>
        </g>
      </g>
      <g id="Group_53768" data-name="Group 53768" transform="translate(527.563 517.711)">
        <circle id="Ellipse_4052" data-name="Ellipse 4052" cx="2.476" cy="2.476" r="2.476" transform="translate(874.778 -245.938)" fill="url(#linear-gradient-7)"/>
        <circle id="Ellipse_4053" data-name="Ellipse 4053" cx="2.476" cy="2.476" r="2.476" transform="translate(889.632 -245.938)" fill="url(#linear-gradient-8)"/>
        <circle id="Ellipse_4054" data-name="Ellipse 4054" cx="2.476" cy="2.476" r="2.476" transform="translate(904.486 -245.938)" fill="url(#linear-gradient-9)"/>
        <circle id="Ellipse_4055" data-name="Ellipse 4055" cx="2.476" cy="2.476" r="2.476" transform="translate(874.778 -231.084)" fill="url(#linear-gradient-7)"/>
        <circle id="Ellipse_4056" data-name="Ellipse 4056" cx="2.476" cy="2.476" r="2.476" transform="translate(874.778 -216.229)" fill="url(#linear-gradient-7)"/>
        <circle id="Ellipse_4057" data-name="Ellipse 4057" cx="2.476" cy="2.476" r="2.476" transform="translate(874.778 -201.375)" fill="url(#linear-gradient-7)"/>
        <circle id="Ellipse_4058" data-name="Ellipse 4058" cx="2.476" cy="2.476" r="2.476" transform="translate(874.778 -186.521)" fill="url(#linear-gradient-7)"/>
        <circle id="Ellipse_4059" data-name="Ellipse 4059" cx="2.476" cy="2.476" r="2.476" transform="translate(874.778 -171.667)" fill="url(#linear-gradient-7)"/>
        <circle id="Ellipse_4060" data-name="Ellipse 4060" cx="2.476" cy="2.476" r="2.476" transform="translate(889.632 -231.084)" fill="url(#linear-gradient-8)"/>
        <circle id="Ellipse_4061" data-name="Ellipse 4061" cx="2.476" cy="2.476" r="2.476" transform="translate(889.632 -216.229)" fill="url(#linear-gradient-8)"/>
        <circle id="Ellipse_4062" data-name="Ellipse 4062" cx="2.476" cy="2.476" r="2.476" transform="translate(889.632 -201.375)" fill="url(#linear-gradient-8)"/>
        <circle id="Ellipse_4063" data-name="Ellipse 4063" cx="2.476" cy="2.476" r="2.476" transform="translate(889.632 -186.521)" fill="url(#linear-gradient-8)"/>
        <circle id="Ellipse_4064" data-name="Ellipse 4064" cx="2.476" cy="2.476" r="2.476" transform="translate(889.632 -171.667)" fill="url(#linear-gradient-8)"/>
        <circle id="Ellipse_4065" data-name="Ellipse 4065" cx="2.476" cy="2.476" r="2.476" transform="translate(904.486 -231.084)" fill="url(#linear-gradient-9)"/>
        <circle id="Ellipse_4066" data-name="Ellipse 4066" cx="2.476" cy="2.476" r="2.476" transform="translate(904.486 -216.229)" fill="url(#linear-gradient-9)"/>
        <circle id="Ellipse_4067" data-name="Ellipse 4067" cx="2.476" cy="2.476" r="2.476" transform="translate(904.486 -201.375)" fill="url(#linear-gradient-9)"/>
        <circle id="Ellipse_4068" data-name="Ellipse 4068" cx="2.476" cy="2.476" r="2.476" transform="translate(904.486 -186.521)" fill="url(#linear-gradient-9)"/>
        <circle id="Ellipse_4069" data-name="Ellipse 4069" cx="2.476" cy="2.476" r="2.476" transform="translate(904.486 -171.667)" fill="url(#linear-gradient-9)"/>
      </g>
      <path id="Path_100515" data-name="Path 100515" d="M844.878-172.741a3.085,3.085,0,0,0-.084-.862c-.772-7.113-6.228-12.968-13.747-12.968a13.993,13.993,0,0,0-13.831,13.83,13.965,13.965,0,0,0,13.238,13.8c7.747.327,13.538-5.586,14.338-12.929A2.962,2.962,0,0,0,844.878-172.741Zm-21.8,0c0-10.307,15.4-10.217,15.947,0C838.47-162.528,823.073-162.439,823.073-172.741Z" transform="translate(108.302 339.571)" fill="url(#linear-gradient-3)"/>
      <path id="Path_100533" data-name="Path 100533" d="M844.878-172.741a3.085,3.085,0,0,0-.084-.862c-.772-7.113-6.228-12.968-13.747-12.968a13.993,13.993,0,0,0-13.831,13.83,13.965,13.965,0,0,0,13.238,13.8c7.747.327,13.538-5.586,14.338-12.929A2.962,2.962,0,0,0,844.878-172.741Zm-21.8,0c0-10.307,15.4-10.217,15.947,0C838.47-162.528,823.073-162.439,823.073-172.741Z" transform="translate(-406.882 711.571)" fill="url(#linear-gradient-3)"/>
      <path id="Path_100516" data-name="Path 100516" d="M844.878-172.741a3.085,3.085,0,0,0-.084-.862c-.772-7.113-6.228-12.968-13.747-12.968a13.993,13.993,0,0,0-13.831,13.83,13.965,13.965,0,0,0,13.238,13.8c7.747.327,13.538-5.586,14.338-12.929A2.962,2.962,0,0,0,844.878-172.741Zm-21.8,0c0-10.307,15.4-10.217,15.947,0C838.47-162.528,823.073-162.439,823.073-172.741Z" transform="translate(517.786 617.571)" fill="url(#linear-gradient-3)"/>
      <g id="Group_53769" data-name="Group 53769" transform="translate(75.471 551.938)">
        <circle id="Ellipse_4070" data-name="Ellipse 4070" cx="2.136" cy="2.136" r="2.136" transform="translate(104.53 -245.938)" fill="#fff"/>
        <circle id="Ellipse_4071" data-name="Ellipse 4071" cx="2.136" cy="2.136" r="2.136" transform="translate(117.348 -245.938)" fill="#fff"/>
        <circle id="Ellipse_4072" data-name="Ellipse 4072" cx="2.136" cy="2.136" r="2.136" transform="translate(130.166 -245.938)" fill="#fff"/>
        <circle id="Ellipse_4073" data-name="Ellipse 4073" cx="2.136" cy="2.136" r="2.136" transform="translate(104.53 -233.119)" fill="#fff"/>
        <circle id="Ellipse_4074" data-name="Ellipse 4074" cx="2.136" cy="2.136" r="2.136" transform="translate(104.53 -220.301)" fill="#fff"/>
        <circle id="Ellipse_4075" data-name="Ellipse 4075" cx="2.136" cy="2.136" r="2.136" transform="translate(104.53 -207.482)" fill="#fff"/>
        <circle id="Ellipse_4076" data-name="Ellipse 4076" cx="2.136" cy="2.136" r="2.136" transform="translate(104.53 -194.664)" fill="#fff"/>
        <circle id="Ellipse_4077" data-name="Ellipse 4077" cx="2.136" cy="2.136" r="2.136" transform="translate(104.53 -181.846)" fill="#fff"/>
        <circle id="Ellipse_4078" data-name="Ellipse 4078" cx="2.136" cy="2.136" r="2.136" transform="translate(117.348 -233.119)" fill="#fff"/>
        <circle id="Ellipse_4079" data-name="Ellipse 4079" cx="2.136" cy="2.136" r="2.136" transform="translate(117.348 -220.301)" fill="#fff"/>
        <circle id="Ellipse_4080" data-name="Ellipse 4080" cx="2.136" cy="2.136" r="2.136" transform="translate(117.348 -207.482)" fill="#fff"/>
        <circle id="Ellipse_4081" data-name="Ellipse 4081" cx="2.136" cy="2.136" r="2.136" transform="translate(117.348 -194.664)" fill="#fff"/>
        <circle id="Ellipse_4082" data-name="Ellipse 4082" cx="2.136" cy="2.136" r="2.136" transform="translate(117.348 -181.846)" fill="#fff"/>
        <circle id="Ellipse_4083" data-name="Ellipse 4083" cx="2.136" cy="2.136" r="2.136" transform="translate(130.166 -233.119)" fill="#fff"/>
        <circle id="Ellipse_4084" data-name="Ellipse 4084" cx="2.136" cy="2.136" r="2.136" transform="translate(130.166 -220.301)" fill="#fff"/>
        <circle id="Ellipse_4085" data-name="Ellipse 4085" cx="2.136" cy="2.136" r="2.136" transform="translate(130.166 -207.482)" fill="#fff"/>
        <circle id="Ellipse_4086" data-name="Ellipse 4086" cx="2.136" cy="2.136" r="2.136" transform="translate(130.166 -194.664)" fill="#fff"/>
        <circle id="Ellipse_4087" data-name="Ellipse 4087" cx="2.136" cy="2.136" r="2.136" transform="translate(130.166 -181.846)" fill="#fff"/>
      </g>
      <path id="Path_100517" data-name="Path 100517" d="M478.014-187.206a2.494,2.494,0,0,0-.068-.7c-.623-5.746-5.032-10.477-11.106-10.477a11.305,11.305,0,0,0-11.175,11.173,11.283,11.283,0,0,0,10.694,11.149c6.26.264,10.937-4.513,11.585-10.444A2.456,2.456,0,0,0,478.014-187.206Zm-17.616,0c0-8.327,12.438-8.254,12.883,0C472.836-178.954,460.4-178.881,460.4-187.206Z" transform="translate(329.026 671.379)" fill="#fff"/>
      <path id="Path_100530" data-name="Path 100530" d="M471-190.714a1.711,1.711,0,0,0-.047-.478,7.749,7.749,0,0,0-7.619-7.187,7.755,7.755,0,0,0-7.666,7.665A7.74,7.74,0,0,0,463-183.066a7.73,7.73,0,0,0,7.947-7.164A1.684,1.684,0,0,0,471-190.714Zm-12.085,0c0-5.712,8.532-5.662,8.838,0C467.444-185.054,458.912-185,458.912-190.714Z" transform="translate(864.335 411.379)" fill="#fff"/>
      <path id="Path_100518" data-name="Path 100518" d="M478.014-187.206a2.494,2.494,0,0,0-.068-.7c-.623-5.746-5.032-10.477-11.106-10.477a11.305,11.305,0,0,0-11.175,11.173,11.283,11.283,0,0,0,10.694,11.149c6.26.264,10.937-4.513,11.585-10.444A2.456,2.456,0,0,0,478.014-187.206Zm-17.616,0c0-8.327,12.438-8.254,12.883,0C472.836-178.954,460.4-178.881,460.4-187.206Z" transform="translate(-233.974 313.213)" fill="#fff"/>
      <g id="Group_53770" data-name="Group 53770" transform="translate(501.301 505.753)">
        <path id="Path_100519" data-name="Path 100519" d="M456.4-239.393l5.7,5.7a64.641,64.641,0,0,0,12.541,8.7L447.7-251.934A64.476,64.476,0,0,0,456.4-239.393Z" transform="translate(3.429 43.801)" fill="#004080"/>
        <path id="Path_100520" data-name="Path 100520" d="M444.039-262.458,501.2-205.3c1.39.154,2.784.275,4.182.34L443.7-266.64C443.762-265.244,443.885-263.85,444.039-262.458Z" transform="translate(0 31.208)" fill="#004080"/>
        <path id="Path_100521" data-name="Path 100521" d="M444.264-273.244l75.6,75.6q1.59-.3,3.169-.674l-78.1-78.1Q444.561-274.837,444.264-273.244Z" transform="translate(0.484 22.84)" fill="#004080"/>
        <path id="Path_100522" data-name="Path 100522" d="M446.846-281.636l85.883,85.883c.869-.4,1.726-.824,2.578-1.264l-87.2-87.2C447.67-283.362,447.245-282.5,446.846-281.636Z" transform="translate(2.695 16.158)" fill="#004080"/>
        <path id="Path_100523" data-name="Path 100523" d="M450.884-288.506,541.64-197.75c.718-.553,1.431-1.121,2.131-1.71l-91.177-91.177Q451.711-289.587,450.884-288.506Z" transform="translate(6.152 10.66)" fill="#004080"/>
        <path id="Path_100524" data-name="Path 100524" d="M456.119-294.165,547.3-202.98q.883-1.053,1.713-2.131l-90.769-90.767C457.53-295.323,456.819-294.755,456.119-294.165Z" transform="translate(10.635 6.172)" fill="#004080"/>
        <path id="Path_100525" data-name="Path 100525" d="M462.534-298.658l87.231,87.231c.44-.852.867-1.71,1.266-2.577l-85.92-85.918C464.244-299.523,463.386-299.1,462.534-298.658Z" transform="translate(16.128 2.709)" fill="#004080"/>
        <path id="Path_100526" data-name="Path 100526" d="M470.33-301.834l78.153,78.155q.381-1.576.677-3.165L473.5-302.512Q471.9-302.211,470.33-301.834Z" transform="translate(22.804 0.492)" fill="#004080"/>
        <path id="Path_100527" data-name="Path 100527" d="M480.091-303.086l61.777,61.777c-.061-1.392-.178-2.784-.329-4.171l-57.276-57.276C482.875-302.906,481.485-303.023,480.091-303.086Z" transform="translate(31.162)" fill="#004080"/>
        <path id="Path_100528" data-name="Path 100528" d="M506.836-290.886a64.564,64.564,0,0,0-12.1-8.253L522-271.878a64.425,64.425,0,0,0-8.255-12.1Z" transform="translate(43.705 3.38)" fill="#004080"/>
      </g>
      <g id="Group_53775" data-name="Group 53775" transform="translate(739.301 734.086)">
        <path id="Path_100519-2" data-name="Path 100519" d="M456.4-239.393l5.7,5.7a64.641,64.641,0,0,0,12.541,8.7L447.7-251.934A64.476,64.476,0,0,0,456.4-239.393Z" transform="translate(3.429 43.801)" fill="#004080"/>
        <path id="Path_100520-2" data-name="Path 100520" d="M444.039-262.458,501.2-205.3c1.39.154,2.784.275,4.182.34L443.7-266.64C443.762-265.244,443.885-263.85,444.039-262.458Z" transform="translate(0 31.208)" fill="#004080"/>
        <path id="Path_100521-2" data-name="Path 100521" d="M444.264-273.244l75.6,75.6q1.59-.3,3.169-.674l-78.1-78.1Q444.561-274.837,444.264-273.244Z" transform="translate(0.484 22.84)" fill="#004080"/>
        <path id="Path_100522-2" data-name="Path 100522" d="M446.846-281.636l85.883,85.883c.869-.4,1.726-.824,2.578-1.264l-87.2-87.2C447.67-283.362,447.245-282.5,446.846-281.636Z" transform="translate(2.695 16.158)" fill="#004080"/>
        <path id="Path_100523-2" data-name="Path 100523" d="M450.884-288.506,541.64-197.75c.718-.553,1.431-1.121,2.131-1.71l-91.177-91.177Q451.711-289.587,450.884-288.506Z" transform="translate(6.152 10.66)" fill="#004080"/>
        <path id="Path_100524-2" data-name="Path 100524" d="M456.119-294.165,547.3-202.98q.883-1.053,1.713-2.131l-90.769-90.767C457.53-295.323,456.819-294.755,456.119-294.165Z" transform="translate(10.635 6.172)" fill="#004080"/>
        <path id="Path_100525-2" data-name="Path 100525" d="M462.534-298.658l87.231,87.231c.44-.852.867-1.71,1.266-2.577l-85.92-85.918C464.244-299.523,463.386-299.1,462.534-298.658Z" transform="translate(16.128 2.709)" fill="#004080"/>
        <path id="Path_100526-2" data-name="Path 100526" d="M470.33-301.834l78.153,78.155q.381-1.576.677-3.165L473.5-302.512Q471.9-302.211,470.33-301.834Z" transform="translate(22.804 0.492)" fill="#004080"/>
        <path id="Path_100527-2" data-name="Path 100527" d="M480.091-303.086l61.777,61.777c-.061-1.392-.178-2.784-.329-4.171l-57.276-57.276C482.875-302.906,481.485-303.023,480.091-303.086Z" transform="translate(31.162)" fill="#004080"/>
        <path id="Path_100528-2" data-name="Path 100528" d="M506.836-290.886a64.564,64.564,0,0,0-12.1-8.253L522-271.878a64.425,64.425,0,0,0-8.255-12.1Z" transform="translate(43.705 3.38)" fill="#004080"/>
      </g>
    </g>
  </g>
</svg>
