<svg xmlns="http://www.w3.org/2000/svg" width="190" height="100" viewBox="0 0 190 100">
  <g id="t1-ic1" transform="translate(-180 -404)">
    <path id="Rectangle_36060" data-name="Rectangle 36060" d="M27.9,0H105a0,0,0,0,1,0,0V0A93,93,0,0,1,12,93H0a0,0,0,0,1,0,0V27.9A27.9,27.9,0,0,1,27.9,0Z" transform="translate(370 497) rotate(180)" fill="#03e6b0" opacity="0.15"/>
    <path id="Rectangle_36061" data-name="Rectangle 36061" d="M0,0H12a93,93,0,0,1,93,93v0a0,0,0,0,1,0,0H27.9A27.9,27.9,0,0,1,0,65.1V0A0,0,0,0,1,0,0Z" transform="translate(180 404)" fill="#ffd947" opacity="0.15"/>
    <g id="gestion-de-datos" transform="translate(220 380.499)">
      <path id="Path_165212" data-name="Path 165212" d="M108.791,441.753h-95.7A5.592,5.592,0,0,1,7.5,436.161v-4.3a.86.86,0,0,1,.86-.86H113.522a.86.86,0,0,1,.86.86v4.3A5.592,5.592,0,0,1,108.791,441.753Z" transform="translate(-5.887 -319.865)" fill="#d2e1f1"/>
      <path id="Path_165213" data-name="Path 165213" d="M459.683,431h-6.452a.86.86,0,0,1,.86.86v4.3a5.592,5.592,0,0,1-5.591,5.591h6.452a5.592,5.592,0,0,0,5.591-5.591v-4.3A.86.86,0,0,0,459.683,431Z" transform="translate(-352.048 -319.865)" fill="#b0c0d2"/>
      <path id="Path_165214" data-name="Path 165214" d="M129.172,195.514l-83.87,0a4.3,4.3,0,0,1-4.3-4.3L41,135.3a4.3,4.3,0,0,1,4.3-4.3l83.87,0a4.3,4.3,0,0,1,4.3,4.3l0,55.912A4.3,4.3,0,0,1,129.172,195.514Z" transform="translate(-32.183 -84.381)" fill="#80c0ff"/>
      <path id="Path_165215" data-name="Path 165215" d="M431.753,191.213a4.3,4.3,0,0,1-4.3,4.3H421a4.3,4.3,0,0,0,4.3-4.3l0-55.912a4.3,4.3,0,0,0-4.29-4.3h6.441a4.3,4.3,0,0,1,4.3,4.3Z" transform="translate(-330.462 -84.381)" fill="#0077ec"/>
      <path id="Path_165216" data-name="Path 165216" d="M150.57,212.611h-6.452l-73.116,0L71,161l73.116,0h6.452Z" transform="translate(-55.731 -107.929)" fill="#f3f3f3"/>
      <path id="Path_165217" data-name="Path 165217" d="M410.995,161h6.452v51.611h-6.452Z" transform="translate(-322.609 -107.929)" fill="#e4e4e4"/>
      <path id="Path_165218" data-name="Path 165218" d="M227.2,436.161H212.581A2.581,2.581,0,0,1,210,433.581V431h19.785v2.581A2.581,2.581,0,0,1,227.2,436.161Z" transform="translate(-164.839 -319.865)" fill="#88c3e0"/>
      <path id="Path_165219" data-name="Path 165219" d="M286.185,62.7c-.12.849-.406,2.065-.661,3.053a2.09,2.09,0,0,1-2.023,1.569h-2.919a2.09,2.09,0,0,1-2.023-1.569c-.255-.988-.541-2.2-.661-3.053a2.075,2.075,0,0,0-1.023-1.505l-2.7-1.554a2.079,2.079,0,0,0-1.814-.132c-.8.322-2,.684-2.99.958a2.089,2.089,0,0,1-2.368-.965l-1.458-2.519a2.084,2.084,0,0,1,.348-2.534c.731-.715,1.645-1.572,2.323-2.1a2.072,2.072,0,0,0,.794-1.636v-3.1a2.072,2.072,0,0,0-.794-1.636c-.678-.528-1.592-1.385-2.323-2.1a2.084,2.084,0,0,1-.348-2.534l1.458-2.519a2.089,2.089,0,0,1,2.368-.965c.988.274,2.192.636,2.99.958a2.079,2.079,0,0,0,1.814-.132l2.7-1.554a2.075,2.075,0,0,0,1.023-1.505c.12-.849.406-2.065.661-3.053A2.09,2.09,0,0,1,280.582,31H283.5a2.09,2.09,0,0,1,2.023,1.569c.255.988.541,2.2.661,3.053a2.075,2.075,0,0,0,1.023,1.505l2.7,1.554a2.079,2.079,0,0,0,1.814.132c.8-.322,2-.684,2.99-.958a2.089,2.089,0,0,1,2.368.965l1.458,2.519a2.084,2.084,0,0,1-.348,2.534c-.731.715-1.645,1.572-2.323,2.1a2.072,2.072,0,0,0-.794,1.636v3.1a2.073,2.073,0,0,0,.794,1.636c.678.528,1.592,1.385,2.323,2.1a2.084,2.084,0,0,1,.348,2.534L297.078,59.5a2.089,2.089,0,0,1-2.368.965c-.988-.274-2.192-.636-2.99-.958a2.079,2.079,0,0,0-1.814.132l-2.7,1.554A2.075,2.075,0,0,0,286.185,62.7Zm3.044-13.538a7.188,7.188,0,1,0-7.188,7.17A7.179,7.179,0,0,0,289.23,49.159Z" transform="translate(-208.221 -5.886)" fill="#03e6b0"/>
      <path id="Path_165220" data-name="Path 165220" d="M168.574,192.7c-.12.849-.406,2.065-.661,3.053a2.09,2.09,0,0,1-2.023,1.569H162.97a2.09,2.09,0,0,1-2.023-1.569c-.255-.988-.542-2.2-.661-3.053a2.075,2.075,0,0,0-1.023-1.505l-2.7-1.554a2.079,2.079,0,0,0-1.814-.132c-.8.322-2,.684-2.99.958a2.089,2.089,0,0,1-2.368-.965l-1.458-2.519a2.084,2.084,0,0,1,.348-2.534c.731-.715,1.645-1.572,2.323-2.1a2.072,2.072,0,0,0,.794-1.636v-3.1a2.072,2.072,0,0,0-.794-1.636c-.678-.528-1.592-1.385-2.323-2.1a2.084,2.084,0,0,1-.348-2.534l1.458-2.519a2.089,2.089,0,0,1,2.368-.965c.988.274,2.192.636,2.99.958a2.079,2.079,0,0,0,1.814-.132l2.7-1.554a2.075,2.075,0,0,0,1.023-1.505c.12-.849.406-2.065.661-3.053A2.09,2.09,0,0,1,162.97,161h2.919a2.09,2.09,0,0,1,2.023,1.569c.256.988.542,2.2.661,3.053a2.075,2.075,0,0,0,1.023,1.505l2.7,1.554a2.079,2.079,0,0,0,1.814.132c.8-.322,2-.684,2.99-.958a2.089,2.089,0,0,1,2.368.965l1.458,2.519a2.084,2.084,0,0,1-.348,2.534c-.731.715-1.645,1.572-2.323,2.1a2.072,2.072,0,0,0-.794,1.636v3.1a2.073,2.073,0,0,0,.794,1.636c.678.528,1.592,1.385,2.323,2.1a2.084,2.084,0,0,1,.348,2.534l-1.458,2.519a2.089,2.089,0,0,1-2.368.965c-.988-.274-2.192-.636-2.99-.958a2.079,2.079,0,0,0-1.814.132l-2.7,1.554A2.075,2.075,0,0,0,168.574,192.7Zm3.044-13.538a7.188,7.188,0,1,0-7.188,7.17A7.179,7.179,0,0,0,171.618,179.159Z" transform="translate(-115.902 -107.928)" fill="#ffd947"/>
      <g id="Group_108284" data-name="Group 108284" transform="translate(0 23.501)">
        <path id="Path_165221" data-name="Path 165221" d="M107.635,109.522h-5.381a5.874,5.874,0,0,0,.65-2.69l0-43.762a1.613,1.613,0,0,0-3.226,0l0,43.762a2.691,2.691,0,0,1-2.688,2.688l-83.869,0a2.691,2.691,0,0,1-2.688-2.688l0-55.912a2.691,2.691,0,0,1,2.688-2.688l42.8,0a3.692,3.692,0,0,0-.2,3.226H47.055l-31.786,0a1.613,1.613,0,0,0-1.613,1.613l0,34.063a1.613,1.613,0,1,0,3.226,0l0-32.45H43.37c-.22.879-.466,1.954-.583,2.783a.465.465,0,0,1-.231.333l-2.7,1.554a.467.467,0,0,1-.406.033c-.916-.369-2.225-.757-3.163-1.017A3.7,3.7,0,0,0,32.1,60.082L30.638,62.6a3.7,3.7,0,0,0,.615,4.494c.693.678,1.681,1.614,2.46,2.22a.461.461,0,0,1,.172.364v3.1a.462.462,0,0,1-.172.364,33.05,33.05,0,0,0-2.46,2.22,3.7,3.7,0,0,0-.615,4.494L32.1,82.379a3.7,3.7,0,0,0,4.2,1.711c.937-.26,2.246-.647,3.163-1.017a.468.468,0,0,1,.405.033l2.7,1.554a.465.465,0,0,1,.231.333,32.97,32.97,0,0,0,.7,3.232A3.7,3.7,0,0,0,47.068,91h2.919a3.7,3.7,0,0,0,3.584-2.778,32.94,32.94,0,0,0,.7-3.232.466.466,0,0,1,.231-.333l2.7-1.554a.467.467,0,0,1,.406-.033c.916.369,2.225.757,3.163,1.017a3.7,3.7,0,0,0,4.195-1.712l1.458-2.519a3.7,3.7,0,0,0-.615-4.494,33.041,33.041,0,0,0-2.46-2.22.463.463,0,0,1-.172-.364v-3.1a.461.461,0,0,1,.172-.364A33.049,33.049,0,0,0,65.8,67.1a3.7,3.7,0,0,0,.615-4.494L64.96,60.082a3.7,3.7,0,0,0-4.2-1.711c-.937.26-2.246.647-3.163,1.017a.471.471,0,0,1-.405-.033L54.5,57.8a.464.464,0,0,1-.231-.333c-.117-.829-.363-1.9-.583-2.784h3.869a3.7,3.7,0,0,0,4.029,1.45c.937-.26,2.247-.648,3.163-1.017a.469.469,0,0,1,.405.033l2.7,1.554a.465.465,0,0,1,.231.333,33.032,33.032,0,0,0,.7,3.232,3.7,3.7,0,0,0,3.585,2.778H75.28a3.7,3.7,0,0,0,3.584-2.778,32.884,32.884,0,0,0,.7-3.232.466.466,0,0,1,.231-.333l2.7-1.554a.468.468,0,0,1,.406-.033c.916.369,2.225.757,3.163,1.017a3.7,3.7,0,0,0,4.028-1.451h3.137l0,48.385-76.342,0V94.1a1.613,1.613,0,1,0-3.226,0v10.586a1.613,1.613,0,0,0,1.613,1.613l79.568,0a1.613,1.613,0,0,0,1.613-1.613l0-51.611a1.613,1.613,0,0,0-1.613-1.613H91.927a3.692,3.692,0,0,0-.2-3.226h5.262a2.691,2.691,0,0,1,2.688,2.688v5.308a1.613,1.613,0,1,0,3.226,0V50.92a5.921,5.921,0,0,0-5.914-5.914H88.5a.476.476,0,0,1-.038-.181v-3.1a.461.461,0,0,1,.173-.364c.778-.607,1.767-1.542,2.46-2.22a3.7,3.7,0,0,0,.615-4.494l-1.458-2.519a3.7,3.7,0,0,0-4.2-1.711c-.938.26-2.248.648-3.163,1.017a.471.471,0,0,1-.405-.033l-2.7-1.554a.464.464,0,0,1-.231-.333,33.015,33.015,0,0,0-.7-3.232A3.7,3.7,0,0,0,75.281,23.5H72.361a3.7,3.7,0,0,0-3.584,2.778,32.929,32.929,0,0,0-.7,3.232.465.465,0,0,1-.231.333l-2.7,1.554a.468.468,0,0,1-.406.034c-.914-.369-2.224-.757-3.163-1.017a3.7,3.7,0,0,0-4.195,1.712l-1.458,2.519a3.7,3.7,0,0,0,.615,4.494c.692.677,1.68,1.612,2.46,2.22a.461.461,0,0,1,.172.364v3.1a.477.477,0,0,1-.038.181l-46.022,0A5.921,5.921,0,0,0,7.2,50.922l0,55.912a5.876,5.876,0,0,0,.649,2.688H2.473A2.476,2.476,0,0,0,0,112v4.3a7.212,7.212,0,0,0,7.2,7.2H82.552a1.613,1.613,0,1,0,0-3.226H7.2A3.983,3.983,0,0,1,3.226,116.3v-3.548H43.549v.968a4.2,4.2,0,0,0,4.194,4.194H62.366a4.2,4.2,0,0,0,4.194-4.194v-.968h40.323V116.3a3.983,3.983,0,0,1-3.978,3.979H89.513a1.613,1.613,0,0,0,0,3.226H102.9a7.212,7.212,0,0,0,7.2-7.2V112a2.476,2.476,0,0,0-2.473-2.473ZM50.449,55.043a29.171,29.171,0,0,1,.626,2.875A3.664,3.664,0,0,0,52.89,60.6l2.7,1.554a3.669,3.669,0,0,0,3.222.229,29.52,29.52,0,0,1,2.818-.9.477.477,0,0,1,.541.219l1.458,2.519a.472.472,0,0,1-.08.574,29.228,29.228,0,0,1-2.186,1.98,3.661,3.661,0,0,0-1.415,2.909v3.1a3.661,3.661,0,0,0,1.415,2.909,29.251,29.251,0,0,1,2.186,1.98.472.472,0,0,1,.08.574l-1.458,2.519a.479.479,0,0,1-.541.219,29.479,29.479,0,0,1-2.818-.9,3.668,3.668,0,0,0-3.222.229l-2.7,1.554a3.665,3.665,0,0,0-1.815,2.678h0a29.146,29.146,0,0,1-.626,2.875.478.478,0,0,1-.461.359H47.068a.478.478,0,0,1-.462-.36,29.173,29.173,0,0,1-.626-2.875,3.665,3.665,0,0,0-1.815-2.678l-2.7-1.554a3.667,3.667,0,0,0-3.222-.23,29.521,29.521,0,0,1-2.818.9.476.476,0,0,1-.541-.219l-1.458-2.519a.472.472,0,0,1,.08-.574A29.3,29.3,0,0,1,35.7,75.691a3.661,3.661,0,0,0,1.415-2.908v-3.1A3.66,3.66,0,0,0,35.7,66.771a29.248,29.248,0,0,1-2.186-1.98.472.472,0,0,1-.08-.574L34.887,61.7a.479.479,0,0,1,.541-.219,29.481,29.481,0,0,1,2.818.9,3.669,3.669,0,0,0,3.222-.229l2.7-1.554a3.664,3.664,0,0,0,1.815-2.678,29.151,29.151,0,0,1,.626-2.875.477.477,0,0,1,.454-.359h2.931a.478.478,0,0,1,.457.359ZM58.8,36.833a.472.472,0,0,1-.08-.574l1.458-2.519a.478.478,0,0,1,.541-.219,29.381,29.381,0,0,1,2.818.9,3.668,3.668,0,0,0,3.222-.229l2.7-1.554a3.664,3.664,0,0,0,1.815-2.678,29.094,29.094,0,0,1,.626-2.875.478.478,0,0,1,.461-.359h2.919a.478.478,0,0,1,.462.36,29.111,29.111,0,0,1,.626,2.875,3.664,3.664,0,0,0,1.815,2.678l2.7,1.554a3.667,3.667,0,0,0,3.222.229,29.484,29.484,0,0,1,2.818-.9.477.477,0,0,1,.541.219l1.458,2.519a.472.472,0,0,1-.08.574,29.28,29.28,0,0,1-2.185,1.98,3.66,3.66,0,0,0-1.416,2.909v3.1a3.66,3.66,0,0,0,1.415,2.909,29.211,29.211,0,0,1,2.186,1.98.471.471,0,0,1,.08.574l-1.458,2.519a.478.478,0,0,1-.541.219,29.483,29.483,0,0,1-2.818-.9,3.668,3.668,0,0,0-3.222.229l-2.7,1.554a3.665,3.665,0,0,0-1.815,2.678h0a29.145,29.145,0,0,1-.626,2.875.478.478,0,0,1-.461.359H72.361a.478.478,0,0,1-.462-.36,29.171,29.171,0,0,1-.626-2.875,3.665,3.665,0,0,0-1.815-2.678l-2.7-1.554a3.667,3.667,0,0,0-3.222-.23,29.479,29.479,0,0,1-2.818.9.477.477,0,0,1-.541-.219l-.286-.494c-.009-.017-.019-.033-.029-.049l-1.143-1.976a.472.472,0,0,1,.08-.574,29.337,29.337,0,0,1,2.186-1.981A3.661,3.661,0,0,0,62.4,44.825v-3.1a3.66,3.66,0,0,0-1.415-2.908,29.233,29.233,0,0,1-2.186-1.98Zm4.531,76.883a.969.969,0,0,1-.968.968H47.742a.969.969,0,0,1-.968-.968v-.968H63.334Z" transform="translate(0 -23.501)"/>
        <path id="Path_165222" data-name="Path 165222" d="M311.144,92.169a8.783,8.783,0,1,0-8.8-8.783A8.8,8.8,0,0,0,311.144,92.169Zm-2.513-3.825h5.027a5.571,5.571,0,0,1-5.027,0Zm2.513-10.515a5.572,5.572,0,0,1,5.575,5.557,5.514,5.514,0,0,1-.279,1.732H305.848a5.552,5.552,0,0,1,5.3-7.29Z" transform="translate(-237.323 -63.613)"/>
        <path id="Path_165223" data-name="Path 165223" d="M184.73,213.386a8.8,8.8,0,1,0,8.8-8.783A8.8,8.8,0,0,0,184.73,213.386Zm14.376,0a5.575,5.575,0,1,1-5.575-5.557A5.573,5.573,0,0,1,199.106,213.386Z" transform="translate(-145.003 -165.656)"/>
      </g>
    </g>
  </g>
</svg>
