<svg xmlns="http://www.w3.org/2000/svg" xmlns:xlink="http://www.w3.org/1999/xlink" width="444.842" height="444.927" viewBox="0 0 444.842 444.927">
  <defs>
    <linearGradient id="linear-gradient" x1="0.5" x2="0.5" y2="0.992" gradientUnits="objectBoundingBox">
      <stop offset="0.005" stop-color="#dadede"/>
      <stop offset="0.125" stop-color="#e6e9e9"/>
      <stop offset="0.318" stop-color="#f4f5f5"/>
      <stop offset="0.561" stop-color="#fcfcfc"/>
      <stop offset="1" stop-color="#fff"/>
    </linearGradient>
    <linearGradient id="linear-gradient-2" x1="0.5" y1="1.062" x2="0.5" y2="0.07" xlink:href="#linear-gradient"/>
    <linearGradient id="linear-gradient-3" x1="0.5" y1="-0.197" x2="0.5" y2="0.803" xlink:href="#linear-gradient"/>
    <radialGradient id="radial-gradient" cx="0.5" cy="0.5" r="0.5" gradientTransform="translate(0)" gradientUnits="objectBoundingBox">
      <stop offset="0"/>
      <stop offset="0.34" stop-color="#010101"/>
      <stop offset="0.472" stop-color="#080808"/>
      <stop offset="0.568" stop-color="#141414"/>
      <stop offset="0.646" stop-color="#262626"/>
      <stop offset="0.714" stop-color="#3c3c3c"/>
      <stop offset="0.774" stop-color="#585858"/>
      <stop offset="0.829" stop-color="#797979"/>
      <stop offset="0.879" stop-color="#9f9f9f"/>
      <stop offset="0.926" stop-color="#cbcbcb"/>
      <stop offset="0.968" stop-color="#f9f9f9"/>
      <stop offset="0.972" stop-color="#fff"/>
    </radialGradient>
    <radialGradient id="radial-gradient-2" cx="0.5" cy="0.5" r="0.5" xlink:href="#radial-gradient"/>
    <radialGradient id="radial-gradient-3" cx="0.5" cy="0.5" r="0.5" xlink:href="#radial-gradient"/>
    <radialGradient id="radial-gradient-4" cx="0.5" cy="0.5" r="0.5" xlink:href="#radial-gradient"/>
    <radialGradient id="radial-gradient-5" cx="0.5" cy="0.5" r="0.5" xlink:href="#radial-gradient"/>
    <radialGradient id="radial-gradient-6" cx="0.5" cy="0.5" r="0.5" xlink:href="#radial-gradient"/>
    <radialGradient id="radial-gradient-7" cx="0.5" cy="0.5" r="0.5" xlink:href="#radial-gradient"/>
    <radialGradient id="radial-gradient-8" cx="0.5" cy="0.5" r="0.5" xlink:href="#radial-gradient"/>
    <radialGradient id="radial-gradient-11" cx="0.5" cy="0.5" r="0.5" xlink:href="#radial-gradient"/>
    <radialGradient id="radial-gradient-12" cx="0.5" cy="0.5" r="0.5" xlink:href="#radial-gradient"/>
    <radialGradient id="radial-gradient-14" cx="0.5" cy="0.5" r="0.5" xlink:href="#radial-gradient"/>
    <radialGradient id="radial-gradient-16" cx="0.5" cy="0.5" r="0.5" xlink:href="#radial-gradient"/>
  </defs>
  <g id="t1-info3" transform="translate(5743 7054)">
    <g id="Group_112004" data-name="Group 112004" transform="translate(-2363.281 -8725.856)">
      <path id="Path_167874" data-name="Path 167874" d="M-3155.69,2063.089c-94.474,0-171.335-76.861-171.335-171.335s76.861-171.359,171.335-171.359,171.359,76.871,171.359,171.359S-3061.2,2063.089-3155.69,2063.089Zm0-336.694c-91.166,0-165.335,74.18-165.335,165.359s74.169,165.335,165.335,165.335,165.359-74.169,165.359-165.335S-3064.511,1726.4-3155.69,1726.4Z" fill="#afafaf"/>
      <g id="Group_109759" data-name="Group 109759">
        <path id="Path_167863" data-name="Path 167863" d="M-3028.03,1891.729a127.636,127.636,0,0,0-127.635-127.636,127.657,127.657,0,0,0-127.661,127.636,127.679,127.679,0,0,0,127.661,127.661,127.657,127.657,0,0,0,127.635-127.661Z" fill="url(#linear-gradient)"/>
        <path id="Path_167864" data-name="Path 167864" d="M-3032.9,1891.729a122.762,122.762,0,0,0-122.763-122.764,122.784,122.784,0,0,0-122.789,122.764,122.784,122.784,0,0,0,122.789,122.764A122.762,122.762,0,0,0-3032.9,1891.729Z" fill="url(#linear-gradient-2)"/>
        <path id="Path_167865" data-name="Path 167865" d="M-3043.635,1891.729a112.041,112.041,0,0,0-112.03-112.03,112.024,112.024,0,0,0-112.03,112.03,112.024,112.024,0,0,0,112.03,112.03,112.041,112.041,0,0,0,112.03-112.03Z" fill="url(#linear-gradient-3)"/>
      </g>
      <path id="Path_167866" data-name="Path 167866" d="M-2966.232,1873.664a189.358,189.358,0,0,0-42.7-103.086,8.862,8.862,0,0,0-13.089-.587l-19.229,19.243a8.873,8.873,0,0,0-.634,11.816,144.76,144.76,0,0,1,30.8,74.378,8.86,8.86,0,0,0,8.8,7.886h27.213A8.856,8.856,0,0,0-2966.232,1873.664Z" fill="#0077ec"/>
      <path id="Path_167867" data-name="Path 167867" d="M-3034.515,1745a189.345,189.345,0,0,0-103.085-42.7,8.855,8.855,0,0,0-9.65,8.836v27.213a8.86,8.86,0,0,0,7.884,8.8,144.919,144.919,0,0,1,74.38,30.805,8.87,8.87,0,0,0,11.813-.636l19.246-19.231A8.862,8.862,0,0,0-3034.515,1745Z" fill="#ffd947"/>
      <path id="Path_167868" data-name="Path 167868" d="M-3173.756,1702.3a189.351,189.351,0,0,0-103.086,42.7,8.862,8.862,0,0,0-.587,13.089l19.243,19.228a8.87,8.87,0,0,0,11.816.634,144.78,144.78,0,0,1,74.379-30.8,8.859,8.859,0,0,0,7.885-8.8v-27.213A8.855,8.855,0,0,0-3173.756,1702.3Z" fill="#0077ec"/>
      <path id="Path_167869" data-name="Path 167869" d="M-3302.423,1770.578a189.353,189.353,0,0,0-42.7,103.086,8.856,8.856,0,0,0,8.836,9.65h27.208a8.859,8.859,0,0,0,8.8-7.889,144.778,144.778,0,0,1,30.81-74.375,8.871,8.871,0,0,0-.636-11.813l-19.231-19.246A8.862,8.862,0,0,0-3302.423,1770.578Z" fill="#ffd947"/>
      <path id="Path_167870" data-name="Path 167870" d="M-3345.124,1909.819a189.347,189.347,0,0,0,42.7,103.086,8.863,8.863,0,0,0,13.089.588l19.229-19.244a8.87,8.87,0,0,0,.633-11.815,144.767,144.767,0,0,1-30.8-74.379,8.861,8.861,0,0,0-8.8-7.886h-27.213A8.856,8.856,0,0,0-3345.124,1909.819Z" fill="#0077ec"/>
      <path id="Path_167871" data-name="Path 167871" d="M-3276.842,2038.487a189.35,189.35,0,0,0,103.086,42.7,8.855,8.855,0,0,0,9.65-8.835v-27.214a8.86,8.86,0,0,0-7.885-8.8,144.922,144.922,0,0,1-74.379-30.806,8.872,8.872,0,0,0-11.813.636l-19.246,19.232A8.862,8.862,0,0,0-3276.842,2038.487Z" fill="#ffd947"/>
      <path id="Path_167872" data-name="Path 167872" d="M-3137.6,2081.187a189.344,189.344,0,0,0,103.085-42.7,8.862,8.862,0,0,0,.588-13.089l-19.243-19.229a8.872,8.872,0,0,0-11.816-.634,144.771,144.771,0,0,1-74.379,30.8,8.86,8.86,0,0,0-7.885,8.8v27.213A8.854,8.854,0,0,0-3137.6,2081.187Z" fill="#0077ec"/>
      <path id="Path_167873" data-name="Path 167873" d="M-3008.933,2012.905a189.352,189.352,0,0,0,42.7-103.086,8.856,8.856,0,0,0-8.836-9.65h-27.209a8.862,8.862,0,0,0-8.8,7.89,144.763,144.763,0,0,1-30.809,74.374,8.871,8.871,0,0,0,.636,11.814l19.231,19.246A8.862,8.862,0,0,0-3008.933,2012.905Z" fill="#ffd947"/>
      <g id="Group_109760" data-name="Group 109760">
        <path id="Path_167875" data-name="Path 167875" d="M-3076.571,1743.646a33.452,33.452,0,0,0,33.393-33.393,33.468,33.468,0,0,0-33.393-33.394,33.484,33.484,0,0,0-33.393,33.394,33.468,33.468,0,0,0,33.393,33.393Z" opacity="0.5" fill="url(#radial-gradient)" style="mix-blend-mode: multiply;isolation: isolate"/>
        <path id="Path_167876" data-name="Path 167876" d="M-3079.573,1738.643a33.452,33.452,0,0,0,33.393-33.394,33.468,33.468,0,0,0-33.393-33.393,33.485,33.485,0,0,0-33.393,33.393,33.469,33.469,0,0,0,33.393,33.394Z" fill="#fff"/>
        <path id="Path_167877" data-name="Path 167877" d="M-3076.351,1736.766a27.263,27.263,0,0,0,27.22-27.22,27.24,27.24,0,0,0-27.22-27.192,27.234,27.234,0,0,0-27.192,27.192,27.257,27.257,0,0,0,27.192,27.22Z" opacity="0.5" fill="url(#radial-gradient-2)" style="mix-blend-mode: multiply;isolation: isolate"/>
        <path id="Path_167878" data-name="Path 167878" d="M-3079.574,1732.468a27.263,27.263,0,0,0,27.22-27.22,27.24,27.24,0,0,0-27.22-27.192,27.233,27.233,0,0,0-27.192,27.192,27.257,27.257,0,0,0,27.192,27.22Z" fill="#ffd947"/>
      </g>
      <g id="Group_109761" data-name="Group 109761">
        <path id="Path_167879" data-name="Path 167879" d="M-3232.164,1743.646a33.453,33.453,0,0,0,33.394-33.393,33.469,33.469,0,0,0-33.394-33.394,33.485,33.485,0,0,0-33.393,33.394,33.469,33.469,0,0,0,33.393,33.393Z" opacity="0.7" fill="url(#radial-gradient-3)" style="mix-blend-mode: multiply;isolation: isolate"/>
        <path id="Path_167880" data-name="Path 167880" d="M-3235.166,1738.643a33.453,33.453,0,0,0,33.394-33.394,33.469,33.469,0,0,0-33.394-33.393,33.485,33.485,0,0,0-33.393,33.393,33.469,33.469,0,0,0,33.393,33.394Z" fill="#fff"/>
        <path id="Path_167881" data-name="Path 167881" d="M-3231.943,1736.766a27.263,27.263,0,0,0,27.22-27.22,27.24,27.24,0,0,0-27.22-27.192,27.234,27.234,0,0,0-27.193,27.192,27.258,27.258,0,0,0,27.193,27.22Z" opacity="0.5" fill="url(#radial-gradient-4)" style="mix-blend-mode: multiply;isolation: isolate"/>
        <path id="Path_167882" data-name="Path 167882" d="M-3235.167,1732.468a27.263,27.263,0,0,0,27.22-27.22,27.239,27.239,0,0,0-27.22-27.192,27.234,27.234,0,0,0-27.192,27.192,27.257,27.257,0,0,0,27.192,27.22Z" fill="#0077ec"/>
      </g>
      <g id="Group_109762" data-name="Group 109762">
        <path id="Path_167883" data-name="Path 167883" d="M-3076.571,2116.783a33.451,33.451,0,0,0,33.393-33.393A33.468,33.468,0,0,0-3076.571,2050a33.484,33.484,0,0,0-33.393,33.393,33.467,33.467,0,0,0,33.393,33.393Z" opacity="0.5" fill="url(#radial-gradient-5)" style="mix-blend-mode: multiply;isolation: isolate"/>
        <path id="Path_167884" data-name="Path 167884" d="M-3079.573,2111.78a33.452,33.452,0,0,0,33.393-33.393,33.468,33.468,0,0,0-33.393-33.393,33.485,33.485,0,0,0-33.393,33.393,33.468,33.468,0,0,0,33.393,33.393Z" fill="#fff"/>
        <path id="Path_167885" data-name="Path 167885" d="M-3076.351,2109.9a27.262,27.262,0,0,0,27.22-27.219,27.24,27.24,0,0,0-27.22-27.193,27.234,27.234,0,0,0-27.192,27.193,27.257,27.257,0,0,0,27.192,27.219Z" opacity="0.5" fill="url(#radial-gradient-6)" style="mix-blend-mode: multiply;isolation: isolate"/>
        <path id="Path_167886" data-name="Path 167886" d="M-3079.574,2105.606a27.263,27.263,0,0,0,27.22-27.22,27.239,27.239,0,0,0-27.22-27.192,27.233,27.233,0,0,0-27.192,27.192,27.257,27.257,0,0,0,27.192,27.22Z" fill="#0077ec"/>
      </g>
      <g id="Group_109763" data-name="Group 109763">
        <path id="Path_167887" data-name="Path 167887" d="M-3232.164,2116.783a33.452,33.452,0,0,0,33.394-33.393A33.469,33.469,0,0,0-3232.164,2050a33.485,33.485,0,0,0-33.393,33.393,33.468,33.468,0,0,0,33.393,33.393Z" opacity="0.5" fill="url(#radial-gradient-7)" style="mix-blend-mode: multiply;isolation: isolate"/>
        <path id="Path_167888" data-name="Path 167888" d="M-3235.166,2111.78a33.452,33.452,0,0,0,33.394-33.393,33.469,33.469,0,0,0-33.394-33.393,33.485,33.485,0,0,0-33.393,33.393,33.468,33.468,0,0,0,33.393,33.393Z" fill="#fff"/>
        <path id="Path_167889" data-name="Path 167889" d="M-3231.943,2109.9a27.263,27.263,0,0,0,27.22-27.219,27.24,27.24,0,0,0-27.22-27.193,27.234,27.234,0,0,0-27.193,27.193,27.257,27.257,0,0,0,27.193,27.219Z" opacity="0.5" fill="url(#radial-gradient-8)" style="mix-blend-mode: multiply;isolation: isolate"/>
        <path id="Path_167890" data-name="Path 167890" d="M-3235.167,2105.606a27.263,27.263,0,0,0,27.22-27.22,27.239,27.239,0,0,0-27.22-27.192,27.233,27.233,0,0,0-27.192,27.192,27.257,27.257,0,0,0,27.192,27.22Z" fill="#ffd947"/>
      </g>
      <g id="Group_109764" data-name="Group 109764">
        <path id="Path_167891" data-name="Path 167891" d="M-3343.324,1850.651a33.452,33.452,0,0,0,33.393-33.394,33.468,33.468,0,0,0-33.393-33.393,33.485,33.485,0,0,0-33.393,33.393,33.469,33.469,0,0,0,33.393,33.394Z" opacity="0.6" fill="url(#radial-gradient)" style="mix-blend-mode: multiply;isolation: isolate"/>
        <path id="Path_167892" data-name="Path 167892" d="M-3346.326,1845.648a33.452,33.452,0,0,0,33.393-33.394,33.468,33.468,0,0,0-33.393-33.393,33.485,33.485,0,0,0-33.393,33.393,33.469,33.469,0,0,0,33.393,33.394Z" fill="#fff"/>
        <path id="Path_167893" data-name="Path 167893" d="M-3343.1,1843.771a27.262,27.262,0,0,0,27.219-27.22,27.238,27.238,0,0,0-27.219-27.192,27.233,27.233,0,0,0-27.193,27.192,27.257,27.257,0,0,0,27.193,27.22Z" opacity="0.5" fill="url(#radial-gradient-2)" style="mix-blend-mode: multiply;isolation: isolate"/>
        <path id="Path_167894" data-name="Path 167894" d="M-3346.327,1839.473a27.263,27.263,0,0,0,27.22-27.22,27.24,27.24,0,0,0-27.22-27.192,27.233,27.233,0,0,0-27.192,27.192,27.257,27.257,0,0,0,27.192,27.22Z" fill="#ffd947"/>
      </g>
      <g id="Group_109765" data-name="Group 109765">
        <path id="Path_167895" data-name="Path 167895" d="M-2968.271,1850.651a33.453,33.453,0,0,0,33.394-33.394,33.469,33.469,0,0,0-33.394-33.393,33.485,33.485,0,0,0-33.393,33.393,33.469,33.469,0,0,0,33.393,33.394Z" opacity="0.5" fill="url(#radial-gradient-11)" style="mix-blend-mode: multiply;isolation: isolate"/>
        <path id="Path_167896" data-name="Path 167896" d="M-2971.273,1845.648a33.453,33.453,0,0,0,33.394-33.394,33.469,33.469,0,0,0-33.394-33.393,33.485,33.485,0,0,0-33.393,33.393,33.469,33.469,0,0,0,33.393,33.394Z" fill="#fff"/>
        <path id="Path_167897" data-name="Path 167897" d="M-2968.05,1843.771a27.263,27.263,0,0,0,27.22-27.22,27.239,27.239,0,0,0-27.22-27.192,27.234,27.234,0,0,0-27.193,27.192,27.258,27.258,0,0,0,27.193,27.22Z" opacity="0.5" fill="url(#radial-gradient-12)" style="mix-blend-mode: multiply;isolation: isolate"/>
        <path id="Path_167898" data-name="Path 167898" d="M-2971.274,1839.473a27.263,27.263,0,0,0,27.22-27.22,27.239,27.239,0,0,0-27.22-27.192,27.234,27.234,0,0,0-27.192,27.192,27.257,27.257,0,0,0,27.192,27.22Z" fill="#0077ec"/>
      </g>
      <g id="Group_109766" data-name="Group 109766">
        <path id="Path_167899" data-name="Path 167899" d="M-3343.324,2004.623a33.452,33.452,0,0,0,33.393-33.394,33.468,33.468,0,0,0-33.393-33.393,33.485,33.485,0,0,0-33.393,33.393,33.469,33.469,0,0,0,33.393,33.394Z" opacity="0.6" fill="url(#radial-gradient)" style="mix-blend-mode: multiply;isolation: isolate"/>
        <path id="Path_167900" data-name="Path 167900" d="M-3346.326,1999.619a33.451,33.451,0,0,0,33.393-33.393,33.468,33.468,0,0,0-33.393-33.393,33.485,33.485,0,0,0-33.393,33.393,33.468,33.468,0,0,0,33.393,33.393Z" fill="#fff"/>
        <path id="Path_167901" data-name="Path 167901" d="M-3343.1,1997.743a27.262,27.262,0,0,0,27.219-27.22,27.239,27.239,0,0,0-27.219-27.193,27.234,27.234,0,0,0-27.193,27.193,27.257,27.257,0,0,0,27.193,27.22Z" opacity="0.5" fill="url(#radial-gradient-14)" style="mix-blend-mode: multiply;isolation: isolate"/>
        <path id="Path_167902" data-name="Path 167902" d="M-3346.327,1993.445a27.263,27.263,0,0,0,27.22-27.22,27.239,27.239,0,0,0-27.22-27.192,27.233,27.233,0,0,0-27.192,27.192,27.257,27.257,0,0,0,27.192,27.22Z" fill="#0077ec"/>
      </g>
      <g id="Group_109767" data-name="Group 109767">
        <path id="Path_167903" data-name="Path 167903" d="M-2968.271,2004.623a33.453,33.453,0,0,0,33.394-33.394,33.469,33.469,0,0,0-33.394-33.393,33.485,33.485,0,0,0-33.393,33.393,33.469,33.469,0,0,0,33.393,33.394Z" opacity="0.5" fill="url(#radial-gradient-11)" style="mix-blend-mode: multiply;isolation: isolate"/>
        <path id="Path_167904" data-name="Path 167904" d="M-2971.273,1999.619a33.452,33.452,0,0,0,33.394-33.393,33.469,33.469,0,0,0-33.394-33.393,33.485,33.485,0,0,0-33.393,33.393,33.468,33.468,0,0,0,33.393,33.393Z" fill="#fff"/>
        <path id="Path_167905" data-name="Path 167905" d="M-2968.05,1997.743a27.263,27.263,0,0,0,27.22-27.22,27.24,27.24,0,0,0-27.22-27.193,27.234,27.234,0,0,0-27.193,27.193,27.258,27.258,0,0,0,27.193,27.22Z" opacity="0.5" fill="url(#radial-gradient-16)" style="mix-blend-mode: multiply;isolation: isolate"/>
        <path id="Path_167906" data-name="Path 167906" d="M-2971.274,1993.445a27.263,27.263,0,0,0,27.22-27.22,27.239,27.239,0,0,0-27.22-27.192,27.233,27.233,0,0,0-27.192,27.192,27.257,27.257,0,0,0,27.192,27.22Z" fill="#ffd947"/>
      </g>
    </g>
    <path id="Path_169433" data-name="Path 169433" d="M-84.5-5.532h-2.041V0H-90.31V-15.641h6.155A6.87,6.87,0,0,1-79.8-14.407a4.181,4.181,0,0,1,1.568,3.488,5.078,5.078,0,0,1-.661,2.7,4.689,4.689,0,0,1-2.068,1.738L-77.7-.161V0h-4.039Zm-2.041-2.9h2.385A2.141,2.141,0,0,0-82.538-9,2.186,2.186,0,0,0-82-10.576a2.211,2.211,0,0,0-.548-1.588,2.121,2.121,0,0,0-1.611-.576h-2.385ZM-70.5.215a5.975,5.975,0,0,1-4.329-1.6,5.509,5.509,0,0,1-1.654-4.152v-.3a7.138,7.138,0,0,1,.661-3.147A4.834,4.834,0,0,1-73.9-11.091a5.821,5.821,0,0,1,3.008-.747,5.031,5.031,0,0,1,3.867,1.52A5.973,5.973,0,0,1-65.6-6.08v1.407h-7.2a2.609,2.609,0,0,0,.849,1.536,2.525,2.525,0,0,0,1.7.559,3.254,3.254,0,0,0,2.686-1.2l1.654,1.955A4.624,4.624,0,0,1-67.832-.338,6.48,6.48,0,0,1-70.5.215Zm-.408-9.26q-1.59,0-1.891,2.105h3.652v-.279a1.793,1.793,0,0,0-.44-1.348A1.753,1.753,0,0,0-70.909-9.045Zm11.677,6.467a1.61,1.61,0,0,0,1.182-.414,1.517,1.517,0,0,0,.408-1.155h3.395a4.018,4.018,0,0,1-1.37,3.137A5.1,5.1,0,0,1-59.146.215a5.158,5.158,0,0,1-4-1.59,6.264,6.264,0,0,1-1.461-4.4v-.15a7.08,7.08,0,0,1,.65-3.11,4.732,4.732,0,0,1,1.875-2.073,5.589,5.589,0,0,1,2.9-.725,5.03,5.03,0,0,1,3.6,1.257,4.458,4.458,0,0,1,1.332,3.405h-3.395a1.987,1.987,0,0,0-.44-1.386,1.52,1.52,0,0,0-1.182-.483q-1.407,0-1.644,1.794a12.659,12.659,0,0,0-.075,1.568,4.972,4.972,0,0,0,.419,2.428A1.45,1.45,0,0,0-59.232-2.578Zm6.059-3.341a6.86,6.86,0,0,1,.677-3.1,4.84,4.84,0,0,1,1.944-2.089,5.856,5.856,0,0,1,2.976-.73,5.344,5.344,0,0,1,4.114,1.617,6.2,6.2,0,0,1,1.5,4.4v.129A6.019,6.019,0,0,1-43.468-1.38a5.359,5.359,0,0,1-4.087,1.6,5.42,5.42,0,0,1-3.985-1.488,5.819,5.819,0,0,1-1.622-4.034Zm3.62.226a4.325,4.325,0,0,0,.5,2.363,1.682,1.682,0,0,0,1.493.752q1.934,0,1.977-2.976v-.365q0-3.126-2-3.126-1.815,0-1.966,2.7Zm12.611-5.93.118,1.364A4,4,0,0,1-33.5-11.838a2.942,2.942,0,0,1,2.976,1.751,3.868,3.868,0,0,1,3.416-1.751q3.534,0,3.631,4.275V0h-3.631V-7.337a2.216,2.216,0,0,0-.3-1.3,1.28,1.28,0,0,0-1.1-.408,1.715,1.715,0,0,0-1.6.956l.011.15V0H-33.73V-7.315a2.329,2.329,0,0,0-.29-1.321,1.277,1.277,0,0,0-1.106-.408,1.736,1.736,0,0,0-1.59.956V0h-3.62V-11.623ZM-15.791.215a5.975,5.975,0,0,1-4.329-1.6,5.509,5.509,0,0,1-1.654-4.152v-.3a7.138,7.138,0,0,1,.661-3.147,4.834,4.834,0,0,1,1.928-2.111,5.821,5.821,0,0,1,3.008-.747,5.031,5.031,0,0,1,3.867,1.52A5.973,5.973,0,0,1-10.893-6.08v1.407h-7.2a2.609,2.609,0,0,0,.849,1.536,2.525,2.525,0,0,0,1.7.559,3.254,3.254,0,0,0,2.686-1.2L-11.2-1.826A4.624,4.624,0,0,1-13.122-.338,6.48,6.48,0,0,1-15.791.215Zm-.408-9.26q-1.59,0-1.891,2.105h3.652v-.279a1.793,1.793,0,0,0-.44-1.348A1.753,1.753,0,0,0-16.2-9.045Zm10.087-2.578.118,1.364a3.942,3.942,0,0,1,3.319-1.579A3.316,3.316,0,0,1,.038-10.753,5.165,5.165,0,0,1,.967-7.487V0H-2.664V-7.337a1.961,1.961,0,0,0-.354-1.294,1.64,1.64,0,0,0-1.289-.414,1.726,1.726,0,0,0-1.579.838V0h-3.62V-11.623ZM2.514-5.9a7.1,7.1,0,0,1,1.192-4.351,3.925,3.925,0,0,1,3.33-1.59,3.338,3.338,0,0,1,2.621,1.225V-16.5h3.631V0H10.033L9.851-1.246A3.428,3.428,0,0,1,7.015.215a3.918,3.918,0,0,1-3.287-1.59A7.325,7.325,0,0,1,2.514-5.9Zm3.62.226q0,3.094,1.8,3.094a1.782,1.782,0,0,0,1.719-1.01V-8.014a1.734,1.734,0,0,0-1.7-1.031q-1.676,0-1.815,2.707ZM21.893,0a4.087,4.087,0,0,1-.344-1.042A3.366,3.366,0,0,1,18.756.215a4.124,4.124,0,0,1-2.793-.994,3.163,3.163,0,0,1-1.149-2.5,3.251,3.251,0,0,1,1.4-2.857A7.114,7.114,0,0,1,20.271-7.1h1.117v-.615q0-1.608-1.386-1.608A1.133,1.133,0,0,0,18.713-8.05h-3.62a3.245,3.245,0,0,1,1.434-2.736,6.027,6.027,0,0,1,3.658-1.051A5.284,5.284,0,0,1,23.7-10.753a3.772,3.772,0,0,1,1.321,2.976v5.146a5.269,5.269,0,0,0,.494,2.449V0ZM19.626-2.363a2.019,2.019,0,0,0,1.123-.29,1.818,1.818,0,0,0,.639-.655V-5.167H20.335q-1.891,0-1.891,1.7a1.036,1.036,0,0,0,.333.8A1.205,1.205,0,0,0,19.626-2.363Zm12.311-.215a1.61,1.61,0,0,0,1.182-.414,1.517,1.517,0,0,0,.408-1.155h3.395a4.018,4.018,0,0,1-1.37,3.137A5.1,5.1,0,0,1,32.022.215a5.158,5.158,0,0,1-4-1.59,6.264,6.264,0,0,1-1.461-4.4v-.15a7.08,7.08,0,0,1,.65-3.11,4.732,4.732,0,0,1,1.875-2.073,5.589,5.589,0,0,1,2.9-.725,5.03,5.03,0,0,1,3.6,1.257,4.458,4.458,0,0,1,1.332,3.405H33.526a1.987,1.987,0,0,0-.44-1.386A1.52,1.52,0,0,0,31.9-9.045q-1.407,0-1.644,1.794a12.658,12.658,0,0,0-.075,1.568A4.972,4.972,0,0,0,30.6-3.255,1.45,1.45,0,0,0,31.937-2.578ZM42.271,0H38.64V-11.623h3.631ZM38.425-14.631a1.63,1.63,0,0,1,.559-1.275,2.1,2.1,0,0,1,1.45-.5,2.1,2.1,0,0,1,1.45.5,1.63,1.63,0,0,1,.559,1.275,1.63,1.63,0,0,1-.559,1.275,2.1,2.1,0,0,1-1.45.5,2.1,2.1,0,0,1-1.45-.5A1.63,1.63,0,0,1,38.425-14.631Zm5.618,8.712a6.86,6.86,0,0,1,.677-3.1,4.84,4.84,0,0,1,1.944-2.089,5.856,5.856,0,0,1,2.976-.73,5.344,5.344,0,0,1,4.114,1.617,6.2,6.2,0,0,1,1.5,4.4v.129A6.019,6.019,0,0,1,53.749-1.38a5.359,5.359,0,0,1-4.087,1.6,5.42,5.42,0,0,1-3.985-1.488,5.819,5.819,0,0,1-1.622-4.034Zm3.62.226a4.325,4.325,0,0,0,.5,2.363,1.682,1.682,0,0,0,1.493.752q1.934,0,1.977-2.976v-.365q0-3.126-2-3.126-1.815,0-1.966,2.7Zm12.515-5.93.118,1.364a3.942,3.942,0,0,1,3.319-1.579,3.316,3.316,0,0,1,2.712,1.085,5.165,5.165,0,0,1,.929,3.266V0H63.626V-7.337a1.961,1.961,0,0,0-.354-1.294,1.64,1.64,0,0,0-1.289-.414,1.726,1.726,0,0,0-1.579.838V0h-3.62V-11.623ZM74.884.215a5.975,5.975,0,0,1-4.329-1.6A5.509,5.509,0,0,1,68.9-5.532v-.3a7.138,7.138,0,0,1,.661-3.147,4.834,4.834,0,0,1,1.928-2.111,5.821,5.821,0,0,1,3.008-.747,5.031,5.031,0,0,1,3.867,1.52A5.973,5.973,0,0,1,79.782-6.08v1.407h-7.2a2.609,2.609,0,0,0,.849,1.536,2.525,2.525,0,0,0,1.7.559,3.254,3.254,0,0,0,2.686-1.2l1.654,1.955A4.624,4.624,0,0,1,77.553-.338,6.48,6.48,0,0,1,74.884.215Zm-.408-9.26q-1.59,0-1.891,2.105h3.652v-.279a1.793,1.793,0,0,0-.44-1.348A1.753,1.753,0,0,0,74.476-9.045ZM87.323-3.266a.836.836,0,0,0-.483-.741A7.353,7.353,0,0,0,85-4.587a8.376,8.376,0,0,1-2.234-.79,3.743,3.743,0,0,1-1.343-1.187,2.834,2.834,0,0,1-.462-1.6A3.212,3.212,0,0,1,82.285-10.8a5.443,5.443,0,0,1,3.459-1.037,6.03,6.03,0,0,1,3.7,1.042,3.258,3.258,0,0,1,1.4,2.739H87.205q0-1.4-1.472-1.4a1.459,1.459,0,0,0-.956.317.981.981,0,0,0-.387.79.9.9,0,0,0,.473.784,4.466,4.466,0,0,0,1.509.494,13.043,13.043,0,0,1,1.821.462q2.621.9,2.621,3.233A3.044,3.044,0,0,1,89.4-.784a6.2,6.2,0,0,1-3.658,1A6.322,6.322,0,0,1,83.08-.322a4.455,4.455,0,0,1-1.826-1.461A3.308,3.308,0,0,1,80.6-3.728h3.384a1.4,1.4,0,0,0,.537,1.176,2.209,2.209,0,0,0,1.321.371,1.738,1.738,0,0,0,1.112-.3A.962.962,0,0,0,87.323-3.266ZM-73.3,20.274A7.009,7.009,0,0,1-74.519,24.6a3.909,3.909,0,0,1-3.292,1.617,3.351,3.351,0,0,1-2.632-1.171v5.425h-3.62V14.377h3.384l.107,1.074a3.351,3.351,0,0,1,2.739-1.289,3.941,3.941,0,0,1,3.341,1.584A7.1,7.1,0,0,1-73.3,20.1Zm-3.62-.226q0-3.094-1.8-3.094a1.7,1.7,0,0,0-1.719.924v4.576a1.759,1.759,0,0,0,1.74.967q1.729,0,1.783-2.986ZM-65.157,26a4.087,4.087,0,0,1-.344-1.042,3.366,3.366,0,0,1-2.793,1.257,4.124,4.124,0,0,1-2.793-.994,3.163,3.163,0,0,1-1.149-2.5,3.251,3.251,0,0,1,1.4-2.857,7.114,7.114,0,0,1,4.061-.967h1.117v-.615q0-1.608-1.386-1.608a1.133,1.133,0,0,0-1.289,1.274h-3.62a3.245,3.245,0,0,1,1.434-2.736,6.027,6.027,0,0,1,3.658-1.051,5.284,5.284,0,0,1,3.513,1.085,3.772,3.772,0,0,1,1.321,2.976v5.146a5.269,5.269,0,0,0,.494,2.449V26Zm-2.267-2.363a2.019,2.019,0,0,0,1.123-.29,1.818,1.818,0,0,0,.639-.655V20.833h-1.053q-1.891,0-1.891,1.7a1.036,1.036,0,0,0,.333.8A1.205,1.205,0,0,0-67.423,23.637ZM-53,17.653l-1.192-.086a2.142,2.142,0,0,0-2.191,1.074V26H-60V14.377h3.395l.118,1.493a2.8,2.8,0,0,1,2.546-1.708,3.53,3.53,0,0,1,1.01.129ZM-45.466,26a4.088,4.088,0,0,1-.344-1.042A3.366,3.366,0,0,1-48.6,26.215a4.124,4.124,0,0,1-2.793-.994,3.163,3.163,0,0,1-1.149-2.5,3.251,3.251,0,0,1,1.4-2.857,7.114,7.114,0,0,1,4.061-.967h1.117v-.615q0-1.608-1.386-1.608a1.133,1.133,0,0,0-1.289,1.274h-3.62a3.245,3.245,0,0,1,1.434-2.736,6.027,6.027,0,0,1,3.658-1.051,5.284,5.284,0,0,1,3.513,1.085,3.772,3.772,0,0,1,1.321,2.976v5.146a5.269,5.269,0,0,0,.494,2.449V26Zm-2.267-2.363a2.019,2.019,0,0,0,1.123-.29,1.818,1.818,0,0,0,.639-.655V20.833h-1.053q-1.891,0-1.891,1.7a1.036,1.036,0,0,0,.333.8A1.205,1.205,0,0,0-47.733,23.637Zm19.8,1.106a3.732,3.732,0,0,1-3.1,1.472,3.661,3.661,0,0,1-2.9-1.112,4.676,4.676,0,0,1-.983-3.2v-7.53h3.62v7.552a1.3,1.3,0,0,0,1.45,1.493,1.892,1.892,0,0,0,1.772-.892V14.377h3.642V26h-3.395Zm8.809-10.366.118,1.364a3.942,3.942,0,0,1,3.319-1.579,3.316,3.316,0,0,1,2.712,1.085,5.165,5.165,0,0,1,.929,3.266V26h-3.631V18.663a1.961,1.961,0,0,0-.354-1.294,1.64,1.64,0,0,0-1.289-.414,1.726,1.726,0,0,0-1.579.838V26h-3.62V14.377ZM6.225,20.285a7.084,7.084,0,0,1-1.182,4.394,3.958,3.958,0,0,1-3.33,1.536,3.435,3.435,0,0,1-2.857-1.407L-1.294,26H-4.539V9.5h3.62v5.812a3.314,3.314,0,0,1,2.61-1.149A3.959,3.959,0,0,1,5.043,15.72,7.121,7.121,0,0,1,6.225,20.1Zm-3.631-.231a4.725,4.725,0,0,0-.446-2.386,1.5,1.5,0,0,0-1.37-.713,1.733,1.733,0,0,0-1.7.933V22.5A1.743,1.743,0,0,0,.8,23.422a1.537,1.537,0,0,0,1.622-1.244A8.933,8.933,0,0,0,2.594,20.054Zm12.149,4.689a3.732,3.732,0,0,1-3.1,1.472,3.661,3.661,0,0,1-2.9-1.112,4.676,4.676,0,0,1-.983-3.2v-7.53h3.62v7.552a1.3,1.3,0,0,0,1.45,1.493A1.892,1.892,0,0,0,14.6,22.53V14.377h3.642V26H14.851Zm11.107,1.472a5.975,5.975,0,0,1-4.329-1.6,5.509,5.509,0,0,1-1.654-4.152v-.3a7.138,7.138,0,0,1,.661-3.147,4.834,4.834,0,0,1,1.928-2.111,5.821,5.821,0,0,1,3.008-.747,5.031,5.031,0,0,1,3.867,1.52A5.973,5.973,0,0,1,30.75,19.92v1.407h-7.2a2.609,2.609,0,0,0,.849,1.536,2.525,2.525,0,0,0,1.7.559,3.254,3.254,0,0,0,2.686-1.2l1.654,1.955a4.624,4.624,0,0,1-1.917,1.488A6.48,6.48,0,0,1,25.851,26.215Zm-.408-9.26q-1.59,0-1.891,2.105H27.2v-.279a1.793,1.793,0,0,0-.44-1.348A1.753,1.753,0,0,0,25.443,16.955ZM35.53,14.377l.118,1.364a3.942,3.942,0,0,1,3.319-1.579,3.316,3.316,0,0,1,2.712,1.085,5.165,5.165,0,0,1,.929,3.266V26H38.978V18.663a1.961,1.961,0,0,0-.354-1.294,1.64,1.64,0,0,0-1.289-.414,1.726,1.726,0,0,0-1.579.838V26h-3.62V14.377ZM57.014,24.743a3.732,3.732,0,0,1-3.1,1.472,3.661,3.661,0,0,1-2.9-1.112,4.676,4.676,0,0,1-.983-3.2v-7.53h3.62v7.552a1.3,1.3,0,0,0,1.45,1.493,1.892,1.892,0,0,0,1.772-.892V14.377h3.642V26H57.122Zm11.569-2.009a.836.836,0,0,0-.483-.741,7.353,7.353,0,0,0-1.837-.58,8.376,8.376,0,0,1-2.234-.79,3.743,3.743,0,0,1-1.343-1.187,2.835,2.835,0,0,1-.462-1.6A3.212,3.212,0,0,1,63.545,15.2,5.443,5.443,0,0,1,67,14.162,6.03,6.03,0,0,1,70.7,15.2a3.258,3.258,0,0,1,1.4,2.739H68.465q0-1.4-1.472-1.4a1.459,1.459,0,0,0-.956.317.981.981,0,0,0-.387.79.9.9,0,0,0,.473.784,4.466,4.466,0,0,0,1.509.494,13.043,13.043,0,0,1,1.821.462q2.621.9,2.621,3.233a3.044,3.044,0,0,1-1.413,2.589,6.2,6.2,0,0,1-3.658,1,6.322,6.322,0,0,1-2.664-.537,4.455,4.455,0,0,1-1.826-1.461,3.308,3.308,0,0,1-.655-1.944h3.384a1.4,1.4,0,0,0,.537,1.176,2.209,2.209,0,0,0,1.321.371,1.738,1.738,0,0,0,1.112-.3A.962.962,0,0,0,68.583,22.734Zm4.727-2.653a6.86,6.86,0,0,1,.677-3.1,4.84,4.84,0,0,1,1.944-2.089,5.856,5.856,0,0,1,2.976-.73,5.344,5.344,0,0,1,4.114,1.617,6.2,6.2,0,0,1,1.5,4.4v.129a6.019,6.019,0,0,1-1.509,4.313,5.359,5.359,0,0,1-4.087,1.6,5.42,5.42,0,0,1-3.985-1.488,5.819,5.819,0,0,1-1.622-4.034Zm3.62.226a4.325,4.325,0,0,0,.5,2.363,1.682,1.682,0,0,0,1.493.752q1.934,0,1.977-2.976v-.365q0-3.126-2-3.126-1.815,0-1.966,2.7ZM-78.321,46.1a7.1,7.1,0,0,1,1.192-4.351,3.925,3.925,0,0,1,3.33-1.59,3.338,3.338,0,0,1,2.621,1.225V35.5h3.631V52H-70.8l-.183-1.246a3.428,3.428,0,0,1-2.836,1.461,3.918,3.918,0,0,1-3.287-1.59A7.325,7.325,0,0,1-78.321,46.1Zm3.62.226q0,3.094,1.8,3.094a1.782,1.782,0,0,0,1.719-1.01V43.986a1.734,1.734,0,0,0-1.7-1.031q-1.676,0-1.815,2.707Zm14.835,5.887a5.975,5.975,0,0,1-4.329-1.6,5.509,5.509,0,0,1-1.654-4.152v-.3a7.138,7.138,0,0,1,.661-3.147,4.834,4.834,0,0,1,1.928-2.111,5.821,5.821,0,0,1,3.008-.747,5.031,5.031,0,0,1,3.867,1.52,5.973,5.973,0,0,1,1.418,4.238v1.407h-7.2a2.609,2.609,0,0,0,.849,1.536,2.525,2.525,0,0,0,1.7.559,3.254,3.254,0,0,0,2.686-1.2l1.654,1.955A4.624,4.624,0,0,1-57.2,51.662,6.48,6.48,0,0,1-59.866,52.215Zm-.408-9.26q-1.59,0-1.891,2.105h3.652v-.279a1.793,1.793,0,0,0-.44-1.348A1.753,1.753,0,0,0-60.274,42.955ZM-44.215,52h-3.631V35.5h3.631Zm8.776,0a4.088,4.088,0,0,1-.344-1.042,3.366,3.366,0,0,1-2.793,1.257,4.124,4.124,0,0,1-2.793-.994,3.163,3.163,0,0,1-1.149-2.5,3.251,3.251,0,0,1,1.4-2.857,7.114,7.114,0,0,1,4.061-.967h1.117v-.615q0-1.608-1.386-1.608a1.133,1.133,0,0,0-1.289,1.274h-3.62A3.245,3.245,0,0,1-40.8,41.214a6.027,6.027,0,0,1,3.658-1.051,5.284,5.284,0,0,1,3.513,1.085,3.772,3.772,0,0,1,1.321,2.976v5.146a5.269,5.269,0,0,0,.494,2.449V52Zm-2.267-2.363a2.019,2.019,0,0,0,1.123-.29,1.818,1.818,0,0,0,.639-.655V46.833H-37q-1.891,0-1.891,1.7a1.036,1.036,0,0,0,.333.8A1.205,1.205,0,0,0-37.705,49.637Zm17.091-12.149v2.89H-18.7v2.514h-1.912v5.317a1.358,1.358,0,0,0,.236.913,1.268,1.268,0,0,0,.935.258,5.311,5.311,0,0,0,.9-.064V51.9a6.681,6.681,0,0,1-2.041.312,3.792,3.792,0,0,1-2.761-.881,3.61,3.61,0,0,1-.892-2.675V42.891h-1.482V40.377h1.482v-2.89Zm8.959,14.728a5.975,5.975,0,0,1-4.329-1.6,5.509,5.509,0,0,1-1.654-4.152v-.3a7.138,7.138,0,0,1,.661-3.147,4.834,4.834,0,0,1,1.928-2.111,5.821,5.821,0,0,1,3.008-.747,5.031,5.031,0,0,1,3.867,1.52A5.973,5.973,0,0,1-6.757,45.92v1.407h-7.2a2.609,2.609,0,0,0,.849,1.536,2.525,2.525,0,0,0,1.7.559,3.254,3.254,0,0,0,2.686-1.2l1.654,1.955a4.624,4.624,0,0,1-1.917,1.488A6.48,6.48,0,0,1-11.655,52.215Zm-.408-9.26q-1.59,0-1.891,2.105H-10.3v-.279a1.793,1.793,0,0,0-.44-1.348A1.753,1.753,0,0,0-12.063,42.955ZM-.387,49.422a1.61,1.61,0,0,0,1.182-.414A1.517,1.517,0,0,0,1.2,47.854H4.6a4.018,4.018,0,0,1-1.37,3.137A5.1,5.1,0,0,1-.3,52.215a5.158,5.158,0,0,1-4-1.59,6.264,6.264,0,0,1-1.461-4.4v-.15a7.08,7.08,0,0,1,.65-3.11,4.732,4.732,0,0,1,1.875-2.073,5.589,5.589,0,0,1,2.9-.725,5.03,5.03,0,0,1,3.6,1.257A4.458,4.458,0,0,1,4.6,44.824H1.2a1.987,1.987,0,0,0-.44-1.386,1.52,1.52,0,0,0-1.182-.483q-1.407,0-1.644,1.794a12.658,12.658,0,0,0-.075,1.568,4.972,4.972,0,0,0,.419,2.428A1.45,1.45,0,0,0-.387,49.422Zm9.84-9.045.118,1.364a3.942,3.942,0,0,1,3.319-1.579A3.316,3.316,0,0,1,15.6,41.247a5.165,5.165,0,0,1,.929,3.266V52H12.9V44.663a1.961,1.961,0,0,0-.354-1.294,1.64,1.64,0,0,0-1.289-.414,1.726,1.726,0,0,0-1.579.838V52H6.059V40.377Zm8.626,5.7a6.86,6.86,0,0,1,.677-3.1A4.84,4.84,0,0,1,20.7,40.893a5.856,5.856,0,0,1,2.976-.73,5.344,5.344,0,0,1,4.114,1.617,6.2,6.2,0,0,1,1.5,4.4v.129a6.019,6.019,0,0,1-1.509,4.313,5.359,5.359,0,0,1-4.087,1.6,5.42,5.42,0,0,1-3.985-1.488,5.819,5.819,0,0,1-1.622-4.034Zm3.62.226a4.325,4.325,0,0,0,.5,2.363,1.682,1.682,0,0,0,1.493.752q1.934,0,1.977-2.976v-.365q0-3.126-2-3.126-1.815,0-1.966,2.7ZM34.708,52H31.077V35.5h3.631Zm1.772-5.919a6.86,6.86,0,0,1,.677-3.1A4.84,4.84,0,0,1,39.1,40.893a5.856,5.856,0,0,1,2.976-.73,5.344,5.344,0,0,1,4.114,1.617,6.2,6.2,0,0,1,1.5,4.4v.129a6.019,6.019,0,0,1-1.509,4.313,5.359,5.359,0,0,1-4.087,1.6,5.42,5.42,0,0,1-3.985-1.488,5.819,5.819,0,0,1-1.622-4.034Zm3.62.226a4.325,4.325,0,0,0,.5,2.363,1.682,1.682,0,0,0,1.493.752q1.934,0,1.977-2.976v-.365q0-3.126-2-3.126-1.815,0-1.966,2.7Zm8.766-.2a7.848,7.848,0,0,1,.58-3.115A4.67,4.67,0,0,1,51.111,40.9a4.389,4.389,0,0,1,2.524-.736,3.49,3.49,0,0,1,2.836,1.225l.129-1.01h3.287V51.56a4.9,4.9,0,0,1-.714,2.669,4.584,4.584,0,0,1-2.068,1.74,7.6,7.6,0,0,1-3.137.607,6.557,6.557,0,0,1-2.476-.483,4.47,4.47,0,0,1-1.832-1.257l1.515-2.127A3.319,3.319,0,0,0,53.84,53.9a2.156,2.156,0,0,0,2.406-2.471v-.365a3.4,3.4,0,0,1-2.632,1.149,4.2,4.2,0,0,1-3.437-1.627,6.743,6.743,0,0,1-1.311-4.356Zm3.631.226a4.135,4.135,0,0,0,.537,2.261,1.7,1.7,0,0,0,1.5.833,1.923,1.923,0,0,0,1.708-.784V43.75a1.875,1.875,0,0,0-1.687-.795,1.706,1.706,0,0,0-1.515.865A4.715,4.715,0,0,0,52.5,46.328ZM65.893,52H62.251V40.377h3.642ZM64.539,35.715h3.824l-2.986,3.373-2.954-.005ZM74.766,52a4.087,4.087,0,0,1-.344-1.042,3.366,3.366,0,0,1-2.793,1.257,4.124,4.124,0,0,1-2.793-.994,3.163,3.163,0,0,1-1.149-2.5,3.251,3.251,0,0,1,1.4-2.857,7.114,7.114,0,0,1,4.061-.967h1.117v-.615q0-1.608-1.386-1.608a1.133,1.133,0,0,0-1.289,1.274h-3.62A3.245,3.245,0,0,1,69.4,41.214a6.027,6.027,0,0,1,3.658-1.051,5.284,5.284,0,0,1,3.513,1.085,3.772,3.772,0,0,1,1.321,2.976v5.146a5.269,5.269,0,0,0,.494,2.449V52ZM72.5,49.637a2.019,2.019,0,0,0,1.123-.29,1.818,1.818,0,0,0,.639-.655V46.833H73.208q-1.891,0-1.891,1.7a1.036,1.036,0,0,0,.333.8A1.205,1.205,0,0,0,72.5,49.637Z" transform="translate(-5521 -6850)" fill="#12263f"/>
    <g id="testigo" transform="translate(-5462.291 -7041.232)">
      <path id="Path_167946" data-name="Path 167946" d="M39.733,132.705c-3.636-4.429-11.333-9.6-19.733-9.6-8.431,0-16.128,5.2-19.733,9.6a1.176,1.176,0,0,0,0,1.492C3.988,138.734,11.7,143.8,20,143.8c8.591,0,16.255-5.361,19.733-9.6A1.177,1.177,0,0,0,39.733,132.705Zm-11.741.746A7.992,7.992,0,1,1,20,125.46,8,8,0,0,1,27.991,133.452Zm-25.226,0a28.415,28.415,0,0,1,9-6.253,10.318,10.318,0,0,0,0,12.5,27.9,27.9,0,0,1-9-6.25Zm25.47,6.252a10.318,10.318,0,0,0,0-12.5,27.9,27.9,0,0,1,9,6.25A28.414,28.414,0,0,1,28.235,139.7Z" transform="translate(0 -113.452)" fill="#12263f"/>
      <path id="Path_167947" data-name="Path 167947" d="M204,208a4,4,0,1,0,4-4A4,4,0,0,0,204,208Zm5.647,0A1.647,1.647,0,1,1,208,206.353,1.649,1.649,0,0,1,209.647,208Z" transform="translate(-188 -188)" fill="#12263f"/>
      <path id="Path_167948" data-name="Path 167948" d="M241.176,5.1a1.176,1.176,0,0,0,1.176-1.176V1.176a1.176,1.176,0,1,0-2.353,0V3.922A1.177,1.177,0,0,0,241.176,5.1Z" transform="translate(-221.177)" fill="#12263f"/>
      <path id="Path_167949" data-name="Path 167949" d="M337.523,26.973a1.176,1.176,0,0,0,1.6-.439l1.566-2.745a1.176,1.176,0,1,0-2.044-1.166l-1.566,2.745A1.177,1.177,0,0,0,337.523,26.973Z" transform="translate(-310.504 -20.301)" fill="#12263f"/>
      <path id="Path_167950" data-name="Path 167950" d="M124.825,26.534a1.176,1.176,0,0,0,2.044-1.166L125.3,22.623a1.176,1.176,0,1,0-2.044,1.166Z" transform="translate(-113.449 -20.301)" fill="#12263f"/>
      <path id="Path_167951" data-name="Path 167951" d="M241.176,445A1.177,1.177,0,0,0,240,446.176v2.745a1.176,1.176,0,1,0,2.353,0v-2.745A1.176,1.176,0,0,0,241.176,445Z" transform="translate(-221.177 -410.098)" fill="#12263f"/>
      <path id="Path_167952" data-name="Path 167952" d="M126.429,423.121a1.177,1.177,0,0,0-1.6.439l-1.566,2.745a1.176,1.176,0,0,0,2.044,1.166l1.566-2.745A1.176,1.176,0,0,0,126.429,423.121Z" transform="translate(-113.449 -389.793)" fill="#12263f"/>
      <path id="Path_167953" data-name="Path 167953" d="M339.128,423.56a1.176,1.176,0,1,0-2.044,1.166l1.566,2.745a1.176,1.176,0,1,0,2.044-1.166Z" transform="translate(-310.504 -389.792)" fill="#12263f"/>
    </g>
    <g id="apagado" transform="translate(-5614.625 -7037.383)">
      <path id="Path_167907" data-name="Path 167907" d="M28.7,4.953a16.809,16.809,0,1,0,0,23.771,16.7,16.7,0,0,0,0-23.771ZM16.812,31.677A14.839,14.839,0,1,1,31.651,16.839,14.856,14.856,0,0,1,16.812,31.677Z" transform="translate(0 0)" fill="#fff"/>
      <path id="Path_167908" data-name="Path 167908" d="M72.914,60.016A12.869,12.869,0,1,0,85.783,72.885,12.884,12.884,0,0,0,72.914,60.016Zm0,23.768a10.9,10.9,0,1,1,10.9-10.9A10.912,10.912,0,0,1,72.914,83.784Z" transform="translate(-56.102 -56.046)" fill="#fff"/>
      <path id="Path_167909" data-name="Path 167909" d="M162.9,192.81a.985.985,0,0,0-.293,1.362,4.878,4.878,0,1,1-8.2,0,.985.985,0,1,0-1.655-1.068,6.847,6.847,0,1,0,11.514,0A.985.985,0,0,0,162.9,192.81Z" transform="translate(-141.695 -179.973)" fill="#fff"/>
      <path id="Path_167910" data-name="Path 167910" d="M241.988,140.646a.985.985,0,0,0,.985-.985v-8.01a.985.985,0,1,0-1.97,0v8.01A.985.985,0,0,0,241.988,140.646Z" transform="translate(-225.176 -122.057)" fill="#fff"/>
    </g>
    <g id="calendario" transform="translate(-5351.658 -6799.124)">
      <path id="Path_167911" data-name="Path 167911" d="M16.854,50.645H3.036a2.009,2.009,0,0,1-2.007-2.007V32.8H4.452a.515.515,0,0,0,0-1.029H1.029V30.33a2.009,2.009,0,0,1,2.007-2.007H5.6v.593a1.578,1.578,0,0,0,3.155,0v-.593h1.287v.593a1.578,1.578,0,0,0,3.155,0v-.593H14.48v.593a1.578,1.578,0,0,0,3.155,0v-.593h1.287v.593a1.578,1.578,0,1,0,3.155,0v-.593h1.287v.593a1.578,1.578,0,0,0,3.155,0v-.593h2.56a2.009,2.009,0,0,1,2.007,2.007v1.44H6.644a.515.515,0,1,0,0,1.029H31.087v6.681a.515.515,0,0,0,1.029,0V30.33a3.039,3.039,0,0,0-3.036-3.036h-2.56V26.7a1.578,1.578,0,1,0-3.155,0v.593H22.078V26.7a1.578,1.578,0,1,0-3.155,0v.593H17.636V26.7a1.578,1.578,0,0,0-3.155,0v.593H13.193V26.7a1.578,1.578,0,0,0-3.155,0v.593H8.751V26.7a1.578,1.578,0,0,0-3.155,0v.593H3.036A3.039,3.039,0,0,0,0,30.33V48.638a3.039,3.039,0,0,0,3.036,3.036H16.854a.515.515,0,1,0,0-1.029ZM24.394,26.7a.549.549,0,1,1,1.1,0v2.214a.549.549,0,1,1-1.1,0Zm-4.442,0a.549.549,0,1,1,1.1,0v2.214a.549.549,0,0,1-1.1,0Zm-4.442,0a.549.549,0,0,1,1.1,0v2.214a.549.549,0,0,1-1.1,0Zm-4.442,0a.549.549,0,1,1,1.1,0v2.214a.549.549,0,0,1-1.1,0Zm-4.442,0a.549.549,0,0,1,1.1,0v2.214a.549.549,0,0,1-1.1,0Z" fill="#12263f"/>
      <path id="Path_167912" data-name="Path 167912" d="M270,236.34a8.566,8.566,0,0,0-7.381,4.251.515.515,0,0,0,.89.517,7.469,7.469,0,1,1-.779,1.906.515.515,0,0,0-1-.254A8.533,8.533,0,1,0,270,236.34Z" transform="translate(-243.527 -196.726)" fill="#12263f"/>
      <path id="Path_167913" data-name="Path 167913" d="M379.362,268.423v-.446a.515.515,0,0,0-1.029,0v.446a.515.515,0,0,0,1.029,0Z" transform="translate(-352.379 -225.714)" fill="#12263f"/>
      <path id="Path_167914" data-name="Path 167914" d="M318.532,293.921a.514.514,0,0,0,.364-.878l-.316-.316a.514.514,0,1,0-.728.727l.316.316A.513.513,0,0,0,318.532,293.921Z" transform="translate(-295.907 -249.105)" fill="#12263f"/>
      <path id="Path_167915" data-name="Path 167915" d="M293.547,354.238a.515.515,0,0,0,0-1.029H293.1a.515.515,0,1,0,0,1.029Z" transform="translate(-272.514 -305.578)" fill="#12263f"/>
      <path id="Path_167916" data-name="Path 167916" d="M317.852,410.435a.515.515,0,0,0,.728,0l.316-.316a.515.515,0,1,0-.728-.728l-.316.316A.514.514,0,0,0,317.852,410.435Z" transform="translate(-295.907 -357.766)" fill="#12263f"/>
      <path id="Path_167917" data-name="Path 167917" d="M378.333,432.966v.446a.515.515,0,0,0,1.029,0v-.446a.515.515,0,1,0-1.029,0Z" transform="translate(-352.379 -379.384)" fill="#12263f"/>
      <path id="Path_167918" data-name="Path 167918" d="M434.517,410.12l.316.316a.515.515,0,0,0,.728-.728l-.316-.316a.515.515,0,0,0-.728.728Z" transform="translate(-404.568 -357.767)" fill="#12263f"/>
      <path id="Path_167919" data-name="Path 167919" d="M458.536,354.238a.515.515,0,1,0,0-1.029h-.446a.515.515,0,0,0,0,1.029Z" transform="translate(-426.185 -305.578)" fill="#12263f"/>
      <path id="Path_167920" data-name="Path 167920" d="M434.881,293.921a.513.513,0,0,0,.364-.151l.316-.316a.514.514,0,1,0-.728-.727l-.316.316a.514.514,0,0,0,.364.878Z" transform="translate(-404.569 -249.105)" fill="#12263f"/>
      <path id="Path_167921" data-name="Path 167921" d="M345.107,315.431a.514.514,0,1,0-.765.688l1.177,1.309a1.816,1.816,0,1,0,3.22.246l.947-.774a.515.515,0,1,0-.651-.8l-.947.775a1.812,1.812,0,0,0-1.8-.139Zm2.745,2.947a.787.787,0,1,1-1.315-.582l0,0,0,0a.786.786,0,0,1,1.309.587Z" transform="translate(-320.597 -270.233)" fill="#12263f"/>
      <path id="Path_167922" data-name="Path 167922" d="M49.715,164.162a1.193,1.193,0,0,0-1.192-1.192H47a1.193,1.193,0,0,0-1.192,1.192v1.526A1.193,1.193,0,0,0,47,166.88h1.526a1.193,1.193,0,0,0,1.192-1.192Zm-1.029,1.526a.163.163,0,0,1-.163.163H47a.163.163,0,0,1-.163-.163v-1.526A.163.163,0,0,1,47,164h1.526a.163.163,0,0,1,.163.163Z" transform="translate(-42.663 -128.39)" fill="#12263f"/>
      <path id="Path_167923" data-name="Path 167923" d="M129.236,164.162a1.193,1.193,0,0,0-1.192-1.192h-1.526a1.193,1.193,0,0,0-1.192,1.192v1.526a1.193,1.193,0,0,0,1.192,1.192h1.526a1.193,1.193,0,0,0,1.192-1.192Zm-1.029,1.526a.163.163,0,0,1-.163.163h-1.526a.163.163,0,0,1-.163-.163v-1.526a.163.163,0,0,1,.163-.163h1.526a.163.163,0,0,1,.163.163Z" transform="translate(-116.729 -128.39)" fill="#12263f"/>
      <path id="Path_167924" data-name="Path 167924" d="M206.039,162.97a1.193,1.193,0,0,0-1.192,1.192v1.526a1.193,1.193,0,0,0,1.192,1.192h1.526a1.193,1.193,0,0,0,1.192-1.192v-1.526a1.193,1.193,0,0,0-1.192-1.192Zm1.689,1.192v1.526a.163.163,0,0,1-.163.163h-1.526a.163.163,0,0,1-.163-.163v-1.526a.163.163,0,0,1,.163-.163h1.526A.163.163,0,0,1,207.728,164.162Z" transform="translate(-190.794 -128.39)" fill="#12263f"/>
      <path id="Path_167925" data-name="Path 167925" d="M285.56,162.97a1.193,1.193,0,0,0-1.192,1.192v1.526a1.193,1.193,0,0,0,1.192,1.192h1.526a1.193,1.193,0,0,0,1.192-1.192v-1.526a1.193,1.193,0,0,0-1.192-1.192Zm1.689,1.192v1.526a.163.163,0,0,1-.163.163H285.56a.163.163,0,0,1-.163-.163v-1.526a.163.163,0,0,1,.163-.163h1.526A.163.163,0,0,1,287.249,164.162Z" transform="translate(-264.86 -128.39)" fill="#12263f"/>
      <path id="Path_167926" data-name="Path 167926" d="M365.082,162.97a1.193,1.193,0,0,0-1.192,1.192v1.526a1.193,1.193,0,0,0,1.192,1.192h1.526a1.193,1.193,0,0,0,1.192-1.192v-1.526a1.193,1.193,0,0,0-1.192-1.192Zm1.689,1.192v1.526a.163.163,0,0,1-.163.163h-1.526a.163.163,0,0,1-.163-.163v-1.526a.163.163,0,0,1,.163-.163h1.526A.163.163,0,0,1,366.771,164.162Z" transform="translate(-338.927 -128.39)" fill="#12263f"/>
      <path id="Path_167927" data-name="Path 167927" d="M49.715,239.923a1.193,1.193,0,0,0-1.192-1.192H47a1.193,1.193,0,0,0-1.192,1.192v1.526A1.193,1.193,0,0,0,47,242.641h1.526a1.193,1.193,0,0,0,1.192-1.192Zm-1.029,1.526a.163.163,0,0,1-.163.163H47a.163.163,0,0,1-.163-.163v-1.526A.163.163,0,0,1,47,239.76h1.526a.163.163,0,0,1,.163.163Z" transform="translate(-42.663 -198.953)" fill="#12263f"/>
      <path id="Path_167928" data-name="Path 167928" d="M129.236,239.923a1.193,1.193,0,0,0-1.192-1.192h-1.526a1.193,1.193,0,0,0-1.192,1.192v1.526a1.193,1.193,0,0,0,1.192,1.192h1.526a1.193,1.193,0,0,0,1.192-1.192Zm-1.029,1.526a.163.163,0,0,1-.163.163h-1.526a.163.163,0,0,1-.163-.163v-1.526a.163.163,0,0,1,.163-.163h1.526a.163.163,0,0,1,.163.163Z" transform="translate(-116.729 -198.953)" fill="#12263f"/>
      <path id="Path_167929" data-name="Path 167929" d="M208.757,239.923a1.193,1.193,0,0,0-1.192-1.192h-1.526a1.193,1.193,0,0,0-1.192,1.192v1.526a1.193,1.193,0,0,0,1.192,1.192h1.526a1.193,1.193,0,0,0,1.192-1.192Zm-1.029,1.526a.163.163,0,0,1-.163.163h-1.526a.163.163,0,0,1-.163-.163v-1.526a.163.163,0,0,1,.163-.163h1.526a.163.163,0,0,1,.163.163Z" transform="translate(-190.794 -198.953)" fill="#12263f"/>
      <path id="Path_167930" data-name="Path 167930" d="M48.523,314.492H47a1.193,1.193,0,0,0-1.192,1.192v1.526A1.193,1.193,0,0,0,47,318.4h1.526a1.193,1.193,0,0,0,1.192-1.192v-1.526A1.193,1.193,0,0,0,48.523,314.492Zm.163,2.718a.163.163,0,0,1-.163.163H47a.163.163,0,0,1-.163-.163v-1.526a.163.163,0,0,1,.163-.163h1.526a.163.163,0,0,1,.163.163Z" transform="translate(-42.663 -269.517)" fill="#12263f"/>
      <path id="Path_167931" data-name="Path 167931" d="M128.044,314.492h-1.526a1.193,1.193,0,0,0-1.192,1.192v1.526a1.193,1.193,0,0,0,1.192,1.192h1.526a1.193,1.193,0,0,0,1.192-1.192v-1.526A1.193,1.193,0,0,0,128.044,314.492Zm.163,2.718a.163.163,0,0,1-.163.163h-1.526a.163.163,0,0,1-.163-.163v-1.526a.163.163,0,0,1,.163-.163h1.526a.163.163,0,0,1,.163.163Z" transform="translate(-116.729 -269.517)" fill="#12263f"/>
    </g>
    <g id="mente" transform="translate(-5352.196 -6932.231)">
      <path id="Path_167932" data-name="Path 167932" d="M32.29,9.73A16.777,16.777,0,0,0,18.106.056L17.5,0l-.559.014a13.085,13.085,0,0,0-5.446,1.409A13.234,13.234,0,0,0,4.174,13.3v2.358L.466,21.844a.633.633,0,0,0,.542.959H4.972l-.384,5.708a3.146,3.146,0,0,0,2.5,3.627.663.663,0,0,0,.194.009l3.855-.418v5.64a.633.633,0,0,0,.633.633h15.2a.633.633,0,0,0,.633-.633V31.074l4.948-12.226A12.275,12.275,0,0,0,32.29,9.73ZM31.369,18.4l-4.985,12.32a.638.638,0,0,0-.039.283c0,.014-.007.025-.007.038v5.695H12.406v-5.7c0-.013-.007-.025-.007-.038s.006-.028,0-.044a.69.69,0,0,0-.034-.106.486.486,0,0,0-.125-.229c-.009-.01-.013-.024-.022-.034a.191.191,0,0,0-.022-.017.622.622,0,0,0-.5-.175l-4.457.482a1.906,1.906,0,0,1-1.4-2.216l.437-6.446a.634.634,0,0,0-.588-.677c-.052,0-3.565,0-3.565,0l3.223-5.375a.335.335,0,0,0,.015-.041A.57.57,0,0,0,5.409,16a.634.634,0,0,0,.025-.127c0-.015.009-.027.009-.042V13.3A11.979,11.979,0,0,1,12.059,2.547a11.837,11.837,0,0,1,4.919-1.274h.507a15.549,15.549,0,0,1,13.651,8.966,11,11,0,0,1,.234,8.159Zm0,0" fill="#fff"/>
      <path id="Path_167933" data-name="Path 167933" d="M217.93,129.078h-1.112l.787-.787a.633.633,0,0,0,0-.9l-1.74-1.737.668-1.157a.634.634,0,0,0-.232-.865l-1.537-.891,1.537-.887a.633.633,0,0,0,.232-.865l-1.267-2.194a.633.633,0,0,0-.865-.232l-1.537.884V117.68a.633.633,0,0,0-.633-.633H209.7a.633.633,0,0,0-.633.633v1.773l-1.538-.887a.6.6,0,0,0-.19-.063l-.576-.576a.633.633,0,0,0-.895,0l-.6.6v-.849a.633.633,0,0,0-.633-.633h-3.8a.633.633,0,0,0-.633.633v.85l-.6-.6a.633.633,0,0,0-.895,0l-2.685,2.685a.633.633,0,0,0,0,.894l.6.6h-.85a.633.633,0,0,0-.633.633v3.8a.633.633,0,0,0,.633.633h.85l-.6.6a.633.633,0,0,0,0,.894l2.685,2.685a.633.633,0,0,0,.895,0l.6-.6v.851a.633.633,0,0,0,.633.633h3.8a.633.633,0,0,0,.633-.633v-.85l.6.6c.009.009.02.011.029.019v.862a.633.633,0,0,0,.633.633h1.112l-.787.787a.634.634,0,0,0,0,.9l1.792,1.792a.634.634,0,0,0,.9,0l.788-.787v1.112a.633.633,0,0,0,.633.633H213.5a.633.633,0,0,0,.633-.633v-1.112l.787.787a.633.633,0,0,0,.895,0l1.792-1.792a.633.633,0,0,0,0-.9l-.787-.787h1.112a.633.633,0,0,0,.633-.633v-2.533a.633.633,0,0,0-.633-.633Zm-8.461-8.365a2.54,2.54,0,0,1,.482-.286.633.633,0,0,0,.38-.58v-1.534H211.6v1.534a.633.633,0,0,0,.38.58,2.527,2.527,0,0,1,.482.286.633.633,0,0,0,.692.039l1.335-.771.633,1.1-1.341.775a.632.632,0,0,0-.313.616l.016.122a.812.812,0,0,1,0,.31l-.016.122a.632.632,0,0,0,.313.616l1.341.775-.633,1.1-1.335-.771a.633.633,0,0,0-.692.039,2.527,2.527,0,0,1-.482.286.633.633,0,0,0-.38.58v1.534h-1.267v-1.534a.622.622,0,0,0-.045-.221.418.418,0,0,0-.025-.054.586.586,0,0,0-.1-.143.494.494,0,0,0-.033-.038.631.631,0,0,0-.18-.127,2.508,2.508,0,0,1-.482-.286.634.634,0,0,0-.692-.039l-1.334.771-.633-1.1,1.34-.775a.633.633,0,0,0,.313-.616l-.016-.122a.786.786,0,0,1,0-.31l.016-.122a.633.633,0,0,0-.313-.616l-1.34-.774.633-1.1,1.334.77A.634.634,0,0,0,209.469,120.713Zm7.827,10.9h-1.488a.633.633,0,0,0-.6.423,3.108,3.108,0,0,1-.127.306.634.634,0,0,0,.127.719l1.053,1.053-.9.9-1.053-1.055a.634.634,0,0,0-.718-.127,3.053,3.053,0,0,1-.3.127.633.633,0,0,0-.425.6v1.488H211.6v-1.488a.634.634,0,0,0-.425-.6,3.246,3.246,0,0,1-.305-.126.634.634,0,0,0-.718.126l-1.053,1.051-.9-.9,1.055-1.053a.634.634,0,0,0,.127-.719,3.168,3.168,0,0,1-.127-.306.633.633,0,0,0-.6-.423h-1.488v-1.267h.354a.633.633,0,0,0,0-1.266h-.988a.626.626,0,0,0-.615.544l-.76-.76a.634.634,0,0,0-.6-.167.437.437,0,0,0-.083.027.633.633,0,0,0-.477.615v1.64h-2.533v-1.64a.6.6,0,0,0-.448-.606c-.024-.008-.087-.029-.111-.035a.629.629,0,0,0-.6.167l-1.161,1.156-1.791-1.791,1.156-1.161a.633.633,0,0,0,.167-.6.389.389,0,0,0-.026-.076.633.633,0,0,0-.616-.483H196.4v-2.533h1.64a.591.591,0,0,0,.605-.447c.009-.024.03-.087.036-.112a.633.633,0,0,0-.167-.6l-1.156-1.161,1.791-1.791,1.161,1.156a.634.634,0,0,0,.6.167.491.491,0,0,0,.083-.027.633.633,0,0,0,.476-.613v-1.64H204v1.64a.6.6,0,0,0,.448.606c.024.009.087.029.111.035a.633.633,0,0,0,.6-.167l1.161-1.156.047.047-.967,1.675a.632.632,0,0,0,.232.865l1.158.669a.622.622,0,0,0,0,.293.353.353,0,0,0,.025.076c0,.016.014.029.019.044l-1.124.65a3.147,3.147,0,1,0,.132,1.672l.823,1.431a.634.634,0,0,0,.865.232l1.539-.885v1.773a.633.633,0,0,0,.633.633h2.533a.633.633,0,0,0,.633-.633v-1.773l1.537.887a.625.625,0,0,0,.792-.15l1.069,1.069-1.055,1.052a.633.633,0,0,0-.126.719,3.226,3.226,0,0,1,.126.306.633.633,0,0,0,.6.423H217.3Zm-12.665-6.966a1.9,1.9,0,1,1-1.9-1.9A1.9,1.9,0,0,1,204.632,124.646Zm0,0" transform="translate(-188.426 -113.241)" fill="#fff"/>
      <path id="Path_167934" data-name="Path 167934" d="M625.509,237.694a1.9,1.9,0,1,0-1.9-1.9A1.9,1.9,0,0,0,625.509,237.694Zm0-2.533a.633.633,0,1,1-.633.633A.633.633,0,0,1,625.509,235.161Zm0,0" transform="translate(-602.97 -226.29)" fill="#fff"/>
      <path id="Path_167935" data-name="Path 167935" d="M643.086,470.15a2.533,2.533,0,1,0,2.533-2.533A2.533,2.533,0,0,0,643.086,470.15Zm2.533-1.267a1.266,1.266,0,1,1-1.267,1.267A1.266,1.266,0,0,1,645.619,468.883Zm0,0" transform="translate(-621.814 -452.413)" fill="#fff"/>
    </g>
    <g id="People" transform="translate(-5618 -6669)">
      <path id="Path_167936" data-name="Path 167936" d="M35.25,30.583h-.389l-1.944-1.458V27.513a4.083,4.083,0,0,0,1.7-2.763h.63a1.167,1.167,0,0,0,1.167-1.167V23a1.167,1.167,0,0,0-1.167-1.167h-.583v-.746a4.083,4.083,0,0,0,1.75-3.338V15.417a.583.583,0,0,0-.583-.583h-7a4.088,4.088,0,0,0-4.083,4.083v1.167a1.74,1.74,0,0,0,.48,1.2c-.159-.015-.319-.03-.48-.03h-.972l-1.944-1.458V18.426a5.844,5.844,0,0,0,3.47-4.759h.03a1.75,1.75,0,0,0,1.75-1.75v-.583a1.75,1.75,0,0,0-1.75-1.75V9.421a4.083,4.083,0,0,0,1.75-3.338v-3.5A.583.583,0,0,0,26.5,2H16a4.088,4.088,0,0,0-4.083,4.083v1.75a2.329,2.329,0,0,0,1.012,1.919,1.75,1.75,0,0,0-1.012,1.581v.583a1.75,1.75,0,0,0,1.75,1.75h.03a5.806,5.806,0,0,0,.275,1.265.565.565,0,0,0-.305-.1h-7a4.088,4.088,0,0,0-4.083,4.083v1.167a1.75,1.75,0,0,0,1.75,1.75H3.75A1.167,1.167,0,0,0,2.583,23v.583A1.167,1.167,0,0,0,3.75,24.75h.63a4.083,4.083,0,0,0,1.7,2.763v1.612L4.139,30.583H3.75A1.75,1.75,0,0,0,2,32.333v4.083A.583.583,0,0,0,2.583,37H14.25a.583.583,0,0,0,.583-.583v-.583h9.333v.583A.583.583,0,0,0,24.75,37H36.417A.583.583,0,0,0,37,36.417V32.333A1.75,1.75,0,0,0,35.25,30.583Zm-3.267-.7L33.607,31.1l-3.023,1.727L27.56,31.1l1.623-1.217a.583.583,0,0,0,.233-.467V28.075a4.041,4.041,0,0,0,2.333,0v1.342A.583.583,0,0,0,31.983,29.883Zm1.828,2.444-.778,3.506h-4.9l-.779-3.506,2.937,1.679a.583.583,0,0,0,.579,0ZM33.5,24.167a2.917,2.917,0,0,1-5.833,0v-3.14l1.8-.9a1.4,1.4,0,0,1-.02.35,2.236,2.236,0,0,1-.35.619.921.921,0,0,0-.2,1.014.974.974,0,0,0,.8.471,3.11,3.11,0,0,0,2.481-.937,2.763,2.763,0,0,0,.478-.733l.844.211ZM35.25,23v.583h-.583V23Zm-9.333-4.083A2.92,2.92,0,0,1,28.833,16H35.25v1.75A2.917,2.917,0,0,1,34.1,20.069l-1.679-.423a.583.583,0,0,0-.713.443,1.661,1.661,0,0,1-.382.764,1.942,1.942,0,0,1-1.019.541,3.029,3.029,0,0,0,.245-.531,3.687,3.687,0,0,0,.027-1.448.583.583,0,0,0-.577-.5h-.583a.583.583,0,0,0-.261.061l-2.333,1.167a.583.583,0,0,0-.323.522.583.583,0,0,1-.583-.583Zm.583,4.667h-.583V23H26.5ZM20.9,20.55l1.623,1.217L19.5,23.495l-3.023-1.727L18.1,20.55a.583.583,0,0,0,.233-.467V18.8a5.833,5.833,0,0,0,2.333,0v1.283A.583.583,0,0,0,20.9,20.55Zm1.86,2.426-.821,4.108H17.061l-.821-4.108,2.971,1.7a.583.583,0,0,0,.579,0Zm1.406-9.892a4.667,4.667,0,0,1-9.333,0V8.8l3.383-1.448a1.6,1.6,0,0,1-.308.667,2.4,2.4,0,0,1-.3.263.817.817,0,0,0-.408.895.773.773,0,0,0,.555.5,4.19,4.19,0,0,0,3.263-.791,3.545,3.545,0,0,0,.688-.691l2.462.67Zm1.75-1.75v.583a.583.583,0,0,1-.583.583V10.75A.583.583,0,0,1,25.917,11.333ZM13.083,6.083A2.92,2.92,0,0,1,16,3.167h9.917V6.083a2.909,2.909,0,0,1-.747,1.937.577.577,0,0,0-.265-.167l-3.29-.9a.583.583,0,0,0-.652.26,2.606,2.606,0,0,1-.652.74,3.2,3.2,0,0,1-1.332.576A4.205,4.205,0,0,0,19.5,6.717a.583.583,0,0,0-.583-.634h-.583a.575.575,0,0,0-.23.047L14.02,7.881a.583.583,0,0,0-.354.536v.421a1.163,1.163,0,0,1-.583-1Zm0,5.833v-.583a.583.583,0,0,1,.583-.583V12.5A.583.583,0,0,1,13.083,11.917ZM14.25,17.75V15.609a5.863,5.863,0,0,0,2.917,2.817v1.366L15.222,21.25H14.25a5.212,5.212,0,0,0-1.75.31v-.472a4.083,4.083,0,0,0,1.75-3.338ZM12.5,23h.583v.583H12.5ZM3.75,20.083V18.917A2.92,2.92,0,0,1,6.667,16h6.417v1.75a2.917,2.917,0,0,1-1.153,2.319l-1.679-.423a.583.583,0,0,0-.713.443,1.661,1.661,0,0,1-.382.764,1.942,1.942,0,0,1-1.019.541,3.029,3.029,0,0,0,.245-.531,3.687,3.687,0,0,0,.027-1.448.583.583,0,0,0-.577-.5H7.25a.583.583,0,0,0-.261.061L4.656,20.145a.583.583,0,0,0-.323.522A.583.583,0,0,1,3.75,20.083ZM3.75,23h.583v.583H3.75ZM5.5,24.167v-3.14l1.8-.9a1.4,1.4,0,0,1-.02.35,2.236,2.236,0,0,1-.35.619.921.921,0,0,0-.2,1.014.974.974,0,0,0,.8.471,3.112,3.112,0,0,0,2.481-.937,2.763,2.763,0,0,0,.478-.733l.843.211v3.045a2.917,2.917,0,0,1-5.833,0Zm1.517,5.717a.583.583,0,0,0,.233-.467V28.075a4.041,4.041,0,0,0,2.333,0v1.342a.583.583,0,0,0,.233.467l1.527,1.145L8.417,32.282,5.49,31.028Zm4.667,2.268-.817,3.682h-4.9L5.15,32.151l3.037,1.3a.583.583,0,0,0,.46,0Zm-8.517.182a.583.583,0,0,1,.583-.583h.117l.907,4.083H3.167Zm10.5,3.5H12.061l.906-4.083h.117a.583.583,0,0,1,.583.583Zm1.167-1.167V32.333a1.75,1.75,0,0,0-1.75-1.75h-.389L10.75,29.125V27.513a4.083,4.083,0,0,0,1.7-2.763h.63a1.167,1.167,0,0,0,1.167-1.167V23a1.155,1.155,0,0,0-.157-.573c.053,0,.1-.01.157-.01h.688l1.073,5.367a.583.583,0,0,0,.572.467h5.833a.583.583,0,0,0,.572-.467l1.073-5.367h.688c.052,0,.1.008.157.01A1.155,1.155,0,0,0,24.75,23v.583a1.167,1.167,0,0,0,1.167,1.167h.63a4.083,4.083,0,0,0,1.7,2.763v1.612l-1.944,1.458h-.389a1.75,1.75,0,0,0-1.75,1.75v2.333Zm10.5-2.333a.583.583,0,0,1,.583-.583h.117l.907,4.083H25.333Zm10.5,3.5H34.227l.906-4.083h.117a.583.583,0,0,1,.583.583Z" fill="#12263f"/>
    </g>
    <g id="pesa" transform="translate(-5726.696 -6988.584)">
      <path id="Path_167937" data-name="Path 167937" d="M33.566,66.678H31.925V65.314a1.964,1.964,0,0,0-1.961-1.962H28.4a1.964,1.964,0,0,0-1.961,1.962V70.93H23.815V69.422a1.983,1.983,0,0,0-3.138-1.613A1.984,1.984,0,0,0,17.15,67.7a1.98,1.98,0,0,0-2.863.478,1.983,1.983,0,0,0-3.275,1.506V70.93H8.563V69.484a.512.512,0,1,0-1.025,0v11.9a.938.938,0,0,1-.937.937H5.037a.938.938,0,0,1-.937-.937V65.314a.938.938,0,0,1,.937-.937H6.6a.938.938,0,0,1,.937.937V67.3a.512.512,0,0,0,1.025,0V65.314A1.964,1.964,0,0,0,6.6,63.352H5.037a1.964,1.964,0,0,0-1.961,1.962v1.364H1.434A1.435,1.435,0,0,0,0,68.112V78.588a1.435,1.435,0,0,0,1.434,1.434H3.076v1.364a1.964,1.964,0,0,0,1.961,1.961H6.6a1.964,1.964,0,0,0,1.961-1.961V75.77h1.756v.936a2.085,2.085,0,0,0,.474,1.322l1.591,1.935v9.223a.512.512,0,0,0,1.025,0V79.778a.513.513,0,0,0-.117-.326l-1.708-2.076a1.058,1.058,0,0,1-.24-.671V75.77l9.689.059a.512.512,0,0,0,0-1.025H18.7a.872.872,0,1,1,0-1.744h4.405a.55.55,0,0,1,.549.549v3.1a1.058,1.058,0,0,1-.24.67l-1.708,2.076a.513.513,0,0,0-.117.326v1.351a.512.512,0,0,0,1.025,0V79.961l1.591-1.935a2.086,2.086,0,0,0,.474-1.322V75.77h1.756v5.616A1.964,1.964,0,0,0,28.4,83.347h1.565a1.964,1.964,0,0,0,1.961-1.961V80.022h1.642A1.435,1.435,0,0,0,35,78.588V68.112A1.435,1.435,0,0,0,33.566,66.678ZM1.434,79a.41.41,0,0,1-.409-.409V68.112a.409.409,0,0,1,.409-.409H3.076V79Zm20.4-10.535a.961.961,0,0,1,.96.96v1.908a.959.959,0,0,1-.311.706h-1.3a.959.959,0,0,1-.311-.706V69.422A.961.961,0,0,1,21.83,68.462Zm-3.9.2a.96.96,0,0,1,1.92,0v2.667a.959.959,0,0,1-.311.706H18.7a1.894,1.894,0,0,0-.412.046.955.955,0,0,1-.364-.751V68.662Zm-2.944.61a.96.96,0,0,1,1.92,0v2.057a.96.96,0,1,1-1.92,0Zm-2.944.413a.96.96,0,0,1,1.92,0v1.644a.96.96,0,1,1-1.92,0ZM8.563,71.954h2.551a1.983,1.983,0,0,0,3.356.7,1.977,1.977,0,0,0,2.608.3,1.893,1.893,0,0,0-.089,1.791H8.563Zm16.118,2.791V73.609a1.576,1.576,0,0,0-1.035-1.479q.038-.086.068-.176h2.724v2.791Zm9.294,3.843a.41.41,0,0,1-.409.409H31.925V77.516a.512.512,0,0,0-1.025,0v3.87a.938.938,0,0,1-.937.937H28.4a.938.938,0,0,1-.937-.937V65.314a.938.938,0,0,1,.937-.937h1.565a.938.938,0,0,1,.937.937V75.333a.512.512,0,0,0,1.025,0V67.7h1.642a.409.409,0,0,1,.409.409Z" fill="#12263f"/>
      <path id="Path_167938" data-name="Path 167938" d="M316.576,348.04a.512.512,0,0,0-.512.512v5.872a.512.512,0,0,0,1.025,0v-5.872A.512.512,0,0,0,316.576,348.04Z" transform="translate(-294.473 -265.24)" fill="#12263f"/>
    </g>
    <g id="sin-celular" transform="translate(-5462.472 -6664.571)">
      <g id="Group_109776" data-name="Group 109776" transform="translate(8.673 0.543)">
        <path id="Path_167943" data-name="Path 167943" d="M130.68,20.387V2.34a1.8,1.8,0,0,0-1.8-1.8h-16.3a1.8,1.8,0,0,0-1.8,1.8V6.525a.685.685,0,1,0,1.37,0V2.34a.429.429,0,0,1,.43-.427h2.729V3.328a1.95,1.95,0,0,0,1.949,1.946H124.2a1.949,1.949,0,0,0,1.947-1.946V1.913h2.729a.429.429,0,0,1,.43.427V19.586a8.389,8.389,0,0,0-11.734,5.893h-5.421V12.663a.685.685,0,1,0-1.37,0V29a1.8,1.8,0,0,0,1.8,1.8h5.647A8.378,8.378,0,1,0,130.68,20.387Zm-5.9-17.059a.577.577,0,0,1-.577.576h-6.942a.578.578,0,0,1-.579-.576V1.913h8.1V3.328Zm-12.2,26.1a.434.434,0,0,1-.43-.427V26.849h5.255c0,.108-.007.217-.007.326a8.332,8.332,0,0,0,.31,2.256h-5.128Zm13.2,4.741a7,7,0,1,1,7.012-7,7.014,7.014,0,0,1-7.012,7Z" transform="translate(-110.785 -0.543)" fill="#fff"/>
        <path id="Path_167944" data-name="Path 167944" d="M273.907,327.066a2.372,2.372,0,0,0-4.05-1.677l-.384.384-.386-.385a2.378,2.378,0,0,0-3.354,0,2.37,2.37,0,0,0,0,3.353l.383.382-.382.382a2.37,2.37,0,0,0,0,3.354,2.378,2.378,0,0,0,3.354,0l.386-.385.385.385a2.372,2.372,0,0,0,3.357-3.353l-.383-.383.383-.382A2.351,2.351,0,0,0,273.907,327.066Zm-2.53,2.541.869.869a1,1,0,0,1,0,1.413,1.007,1.007,0,0,1-1.42,0l-.868-.868a.685.685,0,0,0-.968,0l-.87.868a1.006,1.006,0,0,1-1.419,0,1,1,0,0,1,0-1.414l.868-.868a.685.685,0,0,0,0-.969l-.869-.867a1,1,0,0,1,0-1.413,1.006,1.006,0,0,1,1.419,0l.87.868a.685.685,0,0,0,.968,0l.867-.867a1.007,1.007,0,0,1,1.42,0,1,1,0,0,1,0,1.414l-.868.866a.685.685,0,0,0,0,.969Z" transform="translate(-254.471 -302.49)" fill="#fff"/>
        <path id="Path_167945" data-name="Path 167945" d="M111.469,124.014a.685.685,0,0,0,.685-.685v0a.685.685,0,1,0-.685.689Z" transform="translate(-110.784 -114.278)" fill="#fff"/>
      </g>
    </g>
    <g id="Line_cutting_stoke_Expand" transform="translate(-5743 -6795.731)">
      <g id="Group_109777" data-name="Group 109777" transform="translate(16 16)">
        <path id="Path_167954" data-name="Path 167954" d="M233.721,291.443A1.721,1.721,0,1,0,232,289.721,1.721,1.721,0,0,0,233.721,291.443Zm0-2.3a.574.574,0,1,1-.574.574A.574.574,0,0,1,233.721,289.148Z" transform="translate(-216.508 -268.492)" fill="#fff"/>
        <path id="Path_167955" data-name="Path 167955" d="M50.426,42.393V40.242a1.293,1.293,0,0,0-1.148-1.283V35.652a1.293,1.293,0,0,0-1.291-1.291H43.33l.106-.844a1.291,1.291,0,0,0-1.281-1.451H40.1v-.153A2.019,2.019,0,0,0,38.951,30.1v-8.36a5.738,5.738,0,0,0-11.475,0v6.885h1.148V21.738a4.59,4.59,0,1,1,9.18,0V29.66l-2.369-.888-.35-1.75.6-.358a2.018,2.018,0,0,0,.975-1.722V22.885a.574.574,0,0,0,.574-.574v-2.3H36.082v1.721h-.574a2.872,2.872,0,0,1-2.869-2.869H31.492a4.026,4.026,0,0,0,.068.739,2.736,2.736,0,0,0-1.789,2.56v2.774a2.018,2.018,0,0,0,.975,1.722l.6.358-.35,1.75-3.361,1.26a2.018,2.018,0,0,0-1.3,1.88v.153H24.271a1.291,1.291,0,0,0-1.281,1.451l.106.844H19.012a1.293,1.293,0,0,0-1.291,1.291v3.3h-.43A1.293,1.293,0,0,0,16,40.242v9.611a.574.574,0,0,0,.574.574h3.443a.574.574,0,0,0,.574-.574v-2.3h7.231l.494,2.963a.574.574,0,0,0,.566.479h3.443a.574.574,0,0,0,.566-.479l.295-1.768.295,1.768a.574.574,0,0,0,.566.479h3.443a.574.574,0,0,0,.566-.479l.494-2.963h7.288v2.3a.574.574,0,0,0,.574.574h3.443a.574.574,0,0,0,.574-.574V43.541H49.279v5.738h-2.3V40.242a.143.143,0,0,1,.143-.143h2.008a.143.143,0,0,1,.143.143v2.152Zm-25.82.574v-.574H41.82v.574Zm9.276-10.9,1.3-2.164,3.212,1.2a.865.865,0,0,1,.559.806v.153Zm-.669-1.115L32.1,29.092l.292-1.458a2,2,0,0,0,1.647,0l.292,1.458Zm-2.3-6.008V22.168a1.584,1.584,0,0,1,1.013-1.474,4.021,4.021,0,0,0,3.577,2.191v2.057a.865.865,0,0,1-.418.738l-1.255.753-.037.007,0,.013-.145.087a.859.859,0,0,1-.886,0l-.145-.087,0-.013-.037-.007-1.255-.753A.865.865,0,0,1,30.918,24.942Zm-3.443,6.97a.865.865,0,0,1,.558-.806l3.212-1.2,1.3,2.164H27.475Zm-8.607,3.74a.143.143,0,0,1,.143-.143h4.227l.3,2.366,1.139-.142-.545-4.358a.143.143,0,0,1,.125-.16h17.9a.143.143,0,0,1,.143.144.145.145,0,0,1,0,.018l-.984,7.872h-16.2l-.3-2.366-1.139.142.279,2.229a.574.574,0,0,0-.5.569v1.148H21.451a2,2,0,0,0-.861.194V40.242A1.293,1.293,0,0,0,19.3,38.951h-.43Zm.574,13.627h-2.3V40.242a.143.143,0,0,1,.143-.143H19.3a.143.143,0,0,1,.143.143ZM20.59,46.41V44.975a.862.862,0,0,1,.861-.861h6.162a2,2,0,0,0-.166,1.191l.184,1.1Zm11.248,3.443h-2.47l-.789-4.736a.861.861,0,0,1,.849-1h2.351a.862.862,0,0,1,.821.6,2.007,2.007,0,0,0,0,.544Zm5.953-4.736L37,49.852h-2.47l-.765-4.592a2.01,2.01,0,0,0,0-.544.861.861,0,0,1,.821-.6h2.351a.861.861,0,0,1,.849,1Zm.948,1.293.184-1.1a2,2,0,0,0-.166-1.191h6.218a.862.862,0,0,1,.861.861V46.41Zm7.1-6.168v2.919a2,2,0,0,0-.861-.194H42.967V41.82a.574.574,0,0,0-.5-.569l.718-5.743h4.8a.143.143,0,0,1,.143.143v3.3h-1A1.293,1.293,0,0,0,45.836,40.242Z" transform="translate(-16 -16)" fill="#fff"/>
      </g>
    </g>
  </g>
</svg>
