<svg xmlns="http://www.w3.org/2000/svg" width="295" height="212.494" viewBox="0 0 295 212.494">
  <g id="t1-i3" transform="translate(1834.473 -1050.728)">
    <g id="Group_109103" data-name="Group 109103" transform="translate(-1834.473 1050.728)">
      <path id="Path_166789" data-name="Path 166789" d="M-1795.359,1289.738s-70.412-53.371-22.291-110.585,112.517-115.71,155.684-93.08,39.285,51.237,86.7,92.653,36.444,74.293,27.952,90.945-9.907,20.922-9.907,20.922Z" transform="translate(1834.473 -1081.087)" fill="#ffd947" opacity="0.25"/>
      <path id="Path_166790" data-name="Path 166790" d="M-1767.238,1109.112c12.518-11.149,21.71-4.5,28.557,2.934,5.457,5.925,6.218,7.238,10.726,13.376a5.383,5.383,0,0,1,1.2,3.054c.127,6.785,3.6,35.477-.261,45.377-4.5,11.54-59.982,16.821-59.982,16.821Z" transform="translate(1834.065 -1051.178)" fill="#002e59"/>
      <g id="Group_109079" data-name="Group 109079" transform="translate(101.788 75.552)">
        <path id="Path_166791" data-name="Path 166791" d="M-1731.232,1180.626a.572.572,0,0,1-.571-.543.572.572,0,0,1,.542-.6,5.319,5.319,0,0,0,4.1-2.262c6.22-8.06,2.723-34.969-.325-49.6a.571.571,0,0,1,.443-.676.57.57,0,0,1,.676.443,196.08,196.08,0,0,1,3.586,26.349c.714,12.133-.455,20.268-3.475,24.181a6.483,6.483,0,0,1-4.945,2.707Z" transform="translate(1731.804 -1126.933)" fill="#002e59"/>
      </g>
      <path id="Path_166792" data-name="Path 166792" d="M-1762.877,1105.809c-24.058,13.3-9.389,58.286-39.9,74.325-8.453,4.444-34.424,26.991-17.407,56.722,11.13,19.447,44.4,15.256,55.353-1.956S-1762.877,1105.809-1762.877,1105.809Z" transform="translate(1834.399 -1051.201)" fill="#002e59"/>
      <g id="Group_109080" data-name="Group 109080" transform="translate(6.925 71.444)">
        <path id="Path_166793" data-name="Path 166793" d="M-1826.914,1208.234a.663.663,0,0,1-.076,0,.572.572,0,0,1-.492-.642,32.941,32.941,0,0,1,2.945-8.964,39.321,39.321,0,0,1,14.4-16.218c14.118-8.984,23.49-17.451,34.57-59.19a.57.57,0,0,1,.7-.405.572.572,0,0,1,.406.7c-5.354,20.169-10.664,33.8-16.707,42.909-5.613,8.455-11.388,12.519-18.354,16.951a37.6,37.6,0,0,0-16.821,24.368A.573.573,0,0,1-1826.914,1208.234Z" transform="translate(1827.487 -1122.791)" fill="#002e59"/>
      </g>
      <g id="Group_109081" data-name="Group 109081" transform="translate(7.453 68.119)">
        <path id="Path_166794" data-name="Path 166794" d="M-1826.384,1196.556a.57.57,0,0,1-.3-.088.57.57,0,0,1-.178-.788,43.579,43.579,0,0,1,13.206-13.464c19.827-12.822,23.107-20.193,39.482-62.413a.573.573,0,0,1,.741-.327.572.572,0,0,1,.326.74c-8.187,21.109-13.081,33.479-18.433,42.246-5.748,9.416-12.234,14.725-21.5,20.714a42.449,42.449,0,0,0-12.861,13.114A.572.572,0,0,1-1826.384,1196.556Z" transform="translate(1826.955 -1119.437)" fill="#002e59"/>
      </g>
      <path id="Path_166795" data-name="Path 166795" d="M-1763.231,1134.125a70.14,70.14,0,0,0-7.009,32.814s.956,6.053,4.779,7.328,9.239-2.549,8.921-7.646,1.274-17.522,3.186-21.983S-1763.231,1134.125-1763.231,1134.125Z" transform="translate(1833.922 -1051.444)" fill="#ee9759"/>
      <path id="Path_166796" data-name="Path 166796" d="M-1807.313,1254.586c.521,4.693-.652,4.3,3.521,5.085s11.6-2.086,11.6-2.086l-8.345-15.518Z" transform="translate(1834.24 -1052.37)" fill="#002e59"/>
      <path id="Path_166797" data-name="Path 166797" d="M-1769.567,1157.9c-2.347,7.628-19.949,1.761-26.11,3.521S-1807.119,1189-1808,1212.178s.293,41.659,2.64,44.593,41.073,4.107,44.593,2.934-29.337-15.842-29.337-15.842-2.053-26.99.587-40.779,26.4-31.978,26.4-31.978Z" transform="translate(1834.248 -1051.647)" fill="#ee9759"/>
      <path id="Path_166798" data-name="Path 166798" d="M-1760.961,1160.272c6.161,9.388,22.3,8.214,27.871,15.842s17.308,49.58,17.308,49.58l12.322-42.539s9.992-1.679,6.748,5.28c-5.772,12.377-7.923,52.31-14.182,57.983-6.961,6.307-13.887,1.174-17.8-9.87-3.781-10.683-13.2-33.738-19.949-42.54s-14.082-22.883-14.082-22.883Z" transform="translate(1833.857 -1051.668)" fill="#ee9759"/>
      <path id="Path_166799" data-name="Path 166799" d="M-1788.063,1161.444c12.321,14.376,36.378,13.789,41.659,12.028l5.281-1.76s4.107-1.467,7.628,2.64,12.028,29.925,13.494,35.792,3.814,15.548,3.814,15.548-6.294,7.555-6.294,15.183,2.673,7.693,2.673,7.693-7.82-1.753-9.581-6.447-17.6-47.233-17.6-47.233l-43.713.88.587,48.114s-3.814-3.521-9.094,0-7.041,11.734-6.162,12.908-1.76,1.174-1.76.293-4.987-22.3-1.466-57.5,10.267-39.018,14.082-39.312A12.385,12.385,0,0,1-1788.063,1161.444Z" transform="translate(1834.261 -1051.667)" fill="#ffd63b"/>
      <g id="Group_109082" data-name="Group 109082" transform="translate(91.306 134.019)">
        <path id="Path_166800" data-name="Path 166800" d="M-1720.834,1248.721a.485.485,0,0,0,.131.029Z" transform="translate(1742.191 -1186.446)" fill="#e6993a"/>
        <path id="Path_166801" data-name="Path 166801" d="M-1719.327,1226.981c-2.543.782-6.846,9.779-6.846,9.779s-9.78-21.319-12.713-50.854l-3.491,20.037c4.819,12.938,12.382,33.24,13.567,36.4,1.61,4.294,8.1,6.085,8.994,6.285-.243-.083-.781-.407-1.227-1.7-.257-.234-1.726-.921-2-1.173-2.347-2.151-1.369-7.237.2-12.909S-1716.784,1226.2-1719.327,1226.981Z" transform="translate(1742.376 -1185.907)" fill="#e6993a"/>
      </g>
      <path id="Path_166802" data-name="Path 166802" d="M-1788.5,1195.842l-4.848-22.167c-5.281,7.433-5.868,32.86-3.716,50.267,1.764,14.277,4.4,17.981,6.217,19.47a5.278,5.278,0,0,1,.83.587l-.587-48.114Z" transform="translate(1834.162 -1051.783)" fill="#002e59"/>
      <path id="Path_166803" data-name="Path 166803" d="M-1802.579,1173.478c9,24.253,4.5,29.143,16.339,57.609,6.613,15.9,19.362,27.872,19.362,27.872a81.029,81.029,0,0,0,23.176,1.76c12.909-.88,22.359-1.767,22.359-1.767s-13.557-8.208-14.145-13.783-3.133-27.683.193-43.331c2.6-12.219-8.114-24.438-8.114-24.438l-17.9-.879Z" transform="translate(1834.199 -1051.781)" fill="#ffd63b"/>
      <path id="Path_166804" data-name="Path 166804" d="M-1786.6,1210.944c-1.565-5.672,6.65,1.761,20.146,3.129s28.557-.782,21.124,1.565-27.775-1.174-24.058,6.259c4.373,8.747,9.538,17.212,17.017,22.3,4.89,3.324,16.625,6.454,5.28,4.693s-23.471-15.061-28.752-23.666S-1786.251,1212.209-1786.6,1210.944Z" transform="translate(1834.063 -1052.085)" fill="#e6993a"/>
      <path id="Path_166805" data-name="Path 166805" d="M-1756.533,1164.4c.119-5.855,1.547-15.848,3.218-19.749,1.369-3.2-4.292-7.208-7.614-9.227l-2.809-.12q-.641,1.4-1.2,2.779c-2.965,19.471,5.909,27.518,10.144,29.137a12.805,12.805,0,0,0,5.626.619A34.1,34.1,0,0,1-1756.533,1164.4Z" transform="translate(1833.881 -1051.454)" fill="#e18340"/>
      <g id="Group_109083" data-name="Group 109083" transform="translate(59.2 109.832)">
        <path id="Path_166806" data-name="Path 166806" d="M-1761.987,1173.279a13.207,13.207,0,0,1-3.122-.378c-2.449-.6-8.288-2.864-9.646-11.013a.324.324,0,0,1,.267-.374.325.325,0,0,1,.373.266c1.295,7.768,6.837,9.923,9.16,10.49,3.61.879,7.438.065,8.908-1.895,1.179-1.571.471-4.919.464-4.953a.324.324,0,0,1,.248-.385.324.324,0,0,1,.386.248c.033.149.777,3.67-.579,5.479C-1756.732,1172.368-1759.212,1173.279-1761.987,1173.279Z" transform="translate(1774.76 -1161.511)" fill="#002e59"/>
      </g>
      <path id="Path_166807" data-name="Path 166807" d="M-1734.277,1141.654c-1.99,10.508-6.586,18.986-14.364,17.389s-15.955-12.7-13.8-23.175,10.2-17.674,17.98-16.077S-1731.625,1127.651-1734.277,1141.654Z" transform="translate(1833.857 -1051.318)" fill="#ee9759"/>
      <path id="Path_166808" data-name="Path 166808" d="M-1706.238,1194.193s-14.376,38.629-15.061,42.639.685,6.552,1.077,6.552,12.615-20.929,12.615-20.929Z" transform="translate(1833.503 -1051.959)" fill="#ee9759"/>
      <path id="Path_166809" data-name="Path 166809" d="M-1705.52,1192.406c1.174-3.912-.652-8.867-.652-8.867l5.216.652Z" transform="translate(1833.372 -1051.868)" fill="#ee9759"/>
      <g id="Group_109084" data-name="Group 109084" transform="translate(117.708 100.422)">
        <path id="Path_166810" data-name="Path 166810" d="M-1699.872,1185.464h-14.553a1.321,1.321,0,0,1-1.265-1.7l9.188-30.8a1.319,1.319,0,0,1,1.265-.942h14.554a1.32,1.32,0,0,1,1.265,1.7l-9.188,30.8A1.32,1.32,0,0,1-1699.872,1185.464Z" transform="translate(1715.746 -1152.019)" fill="#5cafff"/>
        <path id="Path_166811" data-name="Path 166811" d="M-1698.03,1185.464h-14.553a1.321,1.321,0,0,1-1.266-1.7l9.187-30.8a1.319,1.319,0,0,1,1.265-.942h14.554a1.32,1.32,0,0,1,1.265,1.7l-9.187,30.8A1.32,1.32,0,0,1-1698.03,1185.464Z" transform="translate(1715.73 -1152.019)" fill="#0077ec"/>
        <path id="Path_166812" data-name="Path 166812" d="M-1708.541,1163.146c-1.552,5.59-2.6,10.181-2.333,10.254s1.734-4.4,3.286-9.99,2.6-10.181,2.333-10.254S-1706.989,1157.555-1708.541,1163.146Z" transform="translate(1715.704 -1152.029)" fill="#fff"/>
      </g>
      <path id="Path_166813" data-name="Path 166813" d="M-1698.588,1194.685c.43-5.08,4.83-9.842,6.5-11.361a2.4,2.4,0,0,0,.789-1.8c-.024-2.532-.136-8.509-.659-9.208-.667-.888-2.334-12.333-3.112-11.889s.222,10.445.222,10.445-1.889-.889-2.889-1.333-5.111,4.11-5.111,4.11-1.928,4.871,3.342,2.785c6.259-2.479,1.565,4.433-2.607,8.866-3.438,3.653-.513,4.461-.513,4.461l2.778-.111Z" transform="translate(1833.351 -1051.669)" fill="#ee9759"/>
      <g id="Group_109085" data-name="Group 109085" transform="translate(127.332 140.247)">
        <path id="Path_166814" data-name="Path 166814" d="M-1700.184,1198.954a5.113,5.113,0,0,1-1.509-.235c-1.353-.422-3.717-1.783-4.342-6.161a.324.324,0,0,1,.275-.367.324.324,0,0,1,.367.275c.535,3.744,2.35,5.109,3.778,5.6a3.52,3.52,0,0,0,2.376.078.325.325,0,0,1,.2-.256.324.324,0,0,1,.421.18.457.457,0,0,1-.1.486A2.14,2.14,0,0,1-1700.184,1198.954Z" transform="translate(1706.039 -1192.189)" fill="#002e59"/>
      </g>
      <g id="Group_109086" data-name="Group 109086" transform="translate(126.696 141.763)">
        <path id="Path_166815" data-name="Path 166815" d="M-1700.735,1197.709a9.274,9.274,0,0,1-1.312-.094c-2.515-.366-4.2-1.642-4.624-3.5a.324.324,0,0,1,.244-.387.323.323,0,0,1,.388.244,4.09,4.09,0,0,0,3.3,2.849,5.9,5.9,0,0,0,3.687-.06.32.32,0,0,1,.439-.119.33.33,0,0,1,.121.446C-1698.735,1197.515-1699.679,1197.709-1700.735,1197.709Z" transform="translate(1706.679 -1193.718)" fill="#002e59"/>
      </g>
      <g id="Group_109087" data-name="Group 109087" transform="translate(86.662 82.581)">
        <path id="Path_166816" data-name="Path 166816" d="M-1743.069,1147.247a3.247,3.247,0,0,1-.479-.037c-2.468-.378-3.959-3.562-3.394-7.25a8.649,8.649,0,0,1,1.909-4.368,3.9,3.9,0,0,1,3.5-1.533c2.468.378,3.959,3.562,3.393,7.249C-1738.668,1144.756-1740.779,1147.247-1743.069,1147.247Zm1.067-12.08a2.992,2.992,0,0,0-2.17,1.18,7.5,7.5,0,0,0-1.639,3.787c-.452,2.95.664,5.674,2.437,5.946s3.652-1.993,4.1-4.944-.664-5.674-2.437-5.946A1.963,1.963,0,0,0-1742,1135.167Z" transform="translate(1747.061 -1134.024)" fill="#fff"/>
      </g>
      <g id="Group_109088" data-name="Group 109088" transform="translate(96.421 84.201)">
        <path id="Path_166817" data-name="Path 166817" d="M-1734.848,1147.276a1.57,1.57,0,0,1-.235-.018c-1.616-.247-2.492-2.984-2-6.231s2.157-5.6,3.769-5.351c.833.128,1.488.89,1.845,2.146a9.908,9.908,0,0,1,.15,4.087C-1731.787,1145-1733.309,1147.276-1734.848,1147.276Zm1.3-10.753c-.952,0-2.247,1.832-2.676,4.634-.445,2.91.312,5.1,1.272,5.247s2.338-1.716,2.783-4.625a9.056,9.056,0,0,0-.126-3.72c-.256-.9-.673-1.456-1.145-1.528A.754.754,0,0,0-1733.548,1136.523Z" transform="translate(1737.217 -1135.658)" fill="#fff"/>
      </g>
      <g id="Group_109089" data-name="Group 109089" transform="translate(68.211 79.463)">
        <path id="Path_166818" data-name="Path 166818" d="M-1745.931,1137.5a.589.589,0,0,1-.158-.023l-19.168-5.476a.572.572,0,0,1-.392-.707.573.573,0,0,1,.707-.393l19.168,5.477a.573.573,0,0,1,.394.707A.573.573,0,0,1-1745.931,1137.5Z" transform="translate(1765.671 -1130.879)" fill="#fff"/>
      </g>
      <path id="Path_166819" data-name="Path 166819" d="M-1732.221,1125.442c-29.665,17.474-31.3,5.737-31.3,5.737l1.761-16.69,17.6.978Z" transform="translate(1833.864 -1051.275)" fill="#002e59"/>
      <path id="Path_166820" data-name="Path 166820" d="M-1761.261,1135.2c.69,2.953-.252,5.7-2.1,6.132s-3.914-1.611-4.6-4.564.252-5.7,2.1-6.132S-1761.951,1132.243-1761.261,1135.2Z" transform="translate(1833.904 -1051.413)" fill="#ee9759"/>
      <path id="Path_166821" data-name="Path 166821" d="M-1763.271,1139.139a1.167,1.167,0,0,1-1.168,1.168,1.167,1.167,0,0,1-1.168-1.168,1.167,1.167,0,0,1,1.168-1.168A1.167,1.167,0,0,1-1763.271,1139.139Z" transform="translate(1833.882 -1051.476)" fill="#002e59"/>
      <path id="Path_166822" data-name="Path 166822" d="M-1546.917,1265.014h-284.836a2.719,2.719,0,0,1-2.719-2.72,2.719,2.719,0,0,1,2.719-2.719h284.836a2.719,2.719,0,0,1,2.719,2.719A2.719,2.719,0,0,1-1546.917,1265.014Z" transform="translate(1834.473 -1052.52)" fill="#004080"/>
      <path id="Path_166823" data-name="Path 166823" d="M-1760.88,1259.048s-11.186.141-11.328,1.132.424,1.416,4.39,2.124,48.568.992,48.993.709,13.452-3.4,13.452-3.4l-31.293-.566Z" transform="translate(1833.938 -1052.516)" fill="#d9e3e9"/>
      <path id="Path_166824" data-name="Path 166824" d="M-1754.638,1251.517s8.02-3.521,10.366-1.956,9.128,8.736,9.128,8.736Z" transform="translate(1833.787 -1052.431)" fill="#ee9759"/>
      <path id="Path_166825" data-name="Path 166825" d="M-1735.578,1258.894c-.153.191-.38.271-.508.176l-16.5-12.286c-.889-.661-1.312-1.674-.884-2.208s1.508-.343,2.349.379l15.6,13.405C-1735.4,1258.464-1735.425,1258.7-1735.578,1258.894Z" transform="translate(1833.779 -1052.389)" fill="#002e59"/>
      <path id="Path_166826" data-name="Path 166826" d="M-1779.133,1250.025s13.3,5.28,14.866,5.28,10.3-5.867,13.234-5.085,17.277,8.019,16.886,8.605-4.5,1.956-16.625,1.565-31.881-2.152-31.881-2.152Z" transform="translate(1834.028 -1052.438)" fill="#ee9759"/>
      <path id="Rectangle_36260" data-name="Rectangle 36260" d="M.137,0h58.85a.342.342,0,0,1,.342.342V11.127a.342.342,0,0,1-.342.342H.136A.136.136,0,0,1,0,11.333V.137A.137.137,0,0,1,.137,0Z" transform="translate(165.664 195.812)" fill="#002e59"/>
      <path id="Path_166827" data-name="Path 166827" d="M-1615.9,1250.192h-51.469a3.944,3.944,0,0,0-.573,2.042v3.5a3.937,3.937,0,0,0,.573,2.041h51.469a3.331,3.331,0,0,0,3.322-3.322v-.943A3.332,3.332,0,0,0-1615.9,1250.192Z" transform="translate(1833.043 -1052.44)" fill="#f0e3dc"/>
      <path id="Rectangle_36261" data-name="Rectangle 36261" d="M.083,0H44.472a.207.207,0,0,1,.207.207V6.731a.207.207,0,0,1-.207.207H.083A.083.083,0,0,1,0,6.855V.083A.083.083,0,0,1,.083,0Z" transform="translate(177.309 188.874)" fill="#0077ec"/>
      <path id="Path_166828" data-name="Path 166828" d="M-1616.867,1242.42h-38.76a2.053,2.053,0,0,0-.431,1.235v2.12a2.047,2.047,0,0,0,.431,1.235h38.76a2.3,2.3,0,0,0,2.5-2.01v-.57A2.3,2.3,0,0,0-1616.867,1242.42Z" transform="translate(1832.941 -1052.373)" fill="#f0e3dc"/>
      <g id="Group_109090" data-name="Group 109090" transform="translate(180.818 25.214)">
        <path id="Path_166829" data-name="Path 166829" d="M-1606.339,1099.524h-43.967a1.728,1.728,0,0,1-1.621-2.549l6.649-18.266a4.043,4.043,0,0,1,3.476-2.549h43.967a1.728,1.728,0,0,1,1.621,2.549l-6.648,18.266A4.048,4.048,0,0,1-1606.339,1099.524Z" transform="translate(1652.09 -1076.16)" fill="#73e6cb"/>
        <path id="Path_166830" data-name="Path 166830" d="M-1607.8,1097.629H-1647.4a1.5,1.5,0,0,1-1.4-2.208l5.505-15.126a3.5,3.5,0,0,1,3.011-2.207h39.594a1.5,1.5,0,0,1,1.4,2.207l-5.505,15.126A3.5,3.5,0,0,1-1607.8,1097.629Z" transform="translate(1652.062 -1076.177)" fill="#fff"/>
        <path id="Path_166831" data-name="Path 166831" d="M-1632.77,1098.655c-3.646,9.628-9.259,12.6-9.259,12.6s3.992-5.522,3.414-8.213a5.925,5.925,0,0,0-2.715-3.823Z" transform="translate(1652.003 -1076.353)" fill="#73e6cb"/>
        <path id="Path_166832" data-name="Path 166832" d="M-1604.464,1083.5h-25.523a.516.516,0,0,1-.485-.76l.013-.036a1.21,1.21,0,0,1,1.038-.762h25.524a.516.516,0,0,1,.484.762l-.013.036A1.208,1.208,0,0,1-1604.464,1083.5Z" transform="translate(1651.904 -1076.21)" fill="#73e6cb"/>
        <path id="Path_166833" data-name="Path 166833" d="M-1605.66,1086.787h-25.523a.516.516,0,0,1-.484-.762l.013-.035a1.206,1.206,0,0,1,1.038-.761h25.523a.516.516,0,0,1,.484.761l-.013.035A1.206,1.206,0,0,1-1605.66,1086.787Z" transform="translate(1651.915 -1076.238)" fill="#73e6cb"/>
        <path id="Path_166834" data-name="Path 166834" d="M-1607.01,1090.5h-25.523a.516.516,0,0,1-.485-.761l.013-.036a1.208,1.208,0,0,1,1.038-.76h25.524a.516.516,0,0,1,.484.76l-.013.036A1.209,1.209,0,0,1-1607.01,1090.5Z" transform="translate(1651.926 -1076.27)" fill="#73e6cb"/>
        <path id="Path_166835" data-name="Path 166835" d="M-1634.072,1086.114c-1.01,2.776-3.668,5.028-5.936,5.028s-3.287-2.252-2.277-5.028,3.668-5.026,5.936-5.026S-1633.061,1083.338-1634.072,1086.114Z" transform="translate(1652.009 -1076.202)" fill="#73e6cb"/>
      </g>
      <g id="Group_109091" data-name="Group 109091" transform="translate(198.815 92.623)">
        <path id="Path_166836" data-name="Path 166836" d="M-1631.173,1147.613h-2.179a.564.564,0,0,1-.53-.833l.653-1.795a1.319,1.319,0,0,1,1.136-.834h2.179a.564.564,0,0,1,.531.834l-.653,1.795A1.318,1.318,0,0,1-1631.173,1147.613Z" transform="translate(1633.936 -1144.152)" fill="#002e59"/>
        <path id="Path_166837" data-name="Path 166837" d="M-1624.121,1147.613h-2.179a.564.564,0,0,1-.53-.833l.653-1.795a1.319,1.319,0,0,1,1.136-.834h2.179a.564.564,0,0,1,.531.834l-.653,1.795A1.318,1.318,0,0,1-1624.121,1147.613Z" transform="translate(1633.876 -1144.152)" fill="#002e59"/>
        <path id="Path_166838" data-name="Path 166838" d="M-1617.07,1147.613h-2.178a.563.563,0,0,1-.531-.833l.653-1.795a1.319,1.319,0,0,1,1.136-.834h2.179a.564.564,0,0,1,.529.834l-.653,1.795A1.317,1.317,0,0,1-1617.07,1147.613Z" transform="translate(1633.815 -1144.152)" fill="#002e59"/>
      </g>
      <g id="Group_109092" data-name="Group 109092" transform="translate(128.125 58.914)">
        <path id="Path_166839" data-name="Path 166839" d="M-1659.488,1133.516h-43.966a1.728,1.728,0,0,1-1.621-2.548l6.648-18.267a4.046,4.046,0,0,1,3.476-2.549h43.967a1.728,1.728,0,0,1,1.621,2.549l-6.648,18.267A4.048,4.048,0,0,1-1659.488,1133.516Z" transform="translate(1705.239 -1110.152)" fill="#80c0ff"/>
        <path id="Path_166840" data-name="Path 166840" d="M-1660.951,1131.621h-39.594a1.5,1.5,0,0,1-1.4-2.208l5.505-15.125a3.5,3.5,0,0,1,3.011-2.208h39.594a1.5,1.5,0,0,1,1.4,2.208l-5.505,15.125A3.5,3.5,0,0,1-1660.951,1131.621Z" transform="translate(1705.211 -1110.169)" fill="#fff"/>
        <path id="Path_166841" data-name="Path 166841" d="M-1701.2,1132.647c-3.363,9.629.085,12.6.085,12.6s.028-5.523,2.565-8.213a16.627,16.627,0,0,1,5.5-3.824Z" transform="translate(1705.216 -1110.345)" fill="#80c0ff"/>
        <path id="Path_166842" data-name="Path 166842" d="M-1671.625,1118.78h-21.537a.475.475,0,0,1-.445-.7l.056-.156a1.112,1.112,0,0,1,.956-.7h21.538a.475.475,0,0,1,.446.7l-.057.156A1.112,1.112,0,0,1-1671.625,1118.78Z" transform="translate(1705.139 -1110.213)" fill="#80c0ff"/>
        <path id="Path_166843" data-name="Path 166843" d="M-1672.821,1122.065h-21.536a.475.475,0,0,1-.446-.7l.056-.156a1.114,1.114,0,0,1,.957-.7h21.536a.475.475,0,0,1,.446.7l-.057.156A1.114,1.114,0,0,1-1672.821,1122.065Z" transform="translate(1705.149 -1110.241)" fill="#80c0ff"/>
        <path id="Path_166844" data-name="Path 166844" d="M-1674.172,1125.778h-21.538a.476.476,0,0,1-.446-.7l.057-.156a1.113,1.113,0,0,1,.956-.7h21.537a.475.475,0,0,1,.445.7l-.056.156A1.112,1.112,0,0,1-1674.172,1125.778Z" transform="translate(1705.161 -1110.273)" fill="#80c0ff"/>
        <path id="Path_166845" data-name="Path 166845" d="M-1619.071,1154.558h-42.436c-.76,0-1.155-.315-.879-.7l.112-.156a2.607,2.607,0,0,1,1.884-.7h42.436c.759,0,1.154.315.877.7l-.111.156A2.607,2.607,0,0,1-1619.071,1154.558Z" transform="translate(1704.872 -1110.52)" fill="#002e59"/>
        <path id="Path_166846" data-name="Path 166846" d="M-1621.427,1159.985h-42.436c-.76,0-1.155-.315-.878-.7l.112-.156a2.607,2.607,0,0,1,1.884-.7h42.436c.76,0,1.155.315.877.7l-.111.156A2.608,2.608,0,0,1-1621.427,1159.985Z" transform="translate(1704.892 -1110.567)" fill="#002e59"/>
        <path id="Path_166847" data-name="Path 166847" d="M-1663.929,1126.978h-3.115a1.729,1.729,0,0,1-1.622-2.549l2.32-6.372a4.047,4.047,0,0,1,3.476-2.549h3.115a1.728,1.728,0,0,1,1.622,2.549l-2.319,6.372A4.047,4.047,0,0,1-1663.929,1126.978Z" transform="translate(1704.926 -1110.198)" fill="#80c0ff"/>
      </g>
      <g id="Group_109102" data-name="Group 109102" transform="translate(221.765 29.626)">
        <path id="Path_166848" data-name="Path 166848" d="M-1574.595,1250.174c5.655-31.031,4.417-42.13-10.731-67.458s-16.593-72.464-22.3-58.639-4.941,48.542,12.954,65.39,20.3,24.391,21.366,31.249-2.556,27.934-2.556,27.934Z" transform="translate(1610.788 -1080.962)" fill="#03e6b0"/>
        <path id="Path_166849" data-name="Path 166849" d="M-1571.761,1230.177c.009-.12.017-.238.026-.356-.332-2.546-2.13-15.639-4.617-20.805-2.762-5.735-14.868-15.718-18.267-28.249s-8.785-22.244-12.319-30.161c-4.666-10.452-2.116-24.346,1.743-28.86a.938.938,0,0,0-.283-.129l-1.282.774a9.046,9.046,0,0,0-.869,1.686c-5.71,13.825-4.941,48.542,12.953,65.39s20.3,24.391,21.367,31.248a40.217,40.217,0,0,1,0,7.961Z" transform="translate(1610.788 -1080.962)" fill="#029c77"/>
        <path id="Path_166850" data-name="Path 166850" d="M-1582.131,1244.348c4.208-36.466,2.8-49.089-5.33-78.263s44.882-95.653,43.2-84.153-7.293,40.113-21.88,58.065-15.708,32.539-12.9,47.968-.561,51.333-.561,51.333l-1.682,6.451Z" transform="translate(1610.595 -1080.61)" fill="#03e6b0"/>
        <g id="Group_109093" data-name="Group 109093" transform="translate(24.866 4.085)">
          <path id="Path_166851" data-name="Path 166851" d="M-1580.173,1229.229h-.014a.352.352,0,0,1-.338-.365c0-.113.422-11.354.212-20.582s-2.712-25.062-4.234-30.5c-1.387-4.95-3.13-21.551,5.333-38.695a222.263,222.263,0,0,1,12.237-21.411c4.6-7.385,10.331-16.576,19.419-32.768a.351.351,0,0,1,.48-.134.35.35,0,0,1,.134.479c-9.095,16.2-14.829,25.4-19.435,32.8a221.338,221.338,0,0,0-12.2,21.349c-8.365,16.945-6.652,33.316-5.287,38.193,1.532,5.47,4.05,21.388,4.261,30.672.21,9.249-.208,20.511-.212,20.624A.352.352,0,0,1-1580.173,1229.229Z" transform="translate(1585.707 -1084.731)" fill="#029c77"/>
        </g>
        <path id="Path_166852" data-name="Path 166852" d="M-1580.747,1258.056c2.524-24.4,2.946-12.369-7.538-45.527-12-37.95,30.819-71.643,37.833-57.9s15.147,56.943,12.062,55.541-23.563-41.516-24.124-39.833-27.77,15.709-26.648,30.015,11.5,37.027,11.5,37.027l-.281,20.955Z" transform="translate(1610.613 -1081.219)" fill="#03e6b0"/>
        <g id="Group_109094" data-name="Group 109094" transform="translate(19.867 69.93)">
          <path id="Path_166853" data-name="Path 166853" d="M-1577.945,1258.049a.231.231,0,0,1-.036,0l-2.8-.281a.351.351,0,0,1-.238-.128.357.357,0,0,1-.077-.258c.292-2.821.561-5.194.777-7.1,1.176-10.361,1.176-10.361-2.04-19.237-1.453-4.011-3.444-9.5-6.26-18.409a45.379,45.379,0,0,1-1.617-20.513,52.609,52.609,0,0,1,6.253-17.959c5.554-9.926,14.294-18.451,22.267-21.719,5.541-2.271,9.762-1.533,11.579,2.029,2.977,5.834,6.536,17.78,9.52,31.955,1.723,8.18,4.254,22.427,2.817,23.931a.622.622,0,0,1-.734.135c-1.683-.765-7.257-10.6-14.948-24.412-3.856-6.925-7.834-14.07-8.909-15.3a28.462,28.462,0,0,1-3.789,2.769c-7.622,5.169-23.481,15.927-22.63,26.778,1.1,14.079,11.366,36.682,11.471,36.909a.362.362,0,0,1,.032.151l-.281,20.318a.347.347,0,0,1-.118.258A.35.35,0,0,1-1577.945,1258.049Zm-2.419-.948,2.072.207.275-19.855c-.648-1.432-10.417-23.271-11.5-37.073-.883-11.26,15.205-22.172,22.937-27.416a25.89,25.89,0,0,0,3.732-2.747.412.412,0,0,1,.351-.281c.681-.063,2.025,2.152,9.624,15.8,5.455,9.8,12.908,23.182,14.587,24.1.13-.21.511-1.361-.231-7.284-.536-4.283-1.521-9.917-2.77-15.866-2.977-14.168-6.522-26.09-9.483-31.893-1.629-3.193-5.524-3.812-10.684-1.7-13.983,5.73-35.406,31.158-26.5,59.328,2.811,8.891,4.8,14.376,6.249,18.381,3.273,9.032,3.273,9.032,2.079,19.556C-1579.842,1252.28-1580.087,1254.446-1580.364,1257.1Z" transform="translate(1590.748 -1151.145)" fill="#029c77"/>
        </g>
        <path id="Path_166854" data-name="Path 166854" d="M-1571.934,1259.688h-12.73c-.875,0-1.657-.5-1.739-1.116l-4.278-32.157a2.283,2.283,0,0,1,2.185-2.733h20.393a2.283,2.283,0,0,1,2.185,2.733l-4.278,32.157C-1570.277,1259.19-1571.059,1259.688-1571.934,1259.688Z" transform="translate(1610.615 -1081.838)" fill="#0077ec"/>
        <path id="Path_166855" data-name="Path 166855" d="M-1573.323,1258.609h-1.823c-.891,0-1.609-.516-1.593-1.159l.643-27.777a2.592,2.592,0,0,1,2.516-2.544h2.765a2.224,2.224,0,0,1,2.188,2.544l-2.953,27.777A1.644,1.644,0,0,1-1573.323,1258.609Z" transform="translate(1610.495 -1081.867)" fill="#5cafff"/>
        <g id="Group_109095" data-name="Group 109095" transform="translate(21.874 88.479)">
          <path id="Path_166856" data-name="Path 166856" d="M-1587,1213.407l.225-.392a80.435,80.435,0,0,1-1.953-8.713A44.371,44.371,0,0,0-1587,1213.407Z" transform="translate(1588.724 -1170.151)" fill="#029c77"/>
          <path id="Path_166857" data-name="Path 166857" d="M-1587,1189.606a26.261,26.261,0,0,0-1.608,6.352c3.757-12.335,24.681-23.471,26.04-25.349l.242-.472C-1570.179,1167.942-1582.747,1178.986-1587,1189.606Z" transform="translate(1588.723 -1169.855)" fill="#029c77"/>
        </g>
        <g id="Group_109096" data-name="Group 109096" transform="translate(22.401 75.489)">
          <path id="Path_166858" data-name="Path 166858" d="M-1538.352,1209.458a.353.353,0,0,1-.342-.267l-3.8-15.469c-2.968-12.12-6.664-27.205-10.811-33.919-.683-1.107-3.67-2.6-7.9-2.306-5.718.4-16.739,4.355-26.31,26.263a.353.353,0,0,1-.464.182.354.354,0,0,1-.181-.464c9.72-22.248,21.029-26.268,26.906-26.684,4.57-.321,7.753,1.348,8.55,2.638,4.206,6.81,7.76,21.32,10.9,34.124l3.8,15.467a.354.354,0,0,1-.258.426A.355.355,0,0,1-1538.352,1209.458Z" transform="translate(1588.193 -1156.752)" fill="#029c77"/>
        </g>
        <g id="Group_109097" data-name="Group 109097" transform="translate(58.827 80.975)">
          <path id="Path_166859" data-name="Path 166859" d="M-1549.187,1189.327l-.042,0a.353.353,0,0,1-.309-.391,82.749,82.749,0,0,0-1.9-26.212.351.351,0,0,1,.256-.426.352.352,0,0,1,.427.256,83.521,83.521,0,0,1,1.92,26.464A.352.352,0,0,1-1549.187,1189.327Z" transform="translate(1551.451 -1162.286)" fill="#029c77"/>
        </g>
        <g id="Group_109098" data-name="Group 109098" transform="translate(56.809 78)">
          <path id="Path_166860" data-name="Path 166860" d="M-1553.133,1181.442a.291.291,0,0,1-.043,0,.353.353,0,0,1-.308-.391c.014-.117,1.365-11.758.424-21.377a.353.353,0,0,1,.316-.386.352.352,0,0,1,.385.316c.949,9.7-.411,21.412-.426,21.529A.351.351,0,0,1-1553.133,1181.442Z" transform="translate(1553.486 -1159.285)" fill="#029c77"/>
        </g>
        <g id="Group_109099" data-name="Group 109099" transform="translate(43.428 21.078)">
          <path id="Path_166861" data-name="Path 166861" d="M-1566.631,1118.5a.352.352,0,0,1-.317-.2.352.352,0,0,1,.165-.47,40.156,40.156,0,0,0,15.986-15.78.35.35,0,0,1,.476-.143.351.351,0,0,1,.143.477,40.9,40.9,0,0,1-16.3,16.08A.345.345,0,0,1-1566.631,1118.5Z" transform="translate(1566.983 -1101.87)" fill="#029c77"/>
        </g>
        <g id="Group_109100" data-name="Group 109100" transform="translate(35.994 39.981)">
          <path id="Path_166862" data-name="Path 166862" d="M-1574.13,1131.411a.351.351,0,0,1-.344-.281.351.351,0,0,1,.274-.415c.082-.017,8.326-1.784,18.116-9.7a.352.352,0,0,1,.495.052.352.352,0,0,1-.052.495c-9.935,8.032-18.333,9.825-18.417,9.842A.345.345,0,0,1-1574.13,1131.411Z" transform="translate(1574.482 -1120.937)" fill="#029c77"/>
        </g>
        <g id="Group_109101" data-name="Group 109101" transform="translate(29.622 55.486)">
          <path id="Path_166863" data-name="Path 166863" d="M-1580.327,1143.871c-.145,0-.231,0-.256-.007a.352.352,0,0,1-.325-.377.354.354,0,0,1,.378-.325c.056,0,5.737.313,14.842-6.515a.352.352,0,0,1,.493.071.352.352,0,0,1-.07.493C-1573.626,1143.481-1579.1,1143.871-1580.327,1143.871Z" transform="translate(1580.909 -1136.577)" fill="#029c77"/>
        </g>
      </g>
    </g>
  </g>
</svg>
