<svg xmlns="http://www.w3.org/2000/svg" width="190" height="100" viewBox="0 0 190 100">
  <g id="t1-ic3" transform="translate(-180 -4388)">
    <path id="Rectangle_36071" data-name="Rectangle 36071" d="M27.9,0H105a0,0,0,0,1,0,0V0A93,93,0,0,1,12,93H0a0,0,0,0,1,0,0V27.9A27.9,27.9,0,0,1,27.9,0Z" transform="translate(370 4481) rotate(180)" fill="#03e6b0" opacity="0.15"/>
    <path id="Rectangle_36070" data-name="Rectangle 36070" d="M0,0H12a93,93,0,0,1,93,93v0a0,0,0,0,1,0,0H27.9A27.9,27.9,0,0,1,0,65.1V0A0,0,0,0,1,0,0Z" transform="translate(180 4388)" fill="#ffd947" opacity="0.15"/>
    <g id="dirigido" transform="translate(225.054 4388)">
      <path id="Path_165228" data-name="Path 165228" d="M136.208,248.15a5.061,5.061,0,1,0,5.061,5.061A5.061,5.061,0,0,0,136.208,248.15Z" transform="translate(-105.532 -199.683)" fill="#03e6b0"/>
      <path id="Path_165229" data-name="Path 165229" d="M144.99,248.15a5.035,5.035,0,0,0-2.93.936,5.059,5.059,0,0,1,0,8.251,5.061,5.061,0,1,0,2.93-9.187Z" transform="translate(-114.314 -199.683)" fill="#03e6b0" style="mix-blend-mode: multiply;isolation: isolate"/>
      <path id="Path_165230" data-name="Path 165230" d="M123.9,310.6H102.642a10.628,10.628,0,0,1,21.257,0Z" transform="translate(-82.595 -241.387)" fill="#03e6b0"/>
      <path id="Path_165231" data-name="Path 165231" d="M144.99,299.976a10.623,10.623,0,0,0-2.93.412,10.631,10.631,0,0,1,7.7,10.216h5.859A10.628,10.628,0,0,0,144.99,299.976Z" transform="translate(-114.314 -241.387)" fill="#03e6b0" style="mix-blend-mode: multiply;isolation: isolate"/>
      <circle id="Ellipse_5008" data-name="Ellipse 5008" cx="5.061" cy="5.061" r="5.061" transform="translate(64.263 48.467)" fill="#03e6b0"/>
      <path id="Path_165232" data-name="Path 165232" d="M342.87,248.15a5.037,5.037,0,0,0-2.93.935,5.059,5.059,0,0,1,0,8.252,5.061,5.061,0,1,0,2.93-9.187Z" transform="translate(-273.546 -199.683)" fill="#03e6b0" style="mix-blend-mode: multiply;isolation: isolate"/>
      <path id="Path_165233" data-name="Path 165233" d="M321.78,310.6H300.523a10.628,10.628,0,0,1,21.257,0Z" transform="translate(-241.827 -241.387)" fill="#03e6b0"/>
      <path id="Path_165234" data-name="Path 165234" d="M342.87,299.976a10.623,10.623,0,0,0-2.93.412,10.631,10.631,0,0,1,7.7,10.216H353.5A10.628,10.628,0,0,0,342.87,299.976Z" transform="translate(-273.546 -241.387)" fill="#03e6b0" style="mix-blend-mode: multiply;isolation: isolate"/>
      <path id="Path_165235" data-name="Path 165235" d="M56.035,7.5A48.535,48.535,0,1,0,104.57,56.035,48.536,48.536,0,0,0,56.035,7.5ZM86.211,86.211a42.359,42.359,0,0,1-27.246,12.4V94.8a2.93,2.93,0,0,0-5.859,0V98.61A42.678,42.678,0,0,1,13.46,58.965h3.805a2.93,2.93,0,1,0,0-5.859H13.46A42.678,42.678,0,0,1,53.105,13.46v3.805a2.93,2.93,0,1,0,5.859,0V13.46A42.678,42.678,0,0,1,98.61,53.105H94.8a2.93,2.93,0,0,0,0,5.859H98.61A42.359,42.359,0,0,1,86.211,86.211Z" transform="translate(-6.035 -6.035)" fill="#ffd947"/>
      <circle id="Ellipse_5009" data-name="Ellipse 5009" cx="6.902" cy="6.902" r="6.902" transform="translate(42.546 40.921)" fill="#29cef6"/>
      <path id="Path_165236" data-name="Path 165236" d="M241.1,209.516a6.875,6.875,0,0,0-2.93.652,6.9,6.9,0,0,1,0,12.5,6.9,6.9,0,1,0,2.93-13.151Z" transform="translate(-191.655 -168.595)" fill="#0077ec"/>
      <path id="Path_165237" data-name="Path 165237" d="M207.954,294.681H178.968a14.493,14.493,0,1,1,28.986,0Z" transform="translate(-144.013 -225.464)" fill="#80c0ff"/>
      <path id="Path_165238" data-name="Path 165238" d="M241.1,280.188a14.551,14.551,0,0,0-2.93.3,14.5,14.5,0,0,1,11.563,14.2H255.6A14.493,14.493,0,0,0,241.1,280.188Z" transform="translate(-191.655 -225.464)" fill="#0077ec"/>
      <g id="Group_108286" data-name="Group 108286" transform="translate(0 0)">
        <path id="Path_165239" data-name="Path 165239" d="M86.026,230.313h-.861a1.465,1.465,0,0,0,0,2.93H149.54a1.465,1.465,0,0,0,0-2.93h-.861a12.122,12.122,0,0,0-7.321-9.684,6.526,6.526,0,1,0-9.366,0,11.984,11.984,0,0,0-2.534,1.451,16.026,16.026,0,0,0-7.254-5.313,8.366,8.366,0,1,0-10.808,0c-.32.115-.638.237-.951.374a1.465,1.465,0,1,0,1.168,2.687,13.037,13.037,0,0,1,18.134,10.489H103.854a13,13,0,0,1,3.228-7.212,1.465,1.465,0,0,0-2.185-1.952c-.127.142-.249.288-.37.434a12.09,12.09,0,0,0-1.82-.952,6.526,6.526,0,1,0-9.36,0,12.123,12.123,0,0,0-7.321,9.684Zm25.337-19.93a5.437,5.437,0,1,1,5.437,5.437A5.443,5.443,0,0,1,111.363,210.383Zm25.313,2.109a3.6,3.6,0,1,1-3.6,3.6A3.6,3.6,0,0,1,136.677,212.492Zm-5.648,12.073a9.162,9.162,0,0,1,14.7,5.747H132.688a15.829,15.829,0,0,0-1.66-5.747Zm-33-12.073a3.6,3.6,0,1,1-3.6,3.6A3.6,3.6,0,0,1,98.028,212.492Zm0,10.123A9.173,9.173,0,0,1,102.867,224a15.926,15.926,0,0,0-1.958,6.313H88.981A9.178,9.178,0,0,1,98.028,222.615Z" transform="translate(-67.352 -162.561)"/>
        <path id="Path_165240" data-name="Path 165240" d="M210.442,118.98a1.465,1.465,0,0,0,2.071.02l13.369-13.108a1.465,1.465,0,0,0-2.051-2.092l-12.324,12.084-7.628-7.767a1.465,1.465,0,1,0-2.09,2.053Z" transform="translate(-162.039 -83.189)"/>
        <path id="Path_165241" data-name="Path 165241" d="M86.2,15.513a1.465,1.465,0,1,0-2.121,2.021A47.07,47.07,0,0,1,16.716,83.284,47.071,47.071,0,0,1,79.634,13.427a1.465,1.465,0,0,0,1.846-2.275A50.032,50.032,0,1,0,86.2,15.513Z" transform="translate(0 0)"/>
        <path id="Path_165242" data-name="Path 165242" d="M113.325,73.091h3.805a1.465,1.465,0,0,0,1.462-1.563A44.143,44.143,0,0,0,77.584,30.519a1.465,1.465,0,0,0-1.563,1.462v3.805a1.465,1.465,0,1,1-2.93,0V31.98a1.465,1.465,0,0,0-1.563-1.462A44.143,44.143,0,0,0,30.519,71.527a1.465,1.465,0,0,0,1.462,1.563h3.805a1.465,1.465,0,1,1,0,2.93H31.981a1.465,1.465,0,0,0-1.462,1.563,44.05,44.05,0,0,0,12.825,28.184,44.554,44.554,0,0,0,7.882,6.277,1.465,1.465,0,0,0,1.552-2.485,41.619,41.619,0,0,1-7.363-5.864A41.134,41.134,0,0,1,33.578,78.95h2.209a4.395,4.395,0,1,0,0-8.789H33.578A41.223,41.223,0,0,1,70.161,33.578v2.208a4.395,4.395,0,1,0,8.789,0V33.577a41.223,41.223,0,0,1,36.583,36.583h-2.208a4.395,4.395,0,1,0,0,8.789h2.209a41.223,41.223,0,0,1-36.583,36.583v-2.208a4.395,4.395,0,1,0-8.789,0v2.209a40.838,40.838,0,0,1-12.044-3.165,1.465,1.465,0,0,0-1.168,2.687,43.84,43.84,0,0,0,14.578,3.536c.033,0,.066,0,.1,0a1.465,1.465,0,0,0,1.465-1.465v-3.806a1.465,1.465,0,0,1,2.93,0v3.805a1.465,1.465,0,0,0,1.563,1.462,44.143,44.143,0,0,0,41.009-41.009,1.465,1.465,0,0,0-1.462-1.563h-3.806a1.465,1.465,0,0,1,0-2.93Z" transform="translate(-24.556 -24.555)"/>
      </g>
    </g>
  </g>
</svg>
