<svg xmlns="http://www.w3.org/2000/svg" width="190" height="100" viewBox="0 0 190 100">
  <g id="t1-ic2" transform="translate(-180 -946)">
    <path id="Rectangle_36063" data-name="Rectangle 36063" d="M27.9,0H105a0,0,0,0,1,0,0V0A93,93,0,0,1,12,93H0a0,0,0,0,1,0,0V27.9A27.9,27.9,0,0,1,27.9,0Z" transform="translate(370 1039) rotate(180)" fill="#03e6b0" opacity="0.15"/>
    <path id="Rectangle_36062" data-name="Rectangle 36062" d="M0,0H12a93,93,0,0,1,93,93v0a0,0,0,0,1,0,0H27.9A27.9,27.9,0,0,1,0,65.1V0A0,0,0,0,1,0,0Z" transform="translate(180 946)" fill="#ffd947" opacity="0.15"/>
    <g id="games_1_" data-name="games (1)" transform="translate(223.555 938.55)">
      <g id="Group_108289" data-name="Group 108289" transform="translate(25.43 8.989)">
        <path id="Path_165272" data-name="Path 165272" d="M177.529,91.157l1.026-3.313v-70.9a1.842,1.842,0,0,0-1.841-1.841H128.257a1.842,1.842,0,0,0-1.841,1.841v70.9l1.026,3.313Z" transform="translate(-126.415 -15.1)" fill="#f3f3f3"/>
      </g>
      <g id="Group_108290" data-name="Group 108290" transform="translate(25.43 81.733)">
        <path id="Path_165273" data-name="Path 165273" d="M126.415,376.71v12.762a1.842,1.842,0,0,0,1.841,1.841h48.457a1.842,1.842,0,0,0,1.841-1.841V376.71Z" transform="translate(-126.415 -376.71)" fill="#d2e1f1"/>
      </g>
      <g id="Group_108291" data-name="Group 108291" transform="translate(70.779 8.989)">
        <path id="Path_165274" data-name="Path 165274" d="M356.794,15.1h-4.95V91.157h5.765l1.026-3.313v-70.9a1.841,1.841,0,0,0-1.841-1.841Z" transform="translate(-351.844 -15.1)" fill="#e4e4e4"/>
      </g>
      <g id="Group_108292" data-name="Group 108292" transform="translate(25.43 81.733)">
        <path id="Path_165275" data-name="Path 165275" d="M171.764,376.71v5.971a1.842,1.842,0,0,1-1.841,1.841H126.415v4.95a1.842,1.842,0,0,0,1.841,1.841h48.457a1.842,1.842,0,0,0,1.841-1.841V376.71Z" transform="translate(-126.415 -376.71)" fill="#b0c0d2"/>
      </g>
      <g id="Group_108293" data-name="Group 108293" transform="translate(57.45 30.586)">
        <path id="Path_165276" data-name="Path 165276" d="M329.055,177.665a12.449,12.449,0,0,0-.262-1.22l-6.079-23.021a11.869,11.869,0,0,0-2.462-4.692,11.869,11.869,0,0,1-1.821-2.876l-9.71-21.711a3.805,3.805,0,0,0-1.476-1.685v21.1l1.092,3.488a6.152,6.152,0,0,1,.281,1.848L308.6,159.12a4.514,4.514,0,0,1-4.514,4.507h-.023a4.708,4.708,0,0,1-3.663-1.8c-1.572-2.006-3.9-4.987-3.9-4.987a7.177,7.177,0,0,0-10.071-1.232,2.192,2.192,0,0,0-.376,3.076l9.751,12.468a3.994,3.994,0,0,1,.825,2.461,8.122,8.122,0,0,0,6.365,7.908l4.237.939a.921.921,0,0,1,.722.9v12.6a1.824,1.824,0,0,0,1.824,1.824l17.994-.036a1.824,1.824,0,0,0,1.824-1.824V184.47A43.3,43.3,0,0,0,329.055,177.665Z" transform="translate(-285.585 -122.46)" fill="#eaac9d"/>
      </g>
      <g id="Group_108294" data-name="Group 108294" transform="translate(32.483 20.731)">
        <circle id="Ellipse_5010" data-name="Ellipse 5010" cx="4.026" cy="4.026" r="4.026" fill="#03e6b0"/>
      </g>
      <g id="Group_108295" data-name="Group 108295" transform="translate(62.307 20.731)">
        <circle id="Ellipse_5011" data-name="Ellipse 5011" cx="4.026" cy="4.026" r="4.026" fill="#03e6b0"/>
      </g>
      <g id="Group_108296" data-name="Group 108296" transform="translate(32.483 34.411)">
        <circle id="Ellipse_5012" data-name="Ellipse 5012" cx="4.026" cy="4.026" r="4.026" fill="#03e6b0"/>
      </g>
      <g id="Group_108297" data-name="Group 108297" transform="translate(47.27 47.885)">
        <circle id="Ellipse_5013" data-name="Ellipse 5013" cx="4.026" cy="4.026" r="4.026" transform="translate(0 0)" fill="#03e6b0"/>
      </g>
      <g id="Group_108298" data-name="Group 108298" transform="translate(47.091 20.878)">
        <path id="Path_165277" data-name="Path 165277" d="M236.85,75.035l-2.535,4.392a1.666,1.666,0,0,0,1.443,2.5h5.071a1.666,1.666,0,0,0,1.443-2.5l-2.536-4.392A1.666,1.666,0,0,0,236.85,75.035Z" transform="translate(-234.089 -74.202)" fill="#ffd947"/>
      </g>
      <g id="Group_108299" data-name="Group 108299" transform="translate(62.129 34.558)">
        <path id="Path_165278" data-name="Path 165278" d="M311.6,143.035l-2.535,4.392a1.666,1.666,0,0,0,1.443,2.5h5.071a1.666,1.666,0,0,0,1.443-2.5l-2.536-4.392A1.666,1.666,0,0,0,311.6,143.035Z" transform="translate(-308.842 -142.202)" fill="#ffd947"/>
      </g>
      <g id="Group_108300" data-name="Group 108300" transform="translate(32.304 48.237)">
        <path id="Path_165279" data-name="Path 165279" d="M163.345,211.036l-2.535,4.392a1.666,1.666,0,0,0,1.443,2.5h5.071a1.666,1.666,0,0,0,1.443-2.5l-2.536-4.392A1.667,1.667,0,0,0,163.345,211.036Z" transform="translate(-160.584 -210.202)" fill="#ffd947"/>
      </g>
      <g id="Group_108301" data-name="Group 108301" transform="translate(61.451 49.312)">
        <path id="Path_165280" data-name="Path 165280" d="M314.231,222.2h-7.752a1.006,1.006,0,0,1-1.006-1.006v-4.638a1.006,1.006,0,0,1,1.006-1.006h7.752a1.006,1.006,0,0,1,1.006,1.006v4.638A1.006,1.006,0,0,1,314.231,222.2Z" transform="translate(-305.473 -215.548)" fill="#004080"/>
      </g>
      <g id="Group_108302" data-name="Group 108302" transform="translate(46.415 35.112)">
        <path id="Path_165281" data-name="Path 165281" d="M239.489,151.607h-7.752a1.006,1.006,0,0,1-1.006-1.006v-4.638a1.006,1.006,0,0,1,1.006-1.006h7.752a1.006,1.006,0,0,1,1.006,1.006V150.6A1.006,1.006,0,0,1,239.489,151.607Z" transform="translate(-230.731 -144.958)" fill="#004080"/>
      </g>
      <g id="Group_108303" data-name="Group 108303" transform="translate(79.109 30.586)">
        <path id="Path_165282" data-name="Path 165282" d="M415.064,177.665a12.458,12.458,0,0,0-.262-1.22l-6.079-23.021a11.869,11.869,0,0,0-2.462-4.692,11.872,11.872,0,0,1-1.821-2.876l-9.71-21.711a3.805,3.805,0,0,0-1.476-1.685v8.228l6.784,15.169a11.869,11.869,0,0,0,1.821,2.876,11.871,11.871,0,0,1,2.462,4.692l6.078,23.021a12.453,12.453,0,0,1,.262,1.22,43.279,43.279,0,0,1,.538,6.805v11.454a1.824,1.824,0,0,1-1.824,1.824l-13.761.028c.056.005.112.008.169.008l17.994-.036a1.824,1.824,0,0,0,1.824-1.824V184.47A43.286,43.286,0,0,0,415.064,177.665Z" transform="translate(-393.253 -122.46)" fill="#df9380"/>
      </g>
      <g id="Group_108304" data-name="Group 108304" transform="translate(1.539 30.584)">
        <path id="Path_165283" data-name="Path 165283" d="M50.816,155.594a7.177,7.177,0,0,0-10.071,1.232s-2.331,2.981-3.9,4.987a4.71,4.71,0,0,1-3.663,1.8h-.023a4.514,4.514,0,0,1-4.514-4.507l-.016-10.225a6.153,6.153,0,0,1,.281-1.848l1.1-3.5V122.447a3.806,3.806,0,0,0-1.48,1.687l-9.71,21.711a11.868,11.868,0,0,1-1.821,2.876,11.868,11.868,0,0,0-2.462,4.692L8.449,176.435a12.452,12.452,0,0,0-.262,1.22,43.279,43.279,0,0,0-.538,6.805v11.454a1.824,1.824,0,0,0,1.824,1.824l17.994.036a1.824,1.824,0,0,0,1.824-1.824v-12.6a.921.921,0,0,1,.722-.9l4.237-.939a8.122,8.122,0,0,0,6.365-7.908,3.994,3.994,0,0,1,.825-2.461l9.751-12.468a2.191,2.191,0,0,0-.376-3.076Z" transform="translate(-7.649 -122.447)" fill="#eaac9d"/>
      </g>
      <g id="Group_108306" data-name="Group 108306" transform="translate(19.016 62.559)">
        <g id="Group_108305" data-name="Group 108305" transform="translate(0 0)">
          <path id="Path_165284" data-name="Path 165284" d="M120.219,282.57a7.147,7.147,0,0,0-2.2-1.171,2.19,2.19,0,0,1-.336.612l-9.751,12.468a3.994,3.994,0,0,0-.825,2.461,8.122,8.122,0,0,1-6.365,7.908l-5.49,1.421a.921.921,0,0,0-.722.9v17.578l2.341,0a1.824,1.824,0,0,0,1.824-1.824v-12.6a.92.92,0,0,1,.722-.9l4.237-.939a8.122,8.122,0,0,0,6.365-7.908,3.993,3.993,0,0,1,.825-2.461l9.751-12.468a2.192,2.192,0,0,0-.376-3.076Z" transform="translate(-94.53 -281.399)" fill="#df9380"/>
        </g>
      </g>
      <g id="Group_108307" data-name="Group 108307" transform="translate(0 7.45)">
        <path id="Path_165285" data-name="Path 165285" d="M102.44,85.549a14,14,0,0,0-.294-1.371L96.068,61.157a13.492,13.492,0,0,0-2.782-5.3,10.313,10.313,0,0,1-1.585-2.5l-9.71-21.711a5.349,5.349,0,0,0-2.881-2.782V10.83a3.384,3.384,0,0,0-3.38-3.38H66.743a1.539,1.539,0,0,0,0,3.078h8.986a.3.3,0,0,1,.3.3V70.21c-.027,0-.053,0-.08,0h-.008A3.155,3.155,0,0,1,73.477,69c-1.57-2-3.9-4.98-3.9-4.981a8.668,8.668,0,0,0-6.764-3.348h-.106a8.737,8.737,0,0,0-5.364,1.848,3.735,3.735,0,0,0-.641,5.237l9.751,12.468a2.444,2.444,0,0,1,.5,1.517,9.606,9.606,0,0,0,7.571,9.406l1.508.334V94.5a.3.3,0,0,1-.3.3H27.272a.3.3,0,0,1-.3-.3V91.48l1.5-.333a9.6,9.6,0,0,0,7.446-7.875H60.041a1.539,1.539,0,0,0,0-3.078H36.566l9.728-12.439a3.735,3.735,0,0,0-.641-5.237A8.729,8.729,0,0,0,40.3,60.67h-.1a8.673,8.673,0,0,0-6.776,3.344s-2.331,2.98-3.9,4.985a3.149,3.149,0,0,1-2.452,1.214h-.023c-.026,0-.05,0-.076,0V10.83a.3.3,0,0,1,.3-.3h31.6a1.539,1.539,0,1,0,0-3.078h-31.6a3.384,3.384,0,0,0-3.38,3.38V28.859a5.348,5.348,0,0,0-2.885,2.783L11.3,53.353a10.317,10.317,0,0,1-1.585,2.5,13.491,13.491,0,0,0-2.781,5.3L3.272,75.012a1.539,1.539,0,0,0,2.975.786L9.906,61.943a10.39,10.39,0,0,1,2.143-4.084,13.4,13.4,0,0,0,2.057-3.249L23.816,32.9c.023-.05.049-.1.075-.146V46.52l-2.564,8.194a7.693,7.693,0,0,0-.351,2.31l.016,10.225a6.062,6.062,0,0,0,6.053,6.043h.037a6.217,6.217,0,0,0,4.86-2.393c1.573-2.006,3.9-4.988,3.908-4.992a5.662,5.662,0,0,1,4.371-2.158,5.594,5.594,0,0,1,3.537,1.195.654.654,0,0,1,.112.916L34.119,78.327a5.566,5.566,0,0,0-1.152,3.405,6.546,6.546,0,0,1-5.159,6.41l-4.237.938a2.444,2.444,0,0,0-1.928,2.4v12.6a.285.285,0,0,1-.282.285l-18-.036a.286.286,0,0,1-.285-.285V92.6a35.8,35.8,0,0,1,.749-7.632l.634-2.4a1.539,1.539,0,0,0-2.976-.786l-.634,2.4A38.286,38.286,0,0,0,0,92.6V104.05a3.366,3.366,0,0,0,3.36,3.363l18,.036a3.367,3.367,0,0,0,3.363-3.363V96.706a3.371,3.371,0,0,0,2.551,1.17H75.729a3.37,3.37,0,0,0,2.548-1.166v7.377a3.368,3.368,0,0,0,3.367,3.363l17.991-.036A3.367,3.367,0,0,0,103,104.05V92.6a45,45,0,0,0-.558-7.047Zm-2.52,18.5a.286.286,0,0,1-.289.285l-17.991.036a.286.286,0,0,1-.285-.285v-12.6a2.444,2.444,0,0,0-1.928-2.4l-4.237-.938a6.546,6.546,0,0,1-5.159-6.41,5.568,5.568,0,0,0-1.152-3.405L59.128,65.859a.653.653,0,0,1,.112-.916,5.562,5.562,0,0,1,3.552-1.194,5.657,5.657,0,0,1,4.358,2.162s2.332,2.982,3.9,4.988a6.225,6.225,0,0,0,4.874,2.393h.023a6.061,6.061,0,0,0,6.053-6.043l.017-10.225a7.69,7.69,0,0,0-.351-2.31l-2.56-8.182V32.761c.024.046.05.091.072.139l9.71,21.711a13.4,13.4,0,0,0,2.057,3.249,10.393,10.393,0,0,1,2.143,4.084l6.079,23.021a10.882,10.882,0,0,1,.23,1.069A41.9,41.9,0,0,1,99.92,92.6V104.05Z" transform="translate(0 -7.45)"/>
        <path id="Path_165286" data-name="Path 165286" d="M159.387,76.952a5.565,5.565,0,1,0-5.565-5.565A5.571,5.571,0,0,0,159.387,76.952Zm0-8.051a2.487,2.487,0,1,1-2.487,2.487A2.49,2.49,0,0,1,159.387,68.9Z" transform="translate(-122.878 -54.08)"/>
        <path id="Path_165287" data-name="Path 165287" d="M307.645,76.952a5.565,5.565,0,1,0-5.565-5.565A5.571,5.571,0,0,0,307.645,76.952Zm0-8.051a2.487,2.487,0,1,1-2.487,2.487A2.49,2.49,0,0,1,307.645,68.9Z" transform="translate(-241.312 -54.08)"/>
        <path id="Path_165288" data-name="Path 165288" d="M159.387,144.952a5.565,5.565,0,1,0-5.565-5.564A5.571,5.571,0,0,0,159.387,144.952Zm0-8.051a2.487,2.487,0,1,1-2.487,2.487A2.49,2.49,0,0,1,159.387,136.9Z" transform="translate(-122.878 -108.401)"/>
        <path id="Path_165289" data-name="Path 165289" d="M227.327,206.368a5.565,5.565,0,1,0,5.565-5.565A5.571,5.571,0,0,0,227.327,206.368Zm8.052,0a2.487,2.487,0,1,1-2.487-2.487A2.49,2.49,0,0,1,235.379,206.368Z" transform="translate(-181.596 -161.907)"/>
        <path id="Path_165290" data-name="Path 165290" d="M229.791,77.488h4.956a3.238,3.238,0,0,0,2.8-4.858l-2.478-4.292a3.239,3.239,0,0,0-5.61,0l-2.478,4.292a3.239,3.239,0,0,0,2.8,4.858Zm-.139-3.319,2.478-4.292a.161.161,0,0,1,.279,0l2.478,4.292a.161.161,0,0,1-.139.241h-4.956a.161.161,0,0,1-.139-.241Z" transform="translate(-180.974 -54.796)"/>
        <path id="Path_165291" data-name="Path 165291" d="M304.543,145.488H309.5a3.238,3.238,0,0,0,2.8-4.858l-2.478-4.292a3.239,3.239,0,0,0-5.61,0l-2.478,4.292a3.238,3.238,0,0,0,2.8,4.858Zm-.139-3.319,2.478-4.292a.161.161,0,0,1,.279,0l2.478,4.292a.161.161,0,0,1-.139.241h-4.956a.161.161,0,0,1-.139-.241Z" transform="translate(-240.688 -109.117)"/>
        <path id="Path_165292" data-name="Path 165292" d="M153.481,211.868a3.206,3.206,0,0,0,2.8,1.619h4.956a3.239,3.239,0,0,0,2.8-4.858l-2.478-4.292a3.205,3.205,0,0,0-2.8-1.619h0a3.207,3.207,0,0,0-2.8,1.619h0l-2.478,4.292A3.205,3.205,0,0,0,153.481,211.868Zm2.665-1.7,2.478-4.292a.161.161,0,0,1,.279,0l2.478,4.292a.161.161,0,0,1-.139.241h-4.956a.161.161,0,0,1-.139-.241Z" transform="translate(-122.255 -163.437)"/>
        <path id="Path_165293" data-name="Path 165293" d="M225.227,408.552a1.539,1.539,0,1,0,0,3.078h9.926a1.539,1.539,0,0,0,0-3.078Z" transform="translate(-178.689 -327.864)"/>
        <path id="Path_165294" data-name="Path 165294" d="M300.389,207.9a2.568,2.568,0,0,0-2.565,2.565v4.6a2.568,2.568,0,0,0,2.565,2.565H308.1a2.568,2.568,0,0,0,2.565-2.565v-4.6A2.568,2.568,0,0,0,308.1,207.9Zm7.2,6.649H300.9v-3.572h6.686Z" transform="translate(-237.912 -167.575)"/>
        <path id="Path_165295" data-name="Path 165295" d="M235.924,144.47v-4.6a2.568,2.568,0,0,0-2.565-2.565h-7.712a2.568,2.568,0,0,0-2.565,2.565v4.6a2.568,2.568,0,0,0,2.565,2.565h7.712A2.567,2.567,0,0,0,235.924,144.47Zm-3.078-.513h-6.686v-3.572h6.686Z" transform="translate(-178.205 -111.185)"/>
      </g>
    </g>
  </g>
</svg>
