<svg xmlns="http://www.w3.org/2000/svg" width="190" height="100" viewBox="0 0 190 100">
  <g id="t2-ic1" transform="translate(-180 -404)">
    <g id="Group_108511" data-name="Group 108511">
      <path id="Rectangle_36068" data-name="Rectangle 36068" d="M27.9,0H105a0,0,0,0,1,0,0V0A93,93,0,0,1,12,93H0a0,0,0,0,1,0,0V27.9A27.9,27.9,0,0,1,27.9,0Z" transform="translate(370 497) rotate(180)" fill="#03e6b0" opacity="0.15"/>
      <path id="Rectangle_36067" data-name="Rectangle 36067" d="M0,0H12a93,93,0,0,1,93,93v0a0,0,0,0,1,0,0H27.9A27.9,27.9,0,0,1,0,65.1V0A0,0,0,0,1,0,0Z" transform="translate(180 404)" fill="#ffd947" opacity="0.15"/>
    </g>
    <g id="suplantacion-de-identidad" transform="translate(200.321 404)">
      <g id="Group_108504" data-name="Group 108504" transform="translate(59.692 22.146)">
        <path id="Path_165481" data-name="Path 165481" d="M179.228,113.39h6.313v20.775h-6.313Z" transform="translate(-179.228 -113.39)" fill="#ddeafb"/>
      </g>
      <g id="Group_108508" data-name="Group 108508" transform="translate(32.145 42.922)">
        <g id="Group_108505" data-name="Group 108505" transform="translate(0 0)">
          <path id="Path_165482" data-name="Path 165482" d="M38.184,269.3V225.838a6.077,6.077,0,0,1,6.078-6.078h72.929a6.078,6.078,0,0,1,6.078,6.078V269.3a6.078,6.078,0,0,1-6.078,6.078H44.261A6.077,6.077,0,0,1,38.184,269.3Z" transform="translate(-38.184 -219.76)" fill="#ffd947"/>
        </g>
        <g id="Group_108506" data-name="Group 108506" transform="translate(0 0)" opacity="0.5" style="mix-blend-mode: multiply;isolation: isolate">
          <path id="Path_165483" data-name="Path 165483" d="M85.952,256.516l37.315-29.052v-1.625a6.078,6.078,0,0,0-6.078-6.078H44.261a6.078,6.078,0,0,0-6.078,6.078v1.625L75.5,256.516A8.509,8.509,0,0,0,85.952,256.516Z" transform="translate(-38.183 -219.761)" fill="#ffd947"/>
        </g>
        <g id="Group_108507" data-name="Group 108507" transform="translate(2.014)">
          <path id="Path_165484" data-name="Path 165484" d="M90.888,251.429l38.662-30.1a6.048,6.048,0,0,0-4.064-1.568H52.557a6.048,6.048,0,0,0-4.064,1.568l38.662,30.1A3.039,3.039,0,0,0,90.888,251.429Z" transform="translate(-48.493 -219.76)" fill="#ffd947"/>
        </g>
      </g>
      <g id="Group_108509" data-name="Group 108509" transform="translate(74.687 24.154)">
        <path id="Path_165485" data-name="Path 165485" d="M256,155.04a8.691,8.691,0,0,0,8.681-8.681V136.3h-3.354l9.668-12.627v22.689A15.011,15.011,0,0,1,256,161.354Z" transform="translate(-256 -123.67)" fill="#f4fbff"/>
      </g>
      <g id="Group_108510" data-name="Group 108510" transform="translate(56.536 10.449)">
        <circle id="Ellipse_5028" data-name="Ellipse 5028" cx="6.313" cy="6.313" r="6.313" fill="#03e6b0"/>
      </g>
      <path id="Path_165486" data-name="Path 165486" d="M117.23,62.117a1.465,1.465,0,0,0,1.465-1.465V49a7.552,7.552,0,0,0-7.543-7.543H91.146v-17.3a1.465,1.465,0,0,0-2.628-.89L78.851,35.891a1.465,1.465,0,0,0,1.163,2.355H81.9v3.211H67.471V23.014a7.774,7.774,0,0,0-3.157-13.89V1.465a1.465,1.465,0,0,0-2.93,0v7.66a7.774,7.774,0,0,0-3.156,13.89v6.249a1.465,1.465,0,1,0,2.93,0v-4.91a7.728,7.728,0,0,0,3.383,0v17.1H61.158V36.1a1.465,1.465,0,1,0-2.93,0v5.357H38.222A7.552,7.552,0,0,0,30.679,49V61.181a1.465,1.465,0,0,0,2.93,0V49a4.584,4.584,0,0,1,.742-2.5l30.822,24L35.124,95.872a4.6,4.6,0,0,1-1.515-3.415V68.017a1.465,1.465,0,0,0-2.93,0V92.457A7.552,7.552,0,0,0,38.222,100h72.929a7.552,7.552,0,0,0,7.543-7.543V67.488a1.465,1.465,0,1,0-2.93,0V92.457a4.6,4.6,0,0,1-1.515,3.415L84.2,70.493l30.822-24a4.584,4.584,0,0,1,.742,2.5V60.652a1.465,1.465,0,0,0,1.465,1.465ZM58,16.762a4.849,4.849,0,1,1,4.849,4.849A4.854,4.854,0,0,1,58,16.762ZM88.217,28.477V46.843A13.55,13.55,0,0,1,76.152,60.294V56.884a10.162,10.162,0,0,0,8.681-10.04V36.781a1.465,1.465,0,0,0-1.465-1.465H82.98ZM81.9,44.387v2.457a7.229,7.229,0,0,1-5.751,7.067V52.762a1.465,1.465,0,0,0-2.93,0V64.6a1.465,1.465,0,0,0,2.93,0V63.234A16.479,16.479,0,0,0,91.146,46.843V44.387h20.005a4.59,4.59,0,0,1,1.492.249l-36.99,28.8a1.572,1.572,0,0,1-1.934,0l-36.99-28.8a4.592,4.592,0,0,1,1.492-.249H81.9ZM111.128,97.07H38.246L67.535,72.332l4.385,3.414a4.5,4.5,0,0,0,5.533,0l4.385-3.414Z"/>
    </g>
  </g>
</svg>
