<svg xmlns="http://www.w3.org/2000/svg" width="48.999" height="48.999" viewBox="0 0 48.999 48.999">
  <g id="t2-ic4" transform="translate(-1 -1)">
    <path id="Path_165243" data-name="Path 165243" d="M4.161,37.354H19.967a3.161,3.161,0,0,0,3.161-3.161V4.161A3.161,3.161,0,0,0,19.967,1H4.161A3.161,3.161,0,0,0,1,4.161V34.193A3.161,3.161,0,0,0,4.161,37.354Zm15.806-1.581H4.161a1.581,1.581,0,0,1-1.581-1.581V31.032H21.548v3.161A1.581,1.581,0,0,1,19.967,35.774ZM2.581,29.451V8.9H21.548V29.451ZM9.693,2.581h4.742v.79a.79.79,0,0,1-.79.79H10.484a.79.79,0,0,1-.79-.79Zm-5.532,0H8.113v.79a2.371,2.371,0,0,0,2.371,2.371h3.161a2.371,2.371,0,0,0,2.371-2.371v-.79h3.952a1.581,1.581,0,0,1,1.581,1.581V7.322H2.581V4.161A1.581,1.581,0,0,1,4.161,2.581Z" transform="translate(0)" fill="#0077ec"/>
    <path id="Path_165244" data-name="Path 165244" d="M12,41h4.742v1.581H12Z" transform="translate(-2.307 -8.388)" fill="#0077ec"/>
    <path id="Path_165245" data-name="Path 165245" d="M53.967,17H38.161A3.161,3.161,0,0,0,35,20.161V50.193a3.161,3.161,0,0,0,3.161,3.161H53.967a3.161,3.161,0,0,0,3.161-3.161V20.161A3.161,3.161,0,0,0,53.967,17ZM43.693,18.581h4.742v.79a.79.79,0,0,1-.79.79H44.484a.79.79,0,0,1-.79-.79Zm-5.532,0h3.952v.79a2.371,2.371,0,0,0,2.371,2.371h3.161a2.371,2.371,0,0,0,2.371-2.371v-.79h3.952a1.581,1.581,0,0,1,1.581,1.581v3.161H36.581V20.161A1.581,1.581,0,0,1,38.161,18.581ZM55.548,24.9V45.451H36.581V24.9Zm-1.581,26.87H38.161a1.581,1.581,0,0,1-1.581-1.581V47.032H55.548v3.161A1.581,1.581,0,0,1,53.967,51.774Z" transform="translate(-7.13 -3.355)" fill="#0077ec"/>
    <path id="Path_165246" data-name="Path 165246" d="M46,57h4.742v1.581H46Z" transform="translate(-9.436 -11.743)" fill="#0077ec"/>
    <path id="Path_165247" data-name="Path 165247" d="M40.9,12.9A7.912,7.912,0,0,0,33,5V6.581A6.33,6.33,0,0,1,39.322,12.9Z" transform="translate(-6.71 -0.839)" fill="#0077ec"/>
    <path id="Path_165248" data-name="Path 165248" d="M36.161,13.742h1.581A4.747,4.747,0,0,0,33,9v1.581A3.161,3.161,0,0,1,36.161,13.742Z" transform="translate(-6.71 -1.678)" fill="#0077ec"/>
    <path id="Path_165249" data-name="Path 165249" d="M44.064,12.064A11.076,11.076,0,0,0,33,1V2.581a9.494,9.494,0,0,1,9.484,9.484Z" transform="translate(-6.71)" fill="#0077ec"/>
    <path id="Path_165250" data-name="Path 165250" d="M28.9,55.322A6.33,6.33,0,0,1,22.581,49H21a7.912,7.912,0,0,0,7.9,7.9Z" transform="translate(-4.194 -10.065)" fill="#0077ec"/>
    <path id="Path_165251" data-name="Path 165251" d="M29.742,52.161A3.161,3.161,0,0,1,26.581,49H25a4.747,4.747,0,0,0,4.742,4.742Z" transform="translate(-5.033 -10.065)" fill="#0077ec"/>
    <path id="Path_165252" data-name="Path 165252" d="M18.581,49H17A11.076,11.076,0,0,0,28.064,60.064V58.484A9.494,9.494,0,0,1,18.581,49Z" transform="translate(-3.355 -10.065)" fill="#0077ec"/>
  </g>
</svg>
