<svg xmlns="http://www.w3.org/2000/svg" width="48.875" height="48.93" viewBox="0 0 48.875 48.93">
  <g id="t2-ic5" transform="translate(-0.29)">
    <path id="Path_165253" data-name="Path 165253" d="M85.422,12.215a.716.716,0,0,0,.716-.716V5.425a4,4,0,0,1,3.992-3.992h21.81a4,4,0,0,1,3.992,3.992V11.5a.716.716,0,0,0,1.432,0V5.425A5.431,5.431,0,0,0,111.94,0H90.131a5.431,5.431,0,0,0-5.425,5.425V11.5A.716.716,0,0,0,85.422,12.215Z" transform="translate(-76.356)" fill="#0077ec"/>
    <path id="Path_165254" data-name="Path 165254" d="M116.649,321.917a.716.716,0,0,0-.716.716V338.3a4,4,0,0,1-3.992,3.992H90.131a4,4,0,0,1-3.992-3.992v-4.212a.716.716,0,1,0-1.432,0V338.3a5.431,5.431,0,0,0,5.425,5.425h21.81a5.431,5.431,0,0,0,5.425-5.425V322.633A.716.716,0,0,0,116.649,321.917Z" transform="translate(-76.356 -294.799)" fill="#0077ec"/>
    <path id="Path_165255" data-name="Path 165255" d="M84.706,279.363v8.92a.716.716,0,0,0,1.432,0v-8.92a.716.716,0,0,0-1.432,0Z" transform="translate(-76.356 -252.042)" fill="#0077ec"/>
    <path id="Path_165268" data-name="Path 165268" d="M84.706,279.363v8.92a.716.716,0,0,0,1.432,0v-8.92a.716.716,0,0,0-1.432,0Z" transform="translate(-47.994 -252.042)" fill="#0077ec"/>
    <path id="Path_165256" data-name="Path 165256" d="M115.422,278.647a.716.716,0,0,0-.716.716v16.176a2.563,2.563,0,0,0,2.56,2.56h21.81a2.563,2.563,0,0,0,2.56-2.56v-3.547a.716.716,0,1,0-1.432,0v3.547a1.129,1.129,0,0,1-1.128,1.128h-21.81a1.129,1.129,0,0,1-1.128-1.128V279.363A.716.716,0,0,0,115.422,278.647Z" transform="translate(-103.492 -252.042)" fill="#0077ec"/>
    <path id="Path_165257" data-name="Path 165257" d="M140.92,39.273a.716.716,0,0,0,.716-.716V32.475a2.563,2.563,0,0,0-2.56-2.56h-2.884a1.815,1.815,0,0,0-1.643,1.051l-.639,1.382a.789.789,0,0,1-.655.353H123.087a.789.789,0,0,1-.655-.353l-.639-1.382a1.815,1.815,0,0,0-1.643-1.051h-2.884a2.563,2.563,0,0,0-2.56,2.56v6.082a.716.716,0,1,0,1.432,0V32.475a1.129,1.129,0,0,1,1.128-1.128h2.884a.379.379,0,0,1,.343.219l.658,1.424a.716.716,0,0,0,.036.069,2.228,2.228,0,0,0,1.9,1.074h10.169a2.228,2.228,0,0,0,1.9-1.074.705.705,0,0,0,.036-.069l.658-1.424a.379.379,0,0,1,.343-.219h2.884a1.129,1.129,0,0,1,1.128,1.128v6.082a.716.716,0,0,0,.716.716Z" transform="translate(-103.492 -27.059)" fill="#0077ec"/>
    <path id="Path_165258" data-name="Path 165258" d="M226.9,31.432a.716.716,0,1,0,0-1.432h-5.313a.716.716,0,0,0,0,1.432Z" transform="translate(-199.519 -27.136)" fill="#0077ec"/>
    <path id="Path_165259" data-name="Path 165259" d="M22.16,154.538l1.4,2.229a1.327,1.327,0,0,0,2.249,0l1.4-2.229a.177.177,0,0,1,.151-.084H41.968a.716.716,0,1,0,0-1.432H27.35a1.6,1.6,0,0,0-1.365.756l-1.306,2.086-1.306-2.086a1.6,1.6,0,0,0-1.365-.756H3.443A1.723,1.723,0,0,1,1.722,151.3v-5.221a1.723,1.723,0,0,1,1.721-1.721h38.5a.716.716,0,1,0,0-1.432H3.443A3.156,3.156,0,0,0,.29,146.081V151.3a3.156,3.156,0,0,0,3.153,3.153H22.009a.177.177,0,0,1,.151.084Z" transform="translate(0 -129.281)" fill="#0077ec"/>
    <path id="Path_165260" data-name="Path 165260" d="M462.733,142.929h-1.017a.716.716,0,0,0,0,1.432h1.017a1.723,1.723,0,0,1,1.721,1.721V151.3a1.723,1.723,0,0,1-1.721,1.721h-.348a.716.716,0,0,0,0,1.432h.348a3.156,3.156,0,0,0,3.153-3.153v-5.221A3.156,3.156,0,0,0,462.733,142.929Z" transform="translate(-416.721 -129.282)" fill="#0077ec"/>
    <path id="Path_165262" data-name="Path 165262" d="M53.6,193.065a.716.716,0,1,0,0,1.432h.606a.716.716,0,1,0,0-1.432Z" transform="translate(-47.576 -174.631)" fill="#0077ec"/>
    <path id="Path_165263" data-name="Path 165263" d="M112.248,193.065a.716.716,0,1,0,0,1.432h.606a.716.716,0,1,0,0-1.432Z" transform="translate(-100.621 -174.631)" fill="#0077ec"/>
    <path id="Path_165264" data-name="Path 165264" d="M170.893,193.065a.716.716,0,0,0,0,1.432h.606a.716.716,0,1,0,0-1.432Z" transform="translate(-153.666 -174.631)" fill="#0077ec"/>
    <path id="Path_165265" data-name="Path 165265" d="M229.538,193.065a.716.716,0,0,0,0,1.432h.606a.716.716,0,1,0,0-1.432Z" transform="translate(-206.712 -174.631)" fill="#0077ec"/>
    <path id="Path_165269" data-name="Path 165269" d="M229.538,193.065a.716.716,0,0,0,0,1.432h.606a.716.716,0,1,0,0-1.432Z" transform="translate(-195.513 -174.631)" fill="#0077ec"/>
    <path id="Path_165266" data-name="Path 165266" d="M288.182,193.065a.716.716,0,0,0,0,1.432h.606a.716.716,0,1,0,0-1.432Z" transform="translate(-259.757 -174.631)" fill="#0077ec"/>
    <path id="Path_165270" data-name="Path 165270" d="M288.182,193.065a.716.716,0,0,0,0,1.432h.606a.716.716,0,1,0,0-1.432Z" transform="translate(-248.557 -174.631)" fill="#0077ec"/>
    <path id="Path_165267" data-name="Path 165267" d="M189.076,356.38h6.06a.716.716,0,0,0,0-1.432h-6.06a1.637,1.637,0,0,0-1.635,1.635v3.723a1.637,1.637,0,0,0,1.635,1.635h9.77a1.637,1.637,0,0,0,1.635-1.635v-3.723a1.637,1.637,0,0,0-1.635-1.635h-.658a.716.716,0,1,0,0,1.432h.658a.2.2,0,0,1,.2.2v3.723a.2.2,0,0,1-.2.2h-9.77a.2.2,0,0,1-.2-.2v-3.723A.2.2,0,0,1,189.076,356.38Z" transform="translate(-169.282 -321.058)" fill="#0077ec"/>
  </g>
</svg>
