<svg xmlns="http://www.w3.org/2000/svg" width="51.483" height="48.931" viewBox="0 0 51.483 48.931">
  <g id="t2-ic2" transform="translate(0 -12.688)">
    <path id="Path_163152" data-name="Path 163152" d="M222.62,166.939a.759.759,0,0,0,.162-.018l1.679-.368a.754.754,0,1,0-.323-1.473l-1.679.368a.754.754,0,0,0,.161,1.491Z" transform="translate(-199.558 -137.053)" fill="#0077ec"/>
    <path id="Path_163153" data-name="Path 163153" d="M139.065,166.554l1.679.368a.754.754,0,1,0,.323-1.473l-1.679-.368a.754.754,0,0,0-.323,1.473Z" transform="translate(-124.548 -137.054)" fill="#0077ec"/>
    <path id="Path_163154" data-name="Path 163154" d="M51.182,25.873,47.7,19.842l-3.48-6.031h0a2.288,2.288,0,0,0-1.984-1.121h0a2.244,2.244,0,0,0-1.969,1.122l-3.483,6.032-1.021,1.769H28.388a8.964,8.964,0,0,0-2.4-3.3,9.982,9.982,0,0,0-6.689-2.35,9.767,9.767,0,0,0-6.487,2.472A8.713,8.713,0,0,0,10.6,21.611H2.464A2.469,2.469,0,0,0,0,24.078V51.251a2.467,2.467,0,0,0,2.464,2.464H17.122V56.16H13.261a2.734,2.734,0,0,0-2.732,2.729v1.454A1.277,1.277,0,0,0,11.8,61.619H34.9a1.279,1.279,0,0,0,1.279-1.276V58.89a2.734,2.734,0,0,0-2.732-2.729H29.581V53.715H43.617a2.469,2.469,0,0,0,2.467-2.464V29.3h3.122a2.284,2.284,0,0,0,1.962-1.157,2.244,2.244,0,0,0,.013-2.266ZM11.37,26.913H17.9a.754.754,0,1,0,0-1.508H11.373a7.771,7.771,0,0,1,7.943-7.934h.125a8,8,0,0,1,7.713,5.118l.006.017a9.374,9.374,0,0,1,.537,2.8H21.143a.754.754,0,1,0,0,1.508h6.563v3.045a5.977,5.977,0,0,1-.16,1.353c-.005.022-.011.043-.017.065H23.138a3.541,3.541,0,0,1-1.454-.5,4.322,4.322,0,0,0-2.259-.637,3.74,3.74,0,0,0-1.651.671,2.443,2.443,0,0,1-1.063.467H11.529c-.005-.021-.011-.043-.016-.064a5.075,5.075,0,0,1-.142-1.168V26.913Zm9.906,11.17a6.268,6.268,0,0,1-1.8.4,6.271,6.271,0,0,1-1.8-.4,9.134,9.134,0,0,1-2.025-1.05l-.011-.007a10.867,10.867,0,0,1-1.913-1.674.75.75,0,0,0-.139-.157,10.174,10.174,0,0,1-1.527-2.31h4.64a3.553,3.553,0,0,0,1.853-.69,2.643,2.643,0,0,1,.973-.452,3.144,3.144,0,0,1,1.472.482,4.755,4.755,0,0,0,2.13.66h3.836A10.85,10.85,0,0,1,21.276,38.082Zm7.093,2.22a4.15,4.15,0,0,1-4.146,4.146H23.19a5.874,5.874,0,0,0,1.34-3.81V38.02a12.778,12.778,0,0,0,1.544-1.334A4.235,4.235,0,0,1,28.369,40.3Zm-5.347-1.344v1.68c0,2.026-1.284,3.743-2.825,3.812H18.834c-1.55-.052-2.846-1.776-2.846-3.813v-1.66a9.826,9.826,0,0,0,1.184.522A7.665,7.665,0,0,0,19.444,40h.073a7.663,7.663,0,0,0,2.272-.494,10.239,10.239,0,0,0,1.233-.543Zm-7.2,5.495H14.741a4.152,4.152,0,0,1-4.146-4.149,4.308,4.308,0,0,1,2.34-3.622,12.573,12.573,0,0,0,1.544,1.352v2.6a5.875,5.875,0,0,0,1.343,3.814ZM1.508,24.078a.959.959,0,0,1,.956-.959h7.667a11.335,11.335,0,0,0-.27,2.5h0v1.315H9.7a2.083,2.083,0,0,0-1.757.929,3.187,3.187,0,0,0-.51,1.8,2.97,2.97,0,0,0,2.764,3.221h.236a11.182,11.182,0,0,0,1.5,2.634A5.779,5.779,0,0,0,9.1,39.967H8.521A4.533,4.533,0,0,0,3.993,44.5v3H1.508ZM9.98,31.356c-.759-.146-1.041-1.06-1.041-1.692a1.7,1.7,0,0,1,.244-.94.577.577,0,0,1,.516-.277h.164v1.7a6.475,6.475,0,0,0,.118,1.212ZM33.441,57.669a1.224,1.224,0,0,1,1.224,1.221v1.221H12.037V58.89a1.224,1.224,0,0,1,1.224-1.221h20.18ZM18.63,56.16V53.715h9.443V56.16Zm25.946-4.91a.959.959,0,0,1-.959.956H2.464a.957.957,0,0,1-.956-.956V49.006h3.08a.747.747,0,0,0,.318,0H16.468a.754.754,0,1,0,0-1.508H5.5v-3a3.023,3.023,0,0,1,3.02-3.02h.688a5.664,5.664,0,0,0,5.532,4.487l4.084,0,.08,0h1.2c.036,0,.072,0,.108,0l4.014,0a5.663,5.663,0,0,0,5.538-4.512h.585a3.022,3.022,0,0,1,3.017,3.02V47.5l-13.489,0a.754.754,0,0,0,0,1.508l24.7,0Zm0-3.753h-9.7V44.464a4.532,4.532,0,0,0-4.525-4.528h-.483a5.774,5.774,0,0,0-2.775-4.405,11.086,11.086,0,0,0,1.535-2.646h.332a2.97,2.97,0,0,0,2.764-3.221,3.187,3.187,0,0,0-.51-1.8,2.083,2.083,0,0,0-1.757-.929h-.238V25.58s0-.007,0-.01,0-.007,0-.01a11.486,11.486,0,0,0-.322-2.44h6L33.3,25.873a2.285,2.285,0,0,0,.02,2.278A2.243,2.243,0,0,0,35.277,29.3h9.3V47.5Zm-15.5-16.129a7.408,7.408,0,0,0,.139-1.411V28.446h.238a.577.577,0,0,1,.516.277,1.7,1.7,0,0,1,.244.94c0,.658-.306,1.622-1.136,1.706Zm20.788-3.984a.763.763,0,0,1-.656.4H35.277a.75.75,0,0,1-.649-.391.764.764,0,0,1-.02-.77l3.48-6.031,3.483-6.031a.751.751,0,0,1,.663-.368h0a.766.766,0,0,1,.678.368l3.48,6.032,3.483,6.031a.751.751,0,0,1-.014.758Z" fill="#0077ec"/>
    <path id="Path_163155" data-name="Path 163155" d="M413.366,61.683a.754.754,0,0,0-.754.754V66.83a.754.754,0,0,0,1.508,0V62.437A.754.754,0,0,0,413.366,61.683Z" transform="translate(-371.123 -44.068)" fill="#0077ec"/>
    <path id="Path_163156" data-name="Path 163156" d="M413.366,136.406a.754.754,0,0,0-.754.754v.037a.754.754,0,0,0,1.508,0v-.037A.754.754,0,0,0,413.366,136.406Z" transform="translate(-371.123 -111.278)" fill="#0077ec"/>
  </g>
</svg>
