<svg xmlns="http://www.w3.org/2000/svg" width="45.404" height="48.931" viewBox="0 0 45.404 48.931">
  <g id="t2-ic3" transform="translate(-18.451)">
    <path id="Path_163166" data-name="Path 163166" d="M63.855,25.67a.717.717,0,0,0-.389-.638l-5.924-3.051V12.466a6.206,6.206,0,0,0,2.905-1.039.717.717,0,1,0-.8-1.188,4.807,4.807,0,1,1,1.647-1.9.717.717,0,0,0,1.291.623A6.189,6.189,0,0,0,63.2,6.247a6.247,6.247,0,0,0-11.87-2.721H32.416a.717.717,0,0,0,0,1.434H50.841a6.246,6.246,0,0,0,5.268,7.476V28.47L41.8,35.81a1.263,1.263,0,0,1-1.152,0L26.2,28.369V6.038A1.079,1.079,0,0,1,27.276,4.96h2.487a.717.717,0,0,0,0-1.434H27.276a2.515,2.515,0,0,0-2.512,2.512V21.879l-5.923,3.038a.717.717,0,0,0-.39.637V45.177A3.758,3.758,0,0,0,22.2,48.931H45.72a.717.717,0,0,0,0-1.434H28.525l9.832-11.255,1.634.841a2.7,2.7,0,0,0,2.462,0l1.542-.791,9.786,11.2H48.373a.717.717,0,0,0,0,1.434h11.58a3.907,3.907,0,0,0,3.9-3.9V25.67ZM24.764,23.49v4.14l-4.028-2.074ZM26.622,47.5H22.2a2.323,2.323,0,0,1-2.32-2.32V26.73l5.254,2.706h0l11.9,6.13Zm30.92-23.9,4.028,2.074-4.028,2.066Zm2.411,23.9H55.684L45.309,35.62l17.112-8.777V45.028A2.472,2.472,0,0,1,59.953,47.5Z" fill="#0077ec"/>
    <path id="Path_163167" data-name="Path 163167" d="M234.024,421.093a.717.717,0,0,0,0,1.434h2.9a.717.717,0,1,0,0-1.434Z" transform="translate(-194.323 -380.85)" fill="#0077ec"/>
    <path id="Path_163168" data-name="Path 163168" d="M158,115.218a2.733,2.733,0,0,0,2.718,2.73,3.088,3.088,0,0,0,3,2.367h7.3a3.088,3.088,0,0,0,3-2.367,2.73,2.73,0,0,0,.485-5.415,8.363,8.363,0,0,0-7.014-12.7h-.119a8.354,8.354,0,0,0-7.131,12.7A2.735,2.735,0,0,0,158,115.218Zm13.014,3.663h-7.3a1.652,1.652,0,0,1-1.486-.933H172.5A1.652,1.652,0,0,1,171.018,118.881Zm-10.284-4.96a1.148,1.148,0,0,0,.943-1.8,6.919,6.919,0,0,1,5.691-10.854h.1a6.92,6.92,0,0,1,5.594,10.852h0a1.148,1.148,0,0,0,.943,1.8,1.3,1.3,0,1,1,0,2.593h-2.09v-1.806a.717.717,0,1,0-1.434,0v1.806h-1.119v-1.806a.717.717,0,1,0-1.434,0v1.806H166.81v-1.806a.717.717,0,1,0-1.434,0v1.806h-1.119v-1.806a.717.717,0,1,0-1.434,0v1.806h-2.09a1.3,1.3,0,1,1,0-2.593Z" transform="translate(-126.216 -90.29)" fill="#0077ec"/>
    <path id="Path_163169" data-name="Path 163169" d="M198.576,158.333a2.676,2.676,0,0,0,2.673-2.672.717.717,0,0,0-.21-.507l-1.956-1.956a.717.717,0,0,0-.507-.21,2.673,2.673,0,0,0,0,5.345Zm-.268-3.882,1.478,1.478a1.239,1.239,0,1,1-1.478-1.478Z" transform="translate(-160.494 -138.367)" fill="#0077ec"/>
    <path id="Path_163170" data-name="Path 163170" d="M262.839,158.333a2.673,2.673,0,1,0,0-5.345.717.717,0,0,0-.507.21l-1.956,1.956a.717.717,0,0,0-.21.507A2.676,2.676,0,0,0,262.839,158.333Zm.268-3.882a1.239,1.239,0,1,1-1.478,1.478Z" transform="translate(-218.616 -138.367)" fill="#0077ec"/>
    <path id="Path_163171" data-name="Path 163171" d="M415.27,28.684a.717.717,0,0,0-1.434,0v3.3a.717.717,0,0,0,1.434,0Z" transform="translate(-357.599 -25.294)" fill="#0077ec"/>
    <path id="Path_163172" data-name="Path 163172" d="M414.553,81.831a.717.717,0,0,0-.717.717v.568a.717.717,0,0,0,1.434,0v-.568A.717.717,0,0,0,414.553,81.831Z" transform="translate(-357.599 -74.011)" fill="#0077ec"/>
  </g>
</svg>
