<svg xmlns="http://www.w3.org/2000/svg" width="79.48" height="100" viewBox="0 0 79.48 100">
  <g id="t4-ic4" transform="translate(-52.528)">
    <g id="Group_109149" data-name="Group 109149" transform="translate(53.993 1.465)">
      <path id="Path_166902" data-name="Path 166902" d="M104.223,102.991,120.8,93.424a31.567,31.567,0,0,0,15.784-27.338V25.246a3.958,3.958,0,0,0-3.743-3.959c-17.758-.9-27.4-8.137-31.708-12.59a3.934,3.934,0,0,0-5.647,0c-4.305,4.453-13.949,11.685-31.708,12.59a3.958,3.958,0,0,0-3.744,3.959v40.84A31.567,31.567,0,0,0,75.814,93.424l16.572,9.567a11.838,11.838,0,0,0,11.837,0Z" transform="translate(-60.03 -7.502)" fill="#ffb814"/>
    </g>
    <g id="Group_109150" data-name="Group 109150" transform="translate(59.908 42.233)">
      <path id="Path_166903" data-name="Path 166903" d="M111.228,256.939a50.519,50.519,0,0,1-20.918-4.5,31.536,31.536,0,0,0,9.87,8.943l16.572,9.567a11.838,11.838,0,0,0,11.837,0l16.572-9.567a31.567,31.567,0,0,0,15.784-27.338V216.226A50.719,50.719,0,0,1,111.228,256.939Z" transform="translate(-90.31 -216.226)" fill="#e7a52e"/>
    </g>
    <g id="Group_109151" data-name="Group 109151" transform="translate(61.885 11.385)">
      <path id="Path_166904" data-name="Path 166904" d="M130.818,137.553a3.953,3.953,0,0,1-1.973-.529l-16.572-9.567a23.741,23.741,0,0,1-11.838-20.5V71.513a1.969,1.969,0,0,1,1.719-1.956c13.153-1.655,22-6.546,27.445-10.844a1.966,1.966,0,0,1,2.436,0c5.449,4.3,14.292,9.189,27.445,10.844a1.97,1.97,0,0,1,1.719,1.956v35.441a23.741,23.741,0,0,1-11.838,20.5l-16.572,9.567a3.95,3.95,0,0,1-1.973.529Z" transform="translate(-100.435 -58.29)" fill="#ffe685"/>
    </g>
    <g id="Group_109152" data-name="Group 109152" transform="translate(67.956 40.245)">
      <path id="Path_166905" data-name="Path 166905" d="M137.679,242.04a51.193,51.193,0,0,1-6.161-.373,23.566,23.566,0,0,0,5.767,4.687l16.572,9.567a3.947,3.947,0,0,0,3.946,0l16.572-9.567a23.741,23.741,0,0,0,11.838-20.5v-19.8A50.724,50.724,0,0,1,137.679,242.04Z" transform="translate(-131.518 -206.046)" fill="#ffd947"/>
    </g>
    <g id="Group_109154" data-name="Group 109154" transform="translate(68.591 33.259)">
      <g id="Group_109153" data-name="Group 109153" transform="translate(0)">
        <path id="Path_166906" data-name="Path 166906" d="M152.525,205.795a5.9,5.9,0,0,1-4.186-1.733L136.5,192.223a5.919,5.919,0,0,1,8.371-8.371l7.653,7.653,19.491-19.491a5.919,5.919,0,0,1,8.371,8.371l-23.677,23.677a5.9,5.9,0,0,1-4.185,1.733Z" transform="translate(-134.768 -170.28)" fill="#03e6b0"/>
      </g>
    </g>
    <g id="Group_109155" data-name="Group 109155" transform="translate(78.795 33.663)">
      <path id="Path_166907" data-name="Path 166907" d="M222.427,173.675a5.894,5.894,0,0,0-2.038-1.33,5.92,5.92,0,0,1-1.33,6.333l-23.677,23.677a5.92,5.92,0,0,1-8.371,0l3.368,3.368a5.92,5.92,0,0,0,8.371,0l23.677-23.677a5.92,5.92,0,0,0,0-8.371Z" transform="translate(-187.011 -172.345)" fill="#01cf79"/>
    </g>
    <g id="Group_109156" data-name="Group 109156" transform="translate(52.528 0)">
      <path id="Path_166908" data-name="Path 166908" d="M130.543,34.824a1.465,1.465,0,0,0,1.465-1.465V19.208a5.418,5.418,0,0,0-5.135-5.422C109.5,12.9,100.163,5.8,96.144,1.641a5.4,5.4,0,0,0-7.751,0C84.373,5.8,75.036,12.9,57.662,13.786a5.417,5.417,0,0,0-5.134,5.422V60.05A33.124,33.124,0,0,0,69.045,88.656l16.573,9.567a13.332,13.332,0,0,0,13.3,0l16.573-9.567A33.124,33.124,0,0,0,132.008,60.05V40.2a1.465,1.465,0,1,0-2.93,0V60.05a30.187,30.187,0,0,1-15.051,26.069L97.454,95.686a10.4,10.4,0,0,1-10.371,0L70.509,86.119A30.187,30.187,0,0,1,55.458,60.05V19.208a2.489,2.489,0,0,1,2.354-2.5C76.188,15.777,86.179,8.144,90.5,3.677a2.468,2.468,0,0,1,3.539,0c4.32,4.466,14.31,12.1,32.687,13.035a2.489,2.489,0,0,1,2.354,2.5V33.359A1.465,1.465,0,0,0,130.543,34.824Z" transform="translate(-52.528 0)"/>
      <path id="Path_166909" data-name="Path 166909" d="M94.4,79.592a1.465,1.465,0,0,0-1.465,1.465v19.854a25.213,25.213,0,0,0,12.569,21.771l16.574,9.567a5.406,5.406,0,0,0,5.41,0l16.573-9.567a25.213,25.213,0,0,0,12.569-21.771V65.468a3.437,3.437,0,0,0-3-3.409c-13.139-1.653-21.782-6.644-26.721-10.542a3.428,3.428,0,0,0-4.251,0c-4.937,3.9-13.581,8.888-26.719,10.54a3.437,3.437,0,0,0-3,3.409v8.752a1.465,1.465,0,0,0,2.93,0V65.468a.5.5,0,0,1,.437-.5c13.808-1.737,22.94-7.021,28.167-11.146a.5.5,0,0,1,.624,0c5.229,4.127,14.361,9.411,28.17,11.148a.5.5,0,0,1,.436.5v35.443a22.275,22.275,0,0,1-11.1,19.234l-16.572,9.566a2.517,2.517,0,0,1-2.481,0l-16.573-9.567a22.275,22.275,0,0,1-11.1-19.234V81.057A1.465,1.465,0,0,0,94.4,79.592Z" transform="translate(-85.045 -40.861)"/>
      <path id="Path_166910" data-name="Path 166910" d="M134.653,177.55a4.424,4.424,0,0,1,3.149,1.3l7.655,7.653a1.465,1.465,0,0,0,2.072,0l8.385-8.385a1.465,1.465,0,0,0-2.072-2.072l-7.349,7.35-6.619-6.617a7.384,7.384,0,1,0-10.441,10.443l11.837,11.837a7.381,7.381,0,0,0,10.442,0l23.676-23.677a7.384,7.384,0,0,0-10.441-10.443l-6.272,6.272a1.465,1.465,0,0,0,2.072,2.072l6.272-6.272a4.454,4.454,0,1,1,6.3,6.3L149.64,196.993a4.45,4.45,0,0,1-6.3,0L131.5,185.153a4.454,4.454,0,0,1,3.149-7.6Z" transform="translate(-112.671 -130.987)"/>
    </g>
  </g>
</svg>
