<svg xmlns="http://www.w3.org/2000/svg" width="90" height="90" viewBox="0 0 90 90">
  <g id="t4-ic2" transform="translate(0 0)">
    <g id="Group_109125" data-name="Group 109125" transform="translate(1.318 1.319)">
      <path id="Path_166878" data-name="Path 166878" d="M94.863,41.6,51.182,7.5,7.5,41.6,51.182,61.658Z" transform="translate(-7.5 -7.5)" fill="#ffb814"/>
    </g>
    <g id="Group_109126" data-name="Group 109126" transform="translate(12.328 10.375)">
      <path id="Path_166879" data-name="Path 166879" d="M70.13,59.019h65.345v45.1H70.13Z" transform="translate(-70.13 -59.019)" fill="#f4fbff"/>
    </g>
    <g id="Group_109127" data-name="Group 109127" transform="translate(73.411 10.375)">
      <path id="Path_166880" data-name="Path 166880" d="M417.626,59.019h4.262v45.1h-4.262Z" transform="translate(-417.626 -59.019)" fill="#ddeafb"/>
    </g>
    <g id="Group_109128" data-name="Group 109128" transform="translate(1.318 35.423)">
      <path id="Path_166881" data-name="Path 166881" d="M94.863,254.775H7.5V201.516L51.182,221.57l43.682-20.054Z" transform="translate(-7.5 -201.516)" fill="#ffd947"/>
    </g>
    <g id="Group_109129" data-name="Group 109129" transform="translate(83.718 35.423)">
      <path id="Path_166882" data-name="Path 166882" d="M476.261,203.795v50.98h4.964V201.516Z" transform="translate(-476.261 -201.516)" fill="#ffd064"/>
    </g>
    <g id="Group_109130" data-name="Group 109130" transform="translate(8.776 75.542)">
      <path id="Path_166883" data-name="Path 166883" d="M49.927,429.748H64.132v5.682H49.927Z" transform="translate(-49.927 -429.748)" fill="#03e6b0"/>
    </g>
    <g id="Group_109136" data-name="Group 109136" transform="translate(0 0)">
      <path id="Path_166886" data-name="Path 166886" d="M89.492,34.387v0l-10.5-8.2V10.375a1.318,1.318,0,0,0-1.318-1.318H57.053L45.811.28a1.318,1.318,0,0,0-1.623,0L32.947,9.057H12.328a1.318,1.318,0,0,0-1.318,1.318v4.256a1.318,1.318,0,1,0,2.637,0V11.693H76.354V39.633L45,54.026,13.646,39.633V20.783a1.318,1.318,0,0,0-2.637,0v5.4l-10.5,8.2v0A1.318,1.318,0,0,0,0,35.424V55.371a1.318,1.318,0,1,0,2.637,0V37.48l41.813,19.2a1.318,1.318,0,0,0,1.1,0l41.813-19.2v8.632a1.318,1.318,0,1,0,2.637,0V35.424a1.316,1.316,0,0,0-.508-1.037ZM45,2.991l7.768,6.065H37.232ZM11.009,38.422,3.836,35.129l7.173-5.6Zm67.982-8.894,7.173,5.6-7.173,3.293Z" transform="translate(0 0)"/>
      <path id="Path_166887" data-name="Path 166887" d="M88.682,289.82a1.318,1.318,0,0,0-1.318,1.318v35.1H2.637V300.4A1.318,1.318,0,0,0,0,300.4v27.158a1.318,1.318,0,0,0,1.318,1.318H88.682A1.318,1.318,0,0,0,90,327.557V291.138A1.318,1.318,0,0,0,88.682,289.82Z" transform="translate(0 -238.875)"/>
      <path id="Path_166888" data-name="Path 166888" d="M43.745,360.235h7.1a1.318,1.318,0,0,0,0-2.637h-7.1a1.318,1.318,0,0,0,0,2.637Z" transform="translate(-34.969 -294.739)"/>
      <path id="Path_166889" data-name="Path 166889" d="M43.745,392.56h7.1a1.318,1.318,0,0,0,0-2.637h-7.1a1.318,1.318,0,0,0,0,2.637Z" transform="translate(-34.969 -321.382)"/>
      <path id="Path_166890" data-name="Path 166890" d="M42.427,429.248a1.318,1.318,0,0,0,1.318,1.318H57.951a1.318,1.318,0,0,0,1.318-1.318v-5.682a1.318,1.318,0,0,0-1.318-1.318H43.745a1.318,1.318,0,0,0-1.318,1.318Zm2.637-4.364H56.632v3.045H45.064Z" transform="translate(-34.969 -348.025)"/>
    </g>
  </g>
</svg>
