<svg id="t4-ic1" xmlns="http://www.w3.org/2000/svg" width="81.059" height="100" viewBox="0 0 81.059 100">
  <g id="Group_109116" data-name="Group 109116" transform="translate(1.464 1.465)">
    <g id="Group_109112" data-name="Group 109112">
      <path id="Path_166864" data-name="Path 166864" d="M158.882,104.57h47.351a5.919,5.919,0,0,0,5.919-5.919V13.419A5.919,5.919,0,0,0,206.233,7.5H158.882a5.919,5.919,0,0,0-5.919,5.919V98.651A5.919,5.919,0,0,0,158.882,104.57Z" transform="translate(-152.963 -7.5)" fill="#80c0ff"/>
    </g>
    <g id="Group_109113" data-name="Group 109113" transform="translate(0)">
      <path id="Path_166865" data-name="Path 166865" d="M408.392,7.5h4.538a5.919,5.919,0,0,0-5.919,5.919V98.651a5.919,5.919,0,0,0,5.919,5.919h-4.538a5.919,5.919,0,0,1-5.919-5.919V13.419A5.919,5.919,0,0,1,408.392,7.5Z" transform="translate(-402.473 -7.5)" fill="#0077ec"/>
    </g>
    <g id="Group_109114" data-name="Group 109114" transform="translate(6.313 6.313)">
      <path id="Path_166866" data-name="Path 166866" d="M199.137,41.21l1.108,3.545a1.973,1.973,0,0,0,1.883,1.385h12.883a1.973,1.973,0,0,0,1.883-1.385L218,41.21a1.973,1.973,0,0,1,1.883-1.385h9.993A1.973,1.973,0,0,1,231.85,41.8v80.5a1.973,1.973,0,0,1-1.973,1.973H187.261a1.973,1.973,0,0,1-1.973-1.973V41.8a1.973,1.973,0,0,1,1.973-1.973h9.993A1.973,1.973,0,0,1,199.137,41.21Z" transform="translate(-185.288 -39.825)" fill="#d3effb"/>
    </g>
    <g id="Group_109115" data-name="Group 109115" transform="translate(6.313 6.313)">
      <path id="Path_166867" data-name="Path 166867" d="M392.324,39.825h4.538a1.973,1.973,0,0,0-1.973,1.973v80.5a1.973,1.973,0,0,0,1.973,1.973h-4.538a1.973,1.973,0,0,1-1.973-1.973V41.8A1.973,1.973,0,0,1,392.324,39.825Z" transform="translate(-390.351 -39.825)" fill="#b1e4f9"/>
    </g>
  </g>
  <g id="Group_109120" data-name="Group 109120" transform="translate(24.351 49.211)">
    <g id="Group_109117" data-name="Group 109117" transform="translate(0 0)">
      <path id="Path_166868" data-name="Path 166868" d="M111.231,282.738V255.906a3.946,3.946,0,0,0-3.946-3.946H59.934a3.946,3.946,0,0,0-3.946,3.946v26.832a3.946,3.946,0,0,0,3.946,3.946h47.351A3.946,3.946,0,0,0,111.231,282.738Z" transform="translate(-55.988 -251.96)" fill="#ffd947"/>
    </g>
    <g id="Group_109118" data-name="Group 109118">
      <path id="Path_166869" data-name="Path 166869" d="M80.216,275.823,55.988,256.96V255.9a3.946,3.946,0,0,1,3.946-3.946h47.352a3.946,3.946,0,0,1,3.946,3.946v1.055L87,275.823a5.524,5.524,0,0,1-6.787,0Z" transform="translate(-55.988 -251.959)" fill="#ffd947" style="mix-blend-mode: multiply;isolation: isolate"/>
    </g>
    <g id="Group_109119" data-name="Group 109119" transform="translate(1.307)">
      <path id="Path_166870" data-name="Path 166870" d="M87.784,272.521l-25.1-19.544a3.927,3.927,0,0,1,2.638-1.018h47.352a3.926,3.926,0,0,1,2.638,1.018l-25.1,19.544A1.973,1.973,0,0,1,87.784,272.521Z" transform="translate(-62.682 -251.959)" fill="#ffd947"/>
    </g>
  </g>
  <g id="Group_109123" data-name="Group 109123" transform="translate(14.502 30.082)">
    <g id="Group_109121" data-name="Group 109121" transform="translate(0)">
      <path id="Path_166871" data-name="Path 166871" d="M242.962,157.719l8.652,13.8a7.892,7.892,0,0,1-6.687,12.084h-17.3a7.892,7.892,0,0,1-6.687-12.084l8.652-13.8A7.892,7.892,0,0,1,242.962,157.719Z" transform="translate(-219.719 -154.019)" fill="#03e6b0"/>
    </g>
    <g id="Group_109122" data-name="Group 109122" transform="translate(0 7.697)">
      <path id="Path_166872" data-name="Path 166872" d="M291.225,203.234l6.146-9.8a20.144,20.144,0,0,0,12.021,21.888h-11.48A7.892,7.892,0,0,1,291.225,203.234Z" transform="translate(-290.007 -193.429)" fill="#03e6b0" style="mix-blend-mode: multiply;isolation: isolate"/>
    </g>
  </g>
  <g id="Group_109124" data-name="Group 109124" transform="translate(0 0)">
    <path id="Path_166873" data-name="Path 166873" d="M297.412,266.4a1.717,1.717,0,1,1,1.717-1.717A1.717,1.717,0,0,1,297.412,266.4Z" transform="translate(-266.353 -211.601)"/>
    <path id="Path_166874" data-name="Path 166874" d="M49.955,57.392a1.465,1.465,0,0,1,1.465,1.465v59.775a4.458,4.458,0,0,0,4.453,4.453h47.352a4.459,4.459,0,0,0,4.455-4.453v-7.217h-3.385v4.848a3.441,3.441,0,0,1-3.437,3.438H58.24a3.441,3.441,0,0,1-3.438-3.438V105.93a1.465,1.465,0,0,1,2.93,0v10.334a.508.508,0,0,0,.508.508h42.617a.508.508,0,0,0,.508-.508v-4.848H76.787A5.417,5.417,0,0,1,71.377,106V87.148H70.9a9.357,9.357,0,0,1-7.928-14.326l8.652-13.8a9.356,9.356,0,0,1,15.855,0l8.652,13.8a9.678,9.678,0,0,1,.515.94h4.722V35.767a.508.508,0,0,0-.508-.508H90.865a.5.5,0,0,0-.485.355l-1.108,3.542a3.419,3.419,0,0,1-3.282,2.415H73.107a3.423,3.423,0,0,1-3.281-2.413L68.72,35.616a.506.506,0,0,0-.485-.356H58.24a.508.508,0,0,0-.508.508V99.093a1.465,1.465,0,0,1-2.93,0V35.767A3.441,3.441,0,0,1,58.24,32.33h9.994a3.425,3.425,0,0,1,3.281,2.411l1.107,3.544a.506.506,0,0,0,.485.357H85.99a.5.5,0,0,0,.485-.357l1.109-3.543a3.42,3.42,0,0,1,3.281-2.412h9.992a3.441,3.441,0,0,1,3.438,3.438V73.762h3.385V57.879a1.465,1.465,0,1,1,2.93,0V73.762h13.529a5.416,5.416,0,0,1,5.41,5.41V106a5.417,5.417,0,0,1-5.41,5.412H110.609v7.217a7.392,7.392,0,0,1-7.385,7.383H55.873a7.391,7.391,0,0,1-7.383-7.383V58.857A1.465,1.465,0,0,1,49.955,57.392ZM126.619,106V79.172a2.467,2.467,0,0,0-.147-.833L107.516,93.1l18.56,14.452A2.47,2.47,0,0,0,126.619,106ZM105.131,94.955l-2.556,1.99a3.437,3.437,0,0,1-4.225,0l-2.556-1.99L78.415,108.486h44.1ZM74.306,106a2.47,2.47,0,0,0,.543,1.546L93.41,93.1l-7.642-5.95H74.306Zm19.34-31.626-8.652-13.8a6.427,6.427,0,0,0-10.891,0l-8.652,13.8A6.427,6.427,0,0,0,70.9,84.218H88.2a6.427,6.427,0,0,0,5.445-9.841Zm2.741,7.944a9.219,9.219,0,0,1-6.138,4.6l9.9,7.708a.51.51,0,0,0,.626,0l23.043-17.942H97.506a9.281,9.281,0,0,1-1.118,5.63Z" transform="translate(-48.49 -26.016)"/>
    <path id="Path_166875" data-name="Path 166875" d="M152.843,0h47.352a7.392,7.392,0,0,1,7.385,7.383V25.027a1.465,1.465,0,1,1-2.93,0V7.383a4.459,4.459,0,0,0-4.455-4.453H152.843a4.458,4.458,0,0,0-4.453,4.453V26.006a1.465,1.465,0,0,1-2.93,0V7.383A7.391,7.391,0,0,1,152.843,0Z" transform="translate(-145.46 0)"/>
    <path id="Path_166876" data-name="Path 166876" d="M288.351,35.255a1.465,1.465,0,0,1,0-2.93H292.3a1.465,1.465,0,0,1,0,2.93Z" transform="translate(-259.265 -26.012)"/>
    <path id="Path_166877" data-name="Path 166877" d="M298.581,191.85a1.465,1.465,0,0,1-1.465-1.465V180.055a1.465,1.465,0,0,1,2.93,0v10.331A1.465,1.465,0,0,1,298.581,191.85Z" transform="translate(-267.547 -143.709)"/>
  </g>
</svg>
