<svg xmlns="http://www.w3.org/2000/svg" width="63.086" height="100" viewBox="0 0 63.086 100">
  <g id="t4-ic8" transform="translate(-94.5)">
    <g id="Group_109310" data-name="Group 109310" transform="translate(95.965 1.465)">
      <path id="Path_167168" data-name="Path 167168" d="M162.156,97.246a7.324,7.324,0,0,1-7.324,7.324H109.324A7.324,7.324,0,0,1,102,97.246V14.824A7.324,7.324,0,0,1,109.324,7.5h45.508a7.324,7.324,0,0,1,7.324,7.324Z" transform="translate(-102 -7.5)" fill="#f8f7f7"/>
      <path id="Path_167169" data-name="Path 167169" d="M161.361,103.825a7.322,7.322,0,0,1-6.529,4H109.324A7.324,7.324,0,0,1,102,100.505V18.083a7.321,7.321,0,0,1,4.012-6.533V98.943a4.882,4.882,0,0,0,4.883,4.883Z" transform="translate(-102 -10.759)" fill="#e8e8e8"/>
      <path id="Path_167170" data-name="Path 167170" d="M183.789,75.43V96.719l-22.741.976L137.5,96.719l.2-21.094a2.959,2.959,0,0,1,2.539-3.119q.1-.006.2-.006h40.43A2.931,2.931,0,0,1,183.789,75.43Z" transform="translate(-130.566 -59.805)" fill="#ffd947"/>
      <path id="Path_167171" data-name="Path 167171" d="M141.95,322.175a.328.328,0,0,0,.447,0,2.5,2.5,0,0,1,1.718-.671,2.455,2.455,0,0,1,2.451,2.463c-.034,2.4-3.486,4.329-4.247,4.726a.328.328,0,0,1-.3,0c-.774-.382-4.295-2.256-4.245-4.729a2.539,2.539,0,0,1,2.466-2.463A2.452,2.452,0,0,1,141.95,322.175Z" transform="translate(-130.789 -260.173)" fill="#ffd947"/>
      <path id="Path_167172" data-name="Path 167172" d="M213.5,323.453v3.32a1.953,1.953,0,0,0,1.953,1.953H220.8a3.207,3.207,0,0,1,1.969.676l1.071.833a.977.977,0,0,0,1.576-.771v-6.011a1.953,1.953,0,0,0-1.953-1.953h-8.008a1.953,1.953,0,0,0-1.953,1.953Z" transform="translate(-191.723 -260.172)" fill="#d6ccf2"/>
      <path id="Path_167173" data-name="Path 167173" d="M219.707,146.293a12.308,12.308,0,0,0-10.351-12.15,12.634,12.634,0,0,0-1.954.045,11.81,11.81,0,0,0-11.917,12.105l12.222.976Z" transform="translate(-177.227 -109.379)" fill="#d3effb"/>
      <path id="Path_167174" data-name="Path 167174" d="M207.758,133.656A12.3,12.3,0,0,0,197.406,145.8l-1.941.535L193.5,145.8a12.306,12.306,0,0,1,12.3-12.3A12.164,12.164,0,0,1,207.758,133.656Z" transform="translate(-175.629 -108.891)" fill="#b1e4f9"/>
      <path id="Path_167175" data-name="Path 167175" d="M184.594,196.5v14.648c0,.066,0,.131-.006.2a2.959,2.959,0,0,1-3.119,2.539H141.43a2.931,2.931,0,0,1-2.93-2.93V196.5Z" transform="translate(-131.371 -159.586)" fill="#80c0ff"/>
      <path id="Path_167176" data-name="Path 167176" d="M140.234,72.54V96.751l-1.367.632-1.367-.632V75.462A2.929,2.929,0,0,1,140.234,72.54Z" transform="translate(-130.566 -59.837)" fill="#ffb814"/>
      <path id="Path_167177" data-name="Path 167177" d="M183.781,211.344a2.929,2.929,0,0,1-2.922,2.734H140.43a2.93,2.93,0,0,1-2.93-2.93V196.5h2.734v13.477a1.367,1.367,0,0,0,1.367,1.367Z" transform="translate(-130.566 -159.586)" fill="#0077ec"/>
    </g>
    <g id="Group_109311" data-name="Group 109311" transform="translate(94.5)">
      <path id="Path_167178" data-name="Path 167178" d="M156.121,158.534A1.465,1.465,0,0,0,154.656,160v24.975a5.866,5.866,0,0,1-5.859,5.859H103.289a5.866,5.866,0,0,1-5.859-5.859V117.986a1.465,1.465,0,0,0-2.93,0v66.988a8.8,8.8,0,0,0,8.789,8.789H148.8a8.8,8.8,0,0,0,8.789-8.789V160A1.465,1.465,0,0,0,156.121,158.534Z" transform="translate(-94.5 -93.763)"/>
      <path id="Path_167179" data-name="Path 167179" d="M148.8,0H103.289A8.8,8.8,0,0,0,94.5,8.789v8.565a1.465,1.465,0,0,0,2.93,0V8.789a5.866,5.866,0,0,1,5.859-5.859H148.8a5.866,5.866,0,0,1,5.859,5.859v50.59a1.465,1.465,0,1,0,2.93,0V8.789A8.8,8.8,0,0,0,148.8,0Z" transform="translate(-94.5)"/>
      <path id="Path_167180" data-name="Path 167180" d="M222.73,32.93a1.465,1.465,0,0,0,0-2.93h-9.766a1.465,1.465,0,0,0,0,2.93Z" transform="translate(-188.648 -24.141)"/>
      <path id="Path_167181" data-name="Path 167181" d="M130,69.395v35.938a4.4,4.4,0,0,0,4.395,4.395h40.43a4.4,4.4,0,0,0,4.395-4.395V69.395A4.4,4.4,0,0,0,174.824,65h-7.511a1.465,1.465,0,0,0,0,2.93h7.511a1.466,1.466,0,0,1,1.465,1.465V89.219H168.4a13.769,13.769,0,0,0-27.382,0H132.93V69.395a1.466,1.466,0,0,1,1.465-1.465h26.078a1.465,1.465,0,0,0,0-2.93H134.395A4.4,4.4,0,0,0,130,69.395Zm24.707,10.449a10.854,10.854,0,0,1,10.738,9.375H143.969A10.854,10.854,0,0,1,154.707,79.844Zm21.582,12.3v13.184a1.466,1.466,0,0,1-1.465,1.465h-40.43a1.466,1.466,0,0,1-1.465-1.465V92.148Z" transform="translate(-123.066 -52.305)"/>
      <path id="Path_167182" data-name="Path 167182" d="M140.877,315.179A3.906,3.906,0,0,0,138.084,314h-.012a3.966,3.966,0,0,0-1.932.5,3.942,3.942,0,0,0-5.862,3.4c-.066,3.285,3.857,5.478,5.061,6.072a1.8,1.8,0,0,0,1.622-.018c1.5-.781,4.991-2.93,5.035-6A3.85,3.85,0,0,0,140.877,315.179Zm-4.759,5.893c-1.534-.861-2.932-2.122-2.912-3.113a1.082,1.082,0,0,1,1.012-1.028h.007a.994.994,0,0,1,.684.275,1.8,1.8,0,0,0,2.451,0,1.039,1.039,0,0,1,.711-.278,1.024,1.024,0,0,1,.994.978C139.052,318.887,137.644,320.176,136.118,321.072Z" transform="translate(-123.289 -252.673)"/>
      <path id="Path_167183" data-name="Path 167183" d="M312.137,333H298.465a1.465,1.465,0,0,0,0,2.93h13.672a1.465,1.465,0,0,0,0-2.93Z" transform="translate(-257.449 -267.961)"/>
      <path id="Path_167184" data-name="Path 167184" d="M131.465,389.93h3.711a1.465,1.465,0,0,0,0-2.93h-3.711a1.465,1.465,0,0,0,0,2.93Z" transform="translate(-123.066 -311.414)"/>
      <path id="Path_167185" data-name="Path 167185" d="M180.465,389.93h13.477a1.465,1.465,0,0,0,0-2.93H180.465a1.465,1.465,0,0,0,0,2.93Z" transform="translate(-162.496 -311.414)"/>
      <path id="Path_167186" data-name="Path 167186" d="M341.993,417h-6.3a1.465,1.465,0,0,0,0,2.93h6.3a1.465,1.465,0,0,0,0-2.93Z" transform="translate(-287.403 -335.555)"/>
      <path id="Path_167187" data-name="Path 167187" d="M245.157,417H230.465a1.465,1.465,0,0,0,0,2.93h14.692a1.465,1.465,0,1,0,0-2.93Z" transform="translate(-202.73 -335.555)"/>
      <path id="Path_167188" data-name="Path 167188" d="M131.465,419.93h13.477a1.465,1.465,0,0,0,0-2.93H131.465a1.465,1.465,0,0,0,0,2.93Z" transform="translate(-123.066 -335.555)"/>
      <path id="Path_167189" data-name="Path 167189" d="M218.454,449.93h16.994a1.465,1.465,0,0,0,0-2.93H218.454a1.465,1.465,0,0,0,0,2.93Z" transform="translate(-193.065 -359.695)"/>
      <path id="Path_167190" data-name="Path 167190" d="M131.465,449.93h10.167a1.465,1.465,0,0,0,0-2.93H131.465a1.465,1.465,0,0,0,0,2.93Z" transform="translate(-123.066 -359.695)"/>
      <path id="Path_167191" data-name="Path 167191" d="M214.763,324.156a1.751,1.751,0,0,1,1.07.367l1.071.833a2.442,2.442,0,0,0,3.94-1.927v-6.011A3.422,3.422,0,0,0,217.426,314h-8.008A3.422,3.422,0,0,0,206,317.418v3.32a3.422,3.422,0,0,0,3.418,3.418Zm-5.833-3.418v-3.32a.489.489,0,0,1,.488-.488h8.008a.489.489,0,0,1,.488.488v5.013l-.283-.22a4.694,4.694,0,0,0-2.869-.984h-5.345A.489.489,0,0,1,208.93,320.738Z" transform="translate(-184.223 -252.672)"/>
      <path id="Path_167192" data-name="Path 167192" d="M212.465,221.93h14.844a1.465,1.465,0,0,0,0-2.93H212.465a1.465,1.465,0,0,0,0,2.93Z" transform="translate(-188.246 -176.227)"/>
      <path id="Path_167193" data-name="Path 167193" d="M236.145,249h-9.18a1.465,1.465,0,0,0,0,2.93h9.18a1.465,1.465,0,0,0,0-2.93Z" transform="translate(-199.914 -200.367)"/>
      <circle id="Ellipse_5196" data-name="Ellipse 5196" cx="1.392" cy="1.392" r="1.392" transform="translate(37.573 5.835)"/>
    </g>
  </g>
</svg>
