<svg xmlns="http://www.w3.org/2000/svg" width="79.481" height="100" viewBox="0 0 79.481 100">
  <g id="t4-ic10" transform="translate(-52.53)">
    <g id="Group_109180" data-name="Group 109180" transform="translate(53.996 1.465)">
      <path id="Path_166962" data-name="Path 166962" d="M104.227,102.991,120.8,93.423a31.567,31.567,0,0,0,15.784-27.338V25.245a3.958,3.958,0,0,0-3.744-3.959c-17.759-.9-27.4-8.137-31.708-12.59a3.934,3.934,0,0,0-5.646,0c-4.305,4.453-13.949,11.685-31.708,12.59a3.958,3.958,0,0,0-3.744,3.959V66.085A31.566,31.566,0,0,0,75.818,93.423l16.572,9.567A11.837,11.837,0,0,0,104.227,102.991Z" transform="translate(-60.034 -7.501)" fill="#80c0ff"/>
    </g>
    <g id="Group_109181" data-name="Group 109181" transform="translate(59.91 42.233)">
      <path id="Path_166963" data-name="Path 166963" d="M111.232,256.948a50.518,50.518,0,0,1-20.918-4.5,31.54,31.54,0,0,0,9.87,8.943l16.572,9.567a11.837,11.837,0,0,0,11.837,0l16.572-9.567a31.566,31.566,0,0,0,15.784-27.338V216.235A50.72,50.72,0,0,1,111.232,256.948Z" transform="translate(-90.314 -216.235)" fill="#0077ec"/>
    </g>
    <g id="Group_109182" data-name="Group 109182" transform="translate(61.887 11.385)">
      <path id="Path_166964" data-name="Path 166964" d="M130.823,137.556a3.952,3.952,0,0,1-1.973-.529l-16.572-9.567a23.741,23.741,0,0,1-11.838-20.5V71.515a1.97,1.97,0,0,1,1.719-1.956c13.153-1.655,22-6.546,27.446-10.844a1.966,1.966,0,0,1,2.436,0c5.449,4.3,14.292,9.189,27.446,10.844a1.97,1.97,0,0,1,1.719,1.956v35.441a23.741,23.741,0,0,1-11.838,20.5L132.8,137.028a3.956,3.956,0,0,1-1.973.528Z" transform="translate(-100.44 -58.293)" fill="#ffd947"/>
    </g>
    <g id="Group_109183" data-name="Group 109183" transform="translate(67.959 40.245)">
      <path id="Path_166965" data-name="Path 166965" d="M137.685,242.048a51.192,51.192,0,0,1-6.161-.373,23.566,23.566,0,0,0,5.767,4.687l16.572,9.567a3.946,3.946,0,0,0,3.946,0l16.572-9.567a23.741,23.741,0,0,0,11.838-20.5v-19.8a50.723,50.723,0,0,1-48.533,35.994Z" transform="translate(-131.524 -206.054)" fill="#ffb814"/>
    </g>
    <g id="Group_109184" data-name="Group 109184" transform="translate(77.276 21.392)">
      <path id="Path_166966" data-name="Path 166966" d="M209.218,136.752h-6.313V124.52a8.681,8.681,0,0,0-17.362,0v3.946H179.23V124.52a14.994,14.994,0,1,1,29.988,0Z" transform="translate(-179.23 -109.526)" fill="#f4fbff"/>
    </g>
    <g id="Group_109185" data-name="Group 109185" transform="translate(100.951 43.883)">
      <path id="Path_166967" data-name="Path 166967" d="M300.446,224.68h6.313v4.735h-6.313Z" transform="translate(-300.446 -224.68)" fill="#ddeafb"/>
    </g>
    <g id="Group_109186" data-name="Group 109186" transform="translate(74.514 48.618)">
      <path id="Path_166968" data-name="Path 166968" d="M198.628,274.572H167.061a1.973,1.973,0,0,1-1.973-1.973V250.9a1.973,1.973,0,0,1,1.973-1.973h31.567A1.973,1.973,0,0,1,200.6,250.9v21.7A1.973,1.973,0,0,1,198.628,274.572Z" transform="translate(-165.088 -248.924)" fill="#d3effb"/>
    </g>
    <g id="Group_109187" data-name="Group 109187" transform="translate(103.713 48.618)">
      <path id="Path_166969" data-name="Path 166969" d="M318.928,248.924h-4.34a1.973,1.973,0,0,1,1.973,1.973v21.7a1.973,1.973,0,0,1-1.973,1.973h4.34A1.973,1.973,0,0,0,320.9,272.6V250.9A1.973,1.973,0,0,0,318.928,248.924Z" transform="translate(-314.588 -248.924)" fill="#b1e4f9"/>
    </g>
    <g id="Group_109189" data-name="Group 109189" transform="translate(88.916 54.931)">
      <g id="Group_109188" data-name="Group 109188" transform="translate(0)">
        <circle id="Ellipse_5185" data-name="Ellipse 5185" cx="3.354" cy="3.354" r="3.354" fill="#ffd947"/>
      </g>
    </g>
    <g id="Group_109190" data-name="Group 109190" transform="translate(52.53 0)">
      <path id="Path_166970" data-name="Path 166970" d="M130.546,30.834a1.465,1.465,0,0,0,1.465-1.465V19.208a5.418,5.418,0,0,0-5.135-5.422C109.5,12.9,100.165,5.8,96.146,1.64a5.4,5.4,0,0,0-7.751,0C84.375,5.8,75.038,12.9,57.664,13.786a5.418,5.418,0,0,0-5.134,5.422v40.84A33.127,33.127,0,0,0,69.046,88.656l16.573,9.567a13.334,13.334,0,0,0,13.3,0l16.573-9.567a33.126,33.126,0,0,0,16.516-28.608V36.205a1.465,1.465,0,0,0-2.93,0V60.048a30.188,30.188,0,0,1-15.051,26.07L97.456,95.686a10.4,10.4,0,0,1-10.372,0L70.511,86.119A30.189,30.189,0,0,1,55.46,60.048V19.208a2.489,2.489,0,0,1,2.354-2.5C76.191,15.776,86.181,8.144,90.5,3.677a2.468,2.468,0,0,1,3.539,0c4.32,4.466,14.31,12.1,32.687,13.035a2.489,2.489,0,0,1,2.354,2.5V29.369a1.465,1.465,0,0,0,1.465,1.465Z" transform="translate(-52.53 0)"/>
      <path id="Path_166971" data-name="Path 166971" d="M94.408,90.638A1.465,1.465,0,0,0,92.943,92.1v8.8a25.215,25.215,0,0,0,12.569,21.774l16.574,9.567a5.405,5.405,0,0,0,5.41,0l16.573-9.567A25.216,25.216,0,0,0,156.638,100.9V65.463a3.437,3.437,0,0,0-3-3.409c-13.139-1.653-21.782-6.644-26.72-10.54a3.42,3.42,0,0,0-4.253,0c-4.938,3.9-13.581,8.888-26.719,10.541a3.437,3.437,0,0,0-3,3.409v19.8a1.465,1.465,0,0,0,2.93,0v-19.8a.5.5,0,0,1,.437-.5c13.808-1.737,22.94-7.021,28.17-11.148a.5.5,0,0,1,.622,0c5.229,4.127,14.362,9.411,28.171,11.148a.5.5,0,0,1,.436.5V100.9a22.277,22.277,0,0,1-11.1,19.236l-16.573,9.567a2.517,2.517,0,0,1-2.481,0l-16.573-9.567a22.277,22.277,0,0,1-11.1-19.236V92.1a1.465,1.465,0,0,0-1.465-1.465Z" transform="translate(-85.05 -40.856)"/>
      <path id="Path_166972" data-name="Path 166972" d="M161.024,129.252a3.441,3.441,0,0,0-3.438,3.438v21.7a3.442,3.442,0,0,0,3.438,3.438h31.568a3.442,3.442,0,0,0,3.438-3.438V143.8a1.465,1.465,0,1,0-2.93,0v10.59a.508.508,0,0,1-.508.508H161.024a.509.509,0,0,1-.508-.508v-21.7a.508.508,0,0,1,.508-.508h31.568a.508.508,0,0,1,.508.508v4.276a1.465,1.465,0,0,0,2.93,0V132.69a3.443,3.443,0,0,0-2.763-3.37V118.485a16.459,16.459,0,0,0-32.918,0v3.946a1.465,1.465,0,0,0,1.465,1.465h6.313a1.465,1.465,0,0,0,1.465-1.465v-3.946a7.216,7.216,0,1,1,14.432,0v10.767h-23Zm15.784-20.913a10.157,10.157,0,0,0-10.146,10.146v2.481h-3.384v-2.481a13.529,13.529,0,0,1,27.059,0v10.767h-3.384V118.485a10.157,10.157,0,0,0-10.146-10.146Z" transform="translate(-137.067 -82.099)"/>
      <path id="Path_166973" data-name="Path 166973" d="M236.146,289.7a1.465,1.465,0,0,0,1.465-1.465v-5.077a4.819,4.819,0,1,0-2.93,0v5.077A1.465,1.465,0,0,0,236.146,289.7Zm0-13.021a1.889,1.889,0,1,1-1.889,1.889A1.891,1.891,0,0,1,236.146,276.678Z" transform="translate(-196.406 -220.281)"/>
    </g>
  </g>
</svg>
