<svg id="t4-ic9" xmlns="http://www.w3.org/2000/svg" width="100" height="100" viewBox="0 0 100 100">
  <g id="Group_109309" data-name="Group 109309">
    <g id="filled_outline_25_">
      <path id="Path_167156" data-name="Path 167156" d="M112.742,206.9H46.076a6.667,6.667,0,0,0-6.667,6.667v56.667h80V213.568A6.667,6.667,0,0,0,112.742,206.9Z" transform="translate(-32.742 -171.901)" fill="#80c0ff"/>
      <path id="Path_167157" data-name="Path 167157" d="M145.486,299.644v-50a3.332,3.332,0,0,0-3.333-3.333h-60a3.332,3.332,0,0,0-3.333,3.333v50Z" transform="translate(-65.486 -204.644)" fill="#d3effb"/>
      <path id="Path_167158" data-name="Path 167158" d="M178.229,299.644v-50a3.332,3.332,0,0,0-3.333-3.333h-3.333l-53.333,53.333Z" transform="translate(-98.229 -204.644)" fill="#b1e4f9"/>
      <rect id="Rectangle_36284" data-name="Rectangle 36284" width="46.667" height="13.333" transform="translate(23.333 61.667)" fill="#ffd947"/>
      <rect id="Rectangle_36285" data-name="Rectangle 36285" width="3.333" height="3.333" transform="translate(28.333 66.666)" fill="#126099"/>
      <rect id="Rectangle_36286" data-name="Rectangle 36286" width="3.333" height="3.333" transform="translate(35 66.666)" fill="#126099"/>
      <rect id="Rectangle_36287" data-name="Rectangle 36287" width="3.333" height="3.333" transform="translate(41.667 66.666)" fill="#126099"/>
      <rect id="Rectangle_36288" data-name="Rectangle 36288" width="3.333" height="3.333" transform="translate(48.333 66.666)" fill="#126099"/>
      <path id="Path_167159" data-name="Path 167159" d="M309.364,157.639h38.79a3.938,3.938,0,0,1,3.938,3.938v20.457a3.938,3.938,0,0,1-3.938,3.938h-38.79a3.938,3.938,0,0,1-3.938-3.938V161.577A3.938,3.938,0,0,1,309.364,157.639Z" transform="translate(-253.759 -130.972)" fill="#ffd947"/>
      <path id="Path_167160" data-name="Path 167160" d="M353.315,9.852a18.334,18.334,0,0,0-18.333,18.333v6.667h6.667V28.185a11.667,11.667,0,0,1,23.333,0v6.667h6.667V28.185A18.334,18.334,0,0,0,353.315,9.852Z" transform="translate(-278.316 -8.185)" fill="#dadddf"/>
      <rect id="Rectangle_36289" data-name="Rectangle 36289" width="3.333" height="3.333" transform="translate(30 26.667)" fill="#87ced9"/>
      <rect id="Rectangle_36290" data-name="Rectangle 36290" width="3.333" height="3.333" transform="translate(30 20)" fill="#87ced9"/>
      <rect id="Rectangle_36291" data-name="Rectangle 36291" width="3.333" height="3.333" transform="translate(30 13.333)" fill="#87ced9"/>
      <rect id="Rectangle_36292" data-name="Rectangle 36292" width="3.333" height="3.333" transform="translate(30 6.667)" fill="#87ced9"/>
      <rect id="Rectangle_36293" data-name="Rectangle 36293" width="3.333" height="3.333" transform="translate(36.667 6.667)" fill="#87ced9"/>
      <rect id="Rectangle_36294" data-name="Rectangle 36294" width="3.333" height="3.333" transform="translate(43.333 6.667)" fill="#87ced9"/>
      <rect id="Rectangle_36295" data-name="Rectangle 36295" width="3.333" height="3.333" transform="translate(50 6.667)" fill="#87ced9"/>
      <path id="Path_167161" data-name="Path 167161" d="M94.853,532.179h-80a5,5,0,0,1-5-5h0v-5h35a3.014,3.014,0,0,1,2.7,1.667h0a3.014,3.014,0,0,0,2.7,1.667h9.607a3.014,3.014,0,0,0,2.7-1.667h0a3.014,3.014,0,0,1,2.7-1.667H99.853v5a5,5,0,0,1-5,5Z" transform="translate(-8.186 -433.846)" fill="#d2e1f1"/>
      <path id="Path_167162" data-name="Path 167162" d="M357.842,159.018c-11.3,16.833-29.76,24.217-42.308,27.407a3.924,3.924,0,0,0,2.228.693h38.79a3.938,3.938,0,0,0,3.938-3.938V162.723A3.927,3.927,0,0,0,357.842,159.018Z" transform="translate(-262.157 -132.118)" fill="#ffb814"/>
      <path id="Path_167163" data-name="Path 167163" d="M430.321,220.012a3.333,3.333,0,1,0-5,2.872v5.462h3.333v-5.462A3.322,3.322,0,0,0,430.321,220.012Z" transform="translate(-351.987 -180.012)" fill="#0077ec"/>
      <rect id="Rectangle_36296" data-name="Rectangle 36296" width="6.667" height="3.333" transform="translate(56.667 23.333)" fill="#c7cacc"/>
      <rect id="Rectangle_36297" data-name="Rectangle 36297" width="6.667" height="3.333" transform="translate(86.666 23.333)" fill="#c7cacc"/>
      <rect id="Rectangle_36298" data-name="Rectangle 36298" width="46.667" height="3.333" transform="translate(23.333 61.667)" fill="#ffb814"/>
      <path id="Path_167164" data-name="Path 167164" d="M6.667,263.716h80a6.667,6.667,0,0,0,6.667-6.667v-5a1.667,1.667,0,0,0-1.667-1.667H88.333V223.716H85v26.667H81.667V223.716H78.333v26.667H57.06a4.655,4.655,0,0,0-4.187,2.588,1.334,1.334,0,0,1-1.207.745H42.06a1.333,1.333,0,0,1-1.2-.745,4.657,4.657,0,0,0-4.188-2.588H15V208.716a1.667,1.667,0,0,1,1.667-1.667h30v-3.333h-30a5,5,0,0,0-5,5v41.667H8.333v-45a5,5,0,0,1,5-5H46.667v-3.333H13.333A8.343,8.343,0,0,0,5,205.382v45H1.667A1.667,1.667,0,0,0,0,252.049v5A6.667,6.667,0,0,0,6.667,263.716Zm-3.333-10H36.667a1.344,1.344,0,0,1,1.207.743,4.651,4.651,0,0,0,4.187,2.59h9.607a4.654,4.654,0,0,0,4.188-2.59,1.333,1.333,0,0,1,1.2-.743H90v3.333a3.332,3.332,0,0,1-3.333,3.333h-80a3.332,3.332,0,0,1-3.333-3.333Z" transform="translate(0 -163.716)"/>
      <path id="Path_167165" data-name="Path 167165" d="M128.082,356.355v13.333a1.667,1.667,0,0,0,1.667,1.667h46.667a1.667,1.667,0,0,0,1.667-1.667V356.355a1.667,1.667,0,0,0-1.667-1.667H129.749A1.667,1.667,0,0,0,128.082,356.355Zm3.333,1.667h43.333v10H131.415Z" transform="translate(-106.415 -294.688)"/>
      <rect id="Rectangle_36299" data-name="Rectangle 36299" width="3.333" height="3.333" transform="translate(28.333 66.666)"/>
      <rect id="Rectangle_36300" data-name="Rectangle 36300" width="3.333" height="3.333" transform="translate(35 66.666)"/>
      <rect id="Rectangle_36301" data-name="Rectangle 36301" width="3.333" height="3.333" transform="translate(41.667 66.666)"/>
      <rect id="Rectangle_36302" data-name="Rectangle 36302" width="3.333" height="3.333" transform="translate(48.333 66.666)"/>
      <path id="Path_167166" data-name="Path 167166" d="M340.573,25.062V20a20,20,0,0,0-40,0v5.062a5.592,5.592,0,0,0-5,5.542v20.46a5.611,5.611,0,0,0,5.605,5.6h38.79a5.611,5.611,0,0,0,5.6-5.6V30.6A5.592,5.592,0,0,0,340.573,25.062ZM303.906,20a16.667,16.667,0,1,1,33.333,0v5h-3.333V20a13.333,13.333,0,0,0-26.666,0v5h-3.333Zm6.667,5V20a10,10,0,1,1,20,0v5ZM342.24,51.063a2.274,2.274,0,0,1-2.272,2.27h-38.79a2.274,2.274,0,0,1-2.272-2.27V30.6a2.274,2.274,0,0,1,2.272-2.27h38.79a2.274,2.274,0,0,1,2.272,2.27v20.46Z" transform="translate(-245.573)"/>
      <path id="Path_167167" data-name="Path 167167" d="M418.81,206.9a4.988,4.988,0,0,0-1.667,9.693v3.64h3.333v-3.64a4.988,4.988,0,0,0-1.667-9.693Zm0,6.667a1.667,1.667,0,1,1,1.667-1.667A1.667,1.667,0,0,1,418.81,213.568Z" transform="translate(-343.81 -171.901)"/>
      <rect id="Rectangle_36303" data-name="Rectangle 36303" width="3.333" height="3.333" transform="translate(30 26.667)"/>
      <rect id="Rectangle_36304" data-name="Rectangle 36304" width="3.333" height="3.333" transform="translate(30 20)"/>
      <rect id="Rectangle_36305" data-name="Rectangle 36305" width="3.333" height="3.333" transform="translate(30 13.333)"/>
      <rect id="Rectangle_36306" data-name="Rectangle 36306" width="3.333" height="3.333" transform="translate(30 6.667)"/>
      <rect id="Rectangle_36307" data-name="Rectangle 36307" width="3.333" height="3.333" transform="translate(36.667 6.667)"/>
      <rect id="Rectangle_36308" data-name="Rectangle 36308" width="3.333" height="3.333" transform="translate(43.333 6.667)"/>
      <rect id="Rectangle_36309" data-name="Rectangle 36309" width="3.333" height="3.333" transform="translate(50 6.667)"/>
    </g>
  </g>
</svg>
