<svg id="t4-ic7" xmlns="http://www.w3.org/2000/svg" width="82.632" height="85.498" viewBox="0 0 82.632 85.498">
  <g id="Group_109178" data-name="Group 109178">
    <g id="Group_109176" data-name="Group 109176">
      <g id="Group_109175" data-name="Group 109175">
        <path id="Path_166935" data-name="Path 166935" d="M90.943,90.493H26.332a1.67,1.67,0,0,1-1.67-1.67V10.84A3.34,3.34,0,0,1,28,7.5H89.273a3.34,3.34,0,0,1,3.34,3.34V88.823A1.67,1.67,0,0,1,90.943,90.493Z" transform="translate(-20.544 -6.248)" fill="#ffd947"/>
        <path id="Path_166936" data-name="Path 166936" d="M131.693,51.655l2.537-3.794a1.675,1.675,0,0,1,1.389-.741h8.737a1.669,1.669,0,0,1,1.388.741l2.537,3.794Z" transform="translate(-109.702 -39.252)" fill="#90bac4"/>
        <path id="Path_166937" data-name="Path 166937" d="M382.808,10.84V88.823a1.67,1.67,0,0,1-1.67,1.67h-4.768V10.84a3.339,3.339,0,0,0-3.34-3.34h6.437A3.34,3.34,0,0,1,382.808,10.84Z" transform="translate(-310.739 -6.248)" fill="#ffb814"/>
        <path id="Path_166938" data-name="Path 166938" d="M92.612,51.655v70.172a1.67,1.67,0,0,1-1.67,1.67H26.331a1.67,1.67,0,0,1-1.67-1.67V51.655h4.8L32,47.861a1.675,1.675,0,0,1,1.389-.741h8.737a1.669,1.669,0,0,1,1.388.741l2.537,3.794Z" transform="translate(-20.543 -39.252)" fill="#eef4f5"/>
        <path id="Path_166939" data-name="Path 166939" d="M246.9,244.268l-3.325,2.4a17.725,17.725,0,0,0-3.679-1.521l-.656-4.048a2.138,2.138,0,0,0-2.111-1.8h-4.367a2.136,2.136,0,0,0-2.109,1.8l-.656,4.048a17.815,17.815,0,0,0-3.68,1.521l-3.323-2.4a2.139,2.139,0,0,0-2.762.224l-3.088,3.088a2.138,2.138,0,0,0-.222,2.762l2.4,3.325a17.715,17.715,0,0,0-1.523,3.677l-4.046.656a2.138,2.138,0,0,0-1.8,2.109v4.368a2.138,2.138,0,0,0,1.8,2.111l4.046.655a17.693,17.693,0,0,0,1.523,3.679l-2.4,3.326a2.138,2.138,0,0,0,.222,2.762l3.088,3.088a2.136,2.136,0,0,0,2.76.222l3.325-2.4a17.813,17.813,0,0,0,3.68,1.521l.656,4.048a.917.917,0,0,0,.018.093h8.55c.007-.032.013-.062.018-.093l.656-4.048a17.724,17.724,0,0,0,3.679-1.521l3.325,2.4a2.139,2.139,0,0,0,1.73.349V243.921a2.132,2.132,0,0,0-1.73.347ZM234.944,272a9.708,9.708,0,1,1,9.709-9.709A9.706,9.706,0,0,1,234.944,272Z" transform="translate(-176.558 -199.34)" fill="#cbe5e7"/>
        <path id="Path_166940" data-name="Path 166940" d="M399.468,74.28v70.172a1.67,1.67,0,0,1-1.67,1.67h-4.768V74.28Z" transform="translate(-327.399 -61.876)" fill="#cbe5e7"/>
        <g id="Group_109174" data-name="Group 109174">
          <g id="Group_109173" data-name="Group 109173">
            <g id="Group_109172" data-name="Group 109172">
              <path id="Path_166941" data-name="Path 166941" fill="#fb33a8"/>
            </g>
          </g>
        </g>
      </g>
    </g>
    <g id="Group_109177" data-name="Group 109177" transform="translate(35.393 34.103)">
      <path id="Path_166942" data-name="Path 166942" d="M257.937,229.4v-4.368a2.137,2.137,0,0,0-1.8-2.11l-4.048-.656a17.726,17.726,0,0,0-1.522-3.678l2.4-3.325a2.137,2.137,0,0,0-.223-2.76l-3.088-3.09a2.137,2.137,0,0,0-2.761-.223l-3.325,2.4a17.659,17.659,0,0,0-3.678-1.522l-.657-4.048a2.137,2.137,0,0,0-2.11-1.794h-4.367a2.137,2.137,0,0,0-2.11,1.8l-.656,4.048a17.685,17.685,0,0,0-3.68,1.522l-3.325-2.4a2.137,2.137,0,0,0-2.761.223L217.14,212.5a2.137,2.137,0,0,0-.222,2.76l2.4,3.325a17.735,17.735,0,0,0-1.524,3.678l-4.046.656a2.137,2.137,0,0,0-1.8,2.11V229.4a2.137,2.137,0,0,0,1.8,2.11l4.046.656a17.735,17.735,0,0,0,1.524,3.678l-2.4,3.327a2.137,2.137,0,0,0,.223,2.76l3.088,3.088a2.137,2.137,0,0,0,2.761.222l3.325-2.4a17.678,17.678,0,0,0,3.68,1.522l.656,4.048a2.137,2.137,0,0,0,2.11,1.8h4.367a2.137,2.137,0,0,0,2.11-1.794l.657-4.048a17.658,17.658,0,0,0,3.678-1.522l3.325,2.4a2.137,2.137,0,0,0,2.761-.222l3.088-3.088a2.137,2.137,0,0,0,.223-2.76l-2.4-3.327a17.732,17.732,0,0,0,1.522-3.678l4.048-.656a2.138,2.138,0,0,0,1.8-2.11Zm-22.993,7.524a9.708,9.708,0,1,1,9.708-9.708A9.707,9.707,0,0,1,234.943,236.924Z" transform="translate(-211.95 -204.223)" fill="#ffd947"/>
      <path id="Path_166943" data-name="Path 166943" d="M424.807,247.8v4.368a2.14,2.14,0,0,1-1.8,2.111l-4.048.655a17.777,17.777,0,0,1-1.521,3.679l2.395,3.328a2.136,2.136,0,0,1-.222,2.759l-3.089,3.089a2.136,2.136,0,0,1-2.76.222l-1.495-1.077,2.234-2.234a2.134,2.134,0,0,0,.224-2.759l-2.093-2.906a.829.829,0,0,1-.067-.864,17.582,17.582,0,0,0,1.139-2.755.829.829,0,0,1,.659-.564l3.533-.571a2.138,2.138,0,0,0,1.8-2.111V247.8a2.138,2.138,0,0,0-1.8-2.109l-3.534-.573a.829.829,0,0,1-.659-.564,17.625,17.625,0,0,0-1.139-2.754.829.829,0,0,1,.067-.865l2.092-2.9a2.138,2.138,0,0,0-.222-2.76l-2.236-2.236,1.495-1.077a2.136,2.136,0,0,1,2.76.224l3.089,3.089a2.138,2.138,0,0,1,.222,2.76l-2.395,3.325a17.8,17.8,0,0,1,1.521,3.677l4.048.656A2.14,2.14,0,0,1,424.807,247.8Z" transform="translate(-378.82 -226.991)" fill="#ffd947" style="mix-blend-mode: multiply;isolation: isolate"/>
    </g>
    <path id="Path_166944" data-name="Path 166944" d="M80.391,135.621H69.217a1.67,1.67,0,0,1-1.67-1.67v-22.32a1.67,1.67,0,0,1,1.67-1.67H80.391a1.67,1.67,0,0,1,1.67,1.67v22.32A1.67,1.67,0,0,1,80.391,135.621Z" transform="translate(-56.267 -91.599)" fill="#0077ec"/>
    <path id="Path_166945" data-name="Path 166945" d="M121.982,111.63v22.321a1.67,1.67,0,0,1-1.67,1.67h-4.841a1.67,1.67,0,0,0,1.67-1.67V111.63a1.67,1.67,0,0,0-1.67-1.67h4.841A1.67,1.67,0,0,1,121.982,111.63Z" transform="translate(-96.189 -91.598)" fill="#0077ec" style="mix-blend-mode: multiply;isolation: isolate"/>
  </g>
  <g id="Group_109179" data-name="Group 109179" transform="translate(2.866)">
    <path id="Path_166946" data-name="Path 166946" d="M61.147,297.179H75.686a1.252,1.252,0,0,0,0-2.5H61.147a1.252,1.252,0,1,0,0,2.5Z" transform="translate(-52.759 -245.467)"/>
    <path id="Path_166947" data-name="Path 166947" d="M61.147,344.893H75.686a1.252,1.252,0,1,0,0-2.5H61.147a1.252,1.252,0,1,0,0,2.5Z" transform="translate(-52.759 -285.213)"/>
    <path id="Path_166948" data-name="Path 166948" d="M61.147,372H75.686a1.252,1.252,0,0,0,0-2.5H61.147a1.252,1.252,0,1,0,0,2.5Z" transform="translate(-52.759 -307.793)"/>
    <path id="Path_166949" data-name="Path 166949" d="M61.147,399.107H75.686a1.252,1.252,0,0,0,0-2.5H61.147a1.252,1.252,0,1,0,0,2.5Z" transform="translate(-52.759 -330.374)"/>
    <path id="Path_166950" data-name="Path 166950" d="M62.753,445.223l-.285.285-.284-.284a1.252,1.252,0,1,0-1.771,1.771l1.17,1.17a1.252,1.252,0,0,0,1.771,0l1.17-1.17a1.252,1.252,0,0,0-1.771-1.771Z" transform="translate(-52.885 -370.57)"/>
    <path id="Path_166951" data-name="Path 166951" d="M335.874,33.381a1.252,1.252,0,0,0-1.252,1.252v.017a1.252,1.252,0,1,0,2.5,0v-.017A1.252,1.252,0,0,0,335.874,33.381Z" transform="translate(-281.61 -27.807)"/>
    <path id="Path_166952" data-name="Path 166952" d="M359.984,33.381a1.252,1.252,0,0,0-1.252,1.252v.017a1.252,1.252,0,0,0,2.5,0v-.017A1.252,1.252,0,0,0,359.984,33.381Z" transform="translate(-301.694 -27.807)"/>
    <path id="Path_166953" data-name="Path 166953" d="M384.1,33.381a1.252,1.252,0,0,0-1.252,1.252v.017a1.252,1.252,0,1,0,2.5,0v-.017A1.252,1.252,0,0,0,384.1,33.381Z" transform="translate(-321.779 -27.807)"/>
    <path id="Path_166954" data-name="Path 166954" d="M298.08,278.639a1.252,1.252,0,1,0-.71,2.4,8.456,8.456,0,1,1-4.751-.014,1.253,1.253,0,1,0-.7-2.407,10.96,10.96,0,1,0,6.157.019Z" transform="translate(-239.449 -232.053)"/>
    <path id="Path_166955" data-name="Path 166955" d="M94.081,51.566,90.8,51.034a19.011,19.011,0,0,0-1.018-2.462l1.943-2.7A3.377,3.377,0,0,0,91.37,41.5l-3.089-3.09a3.416,3.416,0,0,0-.664-.516V4.592A4.6,4.6,0,0,0,83.025,0H21.754a4.6,4.6,0,0,0-4.592,4.592V64.172a1.252,1.252,0,0,0,2.5,0V13.656h3.549a1.253,1.253,0,0,0,1.041-.556l2.537-3.794a.417.417,0,0,1,.347-.185h8.738a.417.417,0,0,1,.347.185L38.762,13.1a1.253,1.253,0,0,0,1.041.556h45.31V37.5a3.4,3.4,0,0,0-1.21.551L81.206,40a18.987,18.987,0,0,0-2.462-1.018L78.211,35.7a3.377,3.377,0,0,0-3.346-2.846H70.5A3.376,3.376,0,0,0,67.153,35.7l-.532,3.282A18.988,18.988,0,0,0,64.157,40l-2.7-1.943a3.376,3.376,0,0,0-4.379.353L53.993,41.5a3.376,3.376,0,0,0-.353,4.378l1.943,2.7a19.028,19.028,0,0,0-1.019,2.462l-3.281.532a3.376,3.376,0,0,0-2.847,3.346V59.28a3.376,3.376,0,0,0,2.847,3.346l3.281.532a19.052,19.052,0,0,0,1.019,2.463l-1.944,2.7a3.377,3.377,0,0,0,.353,4.378l3.088,3.088a3.377,3.377,0,0,0,4.379.353l2.7-1.944a18.98,18.98,0,0,0,2.464,1.018l.532,3.282A3.376,3.376,0,0,0,70.5,81.342h4.367A3.377,3.377,0,0,0,78.211,78.5l.533-3.283a18.932,18.932,0,0,0,2.462-1.018l2.7,1.944a3.4,3.4,0,0,0,1.21.551v5.888a.418.418,0,0,1-.417.417H20.084a.418.418,0,0,1-.417-.417V69.625a1.252,1.252,0,0,0-2.5,0v12.95A2.926,2.926,0,0,0,20.084,85.5H84.7a2.926,2.926,0,0,0,2.922-2.922V76.3a3.426,3.426,0,0,0,.664-.516L91.37,72.7a3.377,3.377,0,0,0,.354-4.378l-1.943-2.7A19.047,19.047,0,0,0,90.8,63.158l3.282-.532a3.376,3.376,0,0,0,2.847-3.346V54.912a3.376,3.376,0,0,0-2.847-3.346ZM39.552,9.775l.312-.467a.42.42,0,0,1,.35-.187H48.95a.416.416,0,0,1,.346.185l1.234,1.846H40.472Zm13.992,1.377L51.379,7.914a2.915,2.915,0,0,0-2.429-1.3H40.213a2.919,2.919,0,0,0-2.168.964,2.916,2.916,0,0,0-2.167-.964H27.14a2.917,2.917,0,0,0-2.429,1.3l-2.165,3.238H19.667V4.592A2.09,2.09,0,0,1,21.754,2.5H83.025a2.09,2.09,0,0,1,2.087,2.087v6.559ZM94.423,59.28a.881.881,0,0,1-.743.873l-4.048.656a1.252,1.252,0,0,0-1,.89,16.508,16.508,0,0,1-1.414,3.418,1.252,1.252,0,0,0,.08,1.338l2.4,3.327a.881.881,0,0,1-.093,1.143L86.51,74.013a.881.881,0,0,1-1.143.092l-3.325-2.4a1.253,1.253,0,0,0-1.339-.08,16.435,16.435,0,0,1-3.417,1.414,1.253,1.253,0,0,0-.89,1l-.657,4.048a.881.881,0,0,1-.873.743H70.5a.881.881,0,0,1-.873-.743l-.656-4.048a1.253,1.253,0,0,0-.89-1,16.45,16.45,0,0,1-3.419-1.414,1.253,1.253,0,0,0-1.339.08L60,74.105a.881.881,0,0,1-1.143-.092l-3.088-3.088a.881.881,0,0,1-.092-1.143l2.4-3.327a1.252,1.252,0,0,0,.079-1.34A16.528,16.528,0,0,1,56.733,61.7a1.253,1.253,0,0,0-1-.888l-4.046-.656a.881.881,0,0,1-.743-.873V54.912a.881.881,0,0,1,.743-.873l4.046-.656a1.252,1.252,0,0,0,1-.888,16.52,16.52,0,0,1,1.416-3.418,1.252,1.252,0,0,0-.079-1.34l-2.4-3.325a.881.881,0,0,1,.092-1.143l3.088-3.089A.881.881,0,0,1,60,40.087l3.325,2.4a1.254,1.254,0,0,0,1.339.08,16.463,16.463,0,0,1,3.42-1.414,1.252,1.252,0,0,0,.89-1l.656-4.047a.881.881,0,0,1,.873-.743h4.367a.881.881,0,0,1,.873.743l.657,4.048a1.253,1.253,0,0,0,.89,1A16.463,16.463,0,0,1,80.7,42.563a1.252,1.252,0,0,0,1.339-.08l3.325-2.4a.881.881,0,0,1,1.143.092L89.6,43.268a.882.882,0,0,1,.092,1.143l-2.4,3.325a1.253,1.253,0,0,0-.08,1.338,16.509,16.509,0,0,1,1.414,3.418,1.253,1.253,0,0,0,1,.89l4.047.656a.881.881,0,0,1,.743.873Z" transform="translate(-17.162)"/>
    <path id="Path_166956" data-name="Path 166956" d="M75.813,118.579a1.252,1.252,0,0,0,1.252-1.252V105.383a2.926,2.926,0,0,0-2.922-2.922H62.969a2.926,2.926,0,0,0-2.922,2.922V127.7a2.926,2.926,0,0,0,2.922,2.922H74.143a2.926,2.926,0,0,0,2.922-2.922v-4.923a1.252,1.252,0,0,0-2.5,0V127.7a.418.418,0,0,1-.417.417H62.969a.418.418,0,0,1-.417-.417v-22.32a.418.418,0,0,1,.417-.417H74.143a.418.418,0,0,1,.417.417v11.943A1.252,1.252,0,0,0,75.813,118.579Z" transform="translate(-52.886 -85.351)"/>
    <path id="Path_166957" data-name="Path 166957" d="M220.5,105.46H187.7a1.252,1.252,0,1,0,0,2.5h32.8a1.252,1.252,0,1,0,0-2.5Z" transform="translate(-158.182 -87.849)"/>
    <path id="Path_166958" data-name="Path 166958" d="M270.479,134.816H247.7a1.252,1.252,0,1,0,0,2.5h22.776a1.252,1.252,0,1,0,0-2.5Z" transform="translate(-208.162 -112.303)"/>
    <path id="Path_166959" data-name="Path 166959" d="M270.479,164.172H247.7a1.252,1.252,0,1,0,0,2.5h22.776a1.252,1.252,0,1,0,0-2.5Z" transform="translate(-208.162 -136.757)"/>
    <path id="Path_166960" data-name="Path 166960" d="M186.542,141.812a1.253,1.253,0,0,0,1.771,0l1.542-1.542,1.542,1.542a1.252,1.252,0,1,0,1.771-1.771l-1.542-1.542,1.542-1.542a1.252,1.252,0,1,0-1.771-1.771l-1.542,1.542-1.542-1.542a1.252,1.252,0,0,0-1.771,1.771l1.542,1.542-1.542,1.542a1.252,1.252,0,0,0,0,1.771Z" transform="translate(-157.952 -112.305)"/>
    <path id="Path_166961" data-name="Path 166961" d="M186.542,198.176a1.253,1.253,0,0,0,1.771,0l1.542-1.542,1.542,1.542a1.252,1.252,0,1,0,1.771-1.771l-1.542-1.542,1.542-1.542a1.252,1.252,0,1,0-1.771-1.771l-1.542,1.542-1.542-1.542a1.252,1.252,0,0,0-1.771,1.771l1.542,1.542-1.542,1.542a1.252,1.252,0,0,0,0,1.771Z" transform="translate(-157.952 -159.257)"/>
  </g>
</svg>
