<svg xmlns="http://www.w3.org/2000/svg" width="100" height="78.691" viewBox="0 0 100 78.691">
  <g id="t4-ic3" transform="translate(0 -54.55)">
    <g id="Group_109144" data-name="Group 109144" transform="translate(1.465 56.015)">
      <g id="Group_109137" data-name="Group 109137" transform="translate(0 63.135)">
        <path id="Path_166891" data-name="Path 166891" d="M95.1,397.928H16.97a9.47,9.47,0,0,1-9.47-9.47v-1.578A1.578,1.578,0,0,1,9.078,385.3h93.913a1.578,1.578,0,0,1,1.578,1.578v1.578A9.47,9.47,0,0,1,95.1,397.928Z" transform="translate(-7.5 -385.301)" fill="#d2e1f1"/>
      </g>
      <g id="Group_109138" data-name="Group 109138" transform="translate(3.157 0)">
        <path id="Path_166892" data-name="Path 166892" d="M114.42,125.184H23.663V65.995a3.946,3.946,0,0,1,3.946-3.946h82.865a3.946,3.946,0,0,1,3.946,3.946Z" transform="translate(-23.663 -62.049)" fill="#80c0ff"/>
      </g>
      <g id="Group_109139" data-name="Group 109139" transform="translate(3.157 0.049)">
        <path id="Path_166893" data-name="Path 166893" d="M111.066,62.3v57.759a1.973,1.973,0,0,1-1.973,1.973H23.663v3.354H114.42V66.2A3.944,3.944,0,0,0,111.066,62.3Z" transform="translate(-23.663 -62.3)" fill="#0077ec"/>
      </g>
      <g id="Group_109140" data-name="Group 109140" transform="translate(9.47 6.313)">
        <path id="Path_166894" data-name="Path 166894" d="M0,0H50.508V78.13H0Z" transform="translate(78.13 0) rotate(90)" fill="#d3effb"/>
      </g>
      <g id="Group_109141" data-name="Group 109141" transform="translate(83.26 6.313)">
        <path id="Path_166895" data-name="Path 166895" d="M433.789,94.374h4.341v50.508h-4.341Z" transform="translate(-433.789 -94.374)" fill="#b1e4f9"/>
      </g>
      <g id="Group_109142" data-name="Group 109142" transform="translate(82.076 63.135)">
        <path id="Path_166896" data-name="Path 166896" d="M441.143,385.3h-5.524a1.578,1.578,0,0,1,1.578,1.578v1.578a9.47,9.47,0,0,1-9.47,9.47h5.524a9.47,9.47,0,0,0,9.47-9.47v-1.578A1.578,1.578,0,0,0,441.143,385.3Z" transform="translate(-427.727 -385.301)" fill="#b0c0d2"/>
      </g>
      <g id="Group_109143" data-name="Group 109143" transform="translate(36.697 63.135)">
        <path id="Path_166897" data-name="Path 166897" d="M214.192,391.614H200.264a3.946,3.946,0,0,1-3.766-2.769L195.39,385.3h23.676l-1.108,3.545A3.946,3.946,0,0,1,214.192,391.614Z" transform="translate(-195.39 -385.301)" fill="#727997"/>
      </g>
    </g>
    <g id="Group_109147" data-name="Group 109147" transform="translate(40.135 83.833)">
      <g id="Group_109145" data-name="Group 109145" transform="translate(0 0)">
        <path id="Path_166898" data-name="Path 166898" d="M223.248,219.081H207.464a1.973,1.973,0,0,1-1.973-1.973V206.454a1.973,1.973,0,0,1,1.973-1.973h15.784a1.973,1.973,0,0,1,1.973,1.973v10.654A1.973,1.973,0,0,1,223.248,219.081Z" transform="translate(-205.491 -204.481)" fill="#ffd947"/>
      </g>
      <g id="Group_109146" data-name="Group 109146" transform="translate(14.205 0)">
        <path id="Path_166899" data-name="Path 166899" d="M281.774,204.482h-3.551a1.973,1.973,0,0,1,1.973,1.973v10.654a1.973,1.973,0,0,1-1.973,1.973h3.551a1.973,1.973,0,0,0,1.973-1.973V206.455A1.973,1.973,0,0,0,281.774,204.482Z" transform="translate(-278.223 -204.482)" fill="#ffb814"/>
      </g>
    </g>
    <g id="Group_109148" data-name="Group 109148" transform="translate(0 54.55)">
      <circle id="Ellipse_5182" data-name="Ellipse 5182" cx="2.565" cy="2.565" r="2.565" transform="matrix(0.987, -0.16, 0.16, 0.987, 47.045, 34.468)"/>
      <path id="Path_166900" data-name="Path 166900" d="M128.084,86.87H49.955a1.465,1.465,0,0,0-1.465,1.465v50.51a1.465,1.465,0,0,0,1.465,1.465h8.7a1.465,1.465,0,1,0,0-2.93H51.42V121.947a5.377,5.377,0,0,0,2.481.6h3.273a5.419,5.419,0,0,0,5.208-3.946h4.347a5.419,5.419,0,0,0,5.208,3.946h3.273a5.376,5.376,0,0,0,2.481-.6v.521a3.442,3.442,0,0,0,3.438,3.438h3.086a5.376,5.376,0,0,0-.6,2.481v3.273a5.419,5.419,0,0,0,3.946,5.208v.512H65.492a1.465,1.465,0,0,0,0,2.93h62.592a1.465,1.465,0,0,0,1.465-1.465V88.335a1.465,1.465,0,0,0-1.465-1.465Zm-1.465,30.279a2.484,2.484,0,0,1-2.481,2.474h-3.273a2.481,2.481,0,0,1,0-4.962h3.273a2.484,2.484,0,0,1,2.481,2.474Zm0-27.349v22.535a5.377,5.377,0,0,0-2.481-.6h-3.273a5.419,5.419,0,0,0-5.208,3.946h-4.347a5.42,5.42,0,0,0-5.208-3.946H102.83a5.376,5.376,0,0,0-2.481.6v-.521a3.442,3.442,0,0,0-3.438-3.438H96.8v-6.23a7.778,7.778,0,1,0-15.557,0v6.23h-.113a3.442,3.442,0,0,0-3.438,3.438v.521a5.376,5.376,0,0,0-2.481-.6H71.936a5.419,5.419,0,0,0-5.208,3.946H62.381a5.42,5.42,0,0,0-5.208-3.946H53.9a5.373,5.373,0,0,0-2.481.6V89.8Zm-18.035,27.341a2.484,2.484,0,0,1-2.481,2.481H102.83a2.481,2.481,0,0,1,0-4.962H106.1A2.484,2.484,0,0,1,108.584,117.141Zm-24.413-8.765v-6.23a4.849,4.849,0,1,1,9.7,0v6.23Zm-27,11.246H53.9a2.484,2.484,0,0,1-2.481-2.474v-.015A2.484,2.484,0,0,1,53.9,114.66h3.273a2.481,2.481,0,0,1,0,4.962Zm18.035,0H71.936a2.481,2.481,0,1,1,0-4.962h3.273a2.481,2.481,0,0,1,0,4.962Zm5.411,2.846V111.814a.509.509,0,0,1,.508-.508H96.911a.509.509,0,0,1,.508.508v10.654a.509.509,0,0,1-.508.508H81.128A.509.509,0,0,1,80.619,122.468Zm5.919,9.192v-3.273a2.481,2.481,0,1,1,4.962,0v3.273a2.481,2.481,0,0,1-4.962,0Zm3.946,5.72v-.512a5.419,5.419,0,0,0,3.946-5.208v-3.273a5.376,5.376,0,0,0-.6-2.481h3.086a3.442,3.442,0,0,0,3.438-3.438v-.521a5.376,5.376,0,0,0,2.481.6H106.1a5.419,5.419,0,0,0,5.208-3.946h4.347a5.419,5.419,0,0,0,5.208,3.946h3.273a5.373,5.373,0,0,0,2.481-.6V137.38Z" transform="translate(-39.019 -80.557)"/>
      <path id="Path_166901" data-name="Path 166901" d="M96.957,117.685h-.113V59.96a5.417,5.417,0,0,0-5.412-5.41H66.387a1.465,1.465,0,1,0,0,2.93H91.432a2.484,2.484,0,0,1,2.482,2.48v57.725H85.072a1.465,1.465,0,0,0,0,2.93H96.957a.113.113,0,0,1,.113.113v1.578a8.015,8.015,0,0,1-8.006,8.006H10.936a8.015,8.015,0,0,1-8.006-8.006v-1.578a.113.113,0,0,1,.113-.113H37.085l.787,2.517a5.387,5.387,0,0,0,5.164,3.8H56.964a5.387,5.387,0,0,0,5.164-3.8l.787-2.517H78.237a1.465,1.465,0,0,0,0-2.93H6.086V59.96a2.484,2.484,0,0,1,2.482-2.48H59.551a1.465,1.465,0,0,0,0-2.93H8.568a5.417,5.417,0,0,0-5.412,5.41v57.725H3.043A3.046,3.046,0,0,0,0,120.728v1.578a10.948,10.948,0,0,0,10.936,10.936H89.064A10.948,10.948,0,0,0,100,122.306v-1.578A3.046,3.046,0,0,0,96.957,117.685Zm-37.625,4.573A2.471,2.471,0,0,1,56.964,124H43.036a2.471,2.471,0,0,1-2.368-1.741l-.513-1.643H59.845Z" transform="translate(0 -54.55)"/>
    </g>
  </g>
</svg>
