<svg xmlns="http://www.w3.org/2000/svg" width="84.761" height="72" viewBox="0 0 84.761 72">
  <g id="t4-ic6" transform="translate(0 -38.542)">
    <g id="Group_109157" data-name="Group 109157" transform="translate(39.036 85.888)">
      <path id="Path_166921" data-name="Path 166921" d="M0,0H16.723V6.689H0Z" transform="translate(6.689 0) rotate(90)" fill="#f4fbff"/>
    </g>
    <g id="Group_109158" data-name="Group 109158" transform="translate(39.036 88.898)">
      <path id="Path_166922" data-name="Path 166922" d="M242.486,343.194a11.981,11.981,0,0,0-6.689,0v13.237h6.689V343.194Z" transform="translate(-235.797 -342.718)" fill="#ddeafb"/>
    </g>
    <g id="Group_109159" data-name="Group 109159" transform="translate(21.978 97.594)">
      <path id="Path_166923" data-name="Path 166923" d="M0,0H40.8V6.689H0Z" transform="translate(40.805 6.689) rotate(180)" fill="#f4fbff"/>
    </g>
    <g id="Group_109160" data-name="Group 109160" transform="translate(30.34 97.594)">
      <path id="Path_166924" data-name="Path 166924" d="M183.268,398.592a12,12,0,0,0,.476,3.345h23.129a11.981,11.981,0,0,0,0-6.689H183.744A12,12,0,0,0,183.268,398.592Z" transform="translate(-183.268 -395.247)" fill="#ddeafb"/>
    </g>
    <g id="Group_109161" data-name="Group 109161" transform="translate(34.019 92.577)">
      <circle id="Ellipse_5183" data-name="Ellipse 5183" cx="8.362" cy="8.362" r="8.362" transform="translate(0 0)" fill="#ffd947"/>
    </g>
    <g id="Group_109162" data-name="Group 109162" transform="translate(39.37 97.929)">
      <circle id="Ellipse_5184" data-name="Ellipse 5184" cx="3.01" cy="3.01" r="3.01" fill="#03e6b0"/>
    </g>
    <g id="Group_109163" data-name="Group 109163" transform="translate(1.242 39.784)">
      <path id="Path_166925" data-name="Path 166925" d="M73.82,60.231c-.234,0-.466.006-.7.016A23.058,23.058,0,0,0,32.05,57.257a7.979,7.979,0,0,0-9.391,10.375,12.412,12.412,0,1,0-2.745,24.517H73.82a15.959,15.959,0,1,0,0-31.918Z" transform="translate(-7.501 -46.045)" fill="#d3effb"/>
    </g>
    <g id="Group_109164" data-name="Group 109164" transform="translate(27.991 48.942)">
      <path id="Path_166926" data-name="Path 166926" d="M208.647,106.393c-.234,0-.466.006-.7.016a23.033,23.033,0,0,0-2.9-5.043c-2.848,9.584-11.431,28.436-35.976,36.945h39.57a15.959,15.959,0,1,0,0-31.918Z" transform="translate(-169.077 -101.366)" fill="#b1e4f9"/>
    </g>
    <g id="Group_109166" data-name="Group 109166" transform="translate(5.752 83.048)">
      <g id="Group_109165" data-name="Group 109165" transform="translate(0 0)">
        <path id="Path_166927" data-name="Path 166927" d="M34.745,307.379a12.4,12.4,0,0,0,3.1,1.875Q36.248,308.384,34.745,307.379Z" transform="translate(-34.745 -307.379)" fill="#b1e4f9"/>
      </g>
    </g>
    <g id="Group_109171" data-name="Group 109171" transform="translate(0 38.542)">
      <path id="Path_166931" data-name="Path 166931" d="M64.024,136.247a1.242,1.242,0,0,0-1.242-1.242H50.816a9.672,9.672,0,0,0-3.849-3.85v-5.375H56.989a1.242,1.242,0,1,0,0-2.483H13.654a11.17,11.17,0,1,1,2.47-22.064,1.241,1.241,0,0,0,1.448-1.616A6.737,6.737,0,0,1,25.5,90.856a1.242,1.242,0,0,0,1.351-.57,21.9,21.9,0,0,1,2.475-3.354,1.242,1.242,0,1,0-1.849-1.658,24.425,24.425,0,0,0-2.3,3,9.221,9.221,0,0,0-10.4,10.247q-.564-.047-1.13-.047a13.654,13.654,0,1,0,0,27.308h24.14v5.375a9.671,9.671,0,0,0-3.849,3.85h-2.7a1.242,1.242,0,0,0,0,2.483h1.77a9.536,9.536,0,0,0,0,4.2H21.978a1.242,1.242,0,1,0,0,2.483H33.945a9.6,9.6,0,0,0,16.871,0H62.783a1.242,1.242,0,1,0,0-2.483H51.749a9.536,9.536,0,0,0,0-4.2H62.783A1.242,1.242,0,0,0,64.024,136.247ZM40.278,125.781h4.206v4.441a9.537,9.537,0,0,0-4.206,0Zm2.1,20.93a7.12,7.12,0,1,1,7.12-7.12A7.128,7.128,0,0,1,42.381,146.711Z" transform="translate(0 -77.194)"/>
      <path id="Path_166932" data-name="Path 166932" d="M126.5,390.234h3.47a1.242,1.242,0,1,0,0-2.483H126.5a1.242,1.242,0,1,0,0,2.483Z" transform="translate(-104.523 -329.94)"/>
      <path id="Path_166933" data-name="Path 166933" d="M234.569,389.767a4.252,4.252,0,1,0,4.252,4.252A4.257,4.257,0,0,0,234.569,389.767Zm0,6.02a1.769,1.769,0,1,1,1.769-1.769A1.77,1.77,0,0,1,234.569,395.787Z" transform="translate(-192.188 -331.622)"/>
      <path id="Path_166934" data-name="Path 166934" d="M226.6,52.728a24.3,24.3,0,0,0-35.587-10.1,1.242,1.242,0,1,0,1.381,2.064,21.819,21.819,0,0,1,32.255,9.769,1.238,1.238,0,0,0,1.2.763c.236-.01.447-.015.643-.015a14.717,14.717,0,1,1,0,29.434h-4.778a1.242,1.242,0,1,0,0,2.483h4.778a17.2,17.2,0,0,0,.108-34.4Z" transform="translate(-158.929 -38.542)"/>
    </g>
  </g>
</svg>
