<svg xmlns="http://www.w3.org/2000/svg" width="102.459" height="91.65" viewBox="0 0 102.459 91.65">
  <g id="t4-ic5" transform="translate(0 -0.5)">
    <path id="Path_166911" data-name="Path 166911" d="M92.848,48.922h9.606a6,6,0,0,0,6-6V16.5a6,6,0,0,0-6-6H16a6,6,0,0,0-6,6V42.919a6,6,0,0,0,6,6Zm0,0" transform="translate(-7.999 -7.999)" fill="#ffd947"/>
    <path id="Path_166912" data-name="Path 166912" d="M378.094,331.36l16.628,16.628a4.784,4.784,0,0,0,6.766-6.766L384.86,324.593Zm0,0" transform="translate(-302.432 -259.237)" fill="#0077ec"/>
    <path id="Path_166913" data-name="Path 166913" d="M238.032,160.514A24.014,24.014,0,1,1,214.018,136.5,24.014,24.014,0,0,1,238.032,160.514Zm0,0" transform="translate(-151.982 -108.784)" fill="#fff"/>
    <path id="Path_166914" data-name="Path 166914" d="M263.222,194.109A15.609,15.609,0,1,1,247.613,178.5,15.609,15.609,0,0,1,263.222,194.109Zm0,0" transform="translate(-185.577 -142.379)" fill="#03e6b0"/>
    <path id="Path_166915" data-name="Path 166915" d="M239.614,168.5a17.61,17.61,0,1,0,17.61,17.61A17.63,17.63,0,0,0,239.614,168.5Zm0,31.218a13.608,13.608,0,1,1,13.608-13.608A13.623,13.623,0,0,1,239.614,199.718Zm0,0" transform="translate(-177.578 -134.381)"/>
    <path id="Path_166916" data-name="Path 166916" d="M302.005,211.5a2,2,0,1,0,0,4,5.008,5.008,0,0,1,5,5,2,2,0,0,0,4,0A9.014,9.014,0,0,0,302.005,211.5Zm0,0" transform="translate(-239.969 -168.779)"/>
    <path id="Path_166917" data-name="Path 166917" d="M46.54,71.578a2,2,0,1,0-3.554,1.84l5.387,10.406a2,2,0,0,0,3.581-.054l3.261-6.79,3.542,6.844a2,2,0,0,0,1.778,1.081h.03a2,2,0,0,0,1.774-1.135l5-10.406a2,2,0,1,0-3.608-1.732l-3.261,6.79-3.543-6.844a2,2,0,0,0-3.581.054l-3.26,6.79Zm0,0" transform="translate(-34.204 -55.989)"/>
    <path id="Path_166918" data-name="Path 166918" d="M117.989,4.5A2,2,0,0,0,119.4,1.086a2,2,0,1,0-2.829,2.83A2.015,2.015,0,0,0,117.989,4.5Zm0,0" transform="translate(-92.777)"/>
    <path id="Path_166919" data-name="Path 166919" d="M102.459,34.92V8.5a8.014,8.014,0,0,0-8-8H33.617a2,2,0,1,0,0,4H94.454a4.007,4.007,0,0,1,4,4V34.92a4.007,4.007,0,0,1-4,4H84.849c-.058,0-.114,0-.17.009A26.154,26.154,0,0,0,70.611,27.169l2.967-6.176,3.543,6.843A2,2,0,0,0,78.9,28.916h.03A2,2,0,0,0,80.7,27.781l5-10.406a2,2,0,0,0-3.608-1.732l-3.26,6.79-3.543-6.844a2,2,0,0,0-3.581.054l-3.261,6.79L64.9,15.589a2,2,0,0,0-3.555,1.84l4.429,8.556a26.055,26.055,0,0,0-10.841.714l4.478-9.324a2,2,0,0,0-3.608-1.732l-3.261,6.79L49,15.589a2,2,0,0,0-3.581.054l-3.26,6.79L38.62,15.589a2,2,0,0,0-3.554,1.84l5.387,10.406a2,2,0,0,0,3.581-.054l3.261-6.789,3.542,6.843a1.954,1.954,0,0,0,.211.318A26.189,26.189,0,0,0,39.4,38.922H8a4.007,4.007,0,0,1-4-4V8.5a4.007,4.007,0,0,1,4-4h8.2a2,2,0,1,0,0-4H8a8.014,8.014,0,0,0-8,8V34.92a8.014,8.014,0,0,0,8,8H37.556A26.009,26.009,0,0,0,74.992,74.283L90.875,90.166a6.786,6.786,0,1,0,9.6-9.6l-6.24-6.24a2,2,0,0,0-2.83,2.83l6.24,6.241a2.783,2.783,0,1,1-3.936,3.937L78.349,71.979a25.991,25.991,0,0,0,8.167-29.054h7.938a8.014,8.014,0,0,0,8-8ZM62.036,73.742A22.013,22.013,0,1,1,84.049,51.73,22.038,22.038,0,0,1,62.036,73.742Zm0,0" transform="translate(0)"/>
    <path id="Path_166920" data-name="Path 166920" d="M430.677,343.368a2,2,0,1,0,1.415-.586A2.015,2.015,0,0,0,430.677,343.368Zm0,0" transform="translate(-344.023 -273.786)"/>
  </g>
</svg>
