<svg xmlns="http://www.w3.org/2000/svg" width="280" height="329" viewBox="0 0 280 329">
  <g id="t5-c5" transform="translate(-660 -2768)">
    <path id="Rectangle_36366" data-name="Rectangle 36366" d="M0,0H280a0,0,0,0,1,0,0V25a30,30,0,0,1-30,30H30A30,30,0,0,1,0,25V0A0,0,0,0,1,0,0Z" transform="translate(660 3042)" fill="#ffd947"/>
    <path id="Path_169435" data-name="Path 169435" d="M74.885,16.746,78,5.359h4.211L76.948,21H72.823L67.6,5.359h4.179ZM87.131,21H83.49V9.377h3.642ZM85.778,4.715H89.6L86.616,8.088l-2.954-.005Zm8.594,13.707a1.61,1.61,0,0,0,1.182-.414,1.517,1.517,0,0,0,.408-1.155h3.395a4.018,4.018,0,0,1-1.37,3.137,5.1,5.1,0,0,1-3.529,1.225,5.158,5.158,0,0,1-4-1.59A6.264,6.264,0,0,1,89,15.221v-.15a7.08,7.08,0,0,1,.65-3.11,4.732,4.732,0,0,1,1.875-2.073,5.589,5.589,0,0,1,2.9-.725,5.03,5.03,0,0,1,3.6,1.257,4.458,4.458,0,0,1,1.332,3.405H95.961a1.987,1.987,0,0,0-.44-1.386,1.52,1.52,0,0,0-1.182-.483q-1.407,0-1.644,1.794a12.658,12.658,0,0,0-.075,1.568,4.972,4.972,0,0,0,.419,2.428A1.45,1.45,0,0,0,94.372,18.422ZM105.1,6.487v2.89h1.912v2.514H105.1v5.317a1.358,1.358,0,0,0,.236.913,1.268,1.268,0,0,0,.935.258,5.311,5.311,0,0,0,.9-.064V20.9a6.681,6.681,0,0,1-2.041.312,3.792,3.792,0,0,1-2.761-.881,3.61,3.61,0,0,1-.892-2.675V11.891H100V9.377h1.482V6.487ZM112.257,21h-3.631V9.377h3.631ZM108.412,6.369a1.63,1.63,0,0,1,.559-1.275,2.364,2.364,0,0,1,2.9,0,1.63,1.63,0,0,1,.559,1.275,1.63,1.63,0,0,1-.559,1.275,2.364,2.364,0,0,1-2.9,0A1.63,1.63,0,0,1,108.412,6.369Zm9.5,3.008.118,1.364a4,4,0,0,1,3.319-1.579,2.942,2.942,0,0,1,2.976,1.751,3.868,3.868,0,0,1,3.416-1.751q3.534,0,3.631,4.275V21h-3.631V13.663a2.216,2.216,0,0,0-.3-1.3,1.28,1.28,0,0,0-1.1-.408,1.715,1.715,0,0,0-1.6.956l.011.15V21H121.12V13.685a2.329,2.329,0,0,0-.29-1.321,1.277,1.277,0,0,0-1.106-.408,1.736,1.736,0,0,0-1.59.956V21h-3.62V9.377ZM139.983,21a4.088,4.088,0,0,1-.344-1.042,3.366,3.366,0,0,1-2.793,1.257,4.124,4.124,0,0,1-2.793-.994,3.163,3.163,0,0,1-1.149-2.5,3.251,3.251,0,0,1,1.4-2.857,7.114,7.114,0,0,1,4.061-.967h1.117v-.615q0-1.608-1.386-1.608A1.133,1.133,0,0,0,136.8,12.95h-3.62a3.245,3.245,0,0,1,1.434-2.736,6.027,6.027,0,0,1,3.658-1.051,5.284,5.284,0,0,1,3.513,1.085,3.772,3.772,0,0,1,1.321,2.976v5.146a5.269,5.269,0,0,0,.494,2.449V21Zm-2.267-2.363a2.019,2.019,0,0,0,1.123-.29,1.818,1.818,0,0,0,.639-.655V15.833h-1.053q-1.891,0-1.891,1.7a1.036,1.036,0,0,0,.333.8A1.205,1.205,0,0,0,137.716,18.637Zm13.481-.9a.836.836,0,0,0-.483-.741,7.353,7.353,0,0,0-1.837-.58,8.376,8.376,0,0,1-2.234-.79,3.743,3.743,0,0,1-1.343-1.187,2.835,2.835,0,0,1-.462-1.6A3.212,3.212,0,0,1,146.16,10.2a5.443,5.443,0,0,1,3.459-1.037,6.03,6.03,0,0,1,3.7,1.042,3.258,3.258,0,0,1,1.4,2.739H151.08q0-1.4-1.472-1.4a1.459,1.459,0,0,0-.956.317.981.981,0,0,0-.387.79.9.9,0,0,0,.473.784,4.466,4.466,0,0,0,1.509.494,13.042,13.042,0,0,1,1.821.462q2.621.9,2.621,3.233a3.044,3.044,0,0,1-1.413,2.589,6.2,6.2,0,0,1-3.658,1,6.322,6.322,0,0,1-2.664-.537,4.455,4.455,0,0,1-1.826-1.461,3.308,3.308,0,0,1-.655-1.944h3.384a1.4,1.4,0,0,0,.537,1.176,2.209,2.209,0,0,0,1.321.371,1.738,1.738,0,0,0,1.112-.3A.962.962,0,0,0,151.2,17.734Z" transform="translate(689 3056)" fill="#004080"/>
    <g id="Group_109597" data-name="Group 109597" transform="translate(683.895 2788.628)">
      <g id="Group_109595" data-name="Group 109595" transform="translate(0 -0.001)">
        <g id="Group_109542" data-name="Group 109542">
          <path id="Path_167443" data-name="Path 167443" d="M-2200.365,2438.274l0,.015c-.731,2.11-.863,4.514-2.105,6.425a4.4,4.4,0,0,1-2.745,2c-5.281,1.013-6.24-7.138-5.141-10.521,1.511-4.648,7.876-8.543,12.673-8.709a3.9,3.9,0,0,1,3.484,1.622c1.2,1.96-.548,3.2-1.949,4.183A10.161,10.161,0,0,0-2200.365,2438.274Z" transform="translate(2374.815 -2427.485)" fill="#add7ff"/>
          <path id="Path_167444" data-name="Path 167444" d="M-2316.9,2610.082a52.026,52.026,0,0,0,9.759,4.2c13.565,4.239,27.318-.493,40.834-2.972,27.839-5.1,28.153-6.576,43.019-8.021,20.988-2.041,31.484-3.062,42-1.022,6.541,1.268,17.974,4.265,32.637,1.407a40.535,40.535,0,0,0,7-1.814c16.1-6,22.429-27.447,23.769-31.988,12.569-42.608-18.456-110.322-71.929-128.178-6.939-2.317-30.4-10.15-55.168-.737-19.8,7.525-30.746,26.822-41.4,44.508-5.682,9.432-11.535,18.861-18.958,26.93-9.672,10.515-24.505,14.208-32.966,26.155-11.031,15.577-7.1,39.312,2.775,54.3A53.506,53.506,0,0,0-2316.9,2610.082Z" transform="translate(2344.957 -2425.494)" fill="#add7ff"/>
          <path id="Path_167445" data-name="Path 167445" d="M-2221.673,2580.126c-2.388.408-5.767,4.171-4.006,6.594,1.279,1.762,4.619,1.266,6.473,1.25,2.374-.019,4.656-.712,5.1-3.363C-2213.451,2580.651-2218.745,2579.626-2221.673,2580.126Z" transform="translate(2371.388 -2393.546)" fill="#add7ff"/>
          <path id="Path_167446" data-name="Path 167446" d="M-2199.772,2445.413a3.053,3.053,0,0,0,1.049,2.6c1.957,1.863,5.331,1.986,7.654,1.147a12.792,12.792,0,0,0,2.675-1.32c.688-.45,1.3-.919,1.9-1.371a14.638,14.638,0,0,1,2.705-1.776,9.7,9.7,0,0,1,2.89-.467,22.016,22.016,0,0,0,4.608-.709c2.849-.835,3.455-2.371,3.561-3.212.389-3.061-4.268-5.77-7.636-6.474-4.914-1.026-10.14.257-12.708,3.12a10.684,10.684,0,0,0-1.361,2.008,7.973,7.973,0,0,1-.692,1.1,10.79,10.79,0,0,1-1.456,1.321,12.583,12.583,0,0,0-2.609,2.6A3.339,3.339,0,0,0-2199.772,2445.413Z" transform="translate(2377.257 -2426.151)" fill="#add7ff"/>
          <path id="Path_167447" data-name="Path 167447" d="M-2333.722,2508.115c-4.04-1.819-7.89-5.542-8.042-10.2-.135-4.068,4.115-11.23,8.882-7.4,2.049,1.647,1.993,4.7,2.166,7.322.263,3.988,2.648,5.967,4.921,8.913a1.809,1.809,0,0,1,.429.849C-2325.01,2510.686-2332.44,2508.691-2333.722,2508.115Z" transform="translate(2345.667 -2413.703)" fill="#add7ff"/>
        </g>
        <path id="Path_167449" data-name="Path 167449" d="M-2118.026,2487.9a30.807,30.807,0,0,0-9.323-12.165c-22.875-18.8-52.625,1.7-96.065-.77-49.749-2.826-64.495-32.77-84.549-20.872-21.651,12.845-19.109,56.431-15.746,75.11a105.549,105.549,0,0,0,19.958,45.058c6.744,8.786,17.9,23.322,37.607,29.614,3.7,1.182,15.089,4.432,34.349,1.4,50.365-7.928,81.431-47.3,91.275-59.772C-2128.677,2530.5-2110.409,2507.347-2118.026,2487.9Z" transform="translate(2349.189 -2422.182)" fill="#edf4fc"/>
        <g id="DONE" transform="translate(54.703 0.154)">
          <g id="Group_109544" data-name="Group 109544" transform="translate(0 169.594)">
            <path id="Path_167450" data-name="Path 167450" d="M-2191.034,2607.41h-108.1l9.693-11.742h89.311Z" transform="translate(2300.45 -2559.809)" opacity="0.11"/>
            <g id="Group_109543" data-name="Group 109543" transform="translate(7.474 5.357)">
              <path id="Path_167451" data-name="Path 167451" d="M-2226.395,2602.838a3.135,3.135,0,0,0,3.109-3.161v-25.8a3.135,3.135,0,0,0-3.109-3.16,3.135,3.135,0,0,0-3.11,3.16v25.8A3.135,3.135,0,0,0-2226.395,2602.838Z" transform="translate(2308.469 -2570.718)" fill="#afaeae"/>
              <path id="Path_167452" data-name="Path 167452" d="M-2217.933,2612.749a3.136,3.136,0,0,0,3.11-3.16v-33.909a3.136,3.136,0,0,0-3.11-3.161,3.136,3.136,0,0,0-3.11,3.161v33.909A3.135,3.135,0,0,0-2217.933,2612.749Z" transform="translate(2310.352 -2570.317)" fill="#c4c2c2"/>
              <path id="Path_167453" data-name="Path 167453" d="M-2282.525,2602.838a3.136,3.136,0,0,1-3.11-3.161v-25.8a3.135,3.135,0,0,1,3.11-3.16,3.136,3.136,0,0,1,3.11,3.16v25.8A3.136,3.136,0,0,1-2282.525,2602.838Z" transform="translate(2295.98 -2570.718)" fill="#afaeae"/>
              <path id="Path_167454" data-name="Path 167454" d="M-2290.987,2612.749a3.135,3.135,0,0,1-3.11-3.16v-33.909a3.135,3.135,0,0,1,3.11-3.161,3.136,3.136,0,0,1,3.11,3.161v33.909A3.136,3.136,0,0,1-2290.987,2612.749Z" transform="translate(2294.096 -2570.317)" fill="#c4c2c2"/>
            </g>
            <path id="Path_167455" data-name="Path 167455" d="M-2296.692,2587.463h103.441a3.549,3.549,0,0,0,3.519-3.58V2578.8a3.548,3.548,0,0,0-3.519-3.579h-103.441a3.548,3.548,0,0,0-3.518,3.579v5.083A3.549,3.549,0,0,0-2296.692,2587.463Z" transform="translate(2300.21 -2564.359)" fill="#a38989"/>
            <path id="Path_167456" data-name="Path 167456" d="M-2191.034,2578.078h-108.1l8.674-10.507a3.4,3.4,0,0,1,2.621-1.235h86.042a3.4,3.4,0,0,1,2.687,1.318Z" transform="translate(2300.45 -2566.336)" fill="#d3b6b6"/>
          </g>
          <g id="Group_109556" data-name="Group 109556" transform="translate(3.607 0)">
            <path id="Path_167457" data-name="Path 167457" d="M-2288.173,2509.544c-.76,4.34-4,17.58-4.671,20.192,4.085,1.251,17.814,5.17,18.249,5.329,3.66-.781,15.225-20.915,16.271-22.134C-2260.618,2512.783-2279.095,2510.443-2288.173,2509.544Z" transform="translate(2298.242 -2409.379)" fill="#ffd63b"/>
            <path id="Path_167458" data-name="Path 167458" d="M-2207.286,2618.73c0,2.214-9.913,2.275-17.768,1.029-5.761-.915-19.447-6.454-19.447-8.668s4.923-.786,10.671.217C-2227.924,2612.338-2207.286,2616.516-2207.286,2618.73Z" transform="translate(2308.999 -2387.044)" opacity="0.11"/>
            <path id="Path_167459" data-name="Path 167459" d="M-2250.747,2617.468c.548,4.574-4.56,8.343-10.185,8.343s-11.382-1.325-9.75-10.733c.787-4.54,7.5-10.476,13.055-11.369C-2252.915,2602.95-2251.4,2612.051-2250.747,2617.468Z" transform="translate(2303.111 -2388.436)" opacity="0.11"/>
            <path id="Path_167460" data-name="Path 167460" d="M-2228.669,2557.831c-5.688,0-45.049-1.824-51.882-1.824-.549,5.216-1.627,13.522-1.052,16.088,1.142,5.1,8.73,10.078,9.435,10.147,2.5.245,11.777.018,19.945-.326,2.117-1.55,1.545-5,2.688-4.854,5.129.669,10.762,3.268,13.941,4.856,1.2.8,15.237.454,19.264-2.49,3.792-2.774,2.868-11.23-.15-13.868C-2218.295,2563.974-2226.285,2559.456-2228.669,2557.831Z" transform="translate(2300.707 -2399.041)" fill="#3f8cb2"/>
            <path id="Path_167461" data-name="Path 167461" d="M-2219.276,2547.092c3.019,4.956-7.6,9.1-11.212,8.684-3.454-4.4-11.4-14.286-10.741-20.052s6.208-4.708,9.814-4.3S-2222.647,2541.562-2219.276,2547.092Z" transform="translate(2309.719 -2404.588)" fill="#ffc19f"/>
            <path id="Path_167462" data-name="Path 167462" d="M-2221.9,2542.586c-4.371,2.935-13.005,6.512-17.882,7.385-1.6-5.417-8.28-35.68-8.185-36.463,9.6,1.853,13.033,3,14.078,4.176C-2231.585,2520.283-2225.374,2534.775-2221.9,2542.586Z" transform="translate(2308.227 -2408.497)" fill="#ffd63b"/>
            <path id="Path_167463" data-name="Path 167463" d="M-2240.885,2546.427a41.161,41.161,0,0,0,6.44-1.873c-2.114-7.41-3.7-18.241-5.785-18.362-1.624-.094-1.615,3.54-2.8,10.708C-2242.135,2541.262-2241.341,2544.882-2240.885,2546.427Z" transform="translate(2309.326 -2405.675)" fill="#470808" opacity="0.22"/>
            <g id="Group_109545" data-name="Group 109545" transform="translate(75.567 116.853)">
              <path id="Path_167464" data-name="Path 167464" d="M-2212.856,2556.639l-21.372,2.373a2.4,2.4,0,0,1-1.083-2.771l22.72-31.981a2.533,2.533,0,0,1,2.151-1.063l19.706.69c.641.022,2.034,1.56,1.723,2.514l-23.222,29.9A.8.8,0,0,1-2212.856,2556.639Z" transform="translate(2235.447 -2523.195)" fill="#d6d6d6"/>
              <path id="Path_167465" data-name="Path 167465" d="M-2212.821,2558.059l-21.022.84a.8.8,0,0,1-.688-1.27l22.72-31.98a2.527,2.527,0,0,1,2.152-1.063l19.706.688a.805.805,0,0,1,.628,1.271l-21.7,30.538A2.324,2.324,0,0,1-2212.821,2558.059Z" transform="translate(2235.617 -2522.886)" fill="#aaa"/>
              <path id="Path_167466" data-name="Path 167466" d="M-2207.694,2531.2c-.932.9-2.148,1.146-2.713.558s-.267-1.792.667-2.688,2.148-1.146,2.713-.558S-2206.76,2530.3-2207.694,2531.2Z" transform="translate(2240.955 -2522.083)" fill="#727171"/>
            </g>
            <g id="Group_109546" data-name="Group 109546" transform="translate(100.42 132.129)">
              <path id="Path_167467" data-name="Path 167467" d="M-2215.012,2547.871c.282-.874.985-1.082,1.868-1.055a1.838,1.838,0,0,1-.384-1.853,2.27,2.27,0,0,1,2.4-1.276,2.01,2.01,0,0,1-.8-1.809c.17-.763,1.313-1.381,2.463-1.6a2.423,2.423,0,0,1-.784-2.3c.545-1.33,2.319-2.234,4.35-2.285a23.144,23.144,0,0,1,3.687.4l-11.012,15.5C-2214.56,2550.589-2215.429,2549.154-2215.012,2547.871Z" transform="translate(2215.118 -2535.69)" opacity="0.15"/>
              <path id="Path_167468" data-name="Path 167468" d="M-2206.5,2539.65c-2.646-.543-4.953-.014-5.153,1.182s1.785,2.606,4.433,3.149,4.954.015,5.153-1.181S-2203.85,2540.194-2206.5,2539.65Z" transform="translate(2215.886 -2534.857)" fill="#ffc19f"/>
              <path id="Path_167469" data-name="Path 167469" d="M-2205.334,2536.423c-2.675-.2-4.845.624-4.844,1.847s2.169,2.38,4.845,2.584,4.844-.623,4.844-1.846S-2202.658,2536.628-2205.334,2536.423Z" transform="translate(2216.217 -2535.534)" fill="#ffc19f"/>
              <path id="Path_167470" data-name="Path 167470" d="M-2208.18,2542.577c-2.3-.761-4.474-.443-4.849.709s1.19,2.7,3.494,3.46,4.475.442,4.849-.709S-2205.875,2543.336-2208.18,2542.577Z" transform="translate(2215.57 -2534.25)" fill="#ffc19f"/>
              <path id="Path_167471" data-name="Path 167471" d="M-2209.854,2545.312c-1.953-.858-3.951-.718-4.463.312s.656,2.56,2.607,3.417,3.951.717,4.464-.312S-2207.9,2546.169-2209.854,2545.312Z" transform="translate(2215.269 -2533.675)" fill="#ffc19f"/>
            </g>
            <path id="Path_167472" data-name="Path 167472" d="M-2183.971,2516.593a.78.78,0,0,0-.052-1.1.789.789,0,0,0-1.1.052l-4.732,5.195a.78.78,0,0,0,.053,1.1l.081.065a.779.779,0,0,0,1.02-.116Zm-9.217-4.477a.776.776,0,0,0-.785-.77.78.78,0,0,0-.771.787l.068,7.025a.778.778,0,0,0,.391.666.764.764,0,0,0,.394.105.781.781,0,0,0,.773-.787Zm14.552,13.734a.783.783,0,0,0-.754-.8l-7.022-.2a.779.779,0,0,0-.8.756.777.777,0,0,0,.39.7.789.789,0,0,0,.364.1l7.022.2A.78.78,0,0,0-2178.636,2525.85Z" transform="translate(2320.071 -2408.978)" fill="#b5b5b5"/>
            <path id="Path_167473" data-name="Path 167473" d="M-2282.373,2567.168l.032.055c8.345,2.941,18.814,3.912,29.016,4.279,11.157.4,15.907-5.445,26.195-3.185,1.078-2.854-1.771-2.371-1.806-3.144-.319-7.428.162-38.9-1.332-49.066-6.94-1.865-14.141-3.891-22.871-4.017-8.246-.118-17.992,1.87-23.762,2.747C-2276.9,2514.837-2278.823,2547.343-2282.373,2567.168Z" transform="translate(2300.573 -2408.814)" fill="#ffd63b"/>
            <path id="Path_167474" data-name="Path 167474" d="M-2248.615,2547.949a14.189,14.189,0,0,1-2.568.039.618.618,0,0,1-.365-.186,5.871,5.871,0,0,1-.791-1.231q-.543-1-.972-1.822a1.355,1.355,0,0,0-1.352-.626l-2.175.1a1,1,0,0,0-.649.383,6.215,6.215,0,0,0-.795,1.936,3.208,3.208,0,0,1-.858,1.713.833.833,0,0,1-.313.131,17.342,17.342,0,0,1-2.17.037,27.275,27.275,0,0,1-2.908-.187,1.659,1.659,0,0,1-.985-.395,1.273,1.273,0,0,1-.148-1.1q.211-1.1.879-3.751t1.528-5.549q.858-2.894,1.78-5.359a10.22,10.22,0,0,1,1.637-3.209,3.109,3.109,0,0,1,1.793-.673,14.883,14.883,0,0,1,2.7-.109,14.6,14.6,0,0,1,2.583.332,2.459,2.459,0,0,1,1.426.643,18.258,18.258,0,0,1,1.529,3.38q.9,2.407,1.718,5.172t1.4,5.331a20.944,20.944,0,0,1,.6,3.854.956.956,0,0,1-.239.66Q-2246.6,2547.813-2248.615,2547.949Zm-8.112-10.9a4.013,4.013,0,0,0-.724,1.906q.158.671,1.679.672t1.7-.589a2.686,2.686,0,0,0-.366-1.427,5.041,5.041,0,0,0-.928-1.525Q-2255.906,2535.553-2256.727,2537.053Z" transform="translate(2304.28 -2405.258)" fill="#002e59"/>
            <path id="Path_167475" data-name="Path 167475" d="M-2242.67,2516.234a7.158,7.158,0,0,0-.242-3.089c-7.458-.811-16.711-1.669-24.608-1.019a11.291,11.291,0,0,0-.749,4.622c.5,3.889,4.851,7.649,12.253,7.974S-2243.413,2521.707-2242.67,2516.234Z" transform="translate(2303.705 -2408.855)" fill="#470808" opacity="0.22"/>
            <path id="Path_167476" data-name="Path 167476" d="M-2246,2502.234l-.552,15.907c-.119,3.42-4.563,6.042-9.926,5.857s-9.614-3.111-9.493-6.532l.551-15.907Z" transform="translate(2304.221 -2411.156)" fill="#ffc19f"/>
            <path id="Path_167477" data-name="Path 167477" d="M-2222.489,2565.759a104.513,104.513,0,0,1-12.271,1.686c-5.771.386-17.983,1.52-17.983-.216s5.156-9.349,15.923-9.144a15.6,15.6,0,0,1,4.31,1.006C-2228.69,2561.428-2223.734,2564.42-2222.489,2565.759Z" transform="translate(2307.166 -2398.579)" fill="#3f8cb2"/>
            <path id="Path_167478" data-name="Path 167478" d="M-2234.584,2573.358c0,3.052-.3,6.8-2.593,6.8s-6.308.49-6.8-1.087c-.9-2.915,2.777-13.65,5.071-13.65S-2234.584,2570.308-2234.584,2573.358Z" transform="translate(2309.085 -2396.945)" fill="#1e5e82"/>
            <path id="Path_167479" data-name="Path 167479" d="M-2232.066,2562.753a9.53,9.53,0,0,0-9.994,8.322c-.582,4.685-.166,23.8.162,37.793,3.6.617,13.39.682,14.276.265,1.7-14.977,3.731-28.1,3.95-37.219C-2223.571,2567.653-2226.859,2562.8-2232.066,2562.753Z" transform="translate(2309.478 -2397.539)" fill="#ffc19f"/>
            <path id="Path_167480" data-name="Path 167480" d="M-2251.978,2573.123c0,5.265-5.384,9.534-12.026,9.534s-17.04-15.144-15.962-20.3c4.768-.29,10.329-1.445,18.49.65C-2255.043,2564.661-2251.978,2567.857-2251.978,2573.123Z" transform="translate(2301.091 -2397.755)" fill="#3f8cb2"/>
            <path id="Path_167481" data-name="Path 167481" d="M-2264.875,2573.253c0,3.052-.3,6.8-2.593,6.8s-6.308.49-6.8-1.087c-.9-2.915,2.424-12.485,6.457-13.058C-2265.537,2565.588-2264.875,2570.2-2264.875,2573.253Z" transform="translate(2302.344 -2396.84)" fill="#1e5e82"/>
            <path id="Path_167482" data-name="Path 167482" d="M-2254.6,2573.463c-.616-4.148-3.63-9.27-9.946-8.614a9.554,9.554,0,0,0-8.472,9.535c.434,9.108,2.869,22.769,4.928,37.7.9.4,10.063.163,13.653-.539C-2254.445,2597.55-2253.911,2578.132-2254.6,2573.463Z" transform="translate(2302.652 -2397.085)" fill="#ffc19f"/>
            <path id="Path_167483" data-name="Path 167483" d="M-2245.166,2516.459c-1.421,3.289-7.049,4.02-12.574,1.635s-8.852-6.985-7.432-10.273,7.049-4.021,12.573-1.635S-2243.746,2513.171-2245.166,2516.459Z" transform="translate(2304.327 -2410.438)" fill="#960c0c" opacity="0.19"/>
            <g id="Group_109547" data-name="Group 109547" transform="translate(65.636 207.53)">
              <path id="Path_167484" data-name="Path 167484" d="M-2217.446,2619.5c3.6-.1,6.811-.884,7.272-1.978a4.655,4.655,0,0,0,.154-2.186c-.221-.974-2.159-3.035-2.883-3.073-.473,2.474-3.312,4.523-10.22,3.512-6.432-.94-19.719-6.7-20.391-7.23,0,0,.032,2.537.056,3.089,5.207,2.653,12.95,6.112,16.543,6.943A48.568,48.568,0,0,0-2217.446,2619.5Z" transform="translate(2243.583 -2594.88)" fill="#00517e"/>
              <path id="Path_167485" data-name="Path 167485" d="M-2243.076,2606.879c0,.251,15.927,1.478,15.988,1.181.538-2.584,1.028-8.883,1.291-10.386l-17.177-.307C-2242.928,2600.218-2243.109,2605.073-2243.076,2606.879Z" transform="translate(2243.68 -2597.367)" fill="#fff"/>
              <path id="Path_167486" data-name="Path 167486" d="M-2242.964,2601.4c.416,1.092,7.7,2.182,7.9,2.048.395-.175.135-2.428.527-2.73.767-.589,8.566-1.57,9.387-.632.266.3.231,1.211.767,2.185,4.084,5.142,7.471,6.66,9.848,9.058,2.469,2.49,4.471,5.6,3.542,6.3-1.9,1.424-10.258,1.529-15.457.27-3.491-.847-15.381-6.4-17.065-7.259-.037-1.237-.035-7.155-.054-8.836C-2243.573,2601.554-2243.166,2601.41-2242.964,2601.4Z" transform="translate(2243.571 -2596.847)" fill="#0984af"/>
              <path id="Path_167487" data-name="Path 167487" d="M-2223.494,2604.182a.373.373,0,0,0-.126-.546,7.057,7.057,0,0,0-4.842-.01l-.188.059a7.407,7.407,0,0,0-4.132,2.775.376.376,0,0,0,.139.543.456.456,0,0,0,.326.022.484.484,0,0,0,.263-.2,6.625,6.625,0,0,1,3.612-2.384c.057-.019.114-.036.169-.048a6.251,6.251,0,0,1,4.191-.045A.476.476,0,0,0-2223.494,2604.182Z" transform="translate(2245.958 -2596.067)" fill="#d3dae5"/>
              <path id="Path_167488" data-name="Path 167488" d="M-2222.077,2605.883a.372.372,0,0,0-.1-.55,5.767,5.767,0,0,0-4.4-.324l-.19.051a7.4,7.4,0,0,0-4.229,2.621.375.375,0,0,0,.121.547.449.449,0,0,0,.326.034.489.489,0,0,0,.269-.189,6.626,6.626,0,0,1,3.694-2.248c.057-.016.115-.031.172-.04a4.912,4.912,0,0,1,3.753.243A.472.472,0,0,0-2222.077,2605.883Z" transform="translate(2246.352 -2595.726)" fill="#d3dae5"/>
              <path id="Path_167489" data-name="Path 167489" d="M-2220.315,2607.378a.374.374,0,0,0-.1-.552,5.534,5.534,0,0,0-4.312-.424l-.192.047a7.4,7.4,0,0,0-4.274,2.543.374.374,0,0,0,.11.549.456.456,0,0,0,.325.041.487.487,0,0,0,.271-.185,6.628,6.628,0,0,1,3.735-2.18c.058-.015.115-.029.171-.038a4.679,4.679,0,0,1,3.664.333A.476.476,0,0,0-2220.315,2607.378Z" transform="translate(2246.754 -2595.407)" fill="#d3dae5"/>
            </g>
            <g id="Group_109548" data-name="Group 109548" transform="translate(32.498 205.677)">
              <path id="Path_167490" data-name="Path 167490" d="M-2252.888,2616.651l-16.88,1.008c.037-1.621.139-7.6-.048-12.916-.133-3.809-.539-7.342-.652-8.375l16.179-.516c-.3,2.023-.4,5.3-.68,6.642C-2255.215,2603.663-2252.656,2615.925-2252.888,2616.651Z" transform="translate(2270.724 -2595.851)" fill="#fff"/>
              <path id="Path_167491" data-name="Path 167491" d="M-2269.959,2618.81c2.285,2.729,6.859,4.439,9.018,4.306,2.65-.163,6.614-1.714,7.834-3.911a11.725,11.725,0,0,0,.7-4.237c-2.805-2.383-16.148-1.872-18.085.281A11.912,11.912,0,0,0-2269.959,2618.81Z" transform="translate(2270.719 -2591.948)" fill="#00517e"/>
              <path id="Path_167492" data-name="Path 167492" d="M-2270.343,2619.185c2.144,3.061,7.091,5.313,9.742,5.109,3.6-.276,7.114-2.479,8.24-5.958.08-2.445-.608-5.51-1.83-12.7-.07-.675-.056-3.827-.049-4.656-3.084-3.429-13.281-4.042-15.831.671.024.885.073,2.191.019,3.7C-2270.328,2613.187-2271.124,2618.068-2270.343,2619.185Z" transform="translate(2270.677 -2595.315)" fill="#0984af"/>
              <path id="Path_167493" data-name="Path 167493" d="M-2257.619,2606.652a.32.32,0,0,0,.045-.51,7.63,7.63,0,0,0-4.648-1.359h-.2a7.987,7.987,0,0,0-4.814,1.26.319.319,0,0,0-.031.509.478.478,0,0,0,.307.111.515.515,0,0,0,.312-.1,7.174,7.174,0,0,1,4.2-1.065c.06,0,.119,0,.176.008a6.765,6.765,0,0,1,4.04,1.128A.517.517,0,0,0-2257.619,2606.652Zm.251,2.511a.316.316,0,0,0,.028-.51c-1.819-1.609-7.511-1.952-10.011-.1a.32.32,0,0,0-.045.51.5.5,0,0,0,.616.02c2.1-1.543,7.254-1.282,8.8.074a.463.463,0,0,0,.3.11A.522.522,0,0,0-2257.368,2609.162Zm-10.174,2.688a.457.457,0,0,0,.318.125.519.519,0,0,0,.3-.09c2.193-1.548,7.638-1.28,9.265.078a.5.5,0,0,0,.618,0,.313.313,0,0,0,.016-.5c-1.912-1.609-7.857-1.951-10.457-.109A.318.318,0,0,0-2267.542,2611.85Z" transform="translate(2271.353 -2593.864)" fill="#fff"/>
            </g>
            <g id="Group_109551" data-name="Group 109551" transform="translate(8.56)">
              <path id="Path_167494" data-name="Path 167494" d="M-2213.813,2491.477c-1.215,7.513-6.553,12.706-10.713,12.412s-5.162-6.255-4.679-13.425,4.246-12.762,8.4-12.45C-2215.116,2478.441-2212.671,2484.412-2213.813,2491.477Z" transform="translate(2303.818 -2416.397)" fill="#f4b18c"/>
              <path id="Path_167495" data-name="Path 167495" d="M-2202.283,2479.312c-1.814,29.146-21.06,41.107-46.87,39.5s-31.365-11-38.554-29.624c-2.859-11.857-4.326-27.142,1.162-37.458,6.189-11.639,24.64-15.292,41.817-12.774C-2225.833,2441.727-2200.469,2450.167-2202.283,2479.312Z" transform="translate(2290.258 -2425.254)" fill="#002e59"/>
              <path id="Path_167496" data-name="Path 167496" d="M-2208.172,2461.5A6.661,6.661,0,0,1-2206,2467c-1.734,20.341-1.018,26.97-2.852,40.628-1.428,10.641-11.55,18.718-20.511,20.961-10.733,2.687-38.018,1.037-51.107-27.372-5.554-12.055-3.771-36.395-1.655-41,7.155-15.549,15.535-13.416,36.277-12.125C-2226.443,2449.3-2218.291,2450.491-2208.172,2461.5Z" transform="translate(2291.613 -2423.252)" fill="#ffc19f"/>
              <path id="Path_167497" data-name="Path 167497" d="M-2270.248,2475.061c.49,9.961-.033,21.3-6.432,25.817-7.462,5.269-13.385-17.219-12.522-31.075s11.316-23.514,28.882-21.208C-2251.264,2449.785-2271.418,2451.3-2270.248,2475.061Z" transform="translate(2290.475 -2423.017)" fill="#002e59"/>
              <path id="Path_167498" data-name="Path 167498" d="M-2258.08,2492.989c-.256,1.545-2.884,2.4-5.87,1.9s-5.2-2.147-4.943-3.693,2.884-2.4,5.87-1.9S-2257.825,2491.444-2258.08,2492.989Z" transform="translate(2295.008 -2413.916)" fill="#ff9797"/>
              <path id="Path_167499" data-name="Path 167499" d="M-2239.022,2503.969a.615.615,0,0,1-.528-.3,5.218,5.218,0,0,0-3.48-2.494,11.909,11.909,0,0,0-8.017,1.819.6.6,0,0,1-.836-.2.6.6,0,0,1,.209-.832,12.841,12.841,0,0,1,8.862-1.98,6.366,6.366,0,0,1,4.318,3.083.609.609,0,0,1-.224.83A.571.571,0,0,1-2239.022,2503.969Z" transform="translate(2298.777 -2411.544)" fill="#934341"/>
              <path id="Path_167500" data-name="Path 167500" d="M-2222.04,2495.111c-.053,1.4-1.866,2.471-4.047,2.387s-3.906-1.287-3.852-2.69,1.865-2.471,4.046-2.387S-2221.986,2493.708-2222.04,2495.111Z" transform="translate(2303.679 -2413.191)" fill="#ff9797"/>
              <path id="Path_167501" data-name="Path 167501" d="M-2232.255,2471.2a1.071,1.071,0,0,0-.949.093,1.326,1.326,0,0,0-.516,1.66c2,4.221,7.3,7.113,12.619,6.882a1.278,1.278,0,0,0,1.16-1.265,1.08,1.08,0,0,0-1.094-1.164c-4.452.2-9.037-2.238-10.657-5.669A1.048,1.048,0,0,0-2232.255,2471.2Z" transform="translate(2302.813 -2417.927)" fill="#002e59"/>
              <path id="Path_167502" data-name="Path 167502" d="M-2252.035,2468.232a1.283,1.283,0,0,0-.786.55c-2.336,3.54-7.943,5.834-13.054,5.33a1.289,1.289,0,0,0-1.422,1.166,1.3,1.3,0,0,0,1.165,1.421c6.091.606,12.608-2.126,15.481-6.485a1.3,1.3,0,0,0-.368-1.8A1.3,1.3,0,0,0-2252.035,2468.232Z" transform="translate(2295.366 -2418.579)" fill="#002e59"/>
              <path id="Path_167503" data-name="Path 167503" d="M-2240.657,2492.561a.368.368,0,0,1-.342-.329,2.467,2.467,0,0,0-2.432-2.254,2.451,2.451,0,0,0-2.691,1.928.369.369,0,0,1-.434.285.369.369,0,0,1-.285-.434,3.2,3.2,0,0,1,3.455-2.51,3.208,3.208,0,0,1,3.116,2.911.367.367,0,0,1-.328.4Z" transform="translate(2299.917 -2413.897)" fill="#c4735b"/>
              <path id="Path_167504" data-name="Path 167504" d="M-2289.423,2491.974c2.79,7.77,9.841,11.785,13.615,11.3,4.4-.572,5.633-7.337,4.7-15s-5.68-12.565-10.777-12.035C-2288.079,2476.877-2292,2484.788-2289.423,2491.974Z" transform="translate(2290.265 -2416.8)" fill="#ffc19f"/>
              <path id="Path_167505" data-name="Path 167505" d="M-2284.362,2491.3c1.268,3.535,4.938,5.009,6.54,4.082,1.8-1.044,1.83-3.122,1.2-6.584-.738-4.043-2.4-6.29-5.023-5.426C-2284.369,2484.273-2285.856,2487.141-2284.362,2491.3Z" transform="translate(2291.438 -2415.243)" fill="#e0956c"/>
              <path id="Path_167506" data-name="Path 167506" d="M-2207.931,2455.188c4.172-1.281,6.693-2.877,6.605-4.511-.153-2.824-8.023-4.868-18.595-5.132,4.619-3.533,6.232-5.4,5.353-9.128-1.768-7.488-16.162-10.853-32.146-7.517s-26.409,9.616-24.641,17.1a11.382,11.382,0,0,0-9.416,5.315,33.95,33.95,0,0,0,8.3,10.629c6.491,5.938,14.831,6.819,16.871,4.1.78-1.04.633-2.6-.247-4.407a98.953,98.953,0,0,0,20.933,6.619c19.158,3.97,38.972,3.171,40.222-2.467C-2194.02,2462.755-2199.459,2456.926-2207.931,2455.188Z" transform="translate(2292.369 -2427.611)" fill="#002e59"/>
              <g id="Group_109549" data-name="Group 109549" transform="translate(64.406 61.883)">
                <path id="Path_167507" data-name="Path 167507" d="M-2237.525,2492.553s9.385,4.535,13.618-1.206c5.161-6.995-1.225-13.443-5.8-12.7C-2233.941,2479.341-2238.076,2483.267-2237.525,2492.553Z" transform="translate(2237.574 -2478.149)" fill="#f9feff"/>
                <path id="Path_167508" data-name="Path 167508" d="M-2222.72,2482.057a6.813,6.813,0,0,0-6.559-3.823,8.029,8.029,0,0,0-6.6,4.361,8.429,8.429,0,0,1,5.828-3.494,6.757,6.757,0,0,1,6.858,3.957,9.013,9.013,0,0,1-1.229,8.552C-2222.3,2489.937-2221.093,2485.021-2222.72,2482.057Z" transform="translate(2237.952 -2478.229)" fill="#002e59"/>
                <path id="Path_167509" data-name="Path 167509" d="M-2234.559,2487.515c-.256,2.861,1.484,5.354,3.885,5.567s4.554-1.931,4.808-4.792-1.485-5.354-3.885-5.567S-2234.305,2484.654-2234.559,2487.515Z" transform="translate(2238.24 -2477.233)" fill="#229996"/>
                <path id="Path_167510" data-name="Path 167510" d="M-2230.964,2488.9a1.629,1.629,0,0,0,.521,2.034,1.215,1.215,0,0,0,1.732-.676,1.628,1.628,0,0,0-.521-2.033A1.214,1.214,0,0,0-2230.964,2488.9Z" transform="translate(2239.011 -2476.042)" fill="#fefffe"/>
                <path id="Path_167511" data-name="Path 167511" d="M-2233.28,2484.678a2.739,2.739,0,0,0,.874,3.416,2.042,2.042,0,0,0,2.91-1.135,2.735,2.735,0,0,0-.874-3.414A2.04,2.04,0,0,0-2233.28,2484.678Z" transform="translate(2238.473 -2477.107)" fill="#fefffe"/>
              </g>
              <g id="Group_109550" data-name="Group 109550" transform="translate(29.286 58.702)">
                <path id="Path_167512" data-name="Path 167512" d="M-2248.971,2491.543s-11.846,2.663-15.7-3.792c-4.7-7.865,4.007-12.982,9.216-11.373C-2250.633,2477.867-2246.548,2482.52-2248.971,2491.543Z" transform="translate(2266.367 -2475.527)" fill="#f9feff"/>
                <path id="Path_167513" data-name="Path 167513" d="M-2264.639,2478.339a8.7,8.7,0,0,1,8.4-2.5c3.155.6,6.179,3.142,6.884,5.551-1.479-2.774-4.346-4-6.148-4.55a8.628,8.628,0,0,0-8.78,2.576,7.8,7.8,0,0,0-.2,8.643C-2266.635,2486.007-2267.111,2480.941-2264.639,2478.339Z" transform="translate(2266.303 -2475.628)" fill="#002e59"/>
                <path id="Path_167514" data-name="Path 167514" d="M-2261.382,2483.219a5.2,5.2,0,0,0,2.3,6.982,5.2,5.2,0,0,0,6.983-2.3,5.2,5.2,0,0,0-2.3-6.982A5.2,5.2,0,0,0-2261.382,2483.219Z" transform="translate(2267.274 -2474.575)" fill="#229996"/>
                <path id="Path_167515" data-name="Path 167515" d="M-2257.6,2486.624a1.517,1.517,0,0,0,.648,2.045,1.518,1.518,0,0,0,2.045-.65,1.517,1.517,0,0,0-.649-2.044A1.515,1.515,0,0,0-2257.6,2486.624Z" transform="translate(2268.201 -2473.364)" fill="#fefffe"/>
                <path id="Path_167516" data-name="Path 167516" d="M-2260.576,2482.559a2.8,2.8,0,0,0,1.2,3.767,2.8,2.8,0,0,0,3.767-1.2,2.794,2.794,0,0,0-1.2-3.767A2.794,2.794,0,0,0-2260.576,2482.559Z" transform="translate(2267.507 -2474.422)" fill="#fefffe"/>
              </g>
            </g>
            <g id="Group_109554" data-name="Group 109554" transform="translate(0 72.645)">
              <path id="Path_167517" data-name="Path 167517" d="M-2269.011,2487.033c2.627.069,9.275,1.91,10.221,2.709,1.214,2.884,2.908,8.824,2.7,9.38-.34.908-5.025,3.911-6.774,4.521a1.09,1.09,0,0,1-1.269-.772s-2.132.565-2.4-.661c-.773.386-2.643.08-2.418-1.438-.8.178-2.972.057-2.968-1.956-.8-.447-3.3,3.741-8.478,1.39-.458.632-4.935-2.447-6.358-4.7,1.545-1.261,4.816-3.626,4.9-3.692C-2280.095,2490.4-2270.8,2486.988-2269.011,2487.033Z" transform="translate(2299.598 -2487.032)" fill="#7f1703" opacity="0.19"/>
              <path id="Path_167518" data-name="Path 167518" d="M-2277.429,2490.884c.979.5,1.009,7.24,2.251,8.032-5.934,10.065-12.451,23.772-14.847,28.153,0,0-7.15-2.639-7.234-9.113C-2297.338,2511.876-2284.174,2494.917-2277.429,2490.884Z" transform="translate(2297.26 -2486.176)" fill="#ffc19f"/>
              <g id="Group_109553" data-name="Group 109553" transform="translate(18.96 0.886)">
                <path id="Path_167519" data-name="Path 167519" d="M-2260.484,2498.316c-.226.61-4.242,2.968-6.3,3.685-.874.3-1.263-.336-.989-2.511-2.516-3.512-2.908-7.653-1.389-9.432.52-.608,4.138-.66,6.332-.362C-2262.387,2490.047-2260.113,2497.317-2260.484,2498.316Z" transform="translate(2284.353 -2487.365)" fill="#fcb595"/>
                <path id="Path_167520" data-name="Path 167520" d="M-2269.2,2488.765c-4.341.511-9.035,1.762-9.8,2.861-1.334,1.922-.689,4.484,3.449,6.712a18.273,18.273,0,0,0,7.052.451C-2268.258,2498.529-2266.2,2491.188-2269.2,2488.765Z" transform="translate(2282.224 -2487.533)" fill="#f29d77"/>
                <path id="Path_167521" data-name="Path 167521" d="M-2264.919,2502.2c-.875.406-1.874-.151-1.656-1.1-1.723.264-2.512-.424-2.415-1.712-2.316,1.064-3.974-4.166-3.162-4.977a4.367,4.367,0,0,1,1.7-1.163c.475-.189,1.016.98.926,1.625-.1.708-.578.766-.363,1.122.177.083.961-.385,1.237-.653.214-.209-.045-1.315-.492-2.763-2.732-.222-3.258.733-3.98,1.891-1.045,1.672-.587,3.258-1.489,4.439a3.494,3.494,0,0,1-4.381,1.225c-2.373-1.363-3.945-7.641-1.591-8.729,1.694-.783,9.718-3.614,10.131-3.634,2.947-.135,8.84.873,10.1,2.075.969.922,1.244,6.8.883,8.3C-2259.748,2499.289-2261.894,2500.8-2264.919,2502.2Z" transform="translate(2281.751 -2487.757)" fill="#ffc19f"/>
                <g id="Group_109552" data-name="Group 109552" transform="translate(11.949 4.372)">
                  <path id="Path_167522" data-name="Path 167522" d="M-2264.568,2495.985c.011-.83.03-2.375-.071-3.855a.165.165,0,0,0-.18-.159.182.182,0,0,0-.154.195c.1,1.467.082,3,.073,3.826,0,.28-.007.485,0,.587.04.385-1.8,2.455-4.9,3.633a2.9,2.9,0,0,0,.725-.006c2.534-1.076,4.532-2.915,4.511-3.647C-2264.573,2496.458-2264.571,2496.259-2264.568,2495.985Z" transform="translate(2272.46 -2491.191)" fill="#f29d77"/>
                  <path id="Path_167523" data-name="Path 167523" d="M-2267.38,2495.375c.011-.834.032-2.385-.071-3.881a.164.164,0,0,0-.18-.159.184.184,0,0,0-.154.2c.1,1.482.082,3.024.071,3.851,0,.268,0,.462,0,.563.015.515-4.254,3.054-4.261,3.108a4.2,4.2,0,0,0,.71-.251c1.937-1.138,3.946-2.25,3.883-2.879C-2267.393,2495.826-2267.382,2495.635-2267.38,2495.375Z" transform="translate(2271.977 -2491.333)" fill="#f29d77"/>
                </g>
              </g>
            </g>
            <g id="Group_109555" data-name="Group 109555" transform="translate(27.657 72.616)" opacity="0.79">
              <path id="Path_167524" data-name="Path 167524" d="M-2274.207,2490.233c-1.659,2.443,1.872,4.968,3.9,2.789,1.284-1.38,1.791-4.682,7.3-5.1C-2268.814,2485.618-2272.808,2488.173-2274.207,2490.233Z" transform="translate(2274.637 -2487.01)" fill="#38d5f9"/>
            </g>
          </g>
        </g>
      </g>
      <g id="Group_109565" data-name="Group 109565" transform="translate(203.083 65.724)">
        <g id="Group_109557" data-name="Group 109557" transform="translate(0)">
          <path id="Path_167525" data-name="Path 167525" d="M-2178.555,2504.475a14.428,14.428,0,0,1-2.868-10.158,14.488,14.488,0,0,1,15.834-13,14.486,14.486,0,0,1,13,15.833,14.486,14.486,0,0,1-15.834,13,14.526,14.526,0,0,1-3.886-.936l-10.091,5.862Z" transform="translate(2182.4 -2481.246)" fill="#0077ec"/>
        </g>
        <g id="Group_109564" data-name="Group 109564" transform="translate(5.874 5.158)">
          <g id="Group_109558" data-name="Group 109558">
            <ellipse id="Ellipse_5251" data-name="Ellipse 5251" cx="9.32" cy="9.32" rx="9.32" ry="9.32" fill="#ffd63b"/>
          </g>
          <g id="Group_109559" data-name="Group 109559" transform="translate(12.764 6.956)">
            <path id="Path_167526" data-name="Path 167526" d="M-2167.154,2492.328a1.173,1.173,0,0,0,1.173,1.173,1.172,1.172,0,0,0,1.172-1.173,1.172,1.172,0,0,0-1.172-1.173A1.173,1.173,0,0,0-2167.154,2492.328Z" transform="translate(2167.154 -2491.156)" fill="#002e59"/>
          </g>
          <g id="Group_109560" data-name="Group 109560" transform="translate(4.355 12.505)">
            <path id="Path_167527" data-name="Path 167527" d="M-2173.461,2498.493a.57.57,0,0,0,.345-.116c4.458-3.393,7.879-.183,8.022-.045a.571.571,0,0,0,.805-.012.569.569,0,0,0-.01-.8,7.2,7.2,0,0,0-9.509-.045.569.569,0,0,0-.109.8A.569.569,0,0,0-2173.461,2498.493Z" transform="translate(2174.032 -2495.695)" fill="#002e59"/>
          </g>
          <g id="Group_109561" data-name="Group 109561" transform="translate(11.17 5.373)">
            <path id="Path_167528" data-name="Path 167528" d="M-2167.886,2493.477a.567.567,0,0,0,.308-.092l3.845-2.474a.571.571,0,0,0,.172-.789.572.572,0,0,0-.789-.171l-3.845,2.476a.57.57,0,0,0-.171.789A.571.571,0,0,0-2167.886,2493.477Z" transform="translate(2168.457 -2489.861)" fill="#002e59"/>
          </g>
          <g id="Group_109562" data-name="Group 109562" transform="translate(3.753 6.956)">
            <path id="Path_167529" data-name="Path 167529" d="M-2172.179,2492.328a1.173,1.173,0,0,1-1.174,1.173,1.172,1.172,0,0,1-1.172-1.173,1.172,1.172,0,0,1,1.172-1.173A1.172,1.172,0,0,1-2172.179,2492.328Z" transform="translate(2174.525 -2491.156)" fill="#002e59"/>
          </g>
          <g id="Group_109563" data-name="Group 109563" transform="translate(2.706 5.373)">
            <path id="Path_167530" data-name="Path 167530" d="M-2170.967,2493.477a.572.572,0,0,0,.481-.262.57.57,0,0,0-.171-.789l-3.844-2.476a.572.572,0,0,0-.789.171.571.571,0,0,0,.171.789l3.845,2.474A.568.568,0,0,0-2170.967,2493.477Z" transform="translate(2175.381 -2489.861)" fill="#002e59"/>
          </g>
        </g>
      </g>
      <g id="Group_109568" data-name="Group 109568" transform="translate(185.833 128.393)">
        <g id="Group_109566" data-name="Group 109566" transform="translate(0 0)">
          <path id="Path_167531" data-name="Path 167531" d="M-2196.51,2533.414l11.3,4.622a17.916,17.916,0,0,1,12.959-5.527,17.972,17.972,0,0,1,17.973,17.972,17.972,17.972,0,0,1-17.973,17.972,17.972,17.972,0,0,1-17.972-17.972,18.055,18.055,0,0,1,.5-4.214Z" transform="translate(2196.51 -2532.509)" fill="#0077ec"/>
        </g>
        <g id="Group_109567" data-name="Group 109567" transform="translate(15.684 9.609)">
          <path id="Path_167532" data-name="Path 167532" d="M-2183.681,2553.259s2.937-.747,5.178,2.616.533,4.859,3.629,4.859c2.617,0,.32-7.545.32-7.545h7.9a1.475,1.475,0,0,0,1.761-1.637c-.052-1.923-2.188-1.549-2.188-1.549a1.751,1.751,0,0,0,1.441-1.976c-.106-1.762-2.028-1.494-2.028-1.494s1.442-.214,1.442-1.495-1.815-1.655-1.815-1.655,1.121-.534,1.067-1.5a1.592,1.592,0,0,0-1.387-1.494c-.534-.054-15.322,0-15.322,0Z" transform="translate(2183.681 -2540.369)" fill="#fff"/>
        </g>
      </g>
      <g id="Group_109571" data-name="Group 109571" transform="translate(170.149 41.025)">
        <g id="Group_109569" data-name="Group 109569">
          <path id="Path_167533" data-name="Path 167533" d="M-2209,2473.493a15.681,15.681,0,0,1,18.577-12.11,15.681,15.681,0,0,1,12.112,18.577,15.682,15.682,0,0,1-18.506,12.124l-8.862,8.681,1.256-12.638A15.672,15.672,0,0,1-2209,2473.493Z" transform="translate(2209.34 -2461.042)" fill="#0077ec"/>
        </g>
        <g id="Group_109570" data-name="Group 109570" transform="translate(7.125 7.032)">
          <path id="Path_167534" data-name="Path 167534" d="M-2203.512,2479.686s2.936-.749,5.179,2.615.534,4.858,3.631,4.858c2.616,0,.32-7.544.32-7.544h7.9a1.477,1.477,0,0,0,1.762-1.638c-.054-1.922-2.188-1.548-2.188-1.548a1.752,1.752,0,0,0,1.441-1.976c-.108-1.762-2.03-1.5-2.03-1.5s1.441-.212,1.441-1.494-1.814-1.655-1.814-1.655,1.122-.534,1.067-1.5a1.6,1.6,0,0,0-1.387-1.5c-.534-.052-15.323,0-15.323,0Z" transform="translate(2203.512 -2466.795)" fill="#fff"/>
        </g>
      </g>
    </g>
    <rect id="Rectangle_36531" data-name="Rectangle 36531" width="280" height="293" transform="translate(660 2768)" fill="none"/>
  </g>
</svg>
