<svg xmlns="http://www.w3.org/2000/svg" width="280" height="329" viewBox="0 0 280 329">
  <g id="t5-c6" transform="translate(-982 -2768)">
    <path id="Rectangle_36365" data-name="Rectangle 36365" d="M0,0H280a0,0,0,0,1,0,0V25a30,30,0,0,1-30,30H30A30,30,0,0,1,0,25V0A0,0,0,0,1,0,0Z" transform="translate(982 3042)" fill="#004080"/>
    <path id="Path_169436" data-name="Path 169436" d="M55.028,14.361H49.1V18.1h7V21H45.328V5.359h10.8V8.271H49.1v3.3h5.93Zm8.529,3.373a.836.836,0,0,0-.483-.741,7.353,7.353,0,0,0-1.837-.58A8.376,8.376,0,0,1,59,15.624a3.743,3.743,0,0,1-1.343-1.187,2.835,2.835,0,0,1-.462-1.6A3.212,3.212,0,0,1,58.52,10.2a5.443,5.443,0,0,1,3.459-1.037,6.03,6.03,0,0,1,3.7,1.042,3.258,3.258,0,0,1,1.4,2.739H63.439q0-1.4-1.472-1.4a1.459,1.459,0,0,0-.956.317.981.981,0,0,0-.387.79.9.9,0,0,0,.473.784,4.466,4.466,0,0,0,1.509.494,13.042,13.042,0,0,1,1.821.462q2.621.9,2.621,3.233a3.044,3.044,0,0,1-1.413,2.589,6.2,6.2,0,0,1-3.658,1,6.322,6.322,0,0,1-2.664-.537,4.455,4.455,0,0,1-1.826-1.461,3.308,3.308,0,0,1-.655-1.944h3.384a1.4,1.4,0,0,0,.537,1.176,2.209,2.209,0,0,0,1.321.371,1.738,1.738,0,0,0,1.112-.3A.962.962,0,0,0,63.558,17.734Zm15.974-2.46A7.009,7.009,0,0,1,78.312,19.6a3.909,3.909,0,0,1-3.292,1.617,3.351,3.351,0,0,1-2.632-1.171v5.425h-3.62V9.377h3.384l.107,1.074A3.351,3.351,0,0,1,75,9.162a3.941,3.941,0,0,1,3.341,1.584A7.1,7.1,0,0,1,79.531,15.1Zm-3.62-.226q0-3.094-1.8-3.094a1.7,1.7,0,0,0-1.719.924v4.576a1.759,1.759,0,0,0,1.74.967q1.729,0,1.783-2.986ZM86.75,21.215a5.975,5.975,0,0,1-4.329-1.6,5.509,5.509,0,0,1-1.654-4.152v-.3a7.138,7.138,0,0,1,.661-3.147,4.834,4.834,0,0,1,1.928-2.111,5.821,5.821,0,0,1,3.008-.747,5.031,5.031,0,0,1,3.867,1.52,5.973,5.973,0,0,1,1.418,4.238v1.407h-7.2a2.609,2.609,0,0,0,.849,1.536,2.525,2.525,0,0,0,1.7.559,3.254,3.254,0,0,0,2.686-1.2l1.654,1.955a4.624,4.624,0,0,1-1.917,1.488A6.48,6.48,0,0,1,86.75,21.215Zm-.408-9.26q-1.59,0-1.891,2.105H88.1v-.279a1.793,1.793,0,0,0-.44-1.348A1.753,1.753,0,0,0,86.342,11.955Zm11.677,6.467a1.61,1.61,0,0,0,1.182-.414,1.517,1.517,0,0,0,.408-1.155H103a4.018,4.018,0,0,1-1.37,3.137A5.1,5.1,0,0,1,98.1,21.215a5.158,5.158,0,0,1-4-1.59,6.264,6.264,0,0,1-1.461-4.4v-.15a7.08,7.08,0,0,1,.65-3.11,4.732,4.732,0,0,1,1.875-2.073,5.589,5.589,0,0,1,2.9-.725,5.03,5.03,0,0,1,3.6,1.257A4.458,4.458,0,0,1,103,13.824H99.608a1.987,1.987,0,0,0-.44-1.386,1.52,1.52,0,0,0-1.182-.483q-1.407,0-1.644,1.794a12.658,12.658,0,0,0-.075,1.568,4.972,4.972,0,0,0,.419,2.428A1.45,1.45,0,0,0,98.019,18.422ZM108.75,6.487v2.89h1.912v2.514H108.75v5.317a1.358,1.358,0,0,0,.236.913,1.268,1.268,0,0,0,.935.258,5.311,5.311,0,0,0,.9-.064V20.9a6.681,6.681,0,0,1-2.041.312,3.792,3.792,0,0,1-2.761-.881,3.61,3.61,0,0,1-.892-2.675V11.891h-1.482V9.377h1.482V6.487ZM118.633,21a4.087,4.087,0,0,1-.344-1.042,3.366,3.366,0,0,1-2.793,1.257,4.124,4.124,0,0,1-2.793-.994,3.163,3.163,0,0,1-1.149-2.5,3.251,3.251,0,0,1,1.4-2.857,7.114,7.114,0,0,1,4.061-.967h1.117v-.615q0-1.608-1.386-1.608a1.133,1.133,0,0,0-1.289,1.274h-3.62a3.245,3.245,0,0,1,1.434-2.736,6.027,6.027,0,0,1,3.658-1.051,5.284,5.284,0,0,1,3.513,1.085,3.772,3.772,0,0,1,1.321,2.976v5.146a5.269,5.269,0,0,0,.494,2.449V21Zm-2.267-2.363a2.019,2.019,0,0,0,1.123-.29,1.818,1.818,0,0,0,.639-.655V15.833h-1.053q-1.891,0-1.891,1.7a1.036,1.036,0,0,0,.333.8A1.205,1.205,0,0,0,116.366,18.637Zm6.939-3.534a7.1,7.1,0,0,1,1.192-4.351,3.925,3.925,0,0,1,3.33-1.59,3.338,3.338,0,0,1,2.621,1.225V4.5h3.631V21h-3.255l-.183-1.246a3.428,3.428,0,0,1-2.836,1.461,3.918,3.918,0,0,1-3.287-1.59A7.325,7.325,0,0,1,123.306,15.1Zm3.62.226q0,3.094,1.8,3.094a1.782,1.782,0,0,0,1.719-1.01V12.986a1.734,1.734,0,0,0-1.7-1.031q-1.676,0-1.815,2.707Zm8.755-.247a6.86,6.86,0,0,1,.677-3.1A4.84,4.84,0,0,1,138.3,9.893a5.856,5.856,0,0,1,2.976-.73,5.344,5.344,0,0,1,4.114,1.617,6.2,6.2,0,0,1,1.5,4.4v.129a6.019,6.019,0,0,1-1.509,4.313,5.359,5.359,0,0,1-4.087,1.6,5.42,5.42,0,0,1-3.985-1.488,5.819,5.819,0,0,1-1.622-4.034Zm3.62.226a4.325,4.325,0,0,0,.5,2.363,1.682,1.682,0,0,0,1.493.752q1.934,0,1.977-2.976v-.365q0-3.126-2-3.126-1.815,0-1.966,2.7Zm16.221-2.653-1.192-.086a2.142,2.142,0,0,0-2.191,1.074V21h-3.62V9.377h3.395l.118,1.493a2.8,2.8,0,0,1,2.546-1.708,3.53,3.53,0,0,1,1.01.129Zm6.725,8.562a5.975,5.975,0,0,1-4.329-1.6,5.509,5.509,0,0,1-1.654-4.152v-.3a7.138,7.138,0,0,1,.661-3.147,4.834,4.834,0,0,1,1.928-2.111,5.821,5.821,0,0,1,3.008-.747,5.031,5.031,0,0,1,3.867,1.52,5.973,5.973,0,0,1,1.418,4.238v1.407h-7.2a2.609,2.609,0,0,0,.849,1.536,2.525,2.525,0,0,0,1.7.559,3.254,3.254,0,0,0,2.686-1.2l1.654,1.955a4.624,4.624,0,0,1-1.917,1.488A6.48,6.48,0,0,1,162.246,21.215Zm-.408-9.26q-1.59,0-1.891,2.105H163.6v-.279a1.793,1.793,0,0,0-.44-1.348A1.753,1.753,0,0,0,161.838,11.955Zm12.848,5.779a.836.836,0,0,0-.483-.741,7.353,7.353,0,0,0-1.837-.58,8.376,8.376,0,0,1-2.234-.79,3.743,3.743,0,0,1-1.343-1.187,2.835,2.835,0,0,1-.462-1.6,3.212,3.212,0,0,1,1.321-2.637,5.443,5.443,0,0,1,3.459-1.037,6.03,6.03,0,0,1,3.7,1.042,3.258,3.258,0,0,1,1.4,2.739h-3.631q0-1.4-1.472-1.4a1.459,1.459,0,0,0-.956.317.981.981,0,0,0-.387.79.9.9,0,0,0,.473.784,4.466,4.466,0,0,0,1.509.494,13.042,13.042,0,0,1,1.821.462q2.621.9,2.621,3.233a3.044,3.044,0,0,1-1.413,2.589,6.2,6.2,0,0,1-3.658,1,6.322,6.322,0,0,1-2.664-.537,4.455,4.455,0,0,1-1.826-1.461,3.308,3.308,0,0,1-.655-1.944h3.384a1.4,1.4,0,0,0,.537,1.176,2.209,2.209,0,0,0,1.321.371,1.738,1.738,0,0,0,1.112-.3A.962.962,0,0,0,174.686,17.734Z" transform="translate(1011 3056)" fill="#fff"/>
    <g id="Group_109598" data-name="Group 109598" transform="translate(1005 2791.452)">
      <g id="Group_109596" data-name="Group 109596" transform="translate(0 0)">
        <g id="Group_109584" data-name="Group 109584" transform="translate(0)">
          <path id="Path_167608" data-name="Path 167608" d="M-2085.057,2591.945l.028.015c4.756,2.649,11.134,2.3,11.076-4.392-.036-4.289-4.2-8.794-7.624-10.91-5.751-3.551-13.288-4.459-19.916-3.98-2.929.211-7.293,1.5-6.435,5.3.787,3.489,5.7,3.6,8.416,4.534C-2093.8,2584.479-2090.168,2589.088-2085.057,2591.945Z" transform="translate(2283.602 -2393.223)" fill="#ffeca6"/>
          <path id="Path_167609" data-name="Path 167609" d="M-2064.057,2587.756c1.735,3.563-1.332,9.9-5.956,7.752-2.338-1.084-2.531-4.558-3.017-6.725-.4-1.792-7.684-11.071-1.316-10.053C-2069.9,2579.442-2065.929,2583.91-2064.057,2587.756Z" transform="translate(2236.873 -2392.194)" fill="#ffeca6"/>
          <path id="Path_167610" data-name="Path 167610" d="M-1922.943,2505.917c4.462-7.958,6.084-17.014,2.251-27.967-5.9-16.874-21.949-31-39.761-33.568-32.825-4.725-71.286,9.182-97.985,27.823-33.7,23.525-75.642,63.987-58.1,109.373,8.018,20.739,27.512,35.367,48.888,40.2,30.744,6.947,62.263-8.935,81.8-32.26,11.659-13.918,15.5-32.589,26.738-46.661C-1948.322,2529.345-1931.656,2521.455-1922.943,2505.917Z" transform="translate(2142.955 -2415.033)" fill="#ffeca6"/>
          <path id="Path_167611" data-name="Path 167611" d="M-2053.51,2430.127c1.78-4.6,5.133-9.232,10.048-10.649,5.723-1.647,15.582,2.9,10.691,9.951-1.4,2.025-3.641,3.28-5.8,4.467-3.553,1.952-8.441,6.022-12.712,5.881-4.886-.166-3.408-6.513-2.312-9.427C-2053.567,2430.275-2053.54,2430.2-2053.51,2430.127Z" transform="translate(2178.749 -2419.14)" fill="#ffeca6"/>
          <path id="Path_167612" data-name="Path 167612" d="M-2045.4,2434.852a6.058,6.058,0,0,1,3.608,3.855,3.871,3.871,0,0,1-1.012,4.281,5.507,5.507,0,0,1-4.246.771,26.183,26.183,0,0,0-4.021-.522c-.849.012-1.693.119-2.545.086-1.624-.066-3.188-.644-2.4-2.556.858-2.079,3.852-3.6,5.621-4.8A5.9,5.9,0,0,1-2045.4,2434.852Z" transform="translate(2190.625 -2416.518)" fill="#ffeca6"/>
          <path id="Path_167613" data-name="Path 167613" d="M-1945.573,2550.716a12.532,12.532,0,0,1-1.566-6.664,6.361,6.361,0,0,1,3.744-5.413c3.417-1.286,7.125,1.528,8.754,4.794s2.021,7.042,3.652,10.307a31.01,31.01,0,0,0,3.837,5.488c.9,1.113,1.848,2.449,1.531,3.846C-1927.27,2570.342-1944.164,2553.539-1945.573,2550.716Z" transform="translate(1947.177 -2399.007)" fill="#ffeca6"/>
        </g>
        <path id="Path_167614" data-name="Path 167614" d="M-2127.716,2509.442c4.4-38.82,38.5-68.5,68.226-72.789,20.948-3.023,40.049,7.79,49,26.751,5.312,11.258,9.565,23.739,19.222,31.59,18.04,14.668,37.385-.48,56.139,15.1,14.094,11.711,14.663,30.14,14.676,30.942.212,13.722-7.091,23.507-9.937,27.21-6.791,8.836-17.2,16.266-42.147,22.756-28.442,7.4-60.732,15.8-97.521,1.8-13.17-5.011-33.125-12.6-46.447-33.561C-2130.191,2537.721-2128.4,2515.445-2127.716,2509.442Z" transform="translate(2153.656 -2416.267)" fill="#fffbe8" opacity="0.95"/>
        <g id="Group_109593" data-name="Group 109593" transform="translate(55.623 4.697)">
          <path id="Path_167615" data-name="Path 167615" d="M-1976.217,2500.012c-1.328-.926-3.2-6.729-1.584-10.731,1.586-3.933.6-6.259-1.5-7.546-2.154-1.319-5.106-1.926-3.429-6.9,1.619-4.808.388-11.026-1.536-16.06-1.894-4.956-4.263-8.516-10.311-21.865-7.544.339-10.817,3.491-11.578,1.313-21.361-3.817-60.935,7.627-60.935,7.627-.6,6.388-5.827,15.819-10.6,21.632-6.3,7.665-6.06,9.634-2.107,16.084,1.311,2.14,2.769,4.9,2.242,6.683-.446,1.508-1.818,2.862-4.194,4.137-2.352,1.261-4.693,3.269-5.243,5.133-.779,2.628,1.266,4.8,2.249,7.147a9.008,9.008,0,0,1,.355,5.57c-.99,2.55-5.8,6.455-1.731,10.214-1.485-4.354,1.18-6.27,2.886-9.652,1.254-2.488.092-4.173-1.2-7.232-.917-2.173-1.568-3.983-.906-6.223.473-1.6,1.746-2.94,3.893-4.092,2.619-1.406,4.086-2.9,4.617-4.692a5.739,5.739,0,0,0,.165-2.081c1.38,3.342,2.127,4.961-1.648,8.814-5.915,6.036,3.19,10.344-.969,15.861-5.976,7.927,1.986,8.089.215,12.408-2.29,5.586,4.943,3.731-3.213,12.123,11.117-5.316,3.915-7.646,8.285-12.945,3.058-3.707-4.845-4.1,3.7-13.959-3.475,9.039,5.428,10.348,1.648,17.176-3.623,6.544,3.646,8.983,7.851,11.868,4.534,3.111.062,7.975,12.344,8.56-9.242-3.767,1.971-10.076-2.323-17.14,5.869,3.288-2.386,11.506,8.261,17.14,5.078,2.688,40.2-.9,44.44.635a37.863,37.863,0,0,1,1.225-24.055c1.52,5.865,6.96,10.78,5.99,18.624,7.4-6.629-.058-7.8,4.537-12.875,4.055-4.479,5.424-5.552,1.567-10.613-2.35-3.085,3.555-6.972,1-9.227-3.243-2.866-2.507-6.156-.884-9.9-.178,2.472-1.036,4.243.474,5.349,2.506,1.835,5.188,3.416,3.245,6.359-2.353,3.564-1.253,3.845.221,4.639,1.141.615,3.92,1.979,3.019,3.121-3.457,4.373,1,6.34,1.583,6.535-.877-.574-3.4-2.531-.354-6.456,1.129-1.454-.435-3.043-1.557-3.647-1.531-.825-2.243-1.677-.156-3.884,3.311-3.5,4.877-6.168,2.337-8.51-2.011-1.854-5.7-4.5-5.871-10.037a21.164,21.164,0,0,0,1.48-5.552c.757-7.178-9.41-4.058-7.186-13.1,1.633-6.637,1.89-8.8-.324-13.995,3.465,3.656,5,7.587,2.372,13.125-2.546,5.375,2.266,6.565,4.4,7.774,1.648.936,2.982,2.566,2.147,5.044C-1981.137,2494.646-1976.983,2499.771-1976.217,2500.012Zm-102.054-17.477c-2.865-5.172-3.646-8.255,2.326-13.828a47.167,47.167,0,0,0,6.606-6.976C-2067.858,2469.622-2079.2,2472.77-2078.271,2482.535Z" transform="translate(2087.736 -2420.836)" fill="#002e59"/>
          <path id="Path_167616" data-name="Path 167616" d="M-2045.659,2619.46c-.036.392-12.754-.091-12.771-.567-.152-4.135.027-58.788-.017-61.185l18.147,5.667C-2040.8,2567.466-2045.394,2616.637-2045.659,2619.46Z" transform="translate(2092.676 -2400.429)" fill="#ffc19f"/>
          <path id="Path_167617" data-name="Path 167617" d="M-2033.482,2619.46c.036.392,12.753-.091,12.771-.567.152-4.135-.026-58.788.017-61.185l-18.147,5.667C-2038.346,2567.466-2033.749,2616.637-2033.482,2619.46Z" transform="translate(2095.996 -2400.429)" fill="#ffc19f"/>
          <path id="Path_167618" data-name="Path 167618" d="M-2071.547,2520.884l4.666,1.489.12-4.826-2.872-.211Z" transform="translate(2090.471 -2407.25)" fill="#ffc19f"/>
          <path id="Path_167619" data-name="Path 167619" d="M-2072.553,2523.543c2.061-3.686,11.993-21.545,13.686-23.239.635-.636,9.224-2.523,15.986-2.883-2.1,3.821-10.125,32.073-11.2,34.663C-2056.745,2531.614-2069.425,2526.363-2072.553,2523.543Z" transform="translate(2090.301 -2410.614)" fill="#e6c035"/>
          <path id="Path_167620" data-name="Path 167620" d="M-1998.531,2521.689c-3.12-4.489-13.386-18.2-15.017-19.958-.612-.658-8.717-3-15.461-3.6,1.619,3.532,9.349,28.849,12.451,33.717C-2013.878,2531.47-2001.758,2524.393-1998.531,2521.689Z" transform="translate(2097.657 -2410.494)" fill="#e6c035"/>
          <g id="Group_109585" data-name="Group 109585" transform="translate(19.398 86.789)">
            <path id="Path_167621" data-name="Path 167621" d="M-2057.3,2527.6c.19-1.935,1.751-18.425,3.207-28.553,11.426-2.945,32.646-1.392,43.059.468,1.367,13.148,1.752,20.208,2.713,28.684.563,4.966,7.9,39.978,10.4,51.056-15.179,11.113-56.676,11.335-73.219-.832C-2071.141,2578.425-2058.091,2531.967-2057.3,2527.6Z" transform="translate(2071.141 -2497.406)" fill="#0077ec"/>
            <path id="Path_167622" data-name="Path 167622" d="M-2025.328,2502.015a2.132,2.132,0,0,0,1.788,2.429,2.133,2.133,0,0,0,2.429-1.787,2.131,2.131,0,0,0-1.787-2.429A2.133,2.133,0,0,0-2025.328,2502.015Z" transform="translate(2078.876 -2496.933)" fill="#002e59"/>
            <path id="Path_167623" data-name="Path 167623" d="M-2054.963,2501.9a2.132,2.132,0,0,0,1.787,2.429,2.132,2.132,0,0,0,2.429-1.787,2.134,2.134,0,0,0-1.787-2.429A2.132,2.132,0,0,0-2054.963,2501.9Z" transform="translate(2073.87 -2496.952)" fill="#002e59"/>
            <path id="Path_167624" data-name="Path 167624" d="M-2034.007,2527.278a115.5,115.5,0,0,1-25.5-2.876c.115-.509.2-.918.249-1.164a121.513,121.513,0,0,0,48.978.6c.038.279.1.7.177,1.177A128.423,128.423,0,0,1-2034.007,2527.278Z" transform="translate(2073.105 -2493.041)" fill="#fff" opacity="0.3"/>
          </g>
          <path id="Path_167625" data-name="Path 167625" d="M-2048.821,2499.554a6.777,6.777,0,0,1,.325-1.966c6.985-.2,17.493-.21,24.932.679a10.311,10.311,0,0,1,.124,1.157c.027,5.257-5.633,9.548-12.642,9.583S-2048.793,2504.812-2048.821,2499.554Z" transform="translate(2094.31 -2410.604)" fill="#ffc19f"/>
          <path id="Path_167626" data-name="Path 167626" d="M-2045.532,2486.85l-.208,14.833c-.046,3.189,3.972,5.833,8.973,5.9s9.091-2.459,9.135-5.648l.209-14.833Z" transform="translate(2094.83 -2412.399)" fill="#ffc19f"/>
          <path id="Path_167627" data-name="Path 167627" d="M-2051.568,2499.233c2.776,5.657,11.358,7.136,19.168,3.3s11.892-11.526,9.115-17.182-11.357-7.137-19.168-3.306S-2054.344,2493.575-2051.568,2499.233Z" transform="translate(2093.699 -2413.57)" fill="#960c0c" opacity="0.19"/>
          <path id="Path_167628" data-name="Path 167628" d="M-2024.647,2514.592c-.443-.537,5.74-5.957,6.259-5.5,7.762,6.9,18.637,11.938,20.071,14.218,2.909,4.627-1.943,12.478-9.253,9.012C-2011.636,2530.4-2019.123,2521.3-2024.647,2514.592Z" transform="translate(2098.39 -2408.646)" fill="#ffc19f"/>
          <g id="Group_109586" data-name="Group 109586" transform="translate(68.742 87.048)">
            <path id="Path_167629" data-name="Path 167629" d="M-2028.812,2508.23c.022,1,1.237,1.778,2.713,1.747s2.656-.868,2.634-1.863-1.236-1.779-2.713-1.748S-2028.834,2507.232-2028.812,2508.23Z" transform="translate(2028.948 -2496.15)" fill="#e4a78e"/>
            <path id="Path_167630" data-name="Path 167630" d="M-2027.3,2503.559a14.57,14.57,0,0,1,4.372.161c-3.886-1.956-5.571.7-5.813-.087a2.929,2.929,0,0,1,1.608-2.97,18.065,18.065,0,0,1,5.507.156c-2.857-1.811-5.428-.2-5.433-1a2.676,2.676,0,0,1,2.164-2.154c1.572-.3,6.637,1.32,7.2,2.32.644,1.146,1.253,5.847,1.178,9.8-.088,4.6-1.067,9.566-3.935,9.628-5.75.125-3.538-5.4-2.9-8.972-4-2.612-5.006-.785-5.436-.556a2.76,2.76,0,0,1,1.865-3.383,11.747,11.747,0,0,1,3.2,0c-3.352-1.674-4.737.721-4.97-.04A2.809,2.809,0,0,1-2027.3,2503.559Z" transform="translate(2028.928 -2497.626)" fill="#ffc19f"/>
          </g>
          <ellipse id="Ellipse_5252" data-name="Ellipse 5252" cx="45.984" cy="3.705" rx="45.984" ry="3.705" transform="translate(8.483 222.595)" opacity="0.11"/>
          <g id="Group_109587" data-name="Group 109587" transform="translate(59.883 201.729)">
            <path id="Path_167631" data-name="Path 167631" d="M-2036.507,2596.449c.078.53.145.993.186,1.3l1.836-.078a1.493,1.493,0,0,0-1.53-1.445C-2036.209,2596.232-2036.339,2596.375-2036.507,2596.449Zm10.9.919,2.958-.1a1.481,1.481,0,0,0-1.529-1.434A1.483,1.483,0,0,0-2025.606,2597.368Zm2.958-.1,2.446-.084c.007-.179.022-.57.041-1.051a1.475,1.475,0,0,0-1.054-.4A1.485,1.485,0,0,0-2022.647,2597.268Zm-5.918.2,2.96-.1a1.486,1.486,0,0,0-1.529-1.437A1.488,1.488,0,0,0-2028.565,2597.469Zm-2.959.1,2.959-.1a1.488,1.488,0,0,0-1.53-1.439A1.489,1.489,0,0,0-2031.525,2597.57Zm-2.96.1,2.96-.1a1.49,1.49,0,0,0-1.53-1.442A1.492,1.492,0,0,0-2034.485,2597.671Z" transform="translate(2036.507 -2595.735)" fill="#0077ec"/>
            <path id="Path_167632" data-name="Path 167632" d="M-2034.367,2613.029c.068.428,13.976-.574,14.02-1.1.366-4.359.107-13.321.118-14.958l-16.12.566C-2035.737,2602.049-2034.8,2610.289-2034.367,2613.029Z" transform="translate(2036.534 -2595.525)" fill="#fff"/>
            <path id="Path_167633" data-name="Path 167633" d="M-2022.712,2602.963c-.224-1.027-9.821.7-11.569.393-.047,2.374-1.415,6.2-1.349,9.427a4.629,4.629,0,0,0,3.966,4.26c7.925,1.437,28.876,5.764,29.795-.055C-2001.115,2612.211-2013.617,2608.583-2022.712,2602.963Z" transform="translate(2036.655 -2594.569)" fill="#fff"/>
            <path id="Path_167634" data-name="Path 167634" d="M-2035.584,2606.9a.6.6,0,0,1,.831.093,40.676,40.676,0,0,0,7.544,3.067,21.3,21.3,0,0,0,2.56.621,14.09,14.09,0,0,1,4.918-6.695.827.827,0,0,1,1.172.324.943.943,0,0,1-.308,1.246,12.33,12.33,0,0,0-4.028,5.331c5.275.655,9.309.6,11.264-2.788,6.122,3.577,12.518,4.789,12.35,8.879-.207,5.025-36.436.259-36.436.259C-2035.645,2614.217-2035.67,2609.618-2035.584,2606.9Z" transform="translate(2036.641 -2594.362)" fill="#0077ec"/>
            <path id="Path_167635" data-name="Path 167635" d="M-2035.766,2613.742c.008.671.011,1.319,0,1.894,0,0,31.334,5.681,36.2,1.191a1.94,1.94,0,0,0,.285-1.221C-2008.049,2617.582-2027.826,2614.951-2035.766,2613.742Z" transform="translate(2036.632 -2592.693)" fill="#002e59"/>
            <path id="Path_167636" data-name="Path 167636" d="M-2020.233,2599.082c-6.551.518-9.346.539-15.844.542-.029-.231-.058-.46-.086-.681,6.556,0,9.333-.023,15.921-.542C-2020.239,2598.629-2020.236,2598.823-2020.233,2599.082Z" transform="translate(2036.565 -2595.284)" fill="#0077ec"/>
          </g>
          <g id="Group_109588" data-name="Group 109588" transform="translate(12.491 201.729)">
            <path id="Path_167637" data-name="Path 167637" d="M-2043.21,2596.226a1.493,1.493,0,0,0-1.53,1.445l1.836.078c.041-.308.109-.771.186-1.3C-2042.886,2596.375-2043.016,2596.232-2043.21,2596.226Zm-11.84-.393a1.481,1.481,0,0,0-1.528,1.434l2.958.1A1.484,1.484,0,0,0-2055.05,2595.833Zm-2.96-.1a1.475,1.475,0,0,0-1.054.4c.019.48.034.872.041,1.051l2.446.084A1.485,1.485,0,0,0-2058.01,2595.735Zm5.921.2a1.485,1.485,0,0,0-1.53,1.437l2.959.1A1.486,1.486,0,0,0-2052.089,2595.932Zm2.96.1a1.489,1.489,0,0,0-1.53,1.439l2.96.1A1.49,1.49,0,0,0-2049.129,2596.03Zm2.959.1a1.49,1.49,0,0,0-1.529,1.442l2.96.1A1.492,1.492,0,0,0-2046.171,2596.128Z" transform="translate(2080.089 -2595.735)" fill="#0077ec"/>
            <path id="Path_167638" data-name="Path 167638" d="M-2044.88,2613.029c-.068.428-13.975-.574-14.019-1.1-.367-4.359-.107-13.321-.119-14.958l16.12.566C-2043.509,2602.049-2044.447,2610.289-2044.88,2613.029Z" transform="translate(2080.083 -2595.525)" fill="#fff"/>
            <path id="Path_167639" data-name="Path 167639" d="M-2053.991,2602.963c.224-1.027,9.821.7,11.569.393.046,2.374,1.414,6.2,1.349,9.427a4.628,4.628,0,0,1-3.966,4.26c-7.925,1.437-28.876,5.764-29.8-.055C-2075.588,2612.211-2063.086,2608.583-2053.991,2602.963Z" transform="translate(2077.419 -2594.569)" fill="#fff"/>
            <path id="Path_167640" data-name="Path 167640" d="M-2040.737,2606.9a.6.6,0,0,0-.831.093,40.648,40.648,0,0,1-7.545,3.067,21.285,21.285,0,0,1-2.56.621,14.086,14.086,0,0,0-4.917-6.695.829.829,0,0,0-1.174.324.944.944,0,0,0,.309,1.246,12.322,12.322,0,0,1,4.028,5.331c-5.275.655-9.309.6-11.264-2.788-6.121,3.577-12.518,4.789-12.35,8.879.207,5.025,36.436.259,36.436.259C-2040.676,2614.217-2040.649,2609.618-2040.737,2606.9Z" transform="translate(2077.052 -2594.362)" fill="#0077ec"/>
            <path id="Path_167641" data-name="Path 167641" d="M-2040.546,2613.742c-.008.671-.011,1.319,0,1.894,0,0-31.334,5.681-36.2,1.191a1.942,1.942,0,0,1-.285-1.221C-2068.262,2617.582-2048.485,2614.951-2040.546,2613.742Z" transform="translate(2077.05 -2592.693)" fill="#002e59"/>
            <path id="Path_167642" data-name="Path 167642" d="M-2059.052,2599.082c6.551.518,9.345.539,15.844.542.028-.231.058-.46.086-.681-6.557,0-9.333-.023-15.921-.542C-2059.046,2598.629-2059.049,2598.823-2059.052,2599.082Z" transform="translate(2080.091 -2595.284)" fill="#0077ec"/>
          </g>
          <g id="Group_109589" data-name="Group 109589" transform="translate(8.781 89.332)">
            <path id="Path_167643" data-name="Path 167643" d="M-2068.649,2535.263l18.038,8.736a2.233,2.233,0,0,0,1.814-2.1l-10.008-35.167a2.359,2.359,0,0,0-1.558-1.6l-17.527-5.527c-.569-.18-2.274.737-2.3,1.673l11.1,33.5A.749.749,0,0,0-2068.649,2535.263Z" transform="translate(2080.231 -2499.58)" fill="#999"/>
            <path id="Path_167644" data-name="Path 167644" d="M-2069.361,2536.546l18.207,7.282a.751.751,0,0,0,1-.9l-10.008-35.167a2.36,2.36,0,0,0-1.559-1.6l-17.526-5.527a.751.751,0,0,0-.948.921l9.557,33.58A2.163,2.163,0,0,0-2069.361,2536.546Z" transform="translate(2080.224 -2499.41)" fill="#494949"/>
            <path id="Path_167645" data-name="Path 167645" d="M-2071.9,2509.457c.549,1.074,1.544,1.663,2.221,1.317s.78-1.5.23-2.57-1.544-1.665-2.221-1.317S-2072.454,2508.384-2071.9,2509.457Z" transform="translate(2081.57 -2498.364)" fill="#262626"/>
          </g>
          <g id="Group_109590" data-name="Group 109590" transform="translate(8.236 101.491)">
            <path id="Path_167646" data-name="Path 167646" d="M-2070.232,2523.882c.023-.857-.528-1.258-1.313-1.509a1.713,1.713,0,0,0,.914-1.508,2.116,2.116,0,0,0-1.709-1.867c.607-.293,1.174-.66,1.261-1.342.089-.724-.724-1.623-1.666-2.17a2.259,2.259,0,0,0,1.405-1.78c-.065-1.338-1.455-2.254-3.224-2.93a19.194,19.194,0,0,0-3.127-.793l4.727,16.611C-2071.476,2526.128-2070.266,2525.138-2070.232,2523.882Z" transform="translate(2081.198 -2509.983)" opacity="0.15"/>
            <path id="Path_167647" data-name="Path 167647" d="M-2075.524,2514.194c2.495.346,4.357,1.529,4.159,2.642s-2.379,1.734-4.873,1.387-4.358-1.529-4.16-2.642S-2078.019,2513.848-2075.524,2514.194Z" transform="translate(2080.738 -2509.287)" fill="#ffc19f"/>
            <path id="Path_167648" data-name="Path 167648" d="M-2075.574,2510.9c2.414.653,4.062,2.054,3.681,3.128s-2.646,1.417-5.06.765-4.062-2.055-3.682-3.131S-2077.988,2510.242-2075.574,2510.9Z" transform="translate(2080.69 -2509.884)" fill="#ffc19f"/>
            <path id="Path_167649" data-name="Path 167649" d="M-2075.07,2517.367c2.261.05,4.069,1.005,4.038,2.133s-1.885,2-4.146,1.952-4.069-1-4.04-2.132S-2077.33,2517.318-2075.07,2517.367Z" transform="translate(2080.939 -2508.736)" fill="#ffc19f"/>
            <path id="Path_167650" data-name="Path 167650" d="M-2074.58,2520.384c1.981-.145,3.694.6,3.823,1.663s-1.372,2.044-3.355,2.191-3.694-.6-3.823-1.664S-2076.562,2520.53-2074.58,2520.384Z" transform="translate(2081.155 -2508.229)" fill="#ffc19f"/>
          </g>
          <g id="Group_109592" data-name="Group 109592" transform="translate(13.78 1.428)">
            <path id="Path_167651" data-name="Path 167651" d="M-1997.985,2477.954c-2.111,8.2-9.5,13.2-14.96,12.267s-6.38-7.727-5.26-15.647,6.461-13.6,11.921-12.647C-1998.823,2463.234-1996,2470.247-1997.985,2477.954Z" transform="translate(2085.631 -2418.056)" fill="#ffc19f"/>
            <path id="Path_167652" data-name="Path 167652" d="M-2005.167,2478.057c-.492,3.473-3.147,5.9-5.93,5.425s-4.641-3.678-4.15-7.153,3.147-5.9,5.93-5.424S-2004.676,2474.584-2005.167,2478.057Z" transform="translate(2086.188 -2416.531)" fill="#e0956c"/>
            <path id="Path_167653" data-name="Path 167653" d="M-2075.461,2476.594c1.872,8.268,9.108,13.529,14.6,12.787s6.6-7.5,5.711-15.454-6.063-13.824-11.545-13.059C-2074.2,2461.91-2077.219,2468.822-2075.461,2476.594Z" transform="translate(2075.948 -2418.228)" fill="#ffc19f"/>
            <path id="Path_167654" data-name="Path 167654" d="M-2069.557,2476.926c.392,3.488,2.974,6.01,5.77,5.631s4.745-3.516,4.357-7-2.975-6.007-5.77-5.629S-2069.946,2473.438-2069.557,2476.926Z" transform="translate(2077.019 -2416.693)" fill="#e0956c"/>
            <path id="Path_167655" data-name="Path 167655" d="M-2071.5,2455.1c-3.449,25.62,15.188,38.576,38,38.978s44.867-13.589,41.4-39.206c-3.439-25.457-17.7-30.072-40.511-30.472S-2068.341,2431.662-2071.5,2455.1Z" transform="translate(2076.63 -2424.38)" fill="#002e59"/>
            <path id="Path_167656" data-name="Path 167656" d="M-2066.748,2463.529c-.44,30.324,13.5,44.212,33.291,44.56s34.51-13.037,34.95-43.36-14.066-31.379-33.859-31.727S-2066.308,2433.206-2066.748,2463.529Z" transform="translate(2077.5 -2422.933)" fill="#ffc19f"/>
            <path id="Path_167657" data-name="Path 167657" d="M-2013.514,2478.891c.064,1.686-2.012,3.15-4.637,3.272s-4.805-1.145-4.87-2.829,2.01-3.15,4.636-3.273S-2013.579,2477.207-2013.514,2478.891Z" transform="translate(2084.888 -2415.651)" fill="#ff9797"/>
            <path id="Path_167658" data-name="Path 167658" d="M-2053.094,2477.749c-.152,1.679-2.395,2.806-5.01,2.519s-4.611-1.88-4.458-3.558,2.4-2.806,5.009-2.519S-2052.942,2476.071-2053.094,2477.749Z" transform="translate(2078.207 -2415.974)" fill="#ff9797"/>
            <path id="Path_167659" data-name="Path 167659" d="M-2041.269,2472.417a.353.353,0,0,0,.369-.262,2.22,2.22,0,0,1,2.433-1.822,2.267,2.267,0,0,1,2.094,2.243.338.338,0,0,0,.341.336.348.348,0,0,0,.307-.376,2.965,2.965,0,0,0-2.683-2.916,2.89,2.89,0,0,0-3.121,2.357A.38.38,0,0,0-2041.269,2472.417Z" transform="translate(2081.761 -2416.74)" fill="#c67f75"/>
            <path id="Path_167660" data-name="Path 167660" d="M-2059.138,2465.03c.008-.394,1.691.5,3.291.047.14-.162.306-.278.458-.427a2.47,2.47,0,0,1-.993-2.574c.2-.137,1,1.22,2.426,1.411a7.791,7.791,0,0,1,4.082-1.156,8.088,8.088,0,0,1,7.319,4.434,1.2,1.2,0,0,1-.454,1.578,1.045,1.045,0,0,1-.437.134,1.089,1.089,0,0,1-1.052-.615,5.909,5.909,0,0,0-5.367-3.2,5.7,5.7,0,0,0-5.28,3.353,1.077,1.077,0,0,1-1.49.491,1.206,1.206,0,0,1-.463-1.578A3.137,3.137,0,0,1-2059.138,2465.03Z" transform="translate(2078.787 -2418.015)" fill="#002e59"/>
            <path id="Path_167661" data-name="Path 167661" d="M-2031.262,2466.534a7.805,7.805,0,0,1,8.015-2.755,8.457,8.457,0,0,1,3.719,2.01c1.095-.367,1.766-1.312,1.939-1.189a2.518,2.518,0,0,1-.888,2.417c.151.2.335.383.468.6,1.535.377,3.11-.377,3.11,0a3.056,3.056,0,0,1-2.33,1.812c.044.144.131.267.167.414a1.173,1.173,0,0,1-.777,1.43,1.039,1.039,0,0,1-.455.026,1.123,1.123,0,0,1-.893-.851,6.115,6.115,0,0,0-4.548-4.4,5.55,5.55,0,0,0-5.857,2,1.063,1.063,0,0,1-1.555.123A1.218,1.218,0,0,1-2031.262,2466.534Z" transform="translate(2083.451 -2417.764)" fill="#002e59"/>
            <g id="Group_109591" data-name="Group 109591" transform="translate(26.938 59.76)">
              <path id="Path_167662" data-name="Path 167662" d="M-2052.769,2478.74c-1.367,6.767,7.994,16.212,16.608,15.83,8.568-.38,14.45-8.376,14.428-15.286-.537-3.791-6.144-2.812-14.583-3.138S-2051.935,2474.623-2052.769,2478.74Z" transform="translate(2052.903 -2475.466)" fill="#701608"/>
              <path id="Path_167663" data-name="Path 167663" d="M-2038,2486.5c3.963.125,6.978,1.277,8.9,3.379a14.4,14.4,0,0,1-8.62,3c-3.723-.133-6.982-.9-9.342-3.722C-2046.052,2487.208-2041.548,2486.386-2038,2486.5Z" transform="translate(2053.888 -2473.648)" fill="#dd6b5b"/>
              <path id="Path_167664" data-name="Path 167664" d="M-2049.1,2475.91c2.94-.884,7.467-.073,11.667.089,4.741.183,8.234-.356,11.178.473-1.2,2.8-5.767,3.347-11.224,3.206C-2043.781,2479.516-2048.33,2478.981-2049.1,2475.91Z" transform="translate(2053.545 -2475.504)" fill="#fff"/>
            </g>
          </g>
          <path id="Path_167665" data-name="Path 167665" d="M-2001.36,2473.42c-5.827-4.7-1.613-12.683-9.182-15.866-10.18-4.282-11.3-10.5-18.554-9.866-13.106,1.143-12.77-7.371-24.347-7.689,6.591,2.45,7.807,5.167,10.511,7.192a25.389,25.389,0,0,0,13.609,4.312c-6.214,1.084-12.638.8-19.287-4.755-7.257-6.062-13.563-3.193-14.892-10.283.583-5.865,20.99-9.486,34.806-8.053,19.543,2.027,27.89,10.661,29.651,19.672C-1997.122,2457.932-2003.369,2460.242-2001.36,2473.42Z" transform="translate(2091.83 -2422.324)" fill="#002e59"/>
          <path id="Path_167666" data-name="Path 167666" d="M-2058.538,2457.672a1.359,1.359,0,0,0,.917-.468c1.972-2.236,5.956-3.112,9.275-2.036a1.4,1.4,0,0,0,1.758-1.056,1.589,1.589,0,0,0-.96-1.935c-4.318-1.4-9.41-.194-12.1,2.854a1.673,1.673,0,0,0,.028,2.2A1.336,1.336,0,0,0-2058.538,2457.672Z" transform="translate(2092.412 -2418.355)" fill="#002e59"/>
          <path id="Path_167667" data-name="Path 167667" d="M-2015.735,2459.082a1.327,1.327,0,0,0,1.109-.361,1.674,1.674,0,0,0,.152-2.2c-2.518-3.224-7.53-4.769-11.927-3.663a1.568,1.568,0,0,0-1.066,1.866,1.424,1.424,0,0,0,1.7,1.172c3.376-.853,7.3.294,9.147,2.657A1.381,1.381,0,0,0-2015.735,2459.082Z" transform="translate(2097.911 -2418.202)" fill="#002e59"/>
          <path id="Path_167668" data-name="Path 167668" d="M-2067.4,2442.389c6.556-13.637,18.677-20.444,38.177-19.052,18.011,1.286,27.678,9.6,32.928,24.935a46.411,46.411,0,0,0-31.878-17.256C-2041.246,2429.831-2057.83,2433.389-2067.4,2442.389Z" transform="translate(2091.172 -2423.159)" fill="#0077ec"/>
        </g>
      </g>
    </g>
    <rect id="Rectangle_36532" data-name="Rectangle 36532" width="280" height="293" transform="translate(982 2768)" fill="none"/>
  </g>
</svg>
