<svg xmlns="http://www.w3.org/2000/svg" width="280" height="329" viewBox="0 0 280 329">
  <g id="t5-c4" transform="translate(-338 -2768)">
    <rect id="Rectangle_36530" data-name="Rectangle 36530" width="280" height="293" transform="translate(338 2768)" fill="none"/>
    <g id="Group_109599" data-name="Group 109599" transform="translate(361 2768.15)">
      <g id="Group_109594" data-name="Group 109594" transform="translate(0 0)">
        <g id="Group_109541" data-name="Group 109541" transform="translate(8.791 23.301)">
          <path id="Path_167437" data-name="Path 167437" d="M-2528.849,2591.945l-.027.015c-4.756,2.649-11.135,2.3-11.078-4.392.036-4.289,4.2-8.794,7.624-10.91,5.751-3.551,13.289-4.459,19.916-3.98,2.931.211,7.294,1.5,6.435,5.3-.787,3.489-5.7,3.6-8.417,4.534C-2520.107,2584.479-2523.737,2589.088-2528.849,2591.945Z" transform="translate(2554.717 -2393.223)" fill="#ffeca6"/>
          <path id="Path_167438" data-name="Path 167438" d="M-2508.371,2587.756c-1.735,3.563,1.33,9.9,5.956,7.752,2.338-1.084,2.529-4.558,3.017-6.725.4-1.792,7.684-11.071,1.316-10.053C-2502.529,2579.442-2506.5,2583.91-2508.371,2587.756Z" transform="translate(2559.969 -2392.194)" fill="#ffeca6"/>
          <path id="Path_167439" data-name="Path 167439" d="M-2548.181,2505.917c-4.463-7.958-6.085-17.014-2.253-27.967,5.906-16.874,21.95-31,39.762-33.568,32.823-4.725,71.286,9.182,97.985,27.823,33.7,23.525,75.643,63.987,58.1,109.373-8.018,20.739-27.512,35.367-48.887,40.2-30.744,6.947-62.264-8.935-81.8-32.26-11.658-13.918-15.5-32.589-26.737-46.661C-2522.8,2529.345-2539.469,2521.455-2548.181,2505.917Z" transform="translate(2552.584 -2415.033)" fill="#ffeca6"/>
          <path id="Path_167440" data-name="Path 167440" d="M-2464.552,2430.127c-1.78-4.6-5.133-9.232-10.049-10.649-5.722-1.647-15.581,2.9-10.69,9.951,1.4,2.025,3.64,3.28,5.8,4.467,3.555,1.952,8.442,6.022,12.712,5.881,4.887-.166,3.41-6.513,2.313-9.427C-2464.495,2430.275-2464.524,2430.2-2464.552,2430.127Z" transform="translate(2563.728 -2419.14)" fill="#ffeca6"/>
          <path id="Path_167441" data-name="Path 167441" d="M-2484.285,2434.852a6.05,6.05,0,0,0-3.608,3.855,3.87,3.87,0,0,0,1.011,4.281,5.511,5.511,0,0,0,4.247.771,26.16,26.16,0,0,1,4.02-.522c.85.012,1.694.119,2.545.086,1.624-.066,3.188-.644,2.4-2.556-.859-2.079-3.853-3.6-5.623-4.8A5.9,5.9,0,0,0-2484.285,2434.852Z" transform="translate(2563.47 -2416.518)" fill="#ffeca6"/>
          <path id="Path_167442" data-name="Path 167442" d="M-2359.079,2550.716a12.532,12.532,0,0,0,1.566-6.664,6.363,6.363,0,0,0-3.745-5.413c-3.417-1.286-7.124,1.528-8.753,4.794s-2.021,7.042-3.652,10.307a30.978,30.978,0,0,1-3.839,5.488c-.9,1.113-1.847,2.449-1.531,3.846C-2377.382,2570.342-2360.489,2553.539-2359.079,2550.716Z" transform="translate(2581.89 -2399.007)" fill="#ffeca6"/>
        </g>
        <path id="Path_167448" data-name="Path 167448" d="M-2352.838,2509.442c-4.4-38.82-38.5-68.5-68.228-72.789-20.947-3.023-40.048,7.79-49,26.751-5.312,11.258-9.565,23.739-19.222,31.59-18.04,14.668-37.385-.48-56.138,15.1-14.095,11.711-14.664,30.14-14.677,30.942-.211,13.722,7.091,23.507,9.937,27.21,6.792,8.836,17.2,16.266,42.147,22.756,28.443,7.4,60.733,15.8,97.521,1.8,13.172-5.011,33.125-12.6,46.448-33.561C-2350.365,2537.721-2352.159,2515.445-2352.838,2509.442Z" transform="translate(2560.104 -2392.966)" fill="#fffced" opacity="0.95"/>
        <g id="DONE" transform="translate(33.078)">
          <path id="Path_167535" data-name="Path 167535" d="M-2435.511,2617.415c0,1.951-20.626,3.531-46.069,3.531s-46.068-1.581-46.068-3.531,20.626-3.532,46.068-3.532S-2435.511,2615.464-2435.511,2617.415Z" transform="translate(2532.509 -2362.941)" opacity="0.12"/>
          <path id="Path_167536" data-name="Path 167536" d="M-2475.647,2612.9c.11,1.366,12.39,1.914,12.434.539.434-13.342,3.9-49.993,4.37-55.3l-18.778,2.353C-2476.526,2573.563-2476.406,2603.432-2475.647,2612.9Z" transform="translate(2540.959 -2372.357)" fill="#ffc19f"/>
          <path id="Path_167537" data-name="Path 167537" d="M-2492.843,2612.186c-.3,1.336-12.606.032-12.456-1.334,1.453-13.271,5.447-48.934,5.729-54.25l17.874,4.192C-2484.627,2573.573-2490.751,2602.917-2492.843,2612.186Z" transform="translate(2536.283 -2372.618)" fill="#ffc19f"/>
          <path id="Path_167538" data-name="Path 167538" d="M-2500.7,2547.812c-1.639,12.218-3.624,27.183-4.467,32.129,4.245,1.719,18.388,3.046,22.387,2.9,1.67-6.846,3.357-16.412,4.444-19.434.169-.468.533-1.642,1.6-1.77a1.421,1.421,0,0,1,1.482,1.42c.349,6.369,1.011,14.723,1.068,19.786,5.177.391,17.654-.158,22.031-1.176.174-4.522.443-21.436-.143-36.169Z" transform="translate(2536.307 -2374.493)" fill="#002e59"/>
          <path id="Path_167539" data-name="Path 167539" d="M-2501.028,2545.693c10.845-2.107,37.766-1.029,48.481-1.3.016,2.227.031,4.552.044,6.931-13.319,5.986-32.513,4.173-49.375,1.217C-2501.84,2551.426-2501.064,2546.767-2501.028,2545.693Z" transform="translate(2536.862 -2374.687)" fill="#4f0c03" opacity="0.25"/>
          <path id="Path_167540" data-name="Path 167540" d="M-2477.1,2612.806c.036.386,15.245.2,15.258-.269.1-3.779.375-9.008.43-11.391l-16.213.429C-2477.261,2605.864-2477.322,2610.337-2477.1,2612.806Z" transform="translate(2540.959 -2365.093)" fill="#fff"/>
          <g id="Group_109572" data-name="Group 109572" transform="translate(62.908 239.582)">
            <path id="Path_167541" data-name="Path 167541" d="M-2457.886,2607.513c-.225-.848-.694-1.924-1.058-2.907-.269-.73-7.386-.672-7.42,1.076a10.567,10.567,0,0,0,.04,1.2c-1.217,0-2.538-.023-3.932-.086a66.958,66.958,0,0,1-7.649-.723c-.147,2.764.055,7.553-.083,10.625,0,0,31.7,6.206,36.739,1.642C-2439.828,2617.055-2447.751,2611.223-2457.886,2607.513Z" transform="translate(2477.989 -2604.165)" fill="#03d6a3"/>
            <path id="Path_167542" data-name="Path 167542" d="M-2477.945,2613.238c-.007.684-.018,1.342-.044,1.927,0,0,31.7,6.206,36.739,1.642.2-.181.212-.453.061-.8C-2449.964,2617.839-2470.063,2614.633-2477.945,2613.238Z" transform="translate(2477.989 -2602.632)" fill="#045360"/>
            <path id="Path_167543" data-name="Path 167543" d="M-2458.154,2607.951a.447.447,0,0,0,.532-.335.443.443,0,0,0-.333-.532,5.381,5.381,0,0,0-5.241,2.044.444.444,0,0,0,.082.624.439.439,0,0,0,.249.091.439.439,0,0,0,.373-.173A4.441,4.441,0,0,1-2458.154,2607.951Zm2.433,1.143a.435.435,0,0,0,.5-.386.445.445,0,0,0-.386-.5,6.224,6.224,0,0,0-5.285,1.944.445.445,0,0,0,.012.629.447.447,0,0,0,.287.123.443.443,0,0,0,.34-.135A5.278,5.278,0,0,1-2455.721,2609.094Zm2.677.378a6.807,6.807,0,0,0-5.5,1.905.446.446,0,0,0-.013.629.45.45,0,0,0,.3.135.449.449,0,0,0,.327-.124,5.832,5.832,0,0,1,4.73-1.673.439.439,0,0,0,.517-.358A.442.442,0,0,0-2453.044,2609.472Z" transform="translate(2480.472 -2603.689)" fill="#d2dae5"/>
          </g>
          <path id="Path_167544" data-name="Path 167544" d="M-2492.363,2612.909c-.083.372-14.856-1.794-14.839-2.256.127-3.639.709-9.12.715-11.088l16.033,2.444C-2491.341,2606.151-2491.833,2610.526-2492.363,2612.909Z" transform="translate(2535.962 -2365.36)" fill="#fff"/>
          <g id="Group_109573" data-name="Group 109573" transform="translate(8.421 239.582)">
            <path id="Path_167545" data-name="Path 167545" d="M-2507.8,2607.513c.223-.848.694-1.924,1.057-2.907.269-.73,7.387-.672,7.42,1.076a10.349,10.349,0,0,1-.04,1.2c1.218,0,2.538-.023,3.932-.086a66.956,66.956,0,0,0,7.65-.723c.146,2.764-.056,7.553.082,10.625,0,0-31.7,6.206-36.739,1.642C-2525.857,2617.055-2517.934,2611.223-2507.8,2607.513Z" transform="translate(2524.602 -2604.165)" fill="#03d6a3"/>
            <path id="Path_167546" data-name="Path 167546" d="M-2487.741,2613.238c.006.684.018,1.342.043,1.927,0,0-31.7,6.206-36.739,1.642-.2-.181-.212-.453-.061-.8C-2515.722,2617.839-2495.623,2614.633-2487.741,2613.238Z" transform="translate(2524.602 -2602.632)" fill="#045360"/>
            <path id="Path_167547" data-name="Path 167547" d="M-2506.994,2609.669a.44.44,0,0,0,.373.173.441.441,0,0,0,.25-.091.444.444,0,0,0,.082-.624,5.383,5.383,0,0,0-5.243-2.044.445.445,0,0,0-.333.532.447.447,0,0,0,.532.335A4.441,4.441,0,0,1-2506.994,2609.669Zm-2.235,1.1a.446.446,0,0,0,.34.135.443.443,0,0,0,.287-.123.445.445,0,0,0,.013-.629,6.226,6.226,0,0,0-5.285-1.944.443.443,0,0,0-.386.5.434.434,0,0,0,.5.386A5.276,5.276,0,0,1-2509.229,2610.772Zm-7.571-.786a.438.438,0,0,0,.517.358,5.834,5.834,0,0,1,4.731,1.673.445.445,0,0,0,.327.124.447.447,0,0,0,.3-.135.444.444,0,0,0-.013-.629,6.808,6.808,0,0,0-5.5-1.905A.443.443,0,0,0-2516.8,2609.987Z" transform="translate(2525.919 -2603.689)" fill="#d2dae5"/>
          </g>
          <path id="Path_167548" data-name="Path 167548" d="M-2443.9,2525.838c4.533,2.772-2.386,10.587-5.5,11.761-4.651-2.135-15.259-6.863-17.135-11.834s3.086-6.429,6.194-7.6S-2448.96,2522.745-2443.9,2525.838Z" transform="translate(2542.762 -2379.138)" fill="#ffc19f"/>
          <path id="Path_167549" data-name="Path 167549" d="M-2447.475,2525.291a54.7,54.7,0,0,1-15.907,7.789c-1.774-4.855-8.775-32.411-8.733-33.132,5.027.88,11.136,2.2,11.815,2.885C-2456.919,2506.262-2451.1,2518.356-2447.475,2525.291Z" transform="translate(2541.889 -2382.188)" fill="#03d6a3"/>
          <path id="Path_167550" data-name="Path 167550" d="M-2503.211,2556.291c16.465,6.127,37.474,6.517,52.183,2.406.159-8.781-2.118-45.8-4.019-55.67a77.539,77.539,0,0,0-21.979-4.212c-7.985-.219-15.665,1.1-20.55,1.878C-2499.234,2514.166-2500.094,2536.939-2503.211,2556.291Z" transform="translate(2536.636 -2382.384)" fill="#03d6a3"/>
          <path id="Path_167551" data-name="Path 167551" d="M-2464.3,2502.5a4.649,4.649,0,0,0-.233-1.5c-4.441-1.12-16.763-2.793-24.058-1.854a5.681,5.681,0,0,0-.242.843c-.535,5.135,4.581,9.877,11.428,10.592S-2464.84,2507.637-2464.3,2502.5Z" transform="translate(2539.058 -2382.37)" fill="#4f0c03" opacity="0.25"/>
          <path id="Path_167552" data-name="Path 167552" d="M-2466.86,2490.2l-1.178,14.523c-.252,3.123-4.427,5.333-9.323,4.936s-8.659-3.251-8.407-6.374l1.178-14.523Z" transform="translate(2539.581 -2384.077)" fill="#ffc19f"/>
          <path id="Path_167553" data-name="Path 167553" d="M-2467.394,2493.736l-.6,11.435c-9.886,3.184-14.1-2.4-17.418-7.332l.374-7.181C-2479.575,2491.317-2473.048,2492.5-2467.394,2493.736Z" transform="translate(2539.643 -2383.758)" fill="#820303" opacity="0.19"/>
          <g id="Group_109574" data-name="Group 109574" transform="translate(34.474 128.751)">
            <path id="Path_167554" data-name="Path 167554" d="M-2454.248,2512.727c-.079-.828-.16-1.6-.241-2.379a133.292,133.292,0,0,1-44.758-1c-.063.732-.128,1.457-.191,2.212a126.52,126.52,0,0,0,25.219,2.593A130.947,130.947,0,0,0-2454.248,2512.727Z" transform="translate(2502.8 -2509.351)" fill="#fff" opacity="0.4"/>
            <path id="Path_167555" data-name="Path 167555" d="M-2474.429,2521.99a130.334,130.334,0,0,0,21.062-1.612c-.063-.805-.128-1.592-.193-2.381-14.7,2.306-31.7,2.21-46.324-.9-.059.727-.121,1.481-.18,2.221A126.26,126.26,0,0,0-2474.429,2521.99Z" transform="translate(2502.694 -2508.042)" fill="#fff" opacity="0.4"/>
            <path id="Path_167556" data-name="Path 167556" d="M-2474.358,2537.457a129.365,129.365,0,0,0,22.407-1.825c-.043-.791-.088-1.582-.135-2.394-15.482,2.617-33.727,2.5-49.12-1.016-.073.738-.143,1.473-.22,2.212A124.733,124.733,0,0,0-2474.358,2537.457Z" transform="translate(2502.464 -2505.488)" fill="#fff" opacity="0.4"/>
            <path id="Path_167557" data-name="Path 167557" d="M-2474.194,2529.541a129.6,129.6,0,0,0,21.561-1.7c-.054-.8-.109-1.588-.164-2.384-15.106,2.436-32.705,2.31-47.692-1.02q-.094,1.109-.194,2.226A125.282,125.282,0,0,0-2474.194,2529.541Z" transform="translate(2502.589 -2506.802)" fill="#fff" opacity="0.4"/>
            <path id="Path_167558" data-name="Path 167558" d="M-2474.525,2545.3a128.966,128.966,0,0,0,23.161-1.944c-.03-.776-.062-1.56-.1-2.395-15.873,2.792-34.8,2.672-50.586-1.063-.09.731-.168,1.47-.263,2.2A123.893,123.893,0,0,0-2474.525,2545.3Z" transform="translate(2502.314 -2504.191)" fill="#fff" opacity="0.4"/>
          </g>
          <path id="Path_167559" data-name="Path 167559" d="M-2498.778,2536.8c6.652-1.362,14.744-3.449,14.308-5.283-.789-3.325-5.322-23.158-6.807-22.6a24.247,24.247,0,0,0-5.277,4.835C-2497.476,2521.277-2498.268,2529.9-2498.778,2536.8Z" transform="translate(2537.385 -2380.675)" fill="#4f0c03" opacity="0.25"/>
          <path id="Path_167560" data-name="Path 167560" d="M-2466.137,2529.772c.654-.275-2.406-7.956-3.1-7.806-10.322,2.23-28.857,5.007-32.628,5.1.766,5.48,2.635,10.011,7.233,10.838C-2490.217,2538.7-2480.316,2535.72-2466.137,2529.772Z" transform="translate(2536.864 -2378.469)" fill="#ffc19f"/>
          <g id="Group_109577" data-name="Group 109577" transform="translate(23.804 21.884)">
            <path id="Path_167561" data-name="Path 167561" d="M-2436.3,2480.808c-2.269,7.21-9.342,11.306-14.4,10.2s-5.669-7.214-4.334-14.226,6.525-11.816,11.583-10.689C-2436.542,2467.631-2434.167,2474.03-2436.3,2480.808Z" transform="translate(2520.867 -2409.82)" fill="#f4b18c"/>
            <path id="Path_167562" data-name="Path 167562" d="M-2507.891,2447.575c.156-1.762,1.017-9.094,6.072-14.955,3.628-4.208,13.25-7.666,21.594-6.757,4.86-.482,26.4,1.414,30.978,2.652,8.633.124,17.949,6.566,20.909,11.5a24.933,24.933,0,0,1,3.531,14.684c-.41,4.921-1.647,14-3.866,19.913l-.008-.059c-6.254,17.544-22.289,24.427-41.982,22.665-21.037-1.882-35.88-12.689-37.349-33.6A101.667,101.667,0,0,1-2507.891,2447.575Z" transform="translate(2511.977 -2416.613)" fill="#002e59"/>
            <path id="Path_167563" data-name="Path 167563" d="M-2497.724,2448.712c-2.428,4.183-3.04,38.9.493,45.065,4.5,7.856,14.945,15.805,30.549,17.121,12.188,1.029,23.592-5.272,28-14.955,2.454-5.394,6.6-29.408,5.135-41.338-1.365-11.127-14.515-13.438-30.853-14.838C-2479.687,2438.457-2491.427,2437.859-2497.724,2448.712Z" transform="translate(2513.423 -2414.357)" fill="#ffc19f"/>
            <path id="Path_167564" data-name="Path 167564" d="M-2492.719,2460.519c-1.24,12.638-5.452,20.418-9.557,20.091s-5.949-15.765-4.942-28.426c1.154-14.5,5.176-19.846,14.725-21.341C-2488.378,2430.2-2491.309,2446.152-2492.719,2460.519Z" transform="translate(2512.11 -2415.75)" fill="#002e59"/>
            <path id="Path_167565" data-name="Path 167565" d="M-2510.683,2477.052c2.451,7.64,10.264,12.086,15.889,11.009s3.655-24.075-6.677-25.507C-2510.077,2461.363-2512.989,2469.872-2510.683,2477.052Z" transform="translate(2511.442 -2410.408)" fill="#ffc19f"/>
            <path id="Path_167566" data-name="Path 167566" d="M-2504.962,2475.584c.827,3.2,3.968,6.151,6.765,5.316,1.091-.325-.478-11.49-2.166-11.851C-2504.276,2468.21-2505.782,2472.412-2504.962,2475.584Z" transform="translate(2512.5 -2409.31)" fill="#e0956c"/>
            <path id="Path_167567" data-name="Path 167567" d="M-2447.37,2461.64a.931.931,0,0,0,.5-.655,1.117,1.117,0,0,0-.747-1.279c-3.842-1.156-8.782.546-11.756,4.049a1.084,1.084,0,0,0,.12,1.461.938.938,0,0,0,1.378-.027c2.488-2.933,6.717-4.442,9.837-3.5A.915.915,0,0,0-2447.37,2461.64Z" transform="translate(2520.198 -2410.931)" fill="#002e59"/>
            <path id="Path_167568" data-name="Path 167568" d="M-2484.984,2456.028a1.251,1.251,0,0,0,.845.388c4.112.218,8.787,3.787,10.873,8.316a1.253,1.253,0,0,0,1.676.618,1.262,1.262,0,0,0,.618-1.673c-2.484-5.4-7.972-9.516-13.033-9.783a1.264,1.264,0,0,0-1.33,1.194A1.266,1.266,0,0,0-2484.984,2456.028Z" transform="translate(2515.852 -2411.852)" fill="#002e59"/>
            <path id="Path_167569" data-name="Path 167569" d="M-2464.44,2478.153a.349.349,0,0,1-.327-.311,2.348,2.348,0,0,0-2.332-2.127,2.333,2.333,0,0,0-2.547,1.854.351.351,0,0,1-.412.274.349.349,0,0,1-.273-.41,3.045,3.045,0,0,1,3.271-2.415,3.057,3.057,0,0,1,2.988,2.749.349.349,0,0,1-.309.385Z" transform="translate(2518.386 -2408.285)" fill="#c4735b"/>
            <path id="Path_167570" data-name="Path 167570" d="M-2494.1,2478.495c-.24,1.729,2.116,3.482,5.259,3.917s5.885-.615,6.125-2.344-2.117-3.482-5.26-3.917S-2493.863,2476.767-2494.1,2478.495Z" transform="translate(2514.368 -2408.109)" fill="#ff8a8a"/>
            <path id="Path_167571" data-name="Path 167571" d="M-2478.75,2488.779c1.092-4.23,6.777-7.215,11.874-5.852s7.5,5.1,6.546,9.419c-.889,4.058-4.272,1.548-8.812.839C-2474.434,2492.361-2479.931,2493.354-2478.75,2488.779Z" transform="translate(2516.937 -2407.004)" fill="#5b0000"/>
            <path id="Path_167572" data-name="Path 167572" d="M-2462.167,2486.247c-1.509.343-4.135-.141-7.218-.678a15.675,15.675,0,0,1-5.589-1.8,10.586,10.586,0,0,1,7.433-.845A9.715,9.715,0,0,1-2462.167,2486.247Z" transform="translate(2517.603 -2407.003)" fill="#fff"/>
            <path id="Path_167573" data-name="Path 167573" d="M-2469.313,2492.167c-3.021-.5-6.835-.207-8.583-1.3,1.008-1.576,4.386-2.581,7.692-2.136,4.283.576,6.872,2.646,7.906,4.789C-2464.081,2493.875-2465.672,2492.774-2469.313,2492.167Z" transform="translate(2517.109 -2405.985)" fill="#d36553"/>
            <path id="Path_167574" data-name="Path 167574" d="M-2455.3,2481.792c0,1.548,2.159,2.8,4.813,2.79s4.8-1.268,4.8-2.816-2.16-2.8-4.812-2.79S-2455.3,2480.244-2455.3,2481.792Z" transform="translate(2520.926 -2407.615)" fill="#ff8a8a"/>
            <path id="Path_167575" data-name="Path 167575" d="M-2443.67,2455.889c.529,2.5.613,5.077,1.845,10.2.13-2.45,1.426-18.945,1.671-22.632-1.447-.4-6.429-2.1-7.362-2.2C-2442.283,2445.257-2444.64,2451.3-2443.67,2455.889Z" transform="translate(2522.241 -2413.987)" fill="#002e59"/>
            <path id="Path_167576" data-name="Path 167576" d="M-2489.527,2451.765c-1.291,2.338-3.545,4.7-6.412,9.444.3-2.435,1.689-18.925,2.065-22.6,2.235-.068,11.61-.465,13.017-.345C-2489.454,2441.009-2487.159,2447.473-2489.527,2451.765Z" transform="translate(2514.061 -2414.497)" fill="#002e59"/>
            <path id="Path_167577" data-name="Path 167577" d="M-2465.321,2417.928c-16.2.9-21.747,10.41-23.584,16.177,2.618.224,5.557.454,6.929.444C-2481.556,2427.915-2477.2,2421.788-2465.321,2417.928Z" transform="translate(2515.249 -2417.928)" fill="#002e59"/>
            <path id="Path_167578" data-name="Path 167578" d="M-2432.184,2436.046c-15.609-13.017-37.249-20.678-51.464-6.154,2.954,3.979,12.437,7.858,13.638,8.47C-2453.093,2431.451-2438.583,2435.8-2432.184,2436.046Z" transform="translate(2516.137 -2417.237)" fill="#002e59"/>
            <path id="Path_167579" data-name="Path 167579" d="M-2435.941,2449.788c-19.156,7.882-48.371-9.444-47-13.79s15.735-5.481,28.978-1.3S-2436.177,2447.872-2435.941,2449.788Z" transform="translate(2516.249 -2415.536)" fill="#002e59"/>
            <g id="Group_109575" data-name="Group 109575" transform="translate(59.142 54.253)">
              <path id="Path_167580" data-name="Path 167580" d="M-2460.783,2478.416s9.219,4.408,13.309-1.229c4.983-6.87-1.317-13.161-5.785-12.414C-2457.393,2465.464-2461.4,2469.323-2460.783,2478.416Z" transform="translate(2460.847 -2464.278)" fill="#f9feff"/>
              <path id="Path_167581" data-name="Path 167581" d="M-2446.312,2468.066a6.7,6.7,0,0,0-6.447-3.721,7.8,7.8,0,0,0-6.414,4.294,8.181,8.181,0,0,1,5.668-3.442,6.649,6.649,0,0,1,6.741,3.849,8.821,8.821,0,0,1-1.127,8.38C-2445.835,2475.781-2444.695,2470.963-2446.312,2468.066Z" transform="translate(2461.129 -2464.341)" fill="#002e59"/>
              <path id="Path_167582" data-name="Path 167582" d="M-2457.528,2472.068c-1.078,2.528-.242,5.569,1.868,6.79s4.693.163,5.772-2.367.242-5.569-1.868-6.792S-2456.449,2469.538-2457.528,2472.068Z" transform="translate(2461.328 -2463.521)" fill="#63190d"/>
              <path id="Path_167583" data-name="Path 167583" d="M-2457.226,2471.1a1.518,1.518,0,0,0,.518,1.885,1.133,1.133,0,0,0,1.6-.657,1.518,1.518,0,0,0-.518-1.884A1.131,1.131,0,0,0-2457.226,2471.1Z" transform="translate(2461.436 -2463.333)" fill="#fefffe"/>
            </g>
            <g id="Group_109576" data-name="Group 109576" transform="translate(25.118 51.433)">
              <path id="Path_167584" data-name="Path 167584" d="M-2472.92,2477.467s-11.578,2.682-15.392-3.611c-4.647-7.669,3.84-12.733,8.949-11.191C-2474.636,2464.091-2470.607,2468.618-2472.92,2477.467Z" transform="translate(2490.004 -2461.85)" fill="#f9feff"/>
              <path id="Path_167585" data-name="Path 167585" d="M-2488.356,2464.623a8.521,8.521,0,0,1,8.209-2.5c3.091.567,6.068,3.036,6.772,5.389a9.927,9.927,0,0,0-6.047-4.415,8.445,8.445,0,0,0-8.576,2.579,7.632,7.632,0,0,0-.14,8.462C-2490.26,2472.141-2490.758,2467.186-2488.356,2464.623Z" transform="translate(2489.954 -2461.928)" fill="#002e59"/>
              <path id="Path_167586" data-name="Path 167586" d="M-2485.463,2469.747a5.089,5.089,0,0,0,2.3,6.82,5.089,5.089,0,0,0,6.82-2.3,5.089,5.089,0,0,0-2.3-6.82A5.088,5.088,0,0,0-2485.463,2469.747Z" transform="translate(2490.623 -2461.085)" fill="#63190d"/>
              <path id="Path_167587" data-name="Path 167587" d="M-2485.112,2468.791a1.412,1.412,0,0,0,.638,1.892,1.41,1.41,0,0,0,1.891-.638,1.411,1.411,0,0,0-.637-1.891A1.412,1.412,0,0,0-2485.112,2468.791Z" transform="translate(2490.747 -2460.901)" fill="#fefffe"/>
            </g>
          </g>
          <path id="Path_167588" data-name="Path 167588" d="M-2485.756,2528.723c-3.946,1.233-13.438,3.568-17.518,3.577-1.2-5.692-2.874-13.412-2.926-16.586.307-5.269,1.532-8.548,3.94-11.562a11.573,11.573,0,0,1,5.188-3.731c1-.343,8.043,6.929,8.22,7.976C-2487.668,2515.415-2487.1,2520-2485.756,2528.723Z" transform="translate(2536.132 -2382.11)" fill="#03d6a3"/>
          <g id="Group_109579" data-name="Group 109579" transform="translate(63.548 135.127)">
            <path id="Path_167589" data-name="Path 167589" d="M-2458.165,2516.49c.518.276,6.468,3.225,6.34,3.856-.459,2.269-3.453,1.526-6.523.454-4.058.112-10.064,1.33-10.7-.7s-.331-4.375,2.525-5.275A39.116,39.116,0,0,1-2458.165,2516.49Z" transform="translate(2478.812 -2514.806)" fill="#f9ac85"/>
            <path id="Path_167590" data-name="Path 167590" d="M-2470.556,2519.516c-2.155,3.625-3,10.271-1.846,10.656,3.756,1.245,5.834-4.468,10.391-5.375a6.659,6.659,0,0,0-.2-.965A6.7,6.7,0,0,0-2470.556,2519.516Z" transform="translate(2478.206 -2514.059)" fill="#f29d77"/>
            <path id="Path_167591" data-name="Path 167591" d="M-2456.063,2526.027c-.639.568-1.592.093-2.068-.785.262,1.232.347,2.009.113,2.185a1.323,1.323,0,0,1-1.971-.624c-.265,1.278-1.286,1.08-1.866.448-.382-.418-.923-1.054-1.841-2.1-.4-.455-.941-.413-4.029-.945-.657.581.949,6.426-1.418,7.974-2.457,1.607-7.947.155-8.3-3.722-.131-1.452,8.267-11.167,9.566-12.35,1.961-1.787,9.542.663,10.28,1.841C-2456.46,2519.765-2455.643,2525.009-2456.063,2526.027Z" transform="translate(2477.442 -2514.692)" fill="#ffc19f"/>
            <g id="Group_109578" data-name="Group 109578" transform="translate(11.069 3.382)">
              <path id="Path_167592" data-name="Path 167592" d="M-2462.852,2518.937c-.692-.289-1.981-.824-3.262-1.231a.162.162,0,0,0-.2.105.162.162,0,0,0,.1.2c1.271.4,2.551.935,3.239,1.22.233.1.4.17.491.2.338.094,1.728,2.917,2.38,5.569.055.064.117.126.179.187-.184-1.929-1.825-5.832-2.448-6.06C-2462.458,2519.1-2462.623,2519.032-2462.852,2518.937Z" transform="translate(2468.251 -2517.699)" fill="#f29d77"/>
              <path id="Path_167593" data-name="Path 167593" d="M-2464.478,2521.225c-.7-.29-1.99-.829-3.285-1.239a.16.16,0,0,0-.2.1.164.164,0,0,0,.1.2c1.283.406,2.568.941,3.258,1.228.225.093.387.161.472.193a8.489,8.489,0,0,1,2.462,4.526.152.152,0,0,0,.085.111c.036-.146.071-.3.1-.475l-.05-.253c-.421-2.041-1.936-4.011-2.492-4.213C-2464.1,2521.381-2464.262,2521.315-2464.478,2521.225Z" transform="translate(2467.973 -2517.314)" fill="#f29d77"/>
            </g>
          </g>
          <g id="Group_109580" data-name="Group 109580" transform="translate(85.892 128.122)">
            <path id="Path_167594" data-name="Path 167594" d="M-2437.7,2540.025l-19.387,3.411a2.195,2.195,0,0,1-1.152-2.469l18.895-30.54a2.318,2.318,0,0,1,1.9-1.1l18.042-.518c.587-.016,1.951,1.306,1.721,2.2l-19.473,28.669A.737.737,0,0,1-2437.7,2540.025Z" transform="translate(2458.327 -2508.813)" fill="#d6d6d6"/>
            <path id="Path_167595" data-name="Path 167595" d="M-2437.544,2541.375l-19.158,1.993a.737.737,0,0,1-.7-1.12l18.9-30.541a2.312,2.312,0,0,1,1.9-1.1l18.044-.518a.737.737,0,0,1,.647,1.124l-18.044,29.162A2.123,2.123,0,0,1-2437.544,2541.375Z" transform="translate(2458.465 -2508.597)" fill="#aaa"/>
            <path id="Path_167596" data-name="Path 167596" d="M-2433.083,2516.476c-.808.866-1.906,1.157-2.452.648s-.335-1.624.472-2.491,1.9-1.157,2.452-.648S-2432.277,2515.609-2433.083,2516.476Z" transform="translate(2462.126 -2507.981)" fill="#727171"/>
          </g>
          <g id="Group_109581" data-name="Group 109581" transform="translate(108.478 141.703)">
            <path id="Path_167597" data-name="Path 167597" d="M-2438.943,2532.116c.208-.815.837-1.046,1.646-1.073a1.681,1.681,0,0,1-.459-1.669,2.078,2.078,0,0,1,2.116-1.306,1.838,1.838,0,0,1-.831-1.606c.11-.707,1.118-1.338,2.156-1.6a2.22,2.22,0,0,1-.85-2.06c.422-1.247,1.989-2.175,3.841-2.34a21.244,21.244,0,0,1,3.392.151l-9.158,14.8C-2438.371,2534.573-2439.249,2533.313-2438.943,2532.116Z" transform="translate(2439.004 -2520.431)" opacity="0.15"/>
            <path id="Path_167598" data-name="Path 167598" d="M-2431.567,2524.494c-2.449-.343-4.526.275-4.638,1.379s1.783,2.277,4.233,2.619,4.527-.275,4.639-1.379S-2429.117,2524.836-2431.567,2524.494Z" transform="translate(2439.476 -2519.761)" fill="#ffc19f"/>
            <path id="Path_167599" data-name="Path 167599" d="M-2430.639,2521.354c-2.457-.031-4.391.851-4.319,1.969s2.122,2.048,4.578,2.079,4.389-.851,4.318-1.969S-2428.184,2521.384-2430.639,2521.354Z" transform="translate(2439.687 -2520.276)" fill="#ffc19f"/>
            <path id="Path_167600" data-name="Path 167600" d="M-2432.985,2527.377c-2.148-.56-4.114-.144-4.388.931s1.245,2.4,3.393,2.957,4.115.144,4.389-.929S-2430.835,2527.937-2432.985,2527.377Z" transform="translate(2439.274 -2519.3)" fill="#ffc19f"/>
            <path id="Path_167601" data-name="Path 167601" d="M-2434.4,2530.082c-1.834-.67-3.652-.427-4.06.544s.748,2.3,2.582,2.97,3.651.424,4.059-.546S-2432.571,2530.751-2434.4,2530.082Z" transform="translate(2439.082 -2518.865)" fill="#ffc19f"/>
          </g>
          <g id="Group_109582" data-name="Group 109582">
            <path id="Path_167602" data-name="Path 167602" d="M-2497.411,2427.205l-3.795-13.813,4.3.27-7.623-14.456,2.56,10.513-4.189-.293Z" transform="translate(2536.14 -2399.207)" fill="#03d6a3"/>
            <path id="Path_167603" data-name="Path 167603" d="M-2504.223,2431.83l-12.848-8.861,3.012-2.037-12.537-5.721,7.126,5.7-2.947,1.963Z" transform="translate(2532.687 -2396.503)" fill="#03d6a3"/>
            <path id="Path_167604" data-name="Path 167604" d="M-2510.057,2440.442l-10.561-.979,1.276-3.074-12.465,1.94,8.317.767-1.264,2.985Z" transform="translate(2531.806 -2392.925)" fill="#03d6a3"/>
          </g>
          <g id="Group_109583" data-name="Group 109583" transform="translate(119.617 84.805)">
            <path id="Path_167605" data-name="Path 167605" d="M-2428.965,2499.755l3.794-13.813-4.3.27,7.622-14.456-2.56,10.513,4.189-.293Z" transform="translate(2429.475 -2471.756)" fill="#03d6a3"/>
            <path id="Path_167606" data-name="Path 167606" d="M-2420.257,2504.38l12.848-8.862-3.012-2.037,12.536-5.721-7.126,5.7,2.947,1.963Z" transform="translate(2431.032 -2469.052)" fill="#03d6a3"/>
            <path id="Path_167607" data-name="Path 167607" d="M-2414.513,2512.992l10.561-.979-1.277-3.074,12.465,1.94-8.318.767,1.265,2.984Z" transform="translate(2432.002 -2465.475)" fill="#03d6a3"/>
          </g>
        </g>
      </g>
    </g>
    <path id="Rectangle_36367" data-name="Rectangle 36367" d="M0,0H280a0,0,0,0,1,0,0V25a30,30,0,0,1-30,30H30A30,30,0,0,1,0,25V0A0,0,0,0,1,0,0Z" transform="translate(338 3042)" fill="#004080"/>
    <path id="Path_169434" data-name="Path 169434" d="M70.191,18.078H65.024L64.122,21H60.093L65.83,5.359h3.545L75.154,21H71.1Zm-4.265-2.911h3.362L67.6,9.742ZM75.7,15.1a7.848,7.848,0,0,1,.58-3.115A4.67,4.67,0,0,1,77.947,9.9a4.389,4.389,0,0,1,2.524-.736,3.49,3.49,0,0,1,2.836,1.225l.129-1.01h3.287V20.56a4.9,4.9,0,0,1-.714,2.669,4.584,4.584,0,0,1-2.068,1.74,7.6,7.6,0,0,1-3.137.607,6.557,6.557,0,0,1-2.476-.483A4.47,4.47,0,0,1,76.5,23.836l1.515-2.127A3.319,3.319,0,0,0,80.675,22.9a2.156,2.156,0,0,0,2.406-2.471v-.365a3.4,3.4,0,0,1-2.632,1.149,4.2,4.2,0,0,1-3.437-1.627A6.743,6.743,0,0,1,75.7,15.231Zm3.631.226a4.135,4.135,0,0,0,.537,2.261,1.7,1.7,0,0,0,1.5.833,1.923,1.923,0,0,0,1.708-.784V12.75a1.875,1.875,0,0,0-1.687-.795,1.706,1.706,0,0,0-1.515.865A4.715,4.715,0,0,0,79.333,15.328Zm16.479-2.675-1.192-.086a2.142,2.142,0,0,0-2.191,1.074V21h-3.62V9.377H92.2l.118,1.493a2.8,2.8,0,0,1,2.546-1.708,3.53,3.53,0,0,1,1.01.129Zm6.725,8.562a5.975,5.975,0,0,1-4.329-1.6,5.509,5.509,0,0,1-1.654-4.152v-.3a7.138,7.138,0,0,1,.661-3.147,4.834,4.834,0,0,1,1.928-2.111,5.821,5.821,0,0,1,3.008-.747,5.031,5.031,0,0,1,3.867,1.52,5.973,5.973,0,0,1,1.418,4.238v1.407h-7.2a2.609,2.609,0,0,0,.849,1.536,2.525,2.525,0,0,0,1.7.559,3.254,3.254,0,0,0,2.686-1.2l1.654,1.955a4.624,4.624,0,0,1-1.917,1.488A6.48,6.48,0,0,1,102.536,21.215Zm-.408-9.26q-1.59,0-1.891,2.105h3.652v-.279a1.793,1.793,0,0,0-.44-1.348A1.753,1.753,0,0,0,102.127,11.955Zm12.848,5.779a.836.836,0,0,0-.483-.741,7.353,7.353,0,0,0-1.837-.58,8.376,8.376,0,0,1-2.234-.79,3.743,3.743,0,0,1-1.343-1.187,2.834,2.834,0,0,1-.462-1.6,3.212,3.212,0,0,1,1.321-2.637A5.443,5.443,0,0,1,113.4,9.162a6.03,6.03,0,0,1,3.7,1.042,3.258,3.258,0,0,1,1.4,2.739h-3.631q0-1.4-1.472-1.4a1.459,1.459,0,0,0-.956.317.981.981,0,0,0-.387.79.9.9,0,0,0,.473.784,4.466,4.466,0,0,0,1.509.494,13.043,13.043,0,0,1,1.821.462q2.621.9,2.621,3.233a3.044,3.044,0,0,1-1.413,2.589,6.2,6.2,0,0,1-3.658,1,6.322,6.322,0,0,1-2.664-.537,4.455,4.455,0,0,1-1.826-1.461,3.308,3.308,0,0,1-.655-1.944h3.384a1.4,1.4,0,0,0,.537,1.176,2.209,2.209,0,0,0,1.321.371,1.738,1.738,0,0,0,1.112-.3A.962.962,0,0,0,114.975,17.734Zm4.727-2.653a6.86,6.86,0,0,1,.677-3.1,4.84,4.84,0,0,1,1.944-2.089,5.856,5.856,0,0,1,2.976-.73,5.344,5.344,0,0,1,4.114,1.617,6.2,6.2,0,0,1,1.5,4.4v.129a6.019,6.019,0,0,1-1.509,4.313,5.359,5.359,0,0,1-4.087,1.6,5.42,5.42,0,0,1-3.985-1.488,5.819,5.819,0,0,1-1.622-4.034Zm3.62.226a4.325,4.325,0,0,0,.5,2.363,1.682,1.682,0,0,0,1.493.752q1.934,0,1.977-2.976v-.365q0-3.126-2-3.126-1.815,0-1.966,2.7Zm16.221-2.653-1.192-.086a2.142,2.142,0,0,0-2.191,1.074V21h-3.62V9.377h3.395l.118,1.493A2.8,2.8,0,0,1,138.6,9.162a3.53,3.53,0,0,1,1.01.129Zm6.725,8.562a5.975,5.975,0,0,1-4.329-1.6,5.509,5.509,0,0,1-1.654-4.152v-.3a7.138,7.138,0,0,1,.661-3.147,4.834,4.834,0,0,1,1.928-2.111,5.821,5.821,0,0,1,3.008-.747,5.031,5.031,0,0,1,3.867,1.52,5.973,5.973,0,0,1,1.418,4.238v1.407h-7.2a2.609,2.609,0,0,0,.849,1.536,2.525,2.525,0,0,0,1.7.559,3.254,3.254,0,0,0,2.686-1.2l1.654,1.955a4.624,4.624,0,0,1-1.917,1.488A6.48,6.48,0,0,1,146.267,21.215Zm-.408-9.26q-1.59,0-1.891,2.105h3.652v-.279a1.793,1.793,0,0,0-.44-1.348A1.753,1.753,0,0,0,145.859,11.955Zm12.848,5.779a.836.836,0,0,0-.483-.741,7.353,7.353,0,0,0-1.837-.58,8.376,8.376,0,0,1-2.234-.79,3.743,3.743,0,0,1-1.343-1.187,2.835,2.835,0,0,1-.462-1.6,3.212,3.212,0,0,1,1.321-2.637,5.443,5.443,0,0,1,3.459-1.037,6.03,6.03,0,0,1,3.7,1.042,3.258,3.258,0,0,1,1.4,2.739h-3.631q0-1.4-1.472-1.4a1.459,1.459,0,0,0-.956.317.981.981,0,0,0-.387.79.9.9,0,0,0,.473.784,4.466,4.466,0,0,0,1.509.494,13.042,13.042,0,0,1,1.821.462q2.621.9,2.621,3.233a3.044,3.044,0,0,1-1.413,2.589,6.2,6.2,0,0,1-3.658,1,6.322,6.322,0,0,1-2.664-.537,4.455,4.455,0,0,1-1.826-1.461,3.308,3.308,0,0,1-.655-1.944h3.384a1.4,1.4,0,0,0,.537,1.176,2.209,2.209,0,0,0,1.321.371,1.738,1.738,0,0,0,1.112-.3A.962.962,0,0,0,158.707,17.734Z" transform="translate(367 3056)" fill="#fff"/>
  </g>
</svg>
