<svg xmlns="http://www.w3.org/2000/svg" xmlns:xlink="http://www.w3.org/1999/xlink" width="403" height="126.219" viewBox="0 0 403 126.219">
  <defs>
    <linearGradient id="linear-gradient" y1="0.5" x2="1" y2="0.5" gradientUnits="objectBoundingBox">
      <stop offset="0" stop-color="#ededed"/>
      <stop offset="1" stop-color="#fff"/>
    </linearGradient>
    <radialGradient id="radial-gradient" cx="0.5" cy="0.5" r="0.5" gradientTransform="matrix(0.707, 0.707, -0.707, 0.707, 0.5, -0.207)" gradientUnits="objectBoundingBox">
      <stop offset="0"/>
      <stop offset="0.097" stop-color="#050505"/>
      <stop offset="0.221" stop-color="#151515"/>
      <stop offset="0.36" stop-color="#2f2f2f"/>
      <stop offset="0.51" stop-color="#545454"/>
      <stop offset="0.668" stop-color="#838383"/>
      <stop offset="0.834" stop-color="#bdbdbd"/>
      <stop offset="1" stop-color="#fff"/>
    </radialGradient>
  </defs>
  <g id="t5-ic1" transform="translate(-4726 7644.847)">
    <g id="Group_112005" data-name="Group 112005" transform="translate(6626.86 -9076.201)">
      <rect id="Rectangle_36344" data-name="Rectangle 36344" width="346.22" height="73.555" rx="20.318" transform="translate(-1847.08 1451.447)" fill="url(#linear-gradient)"/>
      <path id="Rectangle_36344_-_Outline" data-name="Rectangle 36344 - Outline" d="M20.318-3H325.9A23.344,23.344,0,0,1,349.22,20.318v32.92A23.344,23.344,0,0,1,325.9,76.555H20.318A23.344,23.344,0,0,1-3,53.237V20.318A23.344,23.344,0,0,1,20.318-3ZM325.9,70.555A17.337,17.337,0,0,0,343.22,53.237V20.318A17.337,17.337,0,0,0,325.9,3H20.318A17.337,17.337,0,0,0,3,20.318v32.92A17.337,17.337,0,0,0,20.318,70.555Z" transform="translate(-1847.08 1451.447)" fill="#0077ec"/>
      <circle id="Ellipse_5208" data-name="Ellipse 5208" cx="62.475" cy="62.475" r="62.475" transform="translate(-1900.86 1432.623)" fill="url(#radial-gradient)" style="mix-blend-mode: multiply;isolation: isolate"/>
      <circle id="Ellipse_5209" data-name="Ellipse 5209" cx="57.735" cy="57.735" r="57.735" transform="translate(-1900.86 1431.354)" fill="#0077ec"/>
      <path id="Path_167282" data-name="Path 167282" d="M-1728.388,1515.306l-7.118-4.517v9.034Z" transform="translate(-67.129 -26.217)" fill="#aaa" style="mix-blend-mode: multiply;isolation: isolate"/>
      <path id="Path_167283" data-name="Path 167283" d="M-1813.554,1491.872a10.521,10.521,0,0,1,0-12.439l12.569-17.152a7.459,7.459,0,0,0-.612-9.535,47.781,47.781,0,0,0-36.606-14.966,48.045,48.045,0,0,0-46.11,47.194,47.906,47.906,0,0,0,47.9,48.587,47.767,47.767,0,0,0,34.782-14.967,7.474,7.474,0,0,0,.644-9.567Z" transform="translate(-6.716 3.436)" fill="url(#linear-gradient)"/>
    </g>
    <path id="Feature_One" data-name="Feature One" d="M73.448,16.746,76.563,5.359h4.211L75.511,21H71.386L66.165,5.359h4.179ZM85.565,21H81.935V9.377h3.631ZM81.72,6.369a1.63,1.63,0,0,1,.559-1.275,2.364,2.364,0,0,1,2.9,0,1.63,1.63,0,0,1,.559,1.275,1.63,1.63,0,0,1-.559,1.275,2.364,2.364,0,0,1-2.9,0A1.63,1.63,0,0,1,81.72,6.369Zm13.105,6.284-1.192-.086a2.142,2.142,0,0,0-2.191,1.074V21h-3.62V9.377h3.395l.118,1.493A2.8,2.8,0,0,1,93.88,9.162a3.53,3.53,0,0,1,1.01.129ZM102.355,21a4.087,4.087,0,0,1-.344-1.042,3.366,3.366,0,0,1-2.793,1.257,4.124,4.124,0,0,1-2.793-.994,3.163,3.163,0,0,1-1.149-2.5,3.251,3.251,0,0,1,1.4-2.857,7.114,7.114,0,0,1,4.061-.967h1.117v-.615q0-1.608-1.386-1.608a1.133,1.133,0,0,0-1.289,1.274h-3.62a3.245,3.245,0,0,1,1.434-2.736,6.027,6.027,0,0,1,3.658-1.051,5.284,5.284,0,0,1,3.513,1.085,3.772,3.772,0,0,1,1.321,2.976v5.146a5.269,5.269,0,0,0,.494,2.449V21Zm-2.267-2.363a2.019,2.019,0,0,0,1.123-.29,1.818,1.818,0,0,0,.639-.655V15.833H100.8q-1.891,0-1.891,1.7a1.036,1.036,0,0,0,.333.8A1.205,1.205,0,0,0,100.089,18.637ZM111.3,21h-3.631V4.5H111.3Zm6.048,0h-3.631V9.377h3.631ZM113.506,6.369a1.63,1.63,0,0,1,.559-1.275,2.364,2.364,0,0,1,2.9,0,1.63,1.63,0,0,1,.559,1.275,1.63,1.63,0,0,1-.559,1.275,2.364,2.364,0,0,1-2.9,0A1.63,1.63,0,0,1,113.506,6.369Zm10.345,11.838h5.3V21h-9.872V18.98l5.156-6.811H119.5V9.377h9.528v1.955ZM137.45,21a4.088,4.088,0,0,1-.344-1.042,3.366,3.366,0,0,1-2.793,1.257,4.124,4.124,0,0,1-2.793-.994,3.163,3.163,0,0,1-1.149-2.5,3.251,3.251,0,0,1,1.4-2.857,7.114,7.114,0,0,1,4.061-.967h1.117v-.615q0-1.608-1.386-1.608a1.133,1.133,0,0,0-1.289,1.274h-3.62a3.245,3.245,0,0,1,1.434-2.736,6.027,6.027,0,0,1,3.658-1.051,5.284,5.284,0,0,1,3.513,1.085,3.772,3.772,0,0,1,1.321,2.976v5.146a5.269,5.269,0,0,0,.494,2.449V21Zm-2.267-2.363a2.019,2.019,0,0,0,1.123-.29,1.818,1.818,0,0,0,.639-.655V15.833h-1.053q-1.891,0-1.891,1.7a1.036,1.036,0,0,0,.333.8A1.205,1.205,0,0,0,135.184,18.637Zm12.311-.215a1.61,1.61,0,0,0,1.182-.414,1.517,1.517,0,0,0,.408-1.155h3.395a4.018,4.018,0,0,1-1.37,3.137,5.1,5.1,0,0,1-3.529,1.225,5.158,5.158,0,0,1-4-1.59,6.264,6.264,0,0,1-1.461-4.4v-.15a7.08,7.08,0,0,1,.65-3.11,4.732,4.732,0,0,1,1.875-2.073,5.589,5.589,0,0,1,2.9-.725,5.03,5.03,0,0,1,3.6,1.257,4.458,4.458,0,0,1,1.332,3.405h-3.395a1.987,1.987,0,0,0-.44-1.386,1.52,1.52,0,0,0-1.182-.483q-1.407,0-1.644,1.794a12.659,12.659,0,0,0-.075,1.568,4.972,4.972,0,0,0,.419,2.428A1.45,1.45,0,0,0,147.494,18.422ZM157.828,21H154.2V9.377h3.631ZM153.982,6.369a1.63,1.63,0,0,1,.559-1.275,2.364,2.364,0,0,1,2.9,0A1.63,1.63,0,0,1,158,6.369a1.63,1.63,0,0,1-.559,1.275,2.364,2.364,0,0,1-2.9,0A1.63,1.63,0,0,1,153.982,6.369Zm5.618,8.712a6.86,6.86,0,0,1,.677-3.1,4.84,4.84,0,0,1,1.944-2.089,5.856,5.856,0,0,1,2.976-.73,5.344,5.344,0,0,1,4.114,1.617,6.2,6.2,0,0,1,1.5,4.4v.129a6.019,6.019,0,0,1-1.509,4.313,5.359,5.359,0,0,1-4.087,1.6,5.42,5.42,0,0,1-3.985-1.488,5.819,5.819,0,0,1-1.622-4.034Zm3.62.226a4.325,4.325,0,0,0,.5,2.363,1.682,1.682,0,0,0,1.493.752q1.934,0,1.977-2.976v-.365q0-3.126-2-3.126-1.815,0-1.966,2.7ZM165.691,4.5h3.824l-2.986,3.373-2.954-.005Zm10.044,4.877.118,1.364a3.942,3.942,0,0,1,3.319-1.579,3.316,3.316,0,0,1,2.712,1.085,5.165,5.165,0,0,1,.929,3.266V21h-3.631V13.663a1.961,1.961,0,0,0-.354-1.294,1.64,1.64,0,0,0-1.289-.414,1.726,1.726,0,0,0-1.579.838V21h-3.62V9.377Z" transform="translate(4852 -7602)" fill="#12263f"/>
    <g id="Page-1" transform="translate(4749 -7610)">
      <g id="_058---Viral-Marketing" data-name="058---Viral-Marketing">
        <ellipse id="Oval" cx="1" cy="0.5" rx="1" ry="0.5" transform="translate(19 4)" fill="#12263f"/>
        <ellipse id="Oval-2" data-name="Oval" cx="1" cy="0.5" rx="1" ry="0.5" transform="translate(22 4)" fill="#12263f"/>
        <ellipse id="Oval-3" data-name="Oval" cx="1" cy="0.5" rx="1" ry="0.5" transform="translate(25 4)" fill="#12263f"/>
        <path id="Shape" d="M32.5,0H23.3A2.3,2.3,0,0,0,21,2.3V6.9a2.3,2.3,0,0,0,2.3,2.3h1.667l1.846,1.853a1.5,1.5,0,0,0,.32.238v3.276a.767.767,0,0,0,1.533,0V11.291a1.507,1.507,0,0,0,.32-.238L30.833,9.2H32.5a2.3,2.3,0,0,0,2.3-2.3V2.3A2.3,2.3,0,0,0,32.5,0Zm.767,6.9a.767.767,0,0,1-.767.767H30.514a.767.767,0,0,0-.543.225L27.9,9.967,25.83,7.891a.767.767,0,0,0-.544-.225H23.3a.767.767,0,0,1-.767-.767V2.3a.767.767,0,0,1,.767-.767h9.2a.767.767,0,0,1,.767.767Z" transform="translate(-4.9)" fill="#12263f"/>
        <ellipse id="Oval-4" data-name="Oval" cx="0.5" cy="1" rx="0.5" ry="1" transform="translate(4 25)" fill="#12263f"/>
        <ellipse id="Oval-5" data-name="Oval" cx="0.5" cy="1" rx="0.5" ry="1" transform="translate(4 22)" fill="#12263f"/>
        <ellipse id="Oval-6" data-name="Oval" cx="0.5" cy="1" rx="0.5" ry="1" transform="translate(4 19)" fill="#12263f"/>
        <path id="Shape-2" data-name="Shape" d="M2.3,34.8H6.9a2.3,2.3,0,0,0,2.3-2.3V30.833l1.853-1.846a1.539,1.539,0,0,0,0-2.174L9.2,24.968V23.3A2.3,2.3,0,0,0,6.9,21H2.3A2.3,2.3,0,0,0,0,23.3v9.2A2.3,2.3,0,0,0,2.3,34.8ZM1.533,23.3a.767.767,0,0,1,.767-.767H6.9a.767.767,0,0,1,.767.767v1.986a.767.767,0,0,0,.225.543L9.967,27.9,7.889,29.97a.767.767,0,0,0-.222.544V32.5a.767.767,0,0,1-.767.767H2.3a.767.767,0,0,1-.767-.767Z" transform="translate(0 -4.9)" fill="#12263f"/>
        <ellipse id="Oval-7" data-name="Oval" cx="1" cy="0.5" rx="1" ry="0.5" transform="translate(25 41)" fill="#12263f"/>
        <ellipse id="Oval-8" data-name="Oval" cx="1" cy="0.5" rx="1" ry="0.5" transform="translate(22 41)" fill="#12263f"/>
        <ellipse id="Oval-9" data-name="Oval" cx="1" cy="0.5" rx="1" ry="0.5" transform="translate(19 41)" fill="#12263f"/>
        <path id="Shape-3" data-name="Shape" d="M23.3,56.033h9.2a2.3,2.3,0,0,0,2.3-2.3v-4.6a2.3,2.3,0,0,0-2.3-2.3H30.833L28.986,44.98a1.533,1.533,0,0,0-.32-.238v-.975a.767.767,0,1,0-1.533,0v.975a1.537,1.537,0,0,0-.32.239l-1.845,1.852H23.3a2.3,2.3,0,0,0-2.3,2.3v4.6a2.3,2.3,0,0,0,2.3,2.3Zm-.767-6.9a.767.767,0,0,1,.767-.767h1.986a.767.767,0,0,0,.543-.225L27.9,46.067h.005l2.07,2.075a.767.767,0,0,0,.539.225H32.5a.767.767,0,0,1,.767.767v4.6a.767.767,0,0,1-.767.767H23.3a.767.767,0,0,1-.767-.767Z" transform="translate(-4.9 -10.033)" fill="#12263f"/>
        <ellipse id="Oval-10" data-name="Oval" cx="0.5" cy="1" rx="0.5" ry="1" transform="translate(41 19)" fill="#12263f"/>
        <ellipse id="Oval-11" data-name="Oval" cx="0.5" cy="1" rx="0.5" ry="1" transform="translate(41 22)" fill="#12263f"/>
        <ellipse id="Oval-12" data-name="Oval" cx="0.5" cy="1" rx="0.5" ry="1" transform="translate(41 25)" fill="#12263f"/>
        <path id="Shape-4" data-name="Shape" d="M54.2,21H49.6a2.3,2.3,0,0,0-2.3,2.3v1.667l-1.853,1.846a1.539,1.539,0,0,0,0,2.173L47.3,30.833V32.5a2.3,2.3,0,0,0,2.3,2.3h4.6a2.3,2.3,0,0,0,2.3-2.3V23.3A2.3,2.3,0,0,0,54.2,21Zm.767,11.5a.767.767,0,0,1-.767.767H49.6a.767.767,0,0,1-.767-.767V30.514a.767.767,0,0,0-.225-.543L46.533,27.9l2.078-2.07a.767.767,0,0,0,.222-.544V23.3a.767.767,0,0,1,.767-.767h4.6a.767.767,0,0,1,.767.767Z" transform="translate(-10.499 -4.9)" fill="#12263f"/>
        <path id="Shape-5" data-name="Shape" d="M34.633,19a2.3,2.3,0,0,0-2.223,1.74L21.354,24.886A2.294,2.294,0,0,0,17,25.9v3.853a2.294,2.294,0,0,0,4.354,1.014l1.451.544-.343.879a1.763,1.763,0,0,0,1.069,2.223l3.69,1.343a1.741,1.741,0,0,0,.589.11,1.8,1.8,0,0,0,1.675-1.15l.292-.789,2.633.985a2.3,2.3,0,0,0,4.523-.56V21.3a2.3,2.3,0,0,0-2.3-2.3ZM21.6,26.431l10.733-4.025v10.84L21.6,29.221Zm-1.533,3.321a.767.767,0,0,1-1.533,0V25.9a.767.767,0,0,1,1.533,0Zm7.986,4.419a.249.249,0,0,1-.311.146l-3.689-1.342a.222.222,0,0,1-.153-.257l.339-.869,4.108,1.539Zm7.347.181a.767.767,0,0,1-1.533,0V21.3a.767.767,0,1,1,1.533,0Z" transform="translate(-3.967 -4.433)" fill="#12263f"/>
        <path id="Shape-6" data-name="Shape" d="M32.929,27a.767.767,0,0,0-.988-.449l-5.111,1.917a.767.767,0,0,0,.27,1.485.8.8,0,0,0,.27-.048l5.111-1.917A.767.767,0,0,0,32.929,27Z" transform="translate(-6.144 -6.183)" fill="#12263f"/>
        <path id="Shape-7" data-name="Shape" d="M9.831,5a3.833,3.833,0,1,0,2.111,7.028l5.014,5.014a.767.767,0,0,0,1.084-1.084l-5.014-5.014A3.827,3.827,0,0,0,9.831,5Zm-2.3,3.833a2.3,2.3,0,1,1,2.3,2.3A2.3,2.3,0,0,1,7.531,8.833Z" transform="translate(-1.398 -1.167)" fill="#12263f"/>
        <path id="Shape-8" data-name="Shape" d="M17.035,38.225a.767.767,0,0,0-1.084,0l-5.014,5.014a3.845,3.845,0,1,0,1.084,1.084l5.014-5.014a.767.767,0,0,0,0-1.084ZM8.826,48.733a2.3,2.3,0,1,1,2.3-2.3A2.3,2.3,0,0,1,8.826,48.733Z" transform="translate(-1.16 -8.867)" fill="#12263f"/>
        <path id="Shape-9" data-name="Shape" d="M42.225,43.225a.767.767,0,0,0,0,1.084l1.947,1.947a3.845,3.845,0,1,0,1.084-1.084l-1.947-1.947a.767.767,0,0,0-1.084,0Zm7.442,5.142a2.3,2.3,0,1,1-2.3-2.3A2.3,2.3,0,0,1,49.667,48.367Z" transform="translate(-9.8 -10.033)" fill="#12263f"/>
        <path id="Shape-10" data-name="Shape" d="M43.225,14.968a.767.767,0,0,0,1.084,0l1.947-1.947a3.845,3.845,0,1,0-1.084-1.084l-1.947,1.947a.767.767,0,0,0,0,1.084Zm5.142-7.442a2.3,2.3,0,1,1-2.3,2.3A2.3,2.3,0,0,1,48.367,7.526Z" transform="translate(-10.033 -1.393)" fill="#12263f"/>
      </g>
    </g>
  </g>
</svg>
