<svg xmlns="http://www.w3.org/2000/svg" xmlns:xlink="http://www.w3.org/1999/xlink" width="403" height="126.219" viewBox="0 0 403 126.219">
  <defs>
    <linearGradient id="linear-gradient" y1="0.5" x2="1" y2="0.5" gradientUnits="objectBoundingBox">
      <stop offset="0" stop-color="#ededed"/>
      <stop offset="1" stop-color="#fff"/>
    </linearGradient>
    <radialGradient id="radial-gradient" cx="0.5" cy="0.5" r="0.5" gradientTransform="matrix(0.707, 0.707, -0.707, 0.707, 0.5, -0.207)" gradientUnits="objectBoundingBox">
      <stop offset="0"/>
      <stop offset="0.097" stop-color="#050505"/>
      <stop offset="0.221" stop-color="#151515"/>
      <stop offset="0.36" stop-color="#2f2f2f"/>
      <stop offset="0.51" stop-color="#545454"/>
      <stop offset="0.668" stop-color="#838383"/>
      <stop offset="0.834" stop-color="#bdbdbd"/>
      <stop offset="1" stop-color="#fff"/>
    </radialGradient>
  </defs>
  <g id="t5-ic3" transform="translate(-5566 7644.847)">
    <g id="Group_112007" data-name="Group 112007" transform="translate(7466.86 -9076.201)">
      <rect id="Rectangle_36344" data-name="Rectangle 36344" width="346.22" height="73.555" rx="20.318" transform="translate(-1847.08 1451.447)" fill="url(#linear-gradient)"/>
      <path id="Rectangle_36344_-_Outline" data-name="Rectangle 36344 - Outline" d="M20.318-3H325.9A23.344,23.344,0,0,1,349.22,20.318v32.92A23.344,23.344,0,0,1,325.9,76.555H20.318A23.344,23.344,0,0,1-3,53.237V20.318A23.344,23.344,0,0,1,20.318-3ZM325.9,70.555A17.337,17.337,0,0,0,343.22,53.237V20.318A17.337,17.337,0,0,0,325.9,3H20.318A17.337,17.337,0,0,0,3,20.318v32.92A17.337,17.337,0,0,0,20.318,70.555Z" transform="translate(-1847.08 1451.447)" fill="#0077ec"/>
      <circle id="Ellipse_5208" data-name="Ellipse 5208" cx="62.475" cy="62.475" r="62.475" transform="translate(-1900.86 1432.623)" fill="url(#radial-gradient)" style="mix-blend-mode: multiply;isolation: isolate"/>
      <circle id="Ellipse_5209" data-name="Ellipse 5209" cx="57.735" cy="57.735" r="57.735" transform="translate(-1900.86 1431.354)" fill="#0077ec"/>
      <path id="Path_167282" data-name="Path 167282" d="M-1728.388,1515.306l-7.118-4.517v9.034Z" transform="translate(-67.129 -26.217)" fill="#aaa" style="mix-blend-mode: multiply;isolation: isolate"/>
      <path id="Path_167283" data-name="Path 167283" d="M-1813.554,1491.872a10.521,10.521,0,0,1,0-12.439l12.569-17.152a7.459,7.459,0,0,0-.612-9.535,47.781,47.781,0,0,0-36.606-14.966,48.045,48.045,0,0,0-46.11,47.194,47.906,47.906,0,0,0,47.9,48.587,47.767,47.767,0,0,0,34.782-14.967,7.474,7.474,0,0,0,.644-9.567Z" transform="translate(-6.716 3.436)" fill="url(#linear-gradient)"/>
    </g>
    <path id="Feature_One" data-name="Feature One" d="M21.8,5.359l3.491,10.882,3.48-10.882h4.963V21H29.953V17.348l.365-7.477L26.537,21H24.045L20.253,9.86l.365,7.487V21H16.848V5.359ZM42.887,19.743a3.732,3.732,0,0,1-3.1,1.472,3.661,3.661,0,0,1-2.9-1.112,4.676,4.676,0,0,1-.983-3.2V9.377h3.62v7.552a1.3,1.3,0,0,0,1.45,1.493,1.892,1.892,0,0,0,1.772-.892V9.377h3.642V21H42.994ZM41.6,4.5h3.824L42.436,7.873l-2.954-.005ZM52.189,21H48.559V4.5h3.631ZM58.635,6.487v2.89h1.912v2.514H58.635v5.317a1.358,1.358,0,0,0,.236.913,1.268,1.268,0,0,0,.935.258,5.311,5.311,0,0,0,.9-.064V20.9a6.681,6.681,0,0,1-2.041.312,3.792,3.792,0,0,1-2.761-.881,3.61,3.61,0,0,1-.892-2.675V11.891H53.532V9.377h1.482V6.487ZM65.789,21H62.158V9.377h3.631ZM61.943,6.369A1.63,1.63,0,0,1,62.5,5.094a2.364,2.364,0,0,1,2.9,0,1.63,1.63,0,0,1,.559,1.275A1.63,1.63,0,0,1,65.4,7.644a2.364,2.364,0,0,1-2.9,0A1.63,1.63,0,0,1,61.943,6.369Zm16.865,8.905A7.009,7.009,0,0,1,77.589,19.6,3.909,3.909,0,0,1,74.3,21.215a3.351,3.351,0,0,1-2.632-1.171v5.425h-3.62V9.377h3.384l.107,1.074a3.351,3.351,0,0,1,2.739-1.289,3.941,3.941,0,0,1,3.341,1.584A7.1,7.1,0,0,1,78.809,15.1Zm-3.62-.226q0-3.094-1.8-3.094a1.7,1.7,0,0,0-1.719.924v4.576a1.759,1.759,0,0,0,1.74.967q1.729,0,1.783-2.986ZM84.223,21H80.592V4.5h3.631Zm7.853.215a5.975,5.975,0,0,1-4.329-1.6,5.509,5.509,0,0,1-1.654-4.152v-.3a7.138,7.138,0,0,1,.661-3.147,4.834,4.834,0,0,1,1.928-2.111,5.821,5.821,0,0,1,3.008-.747,5.031,5.031,0,0,1,3.867,1.52,5.973,5.973,0,0,1,1.418,4.238v1.407h-7.2a2.609,2.609,0,0,0,.849,1.536,2.525,2.525,0,0,0,1.7.559,3.254,3.254,0,0,0,2.686-1.2l1.654,1.955a4.624,4.624,0,0,1-1.917,1.488A6.48,6.48,0,0,1,92.075,21.215Zm-.408-9.26q-1.59,0-1.891,2.105h3.652v-.279a1.793,1.793,0,0,0-.44-1.348A1.753,1.753,0,0,0,91.667,11.955Zm12.848,5.779a.836.836,0,0,0-.483-.741,7.353,7.353,0,0,0-1.837-.58,8.376,8.376,0,0,1-2.234-.79,3.743,3.743,0,0,1-1.343-1.187,2.834,2.834,0,0,1-.462-1.6A3.212,3.212,0,0,1,99.477,10.2a5.443,5.443,0,0,1,3.459-1.037,6.03,6.03,0,0,1,3.7,1.042,3.258,3.258,0,0,1,1.4,2.739H104.4q0-1.4-1.472-1.4a1.459,1.459,0,0,0-.956.317.981.981,0,0,0-.387.79.9.9,0,0,0,.473.784,4.466,4.466,0,0,0,1.509.494,13.043,13.043,0,0,1,1.821.462q2.621.9,2.621,3.233a3.044,3.044,0,0,1-1.413,2.589,6.2,6.2,0,0,1-3.658,1,6.322,6.322,0,0,1-2.664-.537,4.455,4.455,0,0,1-1.826-1.461,3.308,3.308,0,0,1-.655-1.944h3.384a1.4,1.4,0,0,0,.537,1.176,2.209,2.209,0,0,0,1.321.371,1.738,1.738,0,0,0,1.112-.3A.962.962,0,0,0,104.515,17.734ZM114.72,15.1a7.1,7.1,0,0,1,1.192-4.351,3.925,3.925,0,0,1,3.33-1.59,3.338,3.338,0,0,1,2.621,1.225V4.5h3.631V21h-3.255l-.183-1.246a3.428,3.428,0,0,1-2.836,1.461,3.918,3.918,0,0,1-3.287-1.59A7.325,7.325,0,0,1,114.72,15.1Zm3.62.226q0,3.094,1.8,3.094a1.782,1.782,0,0,0,1.719-1.01V12.986a1.734,1.734,0,0,0-1.7-1.031q-1.676,0-1.815,2.707ZM131.37,21h-3.631V9.377h3.631ZM127.524,6.369a1.63,1.63,0,0,1,.559-1.275,2.364,2.364,0,0,1,2.9,0,1.63,1.63,0,0,1,.559,1.275,1.63,1.63,0,0,1-.559,1.275,2.364,2.364,0,0,1-2.9,0A1.63,1.63,0,0,1,127.524,6.369Zm12.16,11.365a.836.836,0,0,0-.483-.741,7.353,7.353,0,0,0-1.837-.58,8.376,8.376,0,0,1-2.234-.79,3.743,3.743,0,0,1-1.343-1.187,2.835,2.835,0,0,1-.462-1.6,3.212,3.212,0,0,1,1.321-2.637,5.443,5.443,0,0,1,3.459-1.037,6.03,6.03,0,0,1,3.7,1.042,3.258,3.258,0,0,1,1.4,2.739h-3.631q0-1.4-1.472-1.4a1.459,1.459,0,0,0-.956.317.981.981,0,0,0-.387.79.9.9,0,0,0,.473.784,4.466,4.466,0,0,0,1.509.494,13.042,13.042,0,0,1,1.821.462q2.621.9,2.621,3.233a3.044,3.044,0,0,1-1.413,2.589,6.2,6.2,0,0,1-3.658,1,6.322,6.322,0,0,1-2.664-.537,4.455,4.455,0,0,1-1.826-1.461,3.308,3.308,0,0,1-.655-1.944h3.384a1.4,1.4,0,0,0,.537,1.176,2.209,2.209,0,0,0,1.321.371,1.738,1.738,0,0,0,1.112-.3A.962.962,0,0,0,139.685,17.734Zm15.974-2.46a7.009,7.009,0,0,1-1.219,4.324,3.909,3.909,0,0,1-3.292,1.617,3.351,3.351,0,0,1-2.632-1.171v5.425h-3.62V9.377h3.384l.107,1.074a3.351,3.351,0,0,1,2.739-1.289,3.941,3.941,0,0,1,3.341,1.584,7.1,7.1,0,0,1,1.192,4.356Zm-3.62-.226q0-3.094-1.8-3.094a1.7,1.7,0,0,0-1.719.924v4.576a1.759,1.759,0,0,0,1.74.967q1.729,0,1.783-2.986Zm4.759.032a6.86,6.86,0,0,1,.677-3.1,4.84,4.84,0,0,1,1.944-2.089,5.856,5.856,0,0,1,2.976-.73,5.344,5.344,0,0,1,4.114,1.617,6.2,6.2,0,0,1,1.5,4.4v.129A6.019,6.019,0,0,1,166.5,19.62a5.359,5.359,0,0,1-4.087,1.6,5.42,5.42,0,0,1-3.985-1.488,5.819,5.819,0,0,1-1.622-4.034Zm3.62.226a4.325,4.325,0,0,0,.5,2.363,1.682,1.682,0,0,0,1.493.752q1.934,0,1.977-2.976v-.365q0-3.126-2-3.126-1.815,0-1.966,2.7Zm15.275,2.428a.836.836,0,0,0-.483-.741,7.353,7.353,0,0,0-1.837-.58,8.376,8.376,0,0,1-2.234-.79,3.743,3.743,0,0,1-1.343-1.187,2.835,2.835,0,0,1-.462-1.6,3.212,3.212,0,0,1,1.321-2.637,5.443,5.443,0,0,1,3.459-1.037,6.03,6.03,0,0,1,3.7,1.042,3.258,3.258,0,0,1,1.4,2.739h-3.631q0-1.4-1.472-1.4a1.459,1.459,0,0,0-.956.317.981.981,0,0,0-.387.79.9.9,0,0,0,.473.784,4.466,4.466,0,0,0,1.509.494,13.042,13.042,0,0,1,1.821.462q2.621.9,2.621,3.233a3.044,3.044,0,0,1-1.413,2.589,6.2,6.2,0,0,1-3.658,1,6.322,6.322,0,0,1-2.664-.537,4.455,4.455,0,0,1-1.826-1.461,3.308,3.308,0,0,1-.655-1.944h3.384a1.4,1.4,0,0,0,.537,1.176,2.209,2.209,0,0,0,1.321.371,1.738,1.738,0,0,0,1.112-.3A.962.962,0,0,0,175.692,17.734Zm9,3.266h-3.631V9.377h3.631ZM180.849,6.369a1.63,1.63,0,0,1,.559-1.275,2.364,2.364,0,0,1,2.9,0,1.63,1.63,0,0,1,.559,1.275,1.63,1.63,0,0,1-.559,1.275,2.364,2.364,0,0,1-2.9,0A1.63,1.63,0,0,1,180.849,6.369Zm10.291.118v2.89h1.912v2.514H191.14v5.317a1.358,1.358,0,0,0,.236.913,1.268,1.268,0,0,0,.935.258,5.311,5.311,0,0,0,.9-.064V20.9a6.681,6.681,0,0,1-2.041.312,3.792,3.792,0,0,1-2.761-.881,3.61,3.61,0,0,1-.892-2.675V11.891h-1.482V9.377h1.482V6.487ZM198.294,21h-3.631V9.377h3.631ZM194.448,6.369a1.63,1.63,0,0,1,.559-1.275,2.364,2.364,0,0,1,2.9,0,1.63,1.63,0,0,1,.559,1.275,1.63,1.63,0,0,1-.559,1.275,2.364,2.364,0,0,1-2.9,0A1.63,1.63,0,0,1,194.448,6.369Zm10.71,10.323L207,9.377h3.813L207.017,21h-3.7L199.529,9.377h3.824Zm6.112-1.611a6.86,6.86,0,0,1,.677-3.1,4.84,4.84,0,0,1,1.944-2.089,5.856,5.856,0,0,1,2.976-.73,5.344,5.344,0,0,1,4.114,1.617,6.2,6.2,0,0,1,1.5,4.4v.129a6.019,6.019,0,0,1-1.509,4.313,5.359,5.359,0,0,1-4.087,1.6,5.42,5.42,0,0,1-3.985-1.488,5.819,5.819,0,0,1-1.622-4.034Zm3.62.226a4.325,4.325,0,0,0,.5,2.363,1.682,1.682,0,0,0,1.493.752q1.934,0,1.977-2.976v-.365q0-3.126-2-3.126-1.815,0-1.966,2.7Zm15.275,2.428a.836.836,0,0,0-.483-.741,7.353,7.353,0,0,0-1.837-.58,8.376,8.376,0,0,1-2.234-.79,3.743,3.743,0,0,1-1.343-1.187,2.835,2.835,0,0,1-.462-1.6,3.212,3.212,0,0,1,1.321-2.637,5.443,5.443,0,0,1,3.459-1.037,6.03,6.03,0,0,1,3.7,1.042,3.258,3.258,0,0,1,1.4,2.739h-3.631q0-1.4-1.472-1.4a1.459,1.459,0,0,0-.956.317.981.981,0,0,0-.387.79.9.9,0,0,0,.473.784,4.466,4.466,0,0,0,1.509.494,13.042,13.042,0,0,1,1.821.462q2.621.9,2.621,3.233a3.044,3.044,0,0,1-1.413,2.589,6.2,6.2,0,0,1-3.658,1,6.322,6.322,0,0,1-2.664-.537,4.455,4.455,0,0,1-1.826-1.461,3.308,3.308,0,0,1-.655-1.944h3.384a1.4,1.4,0,0,0,.537,1.176,2.209,2.209,0,0,0,1.321.371,1.738,1.738,0,0,0,1.112-.3A.962.962,0,0,0,230.166,17.734Z" transform="translate(5692 -7602)" fill="#12263f"/>
    <g id="transferencia-de-datos" transform="translate(5590.146 -7612.854)">
      <path id="Path_165243" data-name="Path 165243" d="M4.023,35.762H19.137a3.023,3.023,0,0,0,3.023-3.023V4.023A3.023,3.023,0,0,0,19.137,1H4.023A3.023,3.023,0,0,0,1,4.023V32.739A3.023,3.023,0,0,0,4.023,35.762Zm15.114-1.511H4.023a1.511,1.511,0,0,1-1.511-1.511V29.717H20.648v3.023A1.511,1.511,0,0,1,19.137,34.251ZM2.511,28.205V8.557H20.648V28.205Zm6.8-25.694h4.534v.756a.756.756,0,0,1-.756.756H10.068a.756.756,0,0,1-.756-.756Zm-5.29,0H7.8v.756a2.267,2.267,0,0,0,2.267,2.267h3.023a2.267,2.267,0,0,0,2.267-2.267V2.511h3.779a1.511,1.511,0,0,1,1.511,1.511V7.046H2.511V4.023A1.511,1.511,0,0,1,4.023,2.511Z" transform="translate(0)" fill="#12263f"/>
      <path id="Path_165244" data-name="Path 165244" d="M12,41h4.534v1.511H12Z" transform="translate(-2.687 -9.772)" fill="#12263f"/>
      <path id="Path_165245" data-name="Path 165245" d="M53.137,17H38.023A3.023,3.023,0,0,0,35,20.023V48.739a3.023,3.023,0,0,0,3.023,3.023H53.137a3.023,3.023,0,0,0,3.023-3.023V20.023A3.023,3.023,0,0,0,53.137,17Zm-9.824,1.511h4.534v.756a.756.756,0,0,1-.756.756H44.068a.756.756,0,0,1-.756-.756Zm-5.29,0H41.8v.756a2.267,2.267,0,0,0,2.267,2.267h3.023a2.267,2.267,0,0,0,2.267-2.267v-.756h3.779a1.511,1.511,0,0,1,1.511,1.511v3.023H36.511V20.023A1.511,1.511,0,0,1,38.023,18.511Zm16.625,6.046V44.205H36.511V24.557ZM53.137,50.251H38.023a1.511,1.511,0,0,1-1.511-1.511V45.717H54.648v3.023A1.511,1.511,0,0,1,53.137,50.251Z" transform="translate(-8.306 -3.909)" fill="#12263f"/>
      <path id="Path_165246" data-name="Path 165246" d="M46,57h4.534v1.511H46Z" transform="translate(-10.993 -13.681)" fill="#12263f"/>
      <path id="Path_165247" data-name="Path 165247" d="M40.557,12.557A7.565,7.565,0,0,0,33,5V6.511a6.052,6.052,0,0,1,6.046,6.046Z" transform="translate(-7.818 -0.977)" fill="#12263f"/>
      <path id="Path_165248" data-name="Path 165248" d="M36.023,13.534h1.511A4.539,4.539,0,0,0,33,9v1.511A3.023,3.023,0,0,1,36.023,13.534Z" transform="translate(-7.818 -1.954)" fill="#12263f"/>
      <path id="Path_165249" data-name="Path 165249" d="M43.58,11.58A10.591,10.591,0,0,0,33,1V2.511a9.078,9.078,0,0,1,9.068,9.068Z" transform="translate(-7.818)" fill="#12263f"/>
      <path id="Path_165250" data-name="Path 165250" d="M28.557,55.046A6.052,6.052,0,0,1,22.511,49H21a7.565,7.565,0,0,0,7.557,7.557Z" transform="translate(-4.886 -11.726)" fill="#12263f"/>
      <path id="Path_165251" data-name="Path 165251" d="M29.534,52.023A3.023,3.023,0,0,1,26.511,49H25a4.539,4.539,0,0,0,4.534,4.534Z" transform="translate(-5.863 -11.726)" fill="#12263f"/>
      <path id="Path_165252" data-name="Path 165252" d="M18.511,49H17A10.591,10.591,0,0,0,27.58,59.58V58.068A9.078,9.078,0,0,1,18.511,49Z" transform="translate(-3.909 -11.726)" fill="#12263f"/>
    </g>
  </g>
</svg>
