<svg xmlns="http://www.w3.org/2000/svg" width="190" height="80" viewBox="0 0 190 80">
  <g id="t5-ic4" transform="translate(-180 -2627)">
    <g id="Group_112008" data-name="Group 112008">
      <g id="Group_109408" data-name="Group 109408" transform="translate(0 -260)">
        <path id="Rectangle_36080" data-name="Rectangle 36080" d="M22.32,0H84a0,0,0,0,1,0,0V0A74.4,74.4,0,0,1,9.6,74.4H0a0,0,0,0,1,0,0V22.32A22.32,22.32,0,0,1,22.32,0Z" transform="translate(370 2961.4) rotate(180)" fill="#03e6b0" opacity="0.15"/>
        <path id="Rectangle_36081" data-name="Rectangle 36081" d="M0,0H9.6A74.4,74.4,0,0,1,84,74.4v0a0,0,0,0,1,0,0H22.32A22.32,22.32,0,0,1,0,52.08V0A0,0,0,0,1,0,0Z" transform="translate(180 2887)" fill="#ffd947" opacity="0.15"/>
      </g>
      <g id="hacker" transform="translate(162.13 2627)">
        <g id="Group_109398" data-name="Group 109398" transform="translate(89.305 1.172)">
          <g id="Group_109390" data-name="Group 109390" transform="translate(6.629 35.356)">
            <path id="Path_167284" data-name="Path 167284" d="M144.882,233.776h34.724v11.049H144.882Z" transform="translate(-144.882 -233.776)" fill="#2b3890"/>
          </g>
          <g id="Group_109391" data-name="Group 109391" transform="translate(8.207 15.626)">
            <path id="Path_167285" data-name="Path 167285" d="M154.984,107.506v18.427a15.784,15.784,0,1,0,31.567.2V107.506Z" transform="translate(-154.984 -107.506)" fill="#f1d0a5"/>
          </g>
          <g id="Group_109392" data-name="Group 109392" transform="translate(22.255 15.626)">
            <path id="Path_167286" data-name="Path 167286" d="M258.936,107.506v18.625a15.785,15.785,0,0,1-14.048,15.688,15.786,15.786,0,0,0,17.52-15.688V107.506Z" transform="translate(-244.888 -107.506)" fill="#f1b986"/>
          </g>
          <g id="Group_109393" data-name="Group 109393">
            <path id="Path_167287" data-name="Path 167287" d="M126.514,7.5c17.927,0,23.924,14.837,23.924,25.885,0,9.944-6,23.676-6,23.676a3.157,3.157,0,0,0-3.157-3.157l.638-15.748a12.627,12.627,0,0,0-6.281-11.434l-2.859-1.658a12.627,12.627,0,0,0-12.67,0l-2.859,1.658a12.627,12.627,0,0,0-6.281,11.434L111.61,53.9a3.157,3.157,0,0,0-3.157,3.157c0,1.743-6-13.732-6-23.676,0-11.049,6-25.885,23.924-25.885h.134Z" transform="translate(-102.456 -7.5)" fill="#004080"/>
          </g>
          <g id="Group_109394" data-name="Group 109394" transform="translate(38.828 6.03)" style="mix-blend-mode: multiply;isolation: isolate">
            <path id="Path_167288" data-name="Path 167288" d="M360.11,65.949c0-6.588-2.133-14.522-7.656-19.855a30.556,30.556,0,0,1-1.211,33.261l-.288,7.113a3.157,3.157,0,0,1,3.157,3.157s6-13.732,6-23.676Z" transform="translate(-350.955 -46.094)" fill="#004080"/>
          </g>
          <g id="Group_109397" data-name="Group 109397" transform="translate(13.258 28.411)">
            <g id="Group_109395" data-name="Group 109395" transform="translate(13.259)">
              <path id="Path_167289" data-name="Path 167289" d="M277.214,196.274H275.32a3.157,3.157,0,0,1-3.157-3.157v-3.788h8.208v3.788A3.157,3.157,0,0,1,277.214,196.274Z" transform="translate(-272.163 -189.329)" fill="#0077ec"/>
            </g>
            <g id="Group_109396" data-name="Group 109396">
              <path id="Path_167290" data-name="Path 167290" d="M190.465,196.274h1.894a3.157,3.157,0,0,0,3.157-3.157v-3.788h-8.208v3.788A3.157,3.157,0,0,0,190.465,196.274Z" transform="translate(-187.308 -189.329)" fill="#0077ec"/>
            </g>
          </g>
        </g>
        <g id="Group_109399" data-name="Group 109399" transform="translate(88.042 56.099)">
          <path id="Path_167291" data-name="Path 167291" d="M144.881,381.765V373.63a12.627,12.627,0,0,0-9.565-12.25l-9.376-2.344H113.314l-9.376,2.344a12.627,12.627,0,0,0-9.565,12.25v8.135Z" transform="translate(-94.373 -359.036)" fill="#004080"/>
        </g>
        <g id="Group_109400" data-name="Group 109400" transform="translate(130.601 58.966)">
          <path id="Path_167292" data-name="Path 167292" d="M366.751,377.381a12.61,12.61,0,0,1,3.214,8.413v11.449H374.7v-8.135A12.628,12.628,0,0,0,366.751,377.381Z" transform="translate(-366.751 -377.381)" fill="#001040"/>
        </g>
        <g id="Group_109406" data-name="Group 109406" transform="translate(92.778 47.576)">
          <g id="Group_109401" data-name="Group 109401" transform="translate(0 23.676)">
            <path id="Path_167293" data-name="Path 167293" d="M160.982,463.588H129.414a4.735,4.735,0,0,1-4.735-4.735V457.59a1.578,1.578,0,0,1,1.578-1.578h37.881a1.578,1.578,0,0,1,1.578,1.578v1.263A4.735,4.735,0,0,1,160.982,463.588Z" transform="translate(-124.679 -456.012)" fill="#d2e1f1"/>
          </g>
          <g id="Group_109402" data-name="Group 109402" transform="translate(32.515 23.676)">
            <path id="Path_167294" data-name="Path 167294" d="M339.718,456.012H335.93a1.578,1.578,0,0,1,1.578,1.578v1.263a4.735,4.735,0,0,1-4.735,4.735h3.788a4.735,4.735,0,0,0,4.735-4.735V457.59A1.579,1.579,0,0,0,339.718,456.012Z" transform="translate(-332.773 -456.012)" fill="#b0c0d2"/>
          </g>
          <g id="Group_109403" data-name="Group 109403" transform="translate(2.525)">
            <path id="Path_167295" data-name="Path 167295" d="M176.828,328.164H140.841V307.645A3.157,3.157,0,0,1,144,304.488h29.674a3.157,3.157,0,0,1,3.157,3.157v20.519Z" transform="translate(-140.841 -304.488)" fill="#d2e1f1"/>
          </g>
          <g id="Group_109404" data-name="Group 109404" transform="translate(2.525 0.039)">
            <path id="Path_167296" data-name="Path 167296" d="M174.145,304.739v19.375a1.578,1.578,0,0,1-1.578,1.578H140.841v2.683h35.987V307.856A3.155,3.155,0,0,0,174.145,304.739Z" transform="translate(-140.841 -304.739)" fill="#b0c0d2"/>
          </g>
          <g id="Group_109405" data-name="Group 109405" transform="translate(17.046 8.523)">
            <circle id="Ellipse_5210" data-name="Ellipse 5210" cx="3.472" cy="3.472" r="3.472" fill="#03e6b0"/>
          </g>
        </g>
        <g id="Group_109407" data-name="Group 109407" transform="translate(86.87 0)">
          <path id="Path_167297" data-name="Path 167297" d="M197.4,191.118h1.894a4.334,4.334,0,0,0,4.329-4.329V183a1.172,1.172,0,0,0-1.172-1.172H180.982A1.172,1.172,0,0,0,179.81,183v3.788a4.334,4.334,0,0,0,4.329,4.329h1.894a4.334,4.334,0,0,0,4.329-4.329v-2.616h2.707v2.616A4.333,4.333,0,0,0,197.4,191.118Zm3.879-4.329a1.987,1.987,0,0,1-1.985,1.985H197.4a1.987,1.987,0,0,1-1.985-1.985v-2.616h5.864Zm-13.258,0a1.987,1.987,0,0,1-1.985,1.985h-1.894a1.987,1.987,0,0,1-1.985-1.985v-2.616h5.864Z" transform="translate(-165.288 -153.418)"/>
          <path id="Path_167298" data-name="Path 167298" d="M132.462,58.544v-7.57c.808-1.893,6-14.426,6-23.917A30.02,30.02,0,0,0,132.315,8.4a1.172,1.172,0,0,0-1.822,1.475,27.645,27.645,0,0,1,5.622,17.181c0,7.074-3.184,16.28-4.874,20.667a4.334,4.334,0,0,0-1.894-1.146l.6-14.7a13.764,13.764,0,0,0-6.864-12.5l-2.858-1.658a13.833,13.833,0,0,0-12.584-.649,1.172,1.172,0,0,0,.961,2.137,11.483,11.483,0,0,1,10.447.539l2.858,1.658a11.426,11.426,0,0,1,5.7,10.373l-.319,7.888a14.562,14.562,0,0,1-4.349,6.736h-19.2A14.825,14.825,0,0,1,99.3,39.481l-.312-7.7a11.381,11.381,0,0,1,5.033-9.956,1.172,1.172,0,0,0-1.312-1.942,13.71,13.71,0,0,0-6.064,11.994l.6,14.7a4.332,4.332,0,0,0-1.894,1.146c-1.69-4.387-4.874-13.593-4.874-20.667,0-9.179,4.792-24.714,22.752-24.714h.134a22.247,22.247,0,0,1,13.4,3.975,1.172,1.172,0,1,0,1.38-1.895A24.533,24.533,0,0,0,113.364,0h-.134C104.848,0,98.06,3.208,93.6,9.278a30.562,30.562,0,0,0-5.467,17.78c0,9.491,5.189,22.024,6,23.917v7.57A13.848,13.848,0,0,0,86.87,70.694v8.134A1.172,1.172,0,0,0,88.042,80h50.509a1.172,1.172,0,0,0,1.172-1.172V70.694a13.848,13.848,0,0,0-7.261-12.149ZM89.214,70.694a11.5,11.5,0,0,1,4.917-9.4v8.8a2.752,2.752,0,0,0-2.525,2.739v1.264a5.875,5.875,0,0,0,1.2,3.562H89.214Zm8.3,6.962a3.567,3.567,0,0,1-3.562-3.562V72.83a.407.407,0,0,1,.406-.406h26.939a1.172,1.172,0,1,0,0-2.344H96.475V50.733a1.987,1.987,0,0,1,1.985-1.985h29.674a1.987,1.987,0,0,1,1.985,1.985V70.08h-3.354a1.172,1.172,0,1,0,0,2.344h5.473a.407.407,0,0,1,.406.406v1.264a3.567,3.567,0,0,1-3.562,3.562Zm39.867,0h-3.591a5.875,5.875,0,0,0,1.2-3.562V72.83a2.752,2.752,0,0,0-2.525-2.739v-8.8a11.5,11.5,0,0,1,4.917,9.4Z" transform="translate(-86.87 0)"/>
          <path id="Path_167299" data-name="Path 167299" d="M230.92,351.537a4.644,4.644,0,1,0,4.644,4.644A4.65,4.65,0,0,0,230.92,351.537Zm0,6.945a2.3,2.3,0,1,1,2.3-2.3A2.3,2.3,0,0,1,230.92,358.482Z" transform="translate(-204.494 -296.609)"/>
        </g>
      </g>
    </g>
  </g>
</svg>
