<svg xmlns="http://www.w3.org/2000/svg" xmlns:xlink="http://www.w3.org/1999/xlink" width="403" height="126.219" viewBox="0 0 403 126.219">
  <defs>
    <linearGradient id="linear-gradient" y1="0.5" x2="1" y2="0.5" gradientUnits="objectBoundingBox">
      <stop offset="0" stop-color="#ededed"/>
      <stop offset="1" stop-color="#fff"/>
    </linearGradient>
    <radialGradient id="radial-gradient" cx="0.5" cy="0.5" r="0.5" gradientTransform="matrix(0.707, 0.707, -0.707, 0.707, 0.5, -0.207)" gradientUnits="objectBoundingBox">
      <stop offset="0"/>
      <stop offset="0.097" stop-color="#050505"/>
      <stop offset="0.221" stop-color="#151515"/>
      <stop offset="0.36" stop-color="#2f2f2f"/>
      <stop offset="0.51" stop-color="#545454"/>
      <stop offset="0.668" stop-color="#838383"/>
      <stop offset="0.834" stop-color="#bdbdbd"/>
      <stop offset="1" stop-color="#fff"/>
    </radialGradient>
  </defs>
  <g id="t5-ic2" transform="translate(-5146 7644.847)">
    <g id="Group_112006" data-name="Group 112006" transform="translate(7046.86 -9076.201)">
      <rect id="Rectangle_36344" data-name="Rectangle 36344" width="346.22" height="73.555" rx="20.318" transform="translate(-1847.08 1451.447)" fill="url(#linear-gradient)"/>
      <path id="Rectangle_36344_-_Outline" data-name="Rectangle 36344 - Outline" d="M20.318-3H325.9A23.344,23.344,0,0,1,349.22,20.318v32.92A23.344,23.344,0,0,1,325.9,76.555H20.318A23.344,23.344,0,0,1-3,53.237V20.318A23.344,23.344,0,0,1,20.318-3ZM325.9,70.555A17.337,17.337,0,0,0,343.22,53.237V20.318A17.337,17.337,0,0,0,325.9,3H20.318A17.337,17.337,0,0,0,3,20.318v32.92A17.337,17.337,0,0,0,20.318,70.555Z" transform="translate(-1847.08 1451.447)" fill="#ffd947"/>
      <circle id="Ellipse_5208" data-name="Ellipse 5208" cx="62.475" cy="62.475" r="62.475" transform="translate(-1900.86 1432.623)" fill="url(#radial-gradient)" style="mix-blend-mode: multiply;isolation: isolate"/>
      <circle id="Ellipse_5209" data-name="Ellipse 5209" cx="57.735" cy="57.735" r="57.735" transform="translate(-1900.86 1431.354)" fill="#ffd947"/>
      <path id="Path_167282" data-name="Path 167282" d="M-1728.388,1515.306l-7.118-4.517v9.034Z" transform="translate(-67.129 -26.217)" fill="#aaa" style="mix-blend-mode: multiply;isolation: isolate"/>
      <path id="Path_167283" data-name="Path 167283" d="M-1813.554,1491.872a10.521,10.521,0,0,1,0-12.439l12.569-17.152a7.459,7.459,0,0,0-.612-9.535,47.781,47.781,0,0,0-36.606-14.966,48.045,48.045,0,0,0-46.11,47.194,47.906,47.906,0,0,0,47.9,48.587,47.767,47.767,0,0,0,34.782-14.967,7.474,7.474,0,0,0,.644-9.567Z" transform="translate(-6.716 3.436)" fill="url(#linear-gradient)"/>
    </g>
    <path id="Feature_One" data-name="Feature One" d="M71.928,21H68.179l-5.543-9.732V21H58.866V5.359h3.771l5.532,9.732V5.359h3.76Zm1.762-5.919a6.86,6.86,0,0,1,.677-3.1,4.84,4.84,0,0,1,1.944-2.089,5.856,5.856,0,0,1,2.976-.73A5.344,5.344,0,0,1,83.4,10.779a6.2,6.2,0,0,1,1.5,4.4v.129A6.019,6.019,0,0,1,83.4,19.62a5.359,5.359,0,0,1-4.087,1.6,5.42,5.42,0,0,1-3.985-1.488A5.819,5.819,0,0,1,73.7,15.693Zm3.62.226a4.325,4.325,0,0,0,.5,2.363,1.682,1.682,0,0,0,1.493.752q1.934,0,1.977-2.976v-.365q0-3.126-2-3.126-1.815,0-1.966,2.7Zm18.208-4.684a3.973,3.973,0,0,1,5.865-.322,5.116,5.116,0,0,1,1,3.362V21H98.751V13.749a2.046,2.046,0,0,0-.376-1.359,1.616,1.616,0,0,0-1.278-.435,1.74,1.74,0,0,0-1.579.709V21H91.9V4.5h3.62ZM110.944,21a4.087,4.087,0,0,1-.344-1.042,3.366,3.366,0,0,1-2.793,1.257,4.124,4.124,0,0,1-2.793-.994,3.163,3.163,0,0,1-1.149-2.5,3.251,3.251,0,0,1,1.4-2.857,7.114,7.114,0,0,1,4.061-.967h1.117v-.615q0-1.608-1.386-1.608a1.133,1.133,0,0,0-1.289,1.274h-3.62a3.245,3.245,0,0,1,1.434-2.736,6.027,6.027,0,0,1,3.658-1.051,5.284,5.284,0,0,1,3.513,1.085,3.772,3.772,0,0,1,1.321,2.976v5.146a5.269,5.269,0,0,0,.494,2.449V21Zm-2.267-2.363a2.019,2.019,0,0,0,1.123-.29,1.818,1.818,0,0,0,.639-.655V15.833h-1.053q-1.891,0-1.891,1.7a1.036,1.036,0,0,0,.333.8A1.205,1.205,0,0,0,108.677,18.637Zm11.881-2.707,1.934-6.553h3.878l-4.737,13.567-.2.494a3.6,3.6,0,0,1-3.566,2.256,5.674,5.674,0,0,1-1.493-.214V22.9h.473a2.476,2.476,0,0,0,1.166-.22,1.337,1.337,0,0,0,.6-.79l.29-.774-4.039-11.74h3.867Zm11.773-.849a6.86,6.86,0,0,1,.677-3.1,4.84,4.84,0,0,1,1.944-2.089,5.856,5.856,0,0,1,2.976-.73,5.344,5.344,0,0,1,4.114,1.617,6.2,6.2,0,0,1,1.5,4.4v.129a6.019,6.019,0,0,1-1.509,4.313,5.359,5.359,0,0,1-4.087,1.6,5.42,5.42,0,0,1-3.985-1.488,5.819,5.819,0,0,1-1.622-4.034Zm3.62.226a4.325,4.325,0,0,0,.5,2.363,1.682,1.682,0,0,0,1.493.752q1.934,0,1.977-2.976v-.365q0-3.126-2-3.126-1.815,0-1.966,2.7ZM148.96,21H145.33V4.5h3.631Zm6.864-4.308,1.837-7.315h3.813L157.683,21h-3.7L150.2,9.377h3.824ZM166.374,21h-3.631V9.377h3.631ZM162.528,6.369a1.63,1.63,0,0,1,.559-1.275,2.364,2.364,0,0,1,2.9,0,1.63,1.63,0,0,1,.559,1.275,1.63,1.63,0,0,1-.559,1.275,2.364,2.364,0,0,1-2.9,0A1.63,1.63,0,0,1,162.528,6.369Zm5.618,8.733a7.1,7.1,0,0,1,1.192-4.351,3.925,3.925,0,0,1,3.33-1.59,3.338,3.338,0,0,1,2.621,1.225V4.5h3.631V21h-3.255l-.183-1.246a3.428,3.428,0,0,1-2.836,1.461,3.918,3.918,0,0,1-3.287-1.59A7.325,7.325,0,0,1,168.146,15.1Zm3.62.226q0,3.094,1.8,3.094a1.782,1.782,0,0,0,1.719-1.01V12.986a1.734,1.734,0,0,0-1.7-1.031q-1.676,0-1.815,2.707Zm8.755-.247a6.86,6.86,0,0,1,.677-3.1,4.84,4.84,0,0,1,1.944-2.089,5.856,5.856,0,0,1,2.976-.73,5.344,5.344,0,0,1,4.114,1.617,6.2,6.2,0,0,1,1.5,4.4v.129a6.019,6.019,0,0,1-1.509,4.313,5.359,5.359,0,0,1-4.087,1.6,5.42,5.42,0,0,1-3.985-1.488,5.819,5.819,0,0,1-1.622-4.034Zm3.62.226a4.325,4.325,0,0,0,.5,2.363,1.682,1.682,0,0,0,1.493.752q1.934,0,1.977-2.976v-.365q0-3.126-2-3.126-1.815,0-1.966,2.7Z" transform="translate(5272 -7602)" fill="#12263f"/>
    <g id="XMLID_398_" transform="translate(5173 -7611.854)">
      <path id="XMLID_950_" d="M34.053,29.551,37.1,18.583a18.741,18.741,0,0,1,5.381-13.06A18.132,18.132,0,0,1,55.516,0,19.1,19.1,0,0,1,68.827,5.3a18.441,18.441,0,0,1,5.69,13.082A23.9,23.9,0,0,1,70.5,31.756,7.227,7.227,0,0,0,69.2,35.9v9.894a.912.912,0,0,1-.912.912H50.751a.912.912,0,0,1-.912-.912V42.15a1.735,1.735,0,0,0-1.733-1.733H45.017a5.412,5.412,0,0,1-5.406-5.406v-4.3H34.932a.912.912,0,0,1-.879-1.156Zm6.469-.668a.912.912,0,0,1,.912.912v5.216a3.586,3.586,0,0,0,3.581,3.581h3.089a3.562,3.562,0,0,1,3.558,3.558v2.733H67.379V35.9A9.043,9.043,0,0,1,69,30.714a22.3,22.3,0,0,0,3.69-12.3,16.887,16.887,0,0,0-33.771.294.915.915,0,0,1-.033.244l-2.757,9.93Z" transform="translate(-34.02 0)" fill="#12263f"/>
      <path id="XMLID_951_" d="M218.69,160l1.127,1.127a2.007,2.007,0,0,1,1.531,3.7v5.227a.912.912,0,0,1-1.825,0v-5.227a2.007,2.007,0,0,1-1-2.407l-1.127-1.127a.912.912,0,1,1,1.29-1.29Z" transform="translate(-198.649 -145.159)" fill="#12263f"/>
      <path id="XMLID_954_" d="M230.048,106.422a.913.913,0,1,1,.645-.267A.919.919,0,0,1,230.048,106.422Z" transform="translate(-208.261 -95.054)" fill="#12263f"/>
      <path id="XMLID_973_" d="M312.291,186.849a.913.913,0,1,1-.267-.645A.917.917,0,0,1,312.291,186.849Z" transform="translate(-297.011 -168.974)" fill="#12263f"/>
      <path id="XMLID_1075_" d="M148.708,185.937a.913.913,0,1,1-.645.267A.919.919,0,0,1,148.708,185.937Z" transform="translate(-119.5 -168.974)" fill="#12263f"/>
      <path id="XMLID_1218_" d="M117.225,61.793a12.238,12.238,0,1,1-12.238,12.238A12.252,12.252,0,0,1,117.225,61.793Zm0,22.652a10.414,10.414,0,1,0-10.414-10.414A10.425,10.425,0,0,0,117.225,84.445Z" transform="translate(-95.438 -56.156)" fill="#12263f"/>
    </g>
  </g>
</svg>
