<svg xmlns="http://www.w3.org/2000/svg" width="577" height="325" viewBox="0 0 577 325">
  <g id="t5-s3" transform="translate(-7888 9822)">
    <rect id="Rectángulo_36394" data-name="Rectángulo 36394" width="577" height="325" rx="15" transform="translate(7888 -9822)" fill="#d8eafc"/>
    <g id="Group_110091" data-name="Group 110091" transform="translate(10272.989 -13322.255)">
      <g id="_828282ff" data-name="#828282ff" transform="translate(-2088.375 3562.26)">
        <path id="Path_168235" data-name="Path 168235" d="M-2024.149,3562.656c2.058-.123,4.111-.361,6.18-.4,2.054,30.358,4.22,60.708,6.3,91.066-2.049.1-4.092.278-6.137.386-.709-9.679-1.318-19.369-2.05-29.045-.848,0-1.691,0-2.531-.023-.832-1.2-1.876-2.238-2.647-3.475-.386-2.978-.42-6-.687-8.993-3.164,0-6.327-.038-9.486.011a3.733,3.733,0,0,0-3.441,4.081c.046,17.662-.085,35.325.065,52.983,5.907,3.21,11.768,6.508,17.609,9.833-12.758.038-25.519.069-38.273-.016,5.633-3.3,11.251-6.63,16.922-9.863.074-19.181.012-38.365.031-57.55a3.685,3.685,0,0,1,3.557-3.795c4.235-.062,8.469-.009,12.7-.02q-.5-7.5-1.037-14.988a2.962,2.962,0,0,1,.3-2,22.69,22.69,0,0,1,1.961-3.017c.805-.131,1.63-.165,2.446-.238C-2023.054,3579.29-2023.524,3570.968-2024.149,3562.656Z" transform="translate(2070.309 -3562.26)" fill="#828282"/>
        <path id="Path_168236" data-name="Path 168236" d="M-1846.934,3597.111c.431-1.268.813-2.721,1.964-3.537,1.145-.412,1.769.928,2.166,1.764,1.649,4.127,2.05,8.616,2.551,13a156.228,156.228,0,0,1-.393,31.757c-1.044-.008-2.085-.016-3.12-.02-.047,2.1-.016,4.2-.023,6.3.57.035,1.144.078,1.726.124q-.057,12.865.007,25.738c-.589.031-1.171.065-1.746.1.027,4.608,0,9.22.016,13.832,3.2.536,6.527,1.43,9,3.642a6.357,6.357,0,0,1,2.285,5.979,2.938,2.938,0,0,1-2.824,2.566c-12.56.262-25.126.185-37.691.216v7.494q2.237,0,4.474,0c-.012,9.043.027,18.086-.02,27.129-1.487.015-2.97.007-4.454.02.008,3.174-.015,6.346.016,9.52,3.3-.87,6.5-2.346,9.937-2.612,1.391-.015.956,1.684,1.086,2.6,5.422.027,10.85,0,16.272.2a3.639,3.639,0,0,1,3.035,2.154c1.291,2.478,1.3,5.368,1.207,8.1a6.155,6.155,0,0,1,4.862,3.916,5.976,5.976,0,0,1-3.426,7.613,5.977,5.977,0,0,1-7.948-4.134,6.037,6.037,0,0,1,4.951-7.355,15.161,15.161,0,0,0-.8-6.929,2.536,2.536,0,0,0-2.312-1.857c-5.256-.177-10.515-.143-15.771-.146-.177,2.967-.065,5.941-.143,8.912a6.144,6.144,0,0,1,5.117,4.993,5.974,5.974,0,0,1-5.36,6.894,5.95,5.95,0,0,1-6.476-5.707,6.085,6.085,0,0,1,5.174-6.2c.062-2.97.142-5.945.089-8.915-10.269.065-20.533.057-30.805.134-1.345.042-3.056-.254-3.907,1.079-1.426,2.3-1.225,5.167-1.307,7.776a6.176,6.176,0,0,1,4.323,3.506,6,6,0,0,1-2.593,7.629,6.032,6.032,0,0,1-7.779-1.842,6.011,6.011,0,0,1,1.518-8.3,8.061,8.061,0,0,1,3-1.125c.038-2.882-.023-6.015,1.583-8.535a3.915,3.915,0,0,1,3.618-1.7c7.1.015,14.194-.131,21.292-.093q.052-4.791,0-9.583c-1.734-.011-3.463.046-5.189-.058.046-9.023-.02-18.048.035-27.071,1.722-.031,3.448,0,5.178-.023-.023-2.5.02-5-.027-7.5-11.855.024-23.712.012-35.563-.154a10.4,10.4,0,0,1-2.405-.212c-1.171-.566-1.614-1.884-2.161-2.97.2-3.341,2.859-6.142,5.868-7.387,6.142-2.7,13-1.9,19.512-2.022,4.13-.1,8.291.2,12.4-.328a27.081,27.081,0,0,0,5.309.243c5.275-.02,10.554.05,15.832.035,3.484.016,6.978-.089,10.457.208q-.011-6.831,0-13.664c-.573,0-1.141,0-1.706,0q0-12.951,0-25.911c.562,0,1.129,0,1.7.011,0-2.107-.007-4.215.012-6.318a12.557,12.557,0,0,1-3.125-.146,88.88,88.88,0,0,1-.921-12.742,143.575,143.575,0,0,1,.355-16.989,68.04,68.04,0,0,1,2.058-13.1m-20.807,145.53a39.017,39.017,0,0,0,4.242.1c0-.281-.012-.848-.016-1.129-1.418.308-2.82.687-4.226,1.033M-1901.2,3757.9a1.372,1.372,0,0,0-.432,2.2,1.386,1.386,0,0,0,2.234-.412,1.366,1.366,0,0,0-1.8-1.792m37.782.031a1.336,1.336,0,0,0-.551,1.946,1.367,1.367,0,0,0,2.366-.132c.705-1.04-.778-2.5-1.815-1.814m20.487.07a1.336,1.336,0,0,0-.328,1.984,1.369,1.369,0,0,0,2.424-.655A1.366,1.366,0,0,0-1842.935,3758Z" transform="translate(2060.768 -3564.322)" fill="#828282"/>
        <path id="Path_168237" data-name="Path 168237" d="M-1881.862,3635.384a15.033,15.033,0,0,1,3.857-2.7c.1,1.052-.99,1.594-1.583,2.292a125.87,125.87,0,0,1-30.355,22.433,96.271,96.271,0,0,1-30.628,10.125c-3.055.486-6.146.613-9.221.867-.647,1.126-1.352,2.54-2.774,2.767-1.645.05-2.462-1.58-3.318-2.705a11.7,11.7,0,0,1-9.79,2.547c-2.119-.223-4.015-1.5-6.177-1.383a26.2,26.2,0,0,0-7.051.921c-1.537,1.006-2.8,2.447-4.516,3.171a3.777,3.777,0,0,1-3.375-.72c.493-1.122,1.606-1.726,2.431-2.567,1.025-.928,1.853-2.065,2.948-2.917,1.83-.759,3.853-.894,5.722-1.549a45.034,45.034,0,0,0-6.169-1.7c-.6-.174-1.083.258-1.541.555-1.988,1.38-3.961,2.789-6.064,3.984a4.11,4.11,0,0,1-4.755-.481c-.543-.825.493-1.322,1.071-1.649a25.973,25.973,0,0,0,6.744-4.8,12.881,12.881,0,0,1,1.876-1.769c2.4-.316,4.723.678,7.016,1.26a21.8,21.8,0,0,0-4.875-4.458c-1.322-.909-2.8.2-4.045.709-2.728,1.256-5.614,3.071-8.74,2.42-.959-.339-2.392-.794-2.4-2.019.709-.882,2.034-.713,3.025-1.075a73.531,73.531,0,0,0,11.967-5.352c2.809,1.206,5.213,3.156,7.948,4.512a27.466,27.466,0,0,0,4.224,1.225,51.232,51.232,0,0,1,15.419,6.411c.359-1.2.586-2.874,2.027-3.217,1.9.077,2.9,2.049,3.475,3.622,11.186-.108,22.186-3,32.462-7.291A147.419,147.419,0,0,0-1881.862,3635.384Z" transform="translate(2066.239 -3566.907)" fill="#828282"/>
        <path id="Path_168238" data-name="Path 168238" d="M-2012.558,3674.749c14.153,1.779,28.3,3.675,42.446,5.51,3.621.5,7.282.843,10.885,1.479,1.387,1.156.8,3.206.662,4.77-14.453-1.807-28.879-3.811-43.324-5.676.02,1.885-.022,3.765.039,5.649-1.657.1-3.318.054-4.975.047,0-2.1.038-4.208-.027-6.312-2.069-.223-4.126-.528-6.2-.713C-2012.928,3677.912-2012.692,3676.336-2012.558,3674.749Z" transform="translate(2067.26 -3569.684)" fill="#828282"/>
        <path id="Path_168239" data-name="Path 168239" d="M-2071.078,3688.907c37.347.031,74.695-.023,112.047.026,0,2.378-.027,4.755.011,7.137q-56.033.08-112.07.019C-2071.078,3693.7-2071.1,3691.3-2071.078,3688.907Z" transform="translate(2071.09 -3570.618)" fill="#828282"/>
        <path id="Path_168240" data-name="Path 168240" d="M-2061.124,3697.519q46.757-.028,93.513,0-.023,37.318,0,74.637-46.763.007-93.517-.011Q-2061.09,3734.828-2061.124,3697.519Z" transform="translate(2070.433 -3571.186)" fill="#828282"/>
      </g>
      <g id="_37120eff" data-name="#37120eff" transform="translate(-2332.989 3564.363)">
        <path id="Path_168241" data-name="Path 168241" d="M-2249.679,3583.037c2.084-6.1,3.533-12.417,5.607-18.525,2.9,2.866,5.49,6.05,8.307,9.009.181.308.948.821.408,1.133-3.745,2.67-7.652,5.116-11.393,7.787,5.744-2.027,11.409-4.3,17.18-6.262-.377,4.4-.874,8.813-1.565,13.174-5.343-1.464-10.642-3.1-16.012-4.474a63.639,63.639,0,0,1,15.751,13.151,29.659,29.659,0,0,1,3.105,4.258c-.027.115-.089.346-.116.462a65.379,65.379,0,0,1-13.682,6.877,41.245,41.245,0,0,1-.74,17.839c.906.42,2.42.783,2.174,2.1-.035,2.007-2.065,2.912-3.664,3.541-.91.243-1.195,1.186-1.6,1.922a40.464,40.464,0,0,1-23.927,19.589c-1.476.482-3.01.752-4.489,1.207l-.658.2-.123,0a66.839,66.839,0,0,1-9,.359,62.734,62.734,0,0,1-9.671-1.445c1.029,7.833,2.512,15.6,4.066,23.338-3.8.085-7.607-.007-11.405-.139-1.637,6.022-2.774,12.176-3.911,18.31-.235,1.6-.725,3.209-.355,4.832-.219-.975-.466-1.946-.6-2.932,1.437-6.731,2.624-13.517,4.3-20.194-1.3-.085-2.6-.181-3.895-.3-.875-4.959-.362-10.052-1.106-15.031-.755,4.042-1.383,8.111-2.277,12.13a16.13,16.13,0,0,1-.89,2.712c-.127-.54-.262-1.067-.382-1.6a4.771,4.771,0,0,0,.832-1.838c.944-5.232,2.266-10.469,1.985-15.836a17.178,17.178,0,0,1,1.615,6.951c.315,3.961.281,7.941.62,11.9a47.51,47.51,0,0,0,6.458.366c2.736.007,5.463.308,8.2.143-.277-2.351-.952-4.628-1.329-6.963-2.015-11.382-3.807-22.81-5.229-34.284-.27-2.031-.37-4.081-.574-6.115-2.635-1.279-5.347-2.828-6.881-5.428a10.127,10.127,0,0,1-1.044-8.08c.4-1.387,1.634-2.254,2.346-3.448.558-2.043.658-4.184,1.156-6.246,1.568-7.857,4.6-15.752,10.38-21.489,5.865-6.173,14.226-9.518,22.595-10.354a32.366,32.366,0,0,1,9.147.5c1.626.366,3.141,1.082,4.731,1.568-1.237-1.969-3.383-3.128-5.216-4.473a34.06,34.06,0,0,0-11.563-4.762,22.839,22.839,0,0,0-12.145-.016,6.8,6.8,0,0,0-2.663,1.722c-8.561-.015-17.462,1.564-24.659,6.45a31.138,31.138,0,0,0-12.049,16.918c-2.881,9.364-2.639,19.389-1.055,28.968.412,2.727,1.244,5.374,1.606,8.11a59.053,59.053,0,0,1-.959,17.089,52.658,52.658,0,0,1-7.487,16.53c-.185.265-.373.528-.562.8a40.452,40.452,0,0,0,8.408,2.466,86.575,86.575,0,0,0,1.911-9.964c.789,5.513.116,11.1-.517,16.591.8.29,1.6.574,2.4.863l-.007.5a10.588,10.588,0,0,1-3.068-.937,91.261,91.261,0,0,0,.879-11.224,30.677,30.677,0,0,1-1.283,4.913,55.409,55.409,0,0,1-9.717-2.875c8.345-11.358,11.879-26.474,8.257-40.213-2.038-10.62-2.558-21.859.74-32.281a31.579,31.579,0,0,1,12.3-16.888c7.12-4.824,15.9-6.3,24.343-6.481,3.33-2.563,7.768-2.636,11.771-2.327a34.644,34.644,0,0,1,22.283,11.413,44.09,44.09,0,0,1,3.614,4.743m5.8-17.188q-2.485,8.543-4.982,17.081a7.067,7.067,0,0,0,2.1-1.533,6.4,6.4,0,0,0,1.6-.782c3.06-2.123,6.165-4.177,9.248-6.269-1.245-1.545-2.663-2.94-3.965-4.435a19.878,19.878,0,0,0-2.743-2.813,2.788,2.788,0,0,0-1.253-1.249m-33.256,11.814a33.092,33.092,0,0,0-16.108,10.761c-3.807,4.647-6.1,10.33-7.568,16.1a80.186,80.186,0,0,0-1.73,8.939,7.965,7.965,0,0,1,3.738.659,51.915,51.915,0,0,1,8.947-19.643,34.784,34.784,0,0,1,20.356-13.178,32.88,32.88,0,0,1,19.018,1.708,11.968,11.968,0,0,0-2.038-2.659l-.116,0a14.551,14.551,0,0,0-6.057-3.456c-6.022-1.8-12.519-1.079-18.441.759m29.638,5.791c-.3-.015-.57.266-.851.37,5.59,1.622,11.193,3.225,16.806,4.759.277-3.4.982-6.762,1.06-10.168.065-.332.2-.994.265-1.325-5.775,2.073-11.528,4.223-17.281,6.365m-24.274-.932a35.127,35.127,0,0,0-19.112,14.464,42.865,42.865,0,0,0-5.321,10.874,34.631,34.631,0,0,0-2.022,6.666,18.989,18.989,0,0,1,4.192,5.1c.474-.377.929-.771,1.376-1.179a21,21,0,0,0-1.075,4.081,25.185,25.185,0,0,0,4.184,1.537c.4-.3.49-.848.705-1.272,4.022-10.727,7.81-21.545,12.048-32.188a13.023,13.023,0,0,0-.281-1.864c4.258,4.781,7.6,10.283,11.486,15.346.582-.293,1.167-.582,1.757-.87,4.42-1.777,9.652-.386,13.147,2.7l-.024.123c.636.763,1.032,1.761,1.892,2.316a71.249,71.249,0,0,0-.943-14.715c3.837,4.019,5.841,9.4,7.247,14.688.128.99,1.149.343,1.707.185a78.626,78.626,0,0,0,11.79-6.038c-1.822-3.255-4.523-5.929-7.158-8.53-.906-.812-1.692-1.873-2.921-2.2a16.016,16.016,0,0,0-3.43-3.029,60.148,60.148,0,0,0-7.625-4.77,31.166,31.166,0,0,0-21.619-1.421m-4.639,8.846c-4.516,11.113-8.23,22.533-12.7,33.657-1.8-.663-3.6-1.333-5.332-2.154.1-.956.516-2.019-.1-2.89-1.356-2.381-3.224-4.716-5.841-5.745a3.261,3.261,0,0,0-3.995,1.591c-1.78,2.874-1.149,6.693.728,9.363,1.592,2.235,4.05,3.595,6.489,4.717.756,8.084,1.916,16.163,3.16,24.2a40.869,40.869,0,0,0,19.154,1.059,40.871,40.871,0,0,0,21.23-10.954,40.123,40.123,0,0,0,7.906-10.992c1.291-1.245,3.827-1.238,4.339-3.291.72-1.776-2.732-1.295-2.027-3.036,1.719-6.743,1.922-14.091-.462-20.691a29.343,29.343,0,0,0-4.762-10.234c.054,2.489.265,4.971.466,7.451a42.784,42.784,0,0,1-.135,5.3,1.73,1.73,0,0,0-.991,1.036q-.376-.422-.751-.832a93.982,93.982,0,0,0-11.124.436,3.174,3.174,0,0,1-2.689-1.588l.077-.135c-.678-.794-1.3-1.635-1.9-2.486-.59.339-1.179.686-1.761,1.036l.223.274c-.088-.092-.265-.277-.35-.37.473-.524.952-1.048,1.429-1.568-3.12-4.3-6.092-8.719-9.3-12.954-.166-.312-.9-.894-.979-.2m13.258,13.082c-.589.123-1.182.247-1.768.381a11.174,11.174,0,0,0,2.866,3.765c3.714-.185,7.448-.081,11.158-.4a14.988,14.988,0,0,0-1.634-1.576l-.154.038A15.649,15.649,0,0,0-2263.149,3604.449Z" transform="translate(2332.989 -3564.512)" fill="#37120e"/>
        <path id="Path_168242" data-name="Path 168242" d="M-2221.8,3705.49a43.364,43.364,0,0,1,5.837-.154c8.354-.031,16.7.015,25.057-.008,5.225.081,10.466-.185,15.682.162,3.626.354,7.279.027,10.916.189-.011,1.487.058,2.982-.015,4.473-.1.127-.312.386-.42.517-.035-.2-.107-.589-.147-.786-.089-1.195-.062-2.393-.058-3.587q-31.954,0-63.914-.016l.1-.655A58.478,58.478,0,0,0-2221.8,3705.49Z" transform="translate(2326.117 -3573.804)" fill="#37120e"/>
      </g>
      <g id="_fac131ff" data-name="#fac131ff" transform="translate(-2248.858 3565.7)">
        <path id="Path_168243" data-name="Path 168243" d="M-2237.931,3565.943a2.788,2.788,0,0,1,1.253,1.249c1.09,2.343,2.874,4.281,3.992,6.608a11.617,11.617,0,0,1-2.481,2.473,60.47,60.47,0,0,0-5.645,5.218,7.067,7.067,0,0,1-2.1,1.533Q-2240.417,3574.482-2237.931,3565.943Z" transform="translate(2242.913 -3565.943)" fill="#ffd947"/>
      </g>
      <g id="_db6a27ff" data-name="#db6a27ff" transform="translate(-2246.758 3566.949)">
        <path id="Path_168244" data-name="Path 168244" d="M-2236.53,3567.28a19.865,19.865,0,0,1,2.743,2.813c1.3,1.495,2.72,2.89,3.965,4.435-3.082,2.092-6.188,4.146-9.248,6.269a6.386,6.386,0,0,1-1.6.782,60.468,60.468,0,0,1,5.645-5.217,11.628,11.628,0,0,0,2.481-2.473C-2233.656,3571.561-2235.44,3569.623-2236.53,3567.28Z" transform="translate(2240.665 -3567.28)" fill="#c9ac38"/>
      </g>
      <g id="_79310bff" data-name="#79310bff" transform="translate(-2325.754 3567.188)">
        <path id="Path_168245" data-name="Path 168245" d="M-2283.656,3568.352a22.839,22.839,0,0,1,12.145.016c-3.125.231-6.254-.247-9.378-.023-.513.093-1.218.034-1.511.571-.234,1.221-.227,2.477-.447,3.7a68.4,68.4,0,0,0-20.352,1.718c-5.695,1.295-9.852,5.961-12.676,10.82a45.648,45.648,0,0,0-5.272,28.146c.4,3.337,1.561,6.523,2,9.853a43.939,43.939,0,0,1-2.9,22.047,14.517,14.517,0,0,1-1.383,2.408,59.053,59.053,0,0,0,.959-17.089c-.362-2.736-1.195-5.383-1.606-8.11-1.584-9.579-1.826-19.6,1.055-28.968a31.138,31.138,0,0,1,12.049-16.918c7.2-4.886,16.1-6.465,24.659-6.45A6.8,6.8,0,0,1-2283.656,3568.352Z" transform="translate(2325.243 -3567.536)" fill="#002e59"/>
        <path id="Path_168246" data-name="Path 168246" d="M-2258.961,3573.526c1.833,1.345,3.98,2.5,5.216,4.473-1.59-.486-3.105-1.2-4.731-1.568a32.364,32.364,0,0,0-9.146-.5c-8.369.836-16.73,4.181-22.595,10.354-5.776,5.737-8.812,13.632-10.38,21.489-.5,2.062-.6,4.2-1.156,6.246-.713,1.195-1.946,2.061-2.347,3.448a10.128,10.128,0,0,0,1.044,8.08c1.534,2.6,4.246,4.15,6.881,5.428.2,2.034.3,4.084.574,6.115,1.422,11.474,3.214,22.9,5.229,34.284.377,2.335,1.052,4.612,1.329,6.963-2.735.165-5.463-.135-8.2-.143a47.51,47.51,0,0,1-6.458-.366c-.339-3.957-.3-7.937-.62-11.9a17.182,17.182,0,0,0-1.615-6.951c.281,5.368-1.041,10.6-1.985,15.836a4.771,4.771,0,0,1-.833,1.838c-.531-2.705-1.008-5.421-1.544-8.126,1.842-5.757,1.969-11.879,2.963-17.8,2.878,5.9,5.209,12.114,8.866,17.6a4.735,4.735,0,0,0,2.292,1.985c.66-2.378.39-4.867.243-7.286-.5-5.4-1.306-10.761-2.3-16.086a30.3,30.3,0,0,0-1.8-6.574c-.886,1.456-1.014,3.221-1.831,4.712-1.228-1.179-1.359-2.944-1.7-4.512-1.448-7.749-2.181-15.6-3.113-23.422a49.212,49.212,0,0,1,.131-14.757,30.832,30.832,0,0,1,11.255-19.211c6.4-5.075,14.422-7.7,22.44-8.743,4.416-.454,8.955-.685,13.3.433C-2259.358,3574.42-2259.162,3573.972-2258.961,3573.526Z" transform="translate(2324.256 -3567.931)" fill="#002e59"/>
        <path id="Path_168247" data-name="Path 168247" d="M-2275.916,3587.729a9.611,9.611,0,0,1,1.707,1.618c3.614,4.593,7.251,9.174,10.992,13.667a12.488,12.488,0,0,0,1.842,1.731c-.589.289-1.175.577-1.757.87-3.888-5.063-7.228-10.565-11.486-15.346a13.023,13.023,0,0,1,.281,1.864c-4.237,10.643-8.026,21.462-12.048,32.188-.216.424-.308.968-.705,1.272a25.185,25.185,0,0,1-4.184-1.537,21,21,0,0,1,1.075-4.081c-.447.408-.9.8-1.376,1.179a18.989,18.989,0,0,0-4.192-5.1,34.631,34.631,0,0,1,2.022-6.666c.394,2.48.578,5.151,2.039,7.293,2.107-1.387,2.423-4.351,4.52-5.641-.05,3.41-1.4,6.659-1.352,10.076,2.127-3.548,3.668-7.41,5.448-11.135,2.354-5.283,4.759-10.546,6.843-15.94C-2275.334,3592.037-2276.182,3589.833-2275.916,3587.729Z" transform="translate(2323.298 -3568.869)" fill="#002e59"/>
        <path id="Path_168248" data-name="Path 168248" d="M-2249.291,3590a9.954,9.954,0,0,1,4.108,1.268c3.468,1.673,6.874,3.869,9.039,7.128.878,1.276,1.248,3.121,2.863,3.7,1.98.713,4.107-.008,5.96-.779-2.012-2.689-4.3-5.163-6.249-7.894,1.228.323,2.015,1.383,2.921,2.2,2.635,2.6,5.336,5.275,7.158,8.53a78.626,78.626,0,0,1-11.79,6.038c-.558.158-1.579.805-1.707-.185-1.406-5.286-3.41-10.669-7.247-14.688a71.249,71.249,0,0,1,.943,14.715c-.859-.555-1.255-1.553-1.892-2.316l.024-.123a20.142,20.142,0,0,0-.031-6.4A23.362,23.362,0,0,0-2249.291,3590Z" transform="translate(2320.23 -3569.018)" fill="#002e59"/>
      </g>
      <g id="_aa502dff" data-name="#aa502dff" transform="translate(-2331.433 3567.936)">
        <path id="Path_168249" data-name="Path 168249" d="M-2282.8,3568.968c.293-.536,1-.478,1.511-.571,3.124-.223,6.253.254,9.378.023a34.06,34.06,0,0,1,11.563,4.762c-.2.447-.4.894-.594,1.345-4.342-1.118-8.881-.886-13.3-.433-8.018,1.044-16.044,3.669-22.44,8.743a30.834,30.834,0,0,0-11.255,19.211,49.22,49.22,0,0,0-.131,14.757c.932,7.818,1.665,15.674,3.113,23.422.343,1.568.475,3.333,1.7,4.512.817-1.491.945-3.256,1.831-4.712a30.308,30.308,0,0,1,1.8,6.574c.994,5.325,1.8,10.688,2.3,16.086.147,2.419.417,4.908-.243,7.286a4.738,4.738,0,0,1-2.292-1.985c-3.656-5.49-5.988-11.706-8.865-17.6-.995,5.921-1.122,12.044-2.964,17.8a21,21,0,0,0-1.017-4.323c-1.376-1.253-3.425-1.171-5.171-1.229-.613-2.9-1.572-5.71-2.366-8.566a15.331,15.331,0,0,0-1.923-4.623c-1.012,3.187-.74,6.592-1.291,9.868-.3,1.588-.312,3.456-1.463,4.7a62.292,62.292,0,0,1-6.408.178,52.658,52.658,0,0,0,7.487-16.53,14.517,14.517,0,0,0,1.383-2.408,43.939,43.939,0,0,0,2.9-22.047c-.439-3.33-1.6-6.516-2-9.853a45.648,45.648,0,0,1,5.272-28.146c2.824-4.859,6.981-9.525,12.676-10.82a68.4,68.4,0,0,1,20.352-1.718C-2283.029,3571.445-2283.036,3570.189-2282.8,3568.968Z" transform="translate(2331.323 -3568.337)" fill="#004280"/>
      </g>
      <g id="_000000ff" data-name="#000000ff" transform="translate(-2319.835 3568.29)">
        <path id="Path_168250" data-name="Path 168250" d="M-1937.386,3577.254a52.247,52.247,0,0,1,30.193-8.515,57.293,57.293,0,0,1,41.732,19.751,50.677,50.677,0,0,1,9.2,15.817,71.99,71.99,0,0,1,3.865,26.262,89.987,89.987,0,0,1-4.623,26.378c-2.467,7.144-5.838,14.134-10.951,19.77-3.148,3.4-7.12,6.4-11.8,7.132-4.108.531-8.269.232-12.4.328-6.516.127-13.37-.678-19.512,2.022-3.009,1.245-5.664,4.046-5.868,7.387.232,7.005.362,14.018.613,21.026.235,1.4-1.349,2.373-2.582,2.323q-7.334-.005-14.668,0a1.971,1.971,0,0,1-2.208-1.938c-.354-12.206-.593-24.417-.912-36.623,0-3.394.894-6.989,3.291-9.5a9.163,9.163,0,0,1,6.427-2.8,100.952,100.952,0,0,0,28.57-3.833c4.689-1.453,9.432-3.229,13.269-6.374,5.179-4.485,8.007-11.073,9.479-17.635,1.868-8.778,1.471-18.287-2.4-26.49-2.315-4.978-6.422-8.865-10.931-11.875-8.037-5.375-18.452-7.494-27.788-4.6-8.111,2.42-14.726,8.423-19.176,15.482-.636,1.252-2.366.967-3.5.7a180.031,180.031,0,0,1-17.755-8.523,3.773,3.773,0,0,1,.039-2.235A60.662,60.662,0,0,1-1937.386,3577.254Z" transform="translate(2295.085 -3568.716)" fill="#002e59"/>
        <path id="Path_168251" data-name="Path 168251" d="M-2168.462,3645.789a3.249,3.249,0,0,1,4.254-.7,3.879,3.879,0,0,1,1.491,4.038q-4.52,23.089-9.047,46.182c-.069.887-.844,1.788-.25,2.627.917,1.823-1.109,3.707-2.906,3.549-5.216-.347-10.457-.081-15.682-.162-8.353.023-16.7-.023-25.056.008a43.364,43.364,0,0,0-5.837.154c-1.5-.112-3.039-1.5-2.7-3.1.458-1.657,2.312-2.385,3.891-2.366,13.9-.015,27.8.016,41.7-.015a16.831,16.831,0,0,1,.563-4.154q4.143-21.2,8.3-42.394a7.262,7.262,0,0,1,1.282-3.665m1.245-.381c-1.7.921-1.846,3.067-2.157,4.759q-3.8,19.3-7.58,38.607c-.346,2.621-1.325,5.172-1.148,7.841-14.195-.092-28.39-.026-42.584-.031-1.615-.189-3.491,1.241-2.917,2.991.755,1.448,2.647,1.583,4.1,1.63,14.638.008,29.275-.023,43.913.011a3.857,3.857,0,0,0,3.187-1.661c.443-.894-.455-1.776-.274-2.689,1.083-4.193,1.707-8.493,2.6-12.727,2.366-11.806,4.592-23.642,6.973-35.444C-2162.613,3646.561-2165.2,3644.048-2167.217,3645.408Z" transform="translate(2312.658 -3573.722)"/>
        <path id="Path_168252" data-name="Path 168252" d="M-2318.852,3670.378c-.019-.91,1.183-.855,1.8-1.079,1.746.058,3.795-.023,5.171,1.229a21,21,0,0,1,1.017,4.323c.536,2.705,1.013,5.421,1.545,8.126.12.535.255,1.063.382,1.6,1.186,6.913,2.728,13.763,3.865,20.683.135.987.381,1.957.6,2.932.2.951.428,1.9.613,2.866.9,5.067,1.918,10.115,2.878,15.174.18.423.115,1.375.824,1.251a128.6,128.6,0,0,1,13.51-.031c5.017.031,10.037.02,15.042.378a42.552,42.552,0,0,1,8.03.943c.674.1.921.786,1.137,1.345.123.47.235.944.343,1.422a42.129,42.129,0,0,1,.794,6.022c-9.182.023-18.364.031-27.546-.027h-1.294c-9.386-.035-18.771.081-28.158,0-.169-18.479-.428-36.954-.57-55.433l.007-.5c.058-3.745-.131-7.49.011-11.231m.431-.154c.016.335.047,1.01.062,1.345.1,6.531-.088,13.066.208,19.589.058,11.305.208,22.609.235,33.915.254,3.946.158,7.9.216,11.852,16.26.078,32.527-.022,48.791.02,2.385.051,4.839.459,7.186-.143-.089-.181-.266-.548-.354-.732a20.778,20.778,0,0,0-.809-5.791,1.305,1.305,0,0,0-.991-1.086c-4.049-.925-8.233-.756-12.348-1.129-8.272-.073-16.549-.3-24.817-.062-.12-.343-.224-.689-.317-1.037q-5.086-26.43-10.171-52.867c-.274-1.133-.247-2.4-.886-3.406A7.339,7.339,0,0,0-2318.42,3670.224Z" transform="translate(2318.906 -3575.354)"/>
        <path id="Path_168253" data-name="Path 168253" d="M-1929.117,3731.4a17.638,17.638,0,0,1,11.532,1.8,16.869,16.869,0,0,1,8.673,12.087,16.577,16.577,0,0,1-4.42,14.152,17.324,17.324,0,0,1-12.176,5.341,17.373,17.373,0,0,1-13-5.356,16.658,16.658,0,0,1-4.343-14.526A17.089,17.089,0,0,1-1929.117,3731.4Z" transform="translate(2294.106 -3579.434)" fill="#002e59"/>
      </g>
      <g id="_fac030ff" data-name="#fac030ff" transform="translate(-2300.809 3575.717)">
        <path id="Path_168254" data-name="Path 168254" d="M-2274.858,3578.465c5.923-1.838,12.419-2.555,18.441-.759a14.551,14.551,0,0,1,6.057,3.456,10.3,10.3,0,0,1-2.921-.243c-7.933-1.514-16.491-.836-23.684,3.044-8.276,4.408-14.048,12.357-17.774,20.783-.671,1.357-1.025,2.929-2.1,4.035-1.467-.293-1.5-2.251-1.691-3.449,1.472-5.775,3.761-11.458,7.568-16.1A33.092,33.092,0,0,1-2274.858,3578.465Z" transform="translate(2298.535 -3576.668)" fill="#ffd947"/>
      </g>
      <g id="_fbc130ff" data-name="#fbc130ff" transform="translate(-2247.494 3576.94)">
        <path id="Path_168255" data-name="Path 168255" d="M-2241.453,3584.342c5.753-2.143,11.506-4.293,17.281-6.365-.065.332-.2.994-.265,1.325-1.191,2.335-1.649,4.94-2.643,7.355-4.027-.582-8.057-1.152-12.091-1.652A10.045,10.045,0,0,1-2241.453,3584.342Z" transform="translate(2241.453 -3577.977)" fill="#ffd947"/>
      </g>
      <g id="_da6a28ff" data-name="#da6a28ff" transform="translate(-2302.539 3578.265)">
        <path id="Path_168256" data-name="Path 168256" d="M-2227.141,3586.751c.994-2.415,1.452-5.02,2.643-7.355-.078,3.406-.783,6.77-1.06,10.168-5.613-1.533-11.216-3.136-16.806-4.759.281-.1.551-.385.851-.37a10.045,10.045,0,0,0,2.282.663C-2235.2,3585.6-2231.167,3586.169-2227.141,3586.751Z" transform="translate(2296.558 -3579.396)" fill="#c9ac38"/>
        <path id="Path_168257" data-name="Path 168257" d="M-2277.087,3584.21c7.194-3.88,15.751-4.558,23.684-3.044a10.3,10.3,0,0,0,2.921.243l.116,0a11.968,11.968,0,0,1,2.038,2.659,32.88,32.88,0,0,0-19.018-1.708,34.784,34.784,0,0,0-20.356,13.178,51.915,51.915,0,0,0-8.947,19.643,7.965,7.965,0,0,0-3.738-.659,80.186,80.186,0,0,1,1.73-8.939c.193,1.2.224,3.156,1.691,3.449,1.08-1.106,1.434-2.678,2.1-4.035C-2291.136,3596.567-2285.364,3588.619-2277.087,3584.21Z" transform="translate(2300.387 -3579.464)" fill="#c9ac38"/>
      </g>
      <g id="_ab512eff" data-name="#ab512eff" transform="translate(-2296.201 3581.079)">
        <path id="Path_168258" data-name="Path 168258" d="M-2269.168,3583.7a31.166,31.166,0,0,1,21.62,1.421,60.183,60.183,0,0,1,7.625,4.77,16.027,16.027,0,0,1,3.43,3.029c1.949,2.731,4.237,5.205,6.249,7.894-1.854.771-3.98,1.492-5.96.779-1.615-.582-1.985-2.427-2.863-3.7-2.166-3.26-5.571-5.456-9.04-7.128a9.953,9.953,0,0,0-4.107-1.268,23.364,23.364,0,0,1,4.1,11.2,20.149,20.149,0,0,1,.031,6.4c-3.5-3.082-8.728-4.473-13.147-2.7a12.5,12.5,0,0,1-1.842-1.731c-3.742-4.493-7.378-9.074-10.992-13.667a9.621,9.621,0,0,0-1.708-1.618c-.266,2.1.582,4.308-.332,6.316-2.084,5.394-4.489,10.657-6.842,15.94-1.78,3.726-3.321,7.587-5.448,11.135-.046-3.417,1.3-6.666,1.353-10.076-2.1,1.291-2.413,4.255-4.52,5.641-1.461-2.143-1.646-4.813-2.039-7.293a42.864,42.864,0,0,1,5.321-10.874A35.128,35.128,0,0,1-2269.168,3583.7Z" transform="translate(2293.601 -3582.409)" fill="#004280"/>
      </g>
      <g id="_eb965dff" data-name="#eb965dff" transform="translate(-2305.426 3590.896)">
        <path id="Path_168259" data-name="Path 168259" d="M-2274.459,3593.242c.077-.689.812-.107.979.2,3.213,4.235,6.184,8.65,9.3,12.954-.477.52-.956,1.044-1.429,1.568-1.487-1.364-2.874-2.824-4.3-4.25a33.862,33.862,0,0,0-3.576-3.587c-3.113,10.515-7.663,20.53-12.345,30.42a24.567,24.567,0,0,1-6.123-2.489,8.967,8.967,0,0,0-.528,2.162,26.068,26.068,0,0,0,3.086,13.412c3.129,6.6,9.213,12.007,16.5,13.4a40.869,40.869,0,0,1-19.154-1.059c-1.244-8.038-2.4-16.117-3.16-24.2-2.439-1.122-4.9-2.482-6.489-4.717-1.876-2.669-2.508-6.489-.728-9.363a3.261,3.261,0,0,1,3.995-1.591c2.617,1.029,4.485,3.364,5.841,5.745.616.871.2,1.934.1,2.89,1.734.821,3.533,1.491,5.332,2.154,4.466-11.124,8.18-22.544,12.7-33.657m-25.211,28.271c.8.508,1.792.316,2.681.477-.238,1.222-1.433,1.738-2.13,2.647a15.393,15.393,0,0,0,3.055,2.088c-.385-.936-1.429-1.313-2.022-2.1.728-.678,2.265-1.248,1.791-2.486C-2297.116,3621.15-2298.548,3621.485-2299.67,3621.512Z" transform="translate(2303.479 -3592.919)" fill="#eb965d"/>
        <path id="Path_168260" data-name="Path 168260" d="M-2287.141,3665.566c.1-.852,1.059-.582,1.6-.332a8.229,8.229,0,0,1,2.932,3.3,126.237,126.237,0,0,1,5.625,12.295c-1.306-.878-2.146-2.408-3.664-2.955-1.144.3-1.029,1.707-.921,2.628a25.5,25.5,0,0,0,3.274,7.964c1.742,2.9,3.3,5.925,5.075,8.815.351.486.775,1.272,1.5,1.056a77.759,77.759,0,0,0,7.452-2.224c4.917-1.687,9.841-3.363,14.691-5.229-.088-.543-.177-1.09-.261-1.63,2.358.555,4.62,1.484,7.028,1.834a30,30,0,0,0,7.984.108c2.262-.251,4.4-1.106,6.655-1.406-3.649,2.424-7.964,4.219-12.415,4.014a13.592,13.592,0,0,1-6.2-2.069,7.4,7.4,0,0,1-1.742.941c-5.66,1.946-11.328,3.884-17.065,5.579a62.158,62.158,0,0,1-6.639,1.534c-.643.038-1.507.25-1.938-.39a38.249,38.249,0,0,1-3.209-6.053c-3.163-7.024-6.022-14.187-8.65-21.426C-2286.713,3669.893-2287.6,3667.735-2287.141,3665.566Z" transform="translate(2302.409 -3597.676)" fill="#eb965d"/>
      </g>
      <g id="_e8965eff" data-name="#e8965eff" transform="translate(-2255.812 3595.82)">
        <path id="Path_168261" data-name="Path 168261" d="M-2242.657,3598.191a29.343,29.343,0,0,1,4.762,10.234c-1.488-1.245-2.512-2.937-4.015-4.157-.1.454-.2.913-.281,1.375C-2242.392,3603.162-2242.6,3600.68-2242.657,3598.191Z" transform="translate(2249.851 -3598.191)" fill="#e8965e"/>
        <path id="Path_168262" data-name="Path 168262" d="M-2250.359,3730.167c.3-.354.6-.713.9-1.067,1.73,3.557,2.112,7.572,2.216,11.471a73.655,73.655,0,0,1-1.209,15.122c.292-4.654.89-9.308.631-13.978C-2248.028,3737.777-2248.352,3733.662-2250.359,3730.167Z" transform="translate(2250.359 -3606.831)" fill="#e8965e"/>
      </g>
      <g id="_ffb988ff" data-name="#ffb988ff" transform="translate(-2294.471 3598.108)">
        <path id="Path_168263" data-name="Path 168263" d="M-2272.707,3600.641a33.862,33.862,0,0,1,3.576,3.587c1.426,1.426,2.813,2.886,4.3,4.25.085.093.262.278.35.37a15.576,15.576,0,0,0,2.585,2.625c.255-.444.517-.879.775-1.314a3.174,3.174,0,0,0,2.689,1.588,93.982,93.982,0,0,1,11.124-.436q.376.41.751.832a1.73,1.73,0,0,1,.991-1.036,42.784,42.784,0,0,0,.135-5.3c.085-.462.177-.921.281-1.375,1.5,1.221,2.527,2.912,4.015,4.157,2.385,6.6,2.181,13.948.462,20.691-.705,1.741,2.747,1.26,2.027,3.036-.512,2.054-3.049,2.046-4.339,3.291a40.123,40.123,0,0,1-7.906,10.992,40.871,40.871,0,0,1-21.23,10.954c-7.282-1.4-13.367-6.8-16.5-13.4a26.068,26.068,0,0,1-3.086-13.412,8.967,8.967,0,0,1,.528-2.162,24.567,24.567,0,0,0,6.123,2.489c4.682-9.891,9.232-19.906,12.345-30.42m14.256,12.119a22.478,22.478,0,0,0,2.239,2.207c-1.175,3.156-2.073,6.581-1.6,9.964,0,.69.76,1.438,1.349.763,1.815-1.976,2.385-4.754,2.982-7.294.285-2.042.89-4.354-.138-6.273-.906-.412-1.334.709-1.85,1.213a7.307,7.307,0,0,1-2.388-1.24c-.2.216-.4.435-.59.659m-10.622,33.413c.05,2.185.535,4.681,2.469,6,1.657,1.118,3.776.671,5.522.02a30.932,30.932,0,0,0,8.539-5.317,5.628,5.628,0,0,0,2.049-2.493,16.964,16.964,0,0,1-7.058-1.164c-3.568-1.441-6.307-4.3-8.466-7.406A18.7,18.7,0,0,0-2269.073,3646.173Z" transform="translate(2291.749 -3600.641)" fill="#ffb988"/>
        <path id="Path_168264" data-name="Path 168264" d="M-2230.982,3678.738c2.748-1.556,5.237-3.564,8.069-4.958,1.606.732,2.408,2.439,3.352,3.834-2.25.343-4.5.732-6.758.979a4.431,4.431,0,0,0-2.2.62c3.707.439,7.313-1.183,11-.925,1.325.874,2.15,2.3,3.321,3.356a22.165,22.165,0,0,0,8.258,5.1,4.826,4.826,0,0,1-3.838,1.73,15.747,15.747,0,0,1-7.541-3.013c-.771-1-.805-2.373-1.194-3.544-2.806.539-5.506,1.471-8.265,2.185a5.71,5.71,0,0,0-2.469,1.032c3.537-.185,6.792-1.807,10.249-2.462.794,2.848,1.449,5.822,3.14,8.3a36.825,36.825,0,0,0,2.716,3.183,3.268,3.268,0,0,1-3.167.986,6.455,6.455,0,0,1-5.178-3.941c-.52-1.041-.486-2.409-1.368-3.221-2.056-.493-3.278,1.587-4.916,2.4-2.255.3-4.393,1.155-6.655,1.406a30,30,0,0,1-7.984-.108c-2.408-.35-4.669-1.28-7.028-1.834.085.54.174,1.087.261,1.63-4.85,1.865-9.774,3.542-14.691,5.229a77.759,77.759,0,0,1-7.452,2.224c-.728.216-1.152-.571-1.5-1.056-1.776-2.89-3.333-5.91-5.075-8.815a25.5,25.5,0,0,1-3.274-7.964c-.108-.921-.223-2.331.921-2.628,1.518.547,2.358,2.077,3.664,2.955,1.746,3.6,3.379,7.371,6.122,10.35.814.729,1.893,1.534,3.044,1.041,6.6-2.239,13.055-4.944,19.732-6.959C-2241.69,3684.675-2236.187,3681.852-2230.982,3678.738Z" transform="translate(2291.055 -3605.468)" fill="#ffb988"/>
        <path id="Path_168265" data-name="Path 168265" d="M-2255.223,3737.665c.99-2.384,2.027-4.939,4.346-6.338,2,4.373,2.089,9.3,2.058,14.021a81.065,81.065,0,0,1-1.117,12.183C-2251.066,3750.778-2252.279,3743.9-2255.223,3737.665Z" transform="translate(2289.338 -3609.266)" fill="#ffb988"/>
      </g>
      <g id="_818188ff" data-name="#818188ff" transform="translate(-2168.256 3602.286)">
        <path id="Path_168266" data-name="Path 168266" d="M-2136.4,3605.152a28.765,28.765,0,0,1,16.249,3.98A28.457,28.457,0,0,1-2108,3623.627a28.752,28.752,0,0,1-1.314,23.23A29.505,29.505,0,0,1-2119.467,3658a19.759,19.759,0,0,1-1.387-2.173,26.19,26.19,0,0,0,10.365-12.48,26.027,26.027,0,0,0,.5-17.774,25.925,25.925,0,0,0-9.647-13.093,26.169,26.169,0,0,0-16.681-4.813C-2136.344,3606.828-2136.375,3605.988-2136.4,3605.152Z" transform="translate(2155.282 -3605.115)" fill="#818188"/>
        <path id="Path_168267" data-name="Path 168267" d="M-2142.858,3616.427a22.239,22.239,0,0,1,16.58,6.072,22.186,22.186,0,0,1,6.928,15.078,22.236,22.236,0,0,1-10.4,19.948q-.665-1.07-1.318-2.131a19.9,19.9,0,0,0,8.916-13.2,19.862,19.862,0,0,0-4.034-15.9,19.891,19.891,0,0,0-16.545-7.363C-2142.773,3618.1-2142.815,3617.262-2142.858,3616.427Z" transform="translate(2155.708 -3605.859)" fill="#818188"/>
        <path id="Path_168268" data-name="Path 168268" d="M-2078.748,3626.005a22.394,22.394,0,0,1,19.608-9.579q-.064,1.248-.127,2.509a19.885,19.885,0,0,0-14.295,5,19.835,19.835,0,0,0-6.4,17.505,19.781,19.781,0,0,0,9,13.917c-.4.74-.825,1.464-1.271,2.177a22.251,22.251,0,0,1-9.868-13.8A22.381,22.381,0,0,1-2078.748,3626.005Z" transform="translate(2151.737 -3605.858)" fill="#818188"/>
        <path id="Path_168269" data-name="Path 168269" d="M-2150.4,3625.342a18.331,18.331,0,0,1,14.056,5.425,18.261,18.261,0,0,1,4.847,16.557,18.52,18.52,0,0,1-8.111,11.663q-.716-1.063-1.352-2.17a15.734,15.734,0,0,0,7.259-11.712,15.705,15.705,0,0,0-4.42-12.55,15.826,15.826,0,0,0-12.118-4.7Q-2150.322,3626.6-2150.4,3625.342Z" transform="translate(2156.206 -3606.448)" fill="#818188"/>
        <path id="Path_168270" data-name="Path 168270" d="M-2064.757,3630.2a18.373,18.373,0,0,1,13.474-4.858c-.062.84-.123,1.676-.185,2.52a15.855,15.855,0,0,0-11.694,4.3,15.708,15.708,0,0,0-4.724,13.763,15.8,15.8,0,0,0,7.159,10.9c-.424.736-.878,1.452-1.356,2.157a18.45,18.45,0,0,1-8.08-11.57A18.238,18.238,0,0,1-2064.757,3630.2Z" transform="translate(2150.938 -3606.448)" fill="#818188"/>
        <path id="Path_168271" data-name="Path 168271" d="M-2156.616,3633.606a14.312,14.312,0,0,1,11.166,4.489,14.212,14.212,0,0,1,1.819,16.969,16.067,16.067,0,0,1-4.536,4.754,19,19,0,0,1-1.41-2.161,11.811,11.811,0,0,0,5.414-10.839,11.724,11.724,0,0,0-7.093-9.771,12.645,12.645,0,0,0-5.229-.933C-2156.531,3635.278-2156.573,3634.442-2156.616,3633.606Z" transform="translate(2156.616 -3606.994)" fill="#818188"/>
        <path id="Path_168272" data-name="Path 168272" d="M-2056.98,3639.323a14.411,14.411,0,0,1,12.214-5.725c-.05.84-.1,1.676-.134,2.52a12,12,0,0,0-7.4,2.13,11.683,11.683,0,0,0-4.817,11.324,11.707,11.707,0,0,0,5.31,8.061,18.913,18.913,0,0,1-1.414,2.188,15.486,15.486,0,0,1-5.344-6.319A14.238,14.238,0,0,1-2056.98,3639.323Z" transform="translate(2150.224 -3606.993)" fill="#818188"/>
      </g>
      <g id="_818189ff" data-name="#818189ff" transform="translate(-2111.927 3602.288)">
        <path id="Path_168273" data-name="Path 168273" d="M-2081.859,3608.866a28.672,28.672,0,0,1,15.809-3.71c-.042.836-.08,1.668-.123,2.508a26.183,26.183,0,0,0-16.661,4.824,26,26,0,0,0-10.31,15.5,26.007,26.007,0,0,0,2.258,17.736,26.257,26.257,0,0,0,9.274,10.114c-.431.736-.886,1.46-1.371,2.165a29.152,29.152,0,0,1-10.789-12.449,28.725,28.725,0,0,1-.343-22.8A28.449,28.449,0,0,1-2081.859,3608.866Z" transform="translate(2096.306 -3605.116)" fill="#818189"/>
      </g>
      <g id="_ab512dff" data-name="#ab512dff" transform="translate(-2263.149 3604.096)">
        <path id="Path_168274" data-name="Path 168274" d="M-2258.214,3607.257a15.65,15.65,0,0,1,10.47,2.212c-2.22.662-4.566.173-6.8-.162A6.41,6.41,0,0,1-2258.214,3607.257Z" transform="translate(2258.214 -3607.052)" fill="#004280"/>
      </g>
      <g id="_78310aff" data-name="#78310aff" transform="translate(-2264.917 3604.3)">
        <path id="Path_168275" data-name="Path 168275" d="M-2260.107,3607.652c.586-.135,1.179-.258,1.768-.381a6.41,6.41,0,0,0,3.669,2.049c2.234.335,4.58.824,6.8.162l.154-.038a14.988,14.988,0,0,1,1.634,1.576c-3.711.316-7.444.212-11.158.4A11.174,11.174,0,0,1-2260.107,3607.652Z" transform="translate(2260.107 -3607.271)" fill="#002e59"/>
      </g>
      <g id="_ec975dff" data-name="#ec975dff" transform="translate(-2267.426 3605.005)">
        <path id="Path_168276" data-name="Path 168276" d="M-2262.793,3609.062c.582-.35,1.171-.7,1.761-1.036.6.851,1.221,1.692,1.9,2.486l-.077.135c-.259.435-.52.87-.775,1.314a15.576,15.576,0,0,1-2.585-2.625Z" transform="translate(2262.793 -3608.026)" fill="#ec975d"/>
      </g>
      <g id="_38120dff" data-name="#38120dff" transform="translate(-2261.173 3609.505)">
        <path id="Path_168277" data-name="Path 168277" d="M-2256.1,3613.565c.19-.224.39-.444.59-.659a7.307,7.307,0,0,0,2.388,1.24c.517-.5.944-1.625,1.85-1.213,1.028,1.918.423,4.231.138,6.273-.6,2.54-1.167,5.317-2.982,7.294-.589.674-1.353-.073-1.349-.763-.47-3.383.428-6.808,1.6-9.964a22.478,22.478,0,0,1-2.239-2.207m4.563,1.167c-.814,1.059-1.426,2.74-.774,3.96.882-.207.99-1.467,1.217-2.212C-2251.081,3615.911-2250.73,3614.875-2251.535,3614.732Z" transform="translate(2256.098 -3612.844)" fill="#38120d"/>
      </g>
      <g id="_fefbfdff" data-name="#fefbfdff" transform="translate(-2257.658 3611.394)">
        <path id="Path_168278" data-name="Path 168278" d="M-2251.287,3614.866c.8.142.455,1.179.443,1.749-.227.744-.335,2-1.217,2.212C-2252.713,3617.605-2252.1,3615.925-2251.287,3614.866Z" transform="translate(2252.335 -3614.866)" fill="#fefbfd"/>
      </g>
      <g id="_38130bff" data-name="#38130bff" transform="translate(-2301.618 3619.413)">
        <path id="Path_168279" data-name="Path 168279" d="M-2299.4,3623.528c1.122-.027,2.554-.362,3.375.631.474,1.238-1.064,1.807-1.791,2.486.593.783,1.637,1.16,2.022,2.1a15.393,15.393,0,0,1-3.055-2.088c.7-.909,1.892-1.425,2.13-2.647C-2297.609,3623.844-2298.6,3624.036-2299.4,3623.528Z" transform="translate(2299.401 -3623.452)" fill="#38130b"/>
        <path id="Path_168280" data-name="Path 168280" d="M-2267.471,3648.657a18.7,18.7,0,0,1,3.055-10.365c2.158,3.1,4.9,5.965,8.466,7.406a16.964,16.964,0,0,0,7.058,1.164,5.628,5.628,0,0,1-2.049,2.493,30.932,30.932,0,0,1-8.539,5.317c-1.746.651-3.865,1.1-5.522-.02-1.934-1.314-2.419-3.811-2.469-6m.725,1.545a5.2,5.2,0,0,0,2.754,4.316c2.047.609,4.077-.3,5.923-1.1a29.621,29.621,0,0,0,5.44-3.452,9.023,9.023,0,0,0,2.624-2.516,16.951,16.951,0,0,1-6.354-1.36,15.653,15.653,0,0,0-2.312-.948l-.042-.177a21.978,21.978,0,0,1-5.695-5.6A18,18,0,0,0-2266.746,3650.2Z" transform="translate(2297.294 -3624.431)" fill="#38130b"/>
        <path id="Path_168281" data-name="Path 168281" d="M-2223.958,3670.481c.713-.4,1.549-1.133,2.4-.625,1.6.937,2.508,2.655,3.406,4.215a3.057,3.057,0,0,1,2.986,1.268,21.712,21.712,0,0,0,10.45,7.343c.146,1.18-.879,1.869-1.711,2.467.605.374,1.891.463,1.691,1.449a4.514,4.514,0,0,1-4.335,2.265,18.276,18.276,0,0,1-7.46-2.705,14.37,14.37,0,0,0,3.827,6.354,5.428,5.428,0,0,1,.909,1c.108,1.071-.967,1.741-1.876,1.949a7.357,7.357,0,0,1-6.007-1.76c-1.622-1.372-2.016-3.545-2.689-5.444-1.195-.15-1.977.816-2.871,1.418a25.984,25.984,0,0,1-11.933,5,12.824,12.824,0,0,1-8.156-1.775c-6.45,2.215-12.866,4.565-19.455,6.338.078-.166.235-.5.316-.667,5.738-1.7,11.405-3.633,17.065-5.579a7.4,7.4,0,0,0,1.742-.941,13.592,13.592,0,0,0,6.2,2.069c4.451.2,8.766-1.59,12.415-4.014,1.637-.81,2.859-2.89,4.916-2.4.883.813.848,2.181,1.368,3.221a6.455,6.455,0,0,0,5.178,3.941,3.268,3.268,0,0,0,3.167-.986,36.825,36.825,0,0,1-2.716-3.183c-1.691-2.482-2.346-5.456-3.14-8.3-3.457.655-6.712,2.277-10.249,2.462a5.71,5.71,0,0,1,2.469-1.032c2.759-.714,5.459-1.646,8.265-2.185.389,1.171.423,2.542,1.194,3.544a15.747,15.747,0,0,0,7.541,3.013,4.826,4.826,0,0,0,3.838-1.73,22.165,22.165,0,0,1-8.258-5.1c-1.171-1.052-2-2.481-3.321-3.356-3.687-.259-7.294,1.364-11,.925a4.431,4.431,0,0,1,2.2-.62c2.261-.247,4.508-.636,6.758-.979-.944-1.4-1.746-3.1-3.352-3.834-2.832,1.395-5.321,3.4-8.069,4.958-5.205,3.114-10.708,5.938-16.71,7.105-6.677,2.016-13.127,4.72-19.732,6.959-1.151.493-2.23-.312-3.044-1.041.435-.092.875-.181,1.314-.266.038.162.111.486.146.647,1.583.235,3.013-.62,4.466-1.083,5.517-1.976,10.97-4.157,16.576-5.861,8.916-1.734,16.518-6.985,24.062-11.736,1.688-1.249,2.643,1.556,4.347,1.086-.859-1.487-1.73-3.178-3.337-3.969a26.06,26.06,0,0,0-3.864,2.315c-6.524,4.22-13.394,8.265-21.1,9.818-5.752,1.907-11.358,4.246-17.2,5.876-2.154-4.917-3.718-10.069-5.772-15.023-.034-.686-.042-1.376-.049-2.058,2.176,5.386,3.991,10.912,6.18,16.291,5.682-1.645,11.157-3.907,16.764-5.768,8.584-1.7,16.025-6.592,23.249-11.281m4.438,4.446q.682,1.115,1.341,2.25a3.346,3.346,0,0,1,2.975,1.272,24.269,24.269,0,0,0,7.733,6.387,4.53,4.53,0,0,0,2.154-1.679,20.438,20.438,0,0,1-9.074-5.937,16.044,16.044,0,0,0-2.277-2.351A7.326,7.326,0,0,0-2219.52,3674.927Z" transform="translate(2297.47 -3626.503)" fill="#38130b"/>
        <path id="Path_168282" data-name="Path 168282" d="M-2229.554,3705.766c.185-.031.559-.089.744-.119l-.1.655c-.089,1.207-.047,2.417-.027,3.626,21.334-.031,42.669.02,64-.022.04.2.112.589.147.786-.548-.058-1.095-.1-1.641-.123-.047,20.707.073,41.417-.058,62.122-20.337-.022-40.673.054-61.005-.038q-.036-31.018,0-62.042c-.694-.011-1.383-.019-2.07-.026-.007-1.607-.065-3.214.016-4.817m2.716,4.824c-.046,1.017-.058,2.042-.019,3.067.062,19.465-.085,38.935.073,58.4,19.886-.065,39.776-.02,59.66-.023.031-19.462-.023-38.92.027-58.382.031-1.021.027-2.038.007-3.055Q-2196.963,3710.6-2226.838,3710.591Z" transform="translate(2294.794 -3628.876)" fill="#38130b"/>
        <path id="Path_168283" data-name="Path 168283" d="M-2249.914,3729.061c.1-.135.312-.408.417-.547,1.634,2.963,2.069,6.388,2.335,9.705a82.764,82.764,0,0,1-1.087,18.3c4.713-1.977,8.994-5.4,14.237-5.81a3.935,3.935,0,0,1,4.081,4.026c.412,1.741-1.068,2.928-1.807,4.3-1.179,1.63-3.318,2.061-5.178,2.4a27.577,27.577,0,0,1-10.966-.686,6.733,6.733,0,0,1-2.473-1.322c-1.448-8.257-2.7-16.822-6.909-24.212l.42-.316c.512.843,1.025,1.7,1.487,2.569,2.944,6.235,4.157,13.113,5.286,19.866a81.065,81.065,0,0,0,1.117-12.183c.031-4.72-.062-9.648-2.058-14.021-.062-.161-.185-.477-.247-.636l.444-.377c2.007,3.5,2.331,7.61,2.538,11.548.259,4.67-.339,9.324-.631,13.978a73.655,73.655,0,0,0,1.209-15.122c-.1-3.9-.486-7.915-2.216-11.471m11.667,23.4c1.364.751,3.159-.458,4.65.292,1.737.482,2.181,2.377,2.651,3.872.84-1.742.181-4.393-1.76-5.086a8.7,8.7,0,0,0-5.541.921m-7.818,3.806a4.03,4.03,0,0,0-1.083.8c2.393-1.017,4.593-2.454,7.032-3.383.555-.274,1.349-.362,1.514-1.072-2.585,1.006-4.974,2.44-7.464,3.657m6.809-2.154a13.489,13.489,0,0,1-.3,4.123c-.047.536-.613.609-1.026.74-2.827.632-5.744.332-8.6.463.189.062.573.177.767.234,1.341,1.033,3.151,1.029,4.758,1.291,3.441.266,7.155.366,10.3-1.26,2.7-1.329,1.851-5.949-.981-6.581a13.213,13.213,0,0,0-4.913.99m-9.271,4.608a30.35,30.35,0,0,0,8.312-.535,16.65,16.65,0,0,0,.312-3.807c-2.967,1.253-5.769,2.855-8.624,4.342m-.562-.327c.535-.123.443-1.087-.069-1.16C-2249.763,3757.311-2249.705,3758.39-2249.089,3758.4Z" transform="translate(2296.62 -3630.385)" fill="#38130b"/>
      </g>
      <g id="_ed6665ff" data-name="#ed6665ff" transform="translate(-2271.176 3634.343)">
        <path id="Path_168284" data-name="Path 168284" d="M-2266.7,3650.278a18,18,0,0,1,2.339-10.842,21.978,21.978,0,0,0,5.695,5.6l.042.177a18.146,18.146,0,0,1,.6,8.276c-1.846.8-3.876,1.711-5.923,1.1A5.2,5.2,0,0,1-2266.7,3650.278Z" transform="translate(2266.808 -3639.436)" fill="#ed6665"/>
      </g>
      <g id="_3d3d3dff" data-name="#3d3d3dff" transform="translate(-2321.641 3639.59)">
        <path id="Path_168285" data-name="Path 168285" d="M-2167.179,3645.44c2.019-1.36,4.6,1.152,4.111,3.287-2.381,11.8-4.608,23.638-6.973,35.444-.89,4.234-1.515,8.534-2.6,12.727-.181.913.716,1.795.274,2.689a3.857,3.857,0,0,1-3.187,1.661c-14.637-.035-29.275,0-43.913-.011-1.452-.047-3.344-.181-4.1-1.63-.575-1.75,1.3-3.179,2.917-2.991,14.194,0,28.389-.062,42.584.031-.177-2.669.8-5.22,1.148-7.841q3.78-19.309,7.579-38.607C-2169.024,3648.507-2168.882,3646.361-2167.179,3645.44Z" transform="translate(2314.426 -3645.054)" fill="#3d3d3d"/>
        <path id="Path_168286" data-name="Path 168286" d="M-2290.27,3742.362h1.294c-.007.266-.027.8-.035,1.067a19.111,19.111,0,0,1,3.733.2c-.065,3.39.081,6.792-.069,10.183-1.025.609-2.439.154-3.623.274q-.011,1.225-.015,2.454c6.119.093,12.237.023,18.352.135a3.273,3.273,0,0,1,2.778,2.112,15.4,15.4,0,0,1,.875,6.361,5.242,5.242,0,0,1,4.366,3.341,4.989,4.989,0,0,1-3.3,6.434,5,5,0,0,1-6.242-3.806,5.028,5.028,0,0,1,3.872-5.837,17.248,17.248,0,0,0-.462-5.3c-.285-1.013-1.048-2.1-2.223-2.045-9.062-.108-18.125-.089-27.187-.135-.027,2.455.015,4.906.053,7.356a5.611,5.611,0,0,1,3.515,2.269,5,5,0,0,1-1.834,7.128,4.983,4.983,0,0,1-6.708-2.116,4.942,4.942,0,0,1,2.4-6.785c.419-.239,1.009-.254,1.329-.6.046-2.416-.054-4.828-.058-7.24-4.119-.023-8.242.031-12.361.081-.839-.008-1.865.043-2.312.886-1.183,1.911-1.113,4.258-1.052,6.423a5.064,5.064,0,0,1,4.172,5.934,4.977,4.977,0,0,1-6.638,3.656,4.992,4.992,0,0,1-2.682-6.8,5.292,5.292,0,0,1,3.865-2.813c-.1-2.315-.073-4.792,1.079-6.87a3.028,3.028,0,0,1,2.759-1.657c4.389-.127,8.78-.1,13.169-.107.081-.825-.169-2.37,1.125-2.216,2.767.334,5.355,1.471,8.041,2.165.007-.8.007-1.6.007-2.4a14.347,14.347,0,0,1-3.583-.174,99.385,99.385,0,0,1-.007-10.334,17.121,17.121,0,0,1,3.586-.138c0-.27.016-.817.023-1.091m-2.435,2.436c-.02,2.651,0,5.3.008,7.956,2.05.208,4.115.051,6.172.1-.027-2.724,0-5.449-.027-8.173-2.05.08-4.108-.089-6.153.116m-5.471,11.752c1.113,0,2.227.007,3.336-.039a32.374,32.374,0,0,0-3.233-.943c-.035.323-.073.651-.1.983m-18.067,12.545c-1.421.439-.6,2.67.755,2.138,1.4-.416.6-2.724-.755-2.138m48.591-.016c-1.437.413-.636,2.7.731,2.162,1.407-.436.625-2.682-.731-2.162m-31.734.161c-1.245.779.22,2.848,1.34,1.811C-2296.835,3770.262-2298.292,3768.281-2299.386,3769.24Z" transform="translate(2320.839 -3651.477)" fill="#3d3d3d"/>
      </g>
      <g id="_bd383dff" data-name="#bd383dff" transform="translate(-2262.995 3640.122)">
        <path id="Path_168287" data-name="Path 168287" d="M-2258.049,3645.624a15.653,15.653,0,0,1,2.312.948,16.951,16.951,0,0,0,6.354,1.36,9.023,9.023,0,0,1-2.624,2.516,29.621,29.621,0,0,1-5.44,3.452A18.146,18.146,0,0,0-2258.049,3645.624Z" transform="translate(2258.049 -3645.624)" fill="#bd383d"/>
      </g>
      <g id="_79300bff" data-name="#79300bff" transform="translate(-2331.995 3649.046)">
        <path id="Path_168288" data-name="Path 168288" d="M-2323.491,3665.046c.551-3.275.279-6.681,1.291-9.868a15.331,15.331,0,0,1,1.923,4.623c.794,2.855,1.753,5.665,2.366,8.566-.616.223-1.818.169-1.8,1.079-.142,3.741.047,7.487-.011,11.231-.8-.289-1.6-.573-2.4-.863.632-5.494,1.306-11.077.517-16.591a86.575,86.575,0,0,1-1.911,9.964,40.452,40.452,0,0,1-8.408-2.466c.189-.27.377-.532.562-.8a62.292,62.292,0,0,0,6.408-.178C-2323.8,3668.5-2323.791,3666.634-2323.491,3665.046Z" transform="translate(2331.925 -3655.178)" fill="#002e59"/>
      </g>
      <g id="_a12216ff" data-name="#a12216ff" transform="translate(-2305.046 3654.791)">
        <path id="Path_168289" data-name="Path 168289" d="M-2291.822,3661.329a62.734,62.734,0,0,0,9.671,1.445,66.839,66.839,0,0,0,9-.359c.051,2.532.073,5.067-.012,7.6-3.452.093-6.634-1.36-9.917-2.165-.963-1.742-2.331-3.649-4.462-3.9-1.052-.073-1.465,1.156-1.557,2-.042,2.694,1.087,5.214,1.93,7.718a232.513,232.513,0,0,0,10.2,24.1c.242.516.466,1.041.7,1.564a20.861,20.861,0,0,1-5.247-5.044c-2.157-2.625-4.015-5.471-6.127-8.13a36.953,36.953,0,0,0-6.812.239c-.713.154-1.708.328-1.834,1.206a60.416,60.416,0,0,0-1.494,17.031,38.242,38.242,0,0,1-5.29-1.8c1.137-6.135,2.273-12.288,3.911-18.31,3.8.132,7.6.224,11.405.139C-2289.31,3676.926-2290.793,3669.163-2291.822,3661.329Z" transform="translate(2303.072 -3661.329)" fill="#0055ab"/>
      </g>
      <g id="_e8343fff" data-name="#e8343fff" transform="translate(-2299.809 3655.873)">
        <path id="Path_168290" data-name="Path 168290" d="M-2271.733,3662.492l.123,0a166.882,166.882,0,0,0,1.588,27.908,33.638,33.638,0,0,1-4.971-8.057c-2.355-4.748-4.03-9.81-6.67-14.415,3.283.805,6.465,2.258,9.917,2.165C-2271.66,3667.559-2271.682,3665.024-2271.733,3662.492Z" transform="translate(2296.422 -3662.488)" fill="#0068d1"/>
        <path id="Path_168291" data-name="Path 168291" d="M-2294.083,3688.148a36.953,36.953,0,0,1,6.812-.239c2.112,2.659,3.969,5.506,6.127,8.13a20.861,20.861,0,0,0,5.247,5.044c.667.45,1.334,1.11,2.212.99a32.9,32.9,0,0,0,4.57-.821c.432,1.815.878,3.63,1.479,5.4a62.353,62.353,0,0,1-21.816,1.167,52.488,52.488,0,0,1-7.463-1.314l-.5-.123a60.416,60.416,0,0,1,1.494-17.031C-2295.791,3688.476-2294.8,3688.3-2294.083,3688.148Z" transform="translate(2297.465 -3664.163)" fill="#0068d1"/>
        <path id="Path_168292" data-name="Path 168292" d="M-2296.138,3715.717a82.4,82.4,0,0,0,31.044-.111q.63,1.705,1.252,3.414a21.939,21.939,0,0,0-3.344-.933,54.1,54.1,0,0,0,4.955,2.994c.335,1.46.663,3.217-.513,4.407-2.053,2.062-5.12,2.509-7.879,2.855a60.222,60.222,0,0,1-14.9-.543c-2.185-.412-4.7-.508-6.316-2.243C-2294.292,3722.869-2295.5,3719.243-2296.138,3715.717Z" transform="translate(2297.377 -3665.994)" fill="#0068d1"/>
      </g>
      <g id="_650e0bff" data-name="#650e0bff" transform="translate(-2291.069 3655.677)">
        <path id="Path_168293" data-name="Path 168293" d="M-2272.035,3662.474l.658-.2c.12,2.82-.069,5.648.039,8.472.007.682.015,1.372.049,2.058a131.352,131.352,0,0,0,1.68,17.928c-.439.085-.879.174-1.314.266-2.743-2.979-4.377-6.751-6.122-10.35a126.237,126.237,0,0,0-5.625-12.295,8.229,8.229,0,0,0-2.932-3.3c-.536-.25-1.5-.52-1.6.332-.459,2.169.428,4.327,1.106,6.358,2.627,7.24,5.486,14.4,8.65,21.426a38.249,38.249,0,0,0,3.209,6.053c.431.64,1.3.428,1.938.39a62.158,62.158,0,0,0,6.639-1.534c-.08.166-.238.5-.316.667a14.486,14.486,0,0,1-1.93.6,94,94,0,0,0,5.707,16.665,53.349,53.349,0,0,0,8.33,5.221,16.565,16.565,0,0,1,3.04,1.761c-.224.393-.458.774-.709,1.152-.1.138-.312.412-.417.547-.3.355-.6.714-.9,1.067l-.444.377c-1.837,1.5-3.664,3.013-5.586,4.4l-.42.316c-.189.054-.571.169-.763.227-.107-.478-.219-.952-.343-1.422.208.127.624.377.832.505,2.879-2.019,5.838-4.135,7.9-7.021-3.391-1.777-6.7-3.7-10.029-5.583a54.1,54.1,0,0,1-4.955-2.994,21.939,21.939,0,0,1,3.344.933q-.619-1.711-1.252-3.414c-.89-2.347-1.668-4.736-2.455-7.121-.6-1.773-1.048-3.587-1.479-5.4a32.9,32.9,0,0,1-4.57.821c-.878.12-1.545-.54-2.212-.99-.235-.524-.459-1.048-.7-1.564a232.513,232.513,0,0,1-10.2-24.1c-.843-2.5-1.972-5.024-1.93-7.718.092-.847.505-2.076,1.557-2,2.131.254,3.5,2.161,4.462,3.9,2.64,4.6,4.315,9.667,6.67,14.414a33.629,33.629,0,0,0,4.971,8.057A166.879,166.879,0,0,1-2272.035,3662.474Z" transform="translate(2288.107 -3662.278)" fill="#650e0b"/>
      </g>
      <g id="_016e85ff" data-name="#016e85ff" transform="translate(-2319.35 3662.724)">
        <path id="Path_168294" data-name="Path 168294" d="M-2318.386,3670.258a7.339,7.339,0,0,1,6,.466c.639,1,.613,2.273.886,3.406q5.108,26.43,10.171,52.867c.093.347.2.694.317,1.037,8.269-.235,16.545-.011,24.817.062,4.115.374,8.3.2,12.348,1.129a1.305,1.305,0,0,1,.991,1.086,20.778,20.778,0,0,1,.809,5.791c-.4-.1-1.013.093-1.206-.4a44.69,44.69,0,0,1-1.546-4.258c-14.225-.435-28.443-1.14-42.672-1.561.778-.943,1.776-1.679,2.554-2.616-.458-4.134-1.338-8.226-1.919-12.348-2.092-12.792-4.138-25.593-6.242-38.385a15.688,15.688,0,0,0-.732-3.564c-1.46-.593-3.021-.89-4.52-1.371C-2318.339,3671.268-2318.37,3670.594-2318.386,3670.258Z" transform="translate(2318.386 -3669.823)" fill="#03a67f"/>
      </g>
      <g id="_eb965cff" data-name="#eb965cff" transform="translate(-2274.25 3663.221)">
        <path id="Path_168295" data-name="Path 168295" d="M-2226.023,3672.67a26.06,26.06,0,0,1,3.864-2.315c1.607.79,2.478,2.482,3.337,3.969-1.7.47-2.659-2.335-4.347-1.086-7.544,4.75-15.146,10-24.062,11.736-5.606,1.7-11.059,3.885-16.576,5.861-1.452.462-2.882,1.318-4.466,1.083-.035-.162-.108-.485-.146-.647a131.352,131.352,0,0,1-1.68-17.928c2.054,4.955,3.618,10.107,5.772,15.023,5.845-1.63,11.451-3.969,17.2-5.876C-2239.417,3680.936-2232.547,3676.89-2226.023,3672.67Z" transform="translate(2270.099 -3670.355)" fill="#eb965c"/>
      </g>
      <g id="_339fa2ff" data-name="#339fa2ff" transform="translate(-2319.288 3664.504)">
        <path id="Path_168296" data-name="Path 168296" d="M-2318.32,3671.729c1.5.481,3.06.778,4.52,1.371a15.688,15.688,0,0,1,.732,3.564c2.1,12.792,4.15,25.593,6.242,38.385.582,4.123,1.461,8.214,1.919,12.348-.779.937-1.776,1.673-2.554,2.616,14.229.42,28.447,1.125,42.672,1.561a44.69,44.69,0,0,0,1.546,4.258c.192.489.805.3,1.206.4.089.185.265.551.354.732-2.346.6-4.8.193-7.186.143-16.264-.042-32.531.058-48.791-.02-.058-3.949.038-7.906-.216-11.852-.027-11.305-.177-22.609-.235-33.915C-2318.408,3684.795-2318.216,3678.26-2318.32,3671.729Z" transform="translate(2318.32 -3671.729)" fill="#03d6a3"/>
      </g>
      <g id="_eb955bff" data-name="#eb955bff" transform="translate(-2223.667 3667.647)">
        <path id="Path_168297" data-name="Path 168297" d="M-2215.942,3675.284a7.326,7.326,0,0,1,2.852-.058,16.044,16.044,0,0,1,2.277,2.351,20.438,20.438,0,0,0,9.074,5.938,4.53,4.53,0,0,1-2.154,1.679,24.269,24.269,0,0,1-7.733-6.387,3.346,3.346,0,0,0-2.975-1.272Q-2215.259,3676.4-2215.942,3675.284Z" transform="translate(2215.942 -3675.094)" fill="#eb955b"/>
      </g>
      <g id="_f9b846ff" data-name="#f9b846ff" transform="translate(-2305.535 3696.3)">
        <path id="Path_168298" data-name="Path 168298" d="M-2303.106,3705.771a38.242,38.242,0,0,0,5.29,1.8l.5.123c-.571.547-.324,1.356-.278,2.05.219,1.76.512,3.514.728,5.279-2.022-.406-3.983-1.053-5.979-1.55-.185-.963-.408-1.915-.613-2.866C-2303.831,3708.98-2303.342,3707.366-2303.106,3705.771Z" transform="translate(2303.595 -3705.771)" fill="#c9ac38"/>
      </g>
      <g id="_ffbb70ff" data-name="#ffbb70ff" transform="translate(-2235.788 3696.839)">
        <path id="Path_168299" data-name="Path 168299" d="M-2228.893,3709.974c-.02-1.209-.062-2.419.027-3.626q31.956.065,63.914.016c0,1.195-.031,2.393.058,3.587C-2186.224,3709.993-2207.559,3709.943-2228.893,3709.974Z" transform="translate(2228.92 -3706.348)" fill="#ffd947"/>
        <path id="Path_168300" data-name="Path 168300" d="M-2226.663,3714.224q29.88.005,59.76,0c-.05,19.462,0,38.92-.027,58.382-19.885,0-39.774-.042-59.66.023C-2226.748,3753.159-2226.6,3733.689-2226.663,3714.224Z" transform="translate(2228.771 -3706.868)" fill="#ffd947"/>
      </g>
      <g id="_fff582ff" data-name="#fff582ff" transform="translate(-2299.63 3698.218)">
        <path id="Path_168301" data-name="Path 168301" d="M-2297.18,3709.875c-.047-.694-.293-1.5.278-2.05a52.488,52.488,0,0,0,7.463,1.314,62.353,62.353,0,0,0,21.816-1.167c.786,2.385,1.564,4.774,2.455,7.121a82.4,82.4,0,0,1-31.044.111c-.058-.015-.177-.038-.239-.049C-2296.668,3713.389-2296.96,3711.636-2297.18,3709.875Z" transform="translate(2297.272 -3707.825)" fill="#ffd947"/>
      </g>
      <g id="_b08258ff" data-name="#b08258ff" transform="translate(-2233.704 3701.127)">
        <path id="Path_168302" data-name="Path 168302" d="M-2226.646,3710.94q29.875.046,59.749.008c.02,1.017.023,2.034-.007,3.055q-29.881.029-59.76,0C-2226.7,3712.982-2226.692,3711.957-2226.646,3710.94Z" transform="translate(2226.688 -3710.94)" fill="#c9ac38"/>
      </g>
      <g id="_a22216ff" data-name="#a22216ff" transform="translate(-2304.789 3703.998)">
        <path id="Path_168303" data-name="Path 168303" d="M-2302.8,3714.013c2,.5,3.957,1.144,5.979,1.55.062.011.181.034.239.049.64,3.526,1.845,7.152,4.3,9.841,1.615,1.734,4.131,1.831,6.316,2.243a60.222,60.222,0,0,0,14.9.543c2.759-.346,5.826-.794,7.879-2.855,1.176-1.191.848-2.948.513-4.407,3.332,1.88,6.639,3.806,10.029,5.583-2.065,2.886-5.024,5-7.9,7.021-.208-.128-.624-.378-.832-.505-.216-.558-.462-1.24-1.137-1.345a42.552,42.552,0,0,0-8.03-.943c-5.005-.359-10.026-.347-15.042-.378a128.6,128.6,0,0,0-13.51.031c-.709.123-.643-.829-.824-1.251C-2300.877,3724.127-2301.9,3719.08-2302.8,3714.013Z" transform="translate(2302.796 -3714.013)" fill="#0055ab"/>
      </g>
      <g id="_ea965dff" data-name="#ea965dff" transform="translate(-2261.842 3719.533)">
        <path id="Path_168304" data-name="Path 168304" d="M-2256.815,3735.051c1.922-1.392,3.749-2.906,5.586-4.4.062.159.185.475.247.636-2.319,1.4-3.356,3.954-4.346,6.338C-2255.79,3736.746-2256.3,3735.894-2256.815,3735.051Z" transform="translate(2256.815 -3730.646)" fill="#ea965d"/>
      </g>
      <g id="_66636cff" data-name="#66636cff" transform="translate(-2293.515 3732.796)">
        <path id="Path_168305" data-name="Path 168305" d="M-2290.718,3744.962c2.045-.2,4.1-.036,6.153-.116.031,2.724,0,5.448.027,8.173-2.057-.05-4.123.107-6.173-.1C-2290.714,3750.263-2290.737,3747.613-2290.718,3744.962Z" transform="translate(2290.725 -3744.846)" fill="#66636c"/>
      </g>
      <g id="_a6472cff" data-name="#a6472cff" transform="translate(-2243.244 3740.418)">
        <path id="Path_168306" data-name="Path 168306" d="M-2236.9,3754.081a8.7,8.7,0,0,1,5.541-.921c1.942.693,2.6,3.344,1.76,5.086-.47-1.5-.914-3.39-2.651-3.872C-2233.743,3753.623-2235.538,3754.832-2236.9,3754.081Z" transform="translate(2236.902 -3753.007)" fill="#a6472c"/>
      </g>
      <g id="_fdb888ff" data-name="#fdb888ff" transform="translate(-2253.524 3741.642)">
        <path id="Path_168307" data-name="Path 168307" d="M-2245.35,3757.974c2.489-1.217,4.878-2.651,7.464-3.657-.166.71-.959.8-1.514,1.072-2.439.929-4.639,2.366-7.032,3.383A4.03,4.03,0,0,1-2245.35,3757.974Z" transform="translate(2247.812 -3754.317)" fill="#fdb888"/>
        <path id="Path_168308" data-name="Path 168308" d="M-2247.909,3760.553c2.855-1.487,5.656-3.09,8.624-4.342a16.65,16.65,0,0,1-.312,3.807A30.35,30.35,0,0,1-2247.909,3760.553Z" transform="translate(2247.909 -3754.442)" fill="#fdb888"/>
      </g>
      <g id="_e3803cff" data-name="#e3803cff" transform="translate(-2254.186 3742.155)">
        <path id="Path_168309" data-name="Path 168309" d="M-2238.685,3755.856a13.213,13.213,0,0,1,4.913-.99,10.857,10.857,0,0,1-.736,4.489,4.315,4.315,0,0,1-3.533,2.393,54.9,54.9,0,0,1-9.81-.332c-.193-.058-.578-.172-.767-.234,2.859-.131,5.776.169,8.6-.463.413-.131.979-.2,1.026-.74A13.491,13.491,0,0,0-2238.685,3755.856Z" transform="translate(2248.618 -3754.866)" fill="#e3803c"/>
      </g>
      <g id="_a6492dff" data-name="#a6492dff" transform="translate(-2253.419 3742.155)">
        <path id="Path_168310" data-name="Path 168310" d="M-2233.718,3754.866c2.832.632,3.683,5.252.981,6.581-3.147,1.626-6.862,1.526-10.3,1.26-1.607-.262-3.417-.258-4.758-1.291a54.9,54.9,0,0,0,9.81.332,4.315,4.315,0,0,0,3.533-2.393A10.857,10.857,0,0,0-2233.718,3754.866Z" transform="translate(2247.797 -3754.866)" fill="#a6492d"/>
      </g>
      <g id="_fcfcfcff" data-name="#fcfcfcff" transform="translate(-2298.978 3743.681)">
        <path id="Path_168311" data-name="Path 168311" d="M-2296.575,3757.483c.031-.332.069-.66.1-.983a32.374,32.374,0,0,1,3.233.943C-2294.348,3757.49-2295.462,3757.483-2296.575,3757.483Z" transform="translate(2296.575 -3756.5)" fill="#fcfcfc"/>
      </g>
    </g>
  </g>
</svg>
